<?xml version="1.0" standalone="no"?>
<!DOCTYPE svg PUBLIC "-//W3C//DTD SVG 1.1//EN" "http://www.w3.org/Graphics/SVG/1.1/DTD/svg11.dtd" >
<svg xmlns="http://www.w3.org/2000/svg">
<metadata></metadata>
<defs>
<font id="girls_are_weirdregular" horiz-adv-x="378" >
<font-face units-per-em="2048" ascent="1638" descent="-410" />
<missing-glyph horiz-adv-x="417" />
<glyph horiz-adv-x="2048" />
<glyph horiz-adv-x="2048" />
<glyph unicode="&#xd;" horiz-adv-x="417" />
<glyph unicode=" "  horiz-adv-x="417" />
<glyph unicode="&#x09;" horiz-adv-x="417" />
<glyph unicode="&#xa0;" horiz-adv-x="417" />
<glyph unicode="!" horiz-adv-x="286" d="M61 150q0 18 7.5 36.5t19.5 34t27.5 24.5t31.5 9q31 0 72 -29q43 -29 43 -61q0 -35 -43 -64q-43 -27 -72 -26q-35 0 -60.5 20.5t-25.5 55.5zM61 1700l119 55l-12 -1360l-76 -16z" />
<glyph unicode="&#x22;" horiz-adv-x="325" d="M113 1317l88 -318l18 2l-20 390zM274 1415q0 -70 1 -134t1 -110q0 -53 1.5 -88.5t1.5 -58.5l18 -2l72 348z" />
<glyph unicode="#" horiz-adv-x="952" d="M0 377l387 -4l-10 -217l67 -17v45t2 43q2 41 3 76q0 35 2 70l149 -2l-8 -152l82 43v107l299 -2l18 82l-317 -9v105l248 4l-4 65l-244 -6l-2 207l-49 -8l-11 -201l-149 -4q2 14 2 43t2 70q0 8 1 16t1 17q2 29 2 51v39q0 23 -22 22h-11q-6 0 -14 -2h2q-2 0 -3 -1t-3 -1 l-10 -10l-13 -246l-338 -10l-10 -53l344 4l-4 -107l-387 -6zM455 436l4 105l149 4l-6 -105z" />
<glyph unicode="$" horiz-adv-x="866" d="M41 373q0 -72 86 -135q70 -51 141 -66l-6 -309h94l2 303h21q29 0 54.5 1t49.5 5l9 -258l69 4l-8 272q43 10 80 30t67 44q80 68 80 152q0 53 -37 123q-39 25 -90 47t-114 39l-4 176q16 -16 53 -17q111 0 239 136q39 102 39 176q0 66 -31.5 118t-93.5 95q-98 68 -227 80 l-8 219l-60 37l7 -256q-25 -2 -46.5 -7.5t-39.5 -11.5l2 336l-74 14l-6 -387q-86 -51 -164 -168q-84 -125 -84 -223v-22t4 -21q41 -121 80 -170q51 -70 151 -100l-8 -404q-92 25 -166 117q-2 2 -2 6q-2 4 -2 10q14 -14 43 -14q25 0 25 25q0 66 -74 67q-51 -14 -51 -63z M150 938q0 88 45 180q35 82 94 135l-13 -551q-46 29 -83 97q-43 72 -43 139zM358 213l2 395q14 -4 28.5 -8t31.5 -6q16 -4 28.5 -6t24.5 -4l10 -357q-49 -14 -100 -14h-25zM360 666l5 639q25 8 47 13t43 7l16 -684q-37 8 -66 14.5t-45 10.5zM516 1323q74 -8 156 -47v2 q100 -49 112 -113q8 -33 9 -104q0 -78 -35 -113q-12 -12 -34 -27.5t-54 -31.5v10q-4 8 -7.5 14.5t-13.5 8.5q-12 23 -47 22q-23 0 -42 -11t-30 -28zM539 567q139 -43 139 -127q0 -150 -127 -196z" />
<glyph unicode="%" horiz-adv-x="544" d="M0 993q0 -111 68 -110q90 0 92 127q133 8 262 71q-111 -211 -215.5 -475t-204.5 -586l66 -24q98 317 216.5 616t264.5 584q-123 -55 -222.5 -84t-183.5 -31q-18 41 -69 41q-74 0 -74 -129zM33 1004q0 55 37 55q23 0 22 -47q0 -45 -45 -45q-14 0 -14 37zM248 317 q0 -41 29.5 -70.5t70.5 -29.5q20 0 42 11.5t38 28.5t27.5 37.5t11.5 41.5q0 41 -37 71.5t-76 30.5q-18 0 -37.5 -11t-35 -28.5t-24.5 -39t-9 -42.5zM319 346q1 47 56 47q35 0 35 -47q0 -59 -45 -59t-46 59z" />
<glyph unicode="&#x26;" horiz-adv-x="911" d="M0 379q0 -156 104 -266q111 -111 263 -111q184 0 284 57q39 -45 65.5 -80.5t43.5 -60.5l-37 -4l-10 -51l213 10l10 64l-68 -9q-49 59 -84.5 102.5t-58.5 78.5q59 63 90 167q41 145 41 230q0 84 -41 158q-23 47 -55.5 69.5t-69.5 22.5q-76 0 -129 -54.5t-53 -132.5 q0 -55 72 -55q33 0 65 6q25 25 29 82q-27 25 -49 25q-37 0 -50 -56q-8 10 -8 29q0 29 39 66q39 35 72 34q129 0 129 -231q0 -219 -107 -319q-6 10 -10 15t-8 9l-2 2q0 2 -2 4v-2q-29 33 -58.5 65.5t-60.5 65.5q-31 35 -59.5 68t-59.5 65q-141 170 -194 303q74 80 120 138.5 t62 97.5l2 18v7q0 82 -115 81q-39 0 -77 -22q-47 -29 -56 -57q-23 -33 -31 -63t-8 -58q0 -12 6.5 -46t16.5 -89q-166 -205 -166 -373zM82 418q0 129 102 260q16 -41 58.5 -103.5t113.5 -150.5q35 -41 69 -84t69 -84q33 -41 64.5 -80t62.5 -80q-70 -35 -187 -35 q-158 0 -254 97q-98 102 -98 260zM213 899q0 53 29 94q29 47 84 47q14 0 32.5 -10t18.5 -22q0 -55 -60 -103q-25 -23 -48 -44t-46 -46q-10 47 -10 84z" />
<glyph unicode="'" d="M207 1157q0 -31 12 -59q16 -39 45 -39q10 0 31 10q2 -14 3 -25.5t1 -21.5q0 -74 -76 -164l17 -35q10 10 24.5 22.5t26.5 22.5l20.5 20.5t20.5 18.5q41 49 41 117q0 80 -25 199q-18 16 -35.5 21t-38.5 5q-68 0 -67 -92z" />
<glyph unicode="(" horiz-adv-x="555" d="M55 606q0 -379 269 -510v2q51 -25 99 -50t79 -42l14 68q-27 16 -61.5 35.5t-75.5 42.5q-207 106 -207 485q0 180 11.5 306t37.5 204q80 260 352 340q-20 16 -27 24.5t-14 14.5l-10 4q-279 -100 -391 -371q-76 -188 -76 -553z" />
<glyph unicode=")" horiz-adv-x="491" d="M-2 1483q188 -127 252 -355q49 -168 49 -446q0 -457 -133 -547q-23 -16 -42.5 -31.5t-31.5 -25.5q-2 -16 -4 -35.5t-6 -42.5q322 174 321 807q0 223 -88 407q-94 209 -272 308l-12 -2z" />
<glyph unicode="*" horiz-adv-x="630" d="M20 471l27.5 -27.5t24.5 -25.5l219 192l-10 -477l53 17l10 456l180 -166l72 64l-225 178l194 170l-35 63l-186 -172l12 621l-49 16l-14 -635l-217 173l-31 -44l221 -200q-98 -92 -162 -142.5t-84 -60.5z" />
<glyph unicode="+" horiz-adv-x="593" d="M162 580l153 12l-18 -230q66 -14 80 -14q35 0 35 27v45t-2 72q-2 35 -2 59v49l163 14l15 45l-176 -6q0 94 6 232h-72l-22 -234l-142 -6q0 -18 -18 -65z" />
<glyph unicode="," horiz-adv-x="299" d="M106 158q0 -35 15 -70q20 -47 51 -47q8 0 14 2q4 -16 4 -25q0 -49 -69 -118l2 -64q117 57 117 178q0 12 -3.5 32t-7.5 42q-10 37 -10 57l-6 13v2q-25 55 -57 55q-49 0 -50 -57z" />
<glyph unicode="-" horiz-adv-x="522" d="M6 512l14 -78l490 72l-23 115z" />
<glyph unicode="." horiz-adv-x="278" d="M78 121q0 -33 16 -66q20 -45 51 -45q51 0 52 58q0 33 -17 63q-20 43 -51 43q-51 0 -51 -53z" />
<glyph unicode="/" horiz-adv-x="483" d="M70 88l102 -57l367 1757l-58 20z" />
<glyph unicode="0" horiz-adv-x="784" d="M31 358q0 -174 67 -258q76 -94 246 -94q184 0 272 162q72 131 72 324q0 460 -248 460q-123 0 -250 -133v2q-160 -170 -159 -463zM119 309q0 193 74 371q92 221 249 221q121 0 160 -178q20 -88 21 -287q0 -102 -78 -215q-82 -125 -178 -125q-141 0 -191 37q-57 39 -57 176 z" />
<glyph unicode="1" horiz-adv-x="423" d="M59 1075l181 29l-52 -1065h-84l9 -45l280 4l6 55l-94 -4l41 1139l-280 -64z" />
<glyph unicode="2" horiz-adv-x="751" d="M25 645q0 -180 151 -180q219 0 219 174q0 90 -84 149q-43 -2 -43 -65q0 -55 31 -55q33 0 51 24q10 -23 10 -61q0 -23 -11 -44.5t-30.5 -38t-43 -26.5t-48.5 -10q-6 0 -14 1t-18 3q-94 61 -95 162q0 129 113 266t240 137q90 0 110 -49q25 -51 38 -90t13 -72 q0 -109 -65 -229v2q-23 -35 -59.5 -86t-90.5 -119q-51 -66 -85.5 -117t-57.5 -90l-127 -227l541 66q2 66 3 121t3 77h-55l-11 -147q-117 -8 -195.5 -13.5t-123.5 -7.5q23 111 121 234q78 104 119.5 160.5t48.5 66.5q88 145 88 316q0 96 -66 178q-74 84 -168 84 q-133 0 -272 -181q-137 -174 -137 -313z" />
<glyph unicode="3" horiz-adv-x="919" d="M0 324q0 -297 379 -297q115 0 188 36q158 78 236 205q68 121 67 299q0 100 -34 148q-135 170 -299 170q-43 0 -117 -13q-29 -6 -50.5 -9t-37.5 -7l323 338q-229 -16 -372.5 -28.5t-176.5 -16.5l-8 -12l31 -183h55l-18 82l289 35q-102 -98 -178 -171t-130 -122 q4 -16 7.5 -29.5t7.5 -29.5q219 121 377 121q43 0 131 -47q121 -66 121 -289q0 -180 -117 -295q-117 -111 -297 -111q-125 0 -211 52q-102 59 -103 176q0 63 37 114q39 63 95 64q16 0 30 -8q-31 -14 -30 -66q0 -20 10 -29l20 -22q74 4 74 55q0 47 -27 86q-31 41 -73 41 q-76 0 -144 -84q-55 -76 -55 -153z" />
<glyph unicode="4" horiz-adv-x="684" d="M-8 401l368 27l-4 -358q-37 -4 -62.5 -6.5t-41.5 -2.5l6 -63l332 47v64l-115 -19v348l94 6l4 -110l62 14l-14 277l-56 -19l4 -102l-94 -6v704zM123 473l242 467l-5 -451z" />
<glyph unicode="5" horiz-adv-x="847" d="M4 264q0 -78 90 -184q176 -61 256 -62q92 0 217 66q227 264 228 448q0 104 -70 197q-86 39 -162 56.5t-143 17.5q-68 0 -125 -13.5t-105 -41.5l46 231h505l-49 -141l35 4h8l19 6l57 199l-661 43l-68 -472q252 119 401 119q90 0 142 -67q47 -66 47 -158q0 -131 -60 -246 q-63 -125 -178 -170q-49 -20 -63 -20q-276 0 -277 188q0 86 72 164q68 76 160 76q31 0 30 -15v-16q0 -8 -2 -20q-2 -10 -3 -17.5t-1 -15.5h-10q-51 0 -51 -39q0 -14 2 -25q0 -4 1 -8t1 -6q16 -10 28.5 -15t26.5 -5q76 0 76 116q0 23 -10.5 45.5t-26.5 41t-36.5 29.5 t-41.5 11q-86 0 -194 -106q-111 -111 -111 -195z" />
<glyph unicode="6" horiz-adv-x="667" d="M16 264q0 -141 121 -203q123 -59 154 -59q154 0 256 100q106 100 106 256q0 125 -78 213q-76 88 -200 88q-147 0 -244 -137q29 121 58.5 196t54.5 109q51 66 80.5 104t40.5 46q33 27 59 27q25 0 25 -33v-8q-16 -2 -28.5 -16.5t-12.5 -26.5q0 -52 41 -52q68 0 67 41 q0 152 -78 152h-8l-10 -2q-170 -39 -297 -338q-106 -244 -107 -457zM100 266q0 53 19.5 105.5t56.5 109.5q82 123 174 123q182 0 182 -270t-192 -271q-240 0 -240 203z" />
<glyph unicode="7" horiz-adv-x="673" d="M8 0l326 23l6 55l-131 -8l498 901v96l-674 -18v-250h49l2 137h508l-508 -875l-76 -4v-57z" />
<glyph unicode="8" horiz-adv-x="829" d="M6 612q0 -168 180 -198q-49 -20 -94 -56q-41 -31 -58.5 -66.5t-17.5 -74.5q0 -96 61.5 -157.5t155.5 -61.5q164 0 285 70q145 90 146 241q0 109 -142 129q41 16 77 40t65 57q80 86 79 202q0 145 -81 236q-87 98 -226 98q-125 0 -278 -168q-152 -164 -152 -291zM109 180 q0 6 1 13.5t3 17.5q72 203 303 203q35 0 62.5 -10.5t56.5 -28.5q55 -43 55 -107q0 -96 -101 -159q-88 -55 -192 -56q-68 0 -121 31q-67 35 -67 96zM111 618q0 102 100 252q107 156 199 156q96 0 176 -92q82 -92 82 -186q0 -119 -105 -209q-104 -88 -221 -88q-129 0 -170 22 q-61 27 -61 145z" />
<glyph unicode="9" horiz-adv-x="731" d="M14 702q0 -63 17.5 -116.5t58.5 -98.5q80 -86 201 -86q147 0 244 138q-63 -242 -113 -303q-106 -137 -121 -150q-31 -27 -61 -27q-23 0 -23 33v8q43 0 43 43q0 52 -51 52q-57 0 -57 -41q0 -152 79 -152h5l8 2q178 41 301 340q104 250 104 461q0 133 -123 196 q-123 59 -151 60q-147 0 -256 -103q-53 -51 -79 -115.5t-26 -140.5zM137 729q0 270 189 270q242 0 241 -202q0 -100 -78 -215q-82 -123 -174 -123q-109 0 -151 84h2q-29 63 -29 186z" />
<glyph unicode=":" horiz-adv-x="268" d="M63 563q0 -33 17 -71q20 -47 51 -48q53 0 53 62q0 33 -14 72q-22 45 -53 45q-53 0 -54 -60zM80 131q0 -33 16 -72q23 -47 51 -47q53 0 54 62q0 37 -17 69q-22 47 -53 47q-51 0 -51 -59z" />
<glyph unicode=";" horiz-adv-x="294" d="M55 137q0 -14 2 -29.5t9 -29.5q14 -39 43 -39q16 0 32 8q2 -12 3 -23.5t1 -21.5q0 -74 -75 -168l18 -35q10 10 24.5 23.5t24.5 24t21.5 19.5t21.5 19q41 51 41 119q0 72 -28 203q-33 27 -70 26q-68 0 -68 -96zM66 567q0 -33 16 -71q20 -47 53 -47q53 0 53 61q0 33 -14 72 q-24 45 -55 45q-53 0 -53 -60z" />
<glyph unicode="&#x3c;" horiz-adv-x="468" d="M-2 553l383 -549l16 8l-284 535l368 653q-16 37 -37 45l-10 -4z" />
<glyph unicode="=" horiz-adv-x="870" d="M143 649l664 94v88q-186 -18 -324.5 -36.5t-220.5 -32.5q-98 -14 -98 -41q0 -25 -21 -72zM188 528l5 -63l512 86l18 90q-502 -82 -530 -104z" />
<glyph unicode="&#x3e;" horiz-adv-x="327" d="M-10 1284l237 -561l-186 -655l43 -78l252 762q-276 532 -295 561l-14 2z" />
<glyph unicode="?" horiz-adv-x="704" d="M-2 1225q0 -70 76 -115q63 -39 133 -39q16 0 34.5 10.5t34 25.5t25.5 33.5t10 35.5q0 16 -14 41q-30 10 -53 10q-27 0 -68 -31q-39 -27 -51 -27q-25 0 -47 31v-2q-16 33 -17 62q0 74 109 163q106 90 180 90q166 0 221 -61q61 -61 62 -233q0 -82 -31 -181 q-16 -55 -34.5 -94t-43.5 -61q-31 -31 -123 -74q-94 -43 -127 -74h2q-61 -57 -61 -153q0 -135 39 -187q47 -72 170 -71q76 0 115 22.5t75 85.5q14 23 15 45q0 102 -94 129q-23 0 -42.5 -19.5t-19.5 -37.5q0 -29 16 -47q8 -4 13.5 -5t11.5 -1q12 0 37 14q6 4 10 6l8 4 q18 -18 19 -39q0 -29 -33 -65q-37 -33 -63 -33q-209 0 -209 176q0 96 53 150q10 12 41 28.5t76 38.5q94 43 135 88q29 47 52.5 93.5t43.5 86.5q68 127 68 228q0 63 -68 182q-90 168 -297 168q-127 0 -260 -133q-129 -131 -129 -264zM299 84q0 -98 104 -98q102 0 103 98 q-1 102 -103 102q-104 0 -104 -102z" />
<glyph unicode="@" horiz-adv-x="985" d="M16 543q0 -498 303 -498q57 0 117 35q70 43 70 96q0 20 -21.5 36.5t-42.5 16.5q-23 0 -22 -34q0 -35 22 -48q-10 -10 -49 -28q-63 -29 -80 -29q-117 0 -176 127q-49 104 -49 238q0 104 26.5 218.5t80.5 248.5q127 307 292 307q104 0 204 -54.5t155 -144.5q8 -41 12 -79 t4 -79q0 -168 -49 -327q-66 -217 -188 -217q-29 0 -29 57q0 88 55.5 278.5t55.5 282.5q0 145 -179 146q-66 0 -127 -25q-90 -96 -131 -250q25 -100 131 -108q43 27 43 53q0 27 -20 53q-8 2 -15.5 3t-19.5 1q-16 0 -24 -16l2 -10q-14 4 -25.5 15t-11.5 23q0 35 37 105 q20 37 34.5 60.5t26.5 29.5q37 16 92 16q49 0 82 -18q43 -20 43 -59q0 -88 -35 -238q-12 -47 -25.5 -97t-25.5 -100q-4 -12 -4 -18q-55 72 -164 72q-72 0 -131 -39q-66 -47 -65 -117q0 -76 59 -119q57 -35 127 -35q96 0 151 48q10 -25 32 -44.5t44 -19.5q70 0 127 33 q96 49 152 264q41 160 41 295v78q-4 133 -150 248q-133 106 -274 106q-209 0 -361 -278q-127 -233 -127 -461zM274 422q0 43 32 75.5t77 32.5q113 0 158 -67q-6 -33 -10.5 -55.5t-4.5 -34.5q-36 -45 -106 -45q-145 0 -146 94zM446 145h3h-3z" />
<glyph unicode="A" horiz-adv-x="874" d="M4 2l358 18v56l-98 -4l162 518l229 22l64 -358l-117 -4l-18 -49l325 12v55l-131 -8q-102 602 -155.5 914.5t-57.5 338.5h-18l-418 -1445l-106 -5zM442 645l129 481q18 -139 37 -250.5t35 -195.5z" />
<glyph unicode="B" horiz-adv-x="897" d="M2 1497q47 14 131 16q0 -113 3 -292t7 -428q4 -195 6.5 -352.5t2.5 -280.5v-127l-136 2l-2 -55h342q27 0 189 24q139 25 229 94q113 90 113 221q0 14 -27 127q-70 348 -479 410q301 90 301 313q0 219 -139 316q-113 76 -344 76q-41 0 -92.5 -1t-104.5 -6v-57zM223 1509 q250 -12 318 -123v3q53 -100 53 -197q0 -45 -5 -79t-14 -52v2q-23 -27 -43 -53.5t-43 -53.5q-111 -70 -249 -75zM242 809q309 -5 428 -191q39 -59 61.5 -98t30.5 -61q24 -65 24 -176v-9q0 -100 -172 -178q-148 -67 -265 -67h-3l-82 2z" />
<glyph unicode="C" horiz-adv-x="790" d="M6 451q0 -434 387 -435q154 0 301 195l-32 51q-74 -100 -127 -137q-66 -47 -158 -47q-37 0 -78 6q-100 16 -166 162q-57 133 -57 248q0 45 47 227q25 88 60.5 165t82.5 142q119 170 262 170q37 0 73 -10t71 -27q80 -45 80 -112q0 -178 -97 -179q-14 0 -32 7v47 q-16 41 -66 41q-59 0 -59 -76q0 -39 45 -62v2q31 -16 71 -16q80 0 160 70q45 90 45 182v33q-33 80 -133 125q-82 37 -182 37q-82 0 -137 -41q-123 -84 -197 -185.5t-107 -224.5q-29 -119 -43 -208t-14 -150z" />
<glyph unicode="D" horiz-adv-x="917" d="M8 1532q4 -4 8 -14.5t13 -32.5q20 4 38.5 8t36.5 8l17 -1456h-45q-23 0 -41 -2l-17 -55q66 0 105 -1t65 -1q29 0 51.5 -1t55.5 -1q154 0 262 94q45 35 87 92t83 135q102 186 102 576q0 82 -13 159.5t-38 155.5q-59 182 -172 266q-35 27 -85 44.5t-118 29.5 q-53 10 -106 16.5t-107 6.5q-41 0 -84 -3.5t-90 -7.5zM231 1507q66 -4 143 -23t163 -54q80 -92 121.5 -280.5t41.5 -477.5q0 -186 -75 -357q-82 -195 -219 -272q-51 -6 -95 -6h-41z" />
<glyph unicode="E" horiz-adv-x="772" d="M-8 14l715 15l2 -86h55l-10 237l-45 -8q-2 -10 -2 -27v-34v-29l-428 -12l-15 651l162 22l-4 -139h47l8 314l-47 24l-4 -135l-164 -33l-14 664l528 20v-47q0 -25 -2 -57q0 -10 -1 -26.5t-1 -27.5h55l-6 285l-51 10q4 -18 6 -39.5t2 -50.5l-778 -32v-43l111 4l12 -1368 l-123 -3z" />
<glyph unicode="F" horiz-adv-x="735" d="M-25 6l320 -6v47l-107 6l17 748l205 8l2 -145l47 8l-8 266l-43 14l2 -82l-205 -24l8 457l547 32l6 -180l41 27l-4 288l-35 -30h-12l2 -39l-750 -47l-6 -64l96 4l-35 -1231l-67 7z" />
<glyph unicode="G" horiz-adv-x="813" d="M16 569q0 -542 428 -542h2q27 0 61 11t75 36q29 16 51 32.5t43 32.5v-106q0 -76 2 -223v-76q0 -84 -2 -153.5t-6 -127.5q-2 -41 -35 -92q-31 -55 -70 -55q-80 0 -153 92q-70 88 -70 174q0 47 27 106q29 66 63 66q100 0 100 -113v-14q-10 8 -26 8q-51 0 -51 -67 q0 -31 59 -60q70 25 70 123q0 78 -44 126t-116 48q-129 -66 -129 -252q0 -102 84 -194q82 -90 182 -109q168 53 170 271l19 1036h102l8 53l-321 -4l-11 -53l152 2l-2 -301l-4 -2q-25 -68 -103 -111q-35 -18 -73.5 -27.5t-75.5 -9.5q-98 0 -172 60q-82 63 -94 155v197 q0 53 2 103t6 102q18 178 112 336q115 188 269 188q63 0 102 -25q55 -31 55 -88q0 -37 -43 -84q-8 4 -17 10.5t-17 14.5q-35 -2 -45 -12q-12 -27 -15 -29q0 -82 62 -82q6 0 12 1t16 3h11q70 63 88 203q-29 84 -76 114.5t-135 30.5q-131 0 -236 -65q-119 -72 -207 -297 q-84 -199 -84 -361zM563 1018l2 4v2q-2 -4 -2 -6z" />
<glyph unicode="H" horiz-adv-x="864" d="M12 6l310 12l30 54l-139 -2l12 647l469 -4l-18 -539l-66 -14l-18 -72l242 59l8 64l-101 -23l29 877l84 2l20 51h-264l-18 -57l115 4l-13 -295h-469l11 567l92 -4v47l-279 31l-8 -57l111 -8l-56 -1280l-73 -3z" />
<glyph unicode="I" d="M39 1413l145 -4l-51 -1350l-55 -4q-6 -6 -6 -16v2q-4 -10 -11.5 -22.5t-9.5 -18.5l273 10v64l-66 -6l4 1341l98 -2l27 61l-324 7z" />
<glyph unicode="J" horiz-adv-x="1093" d="M0 344q0 -102 51 -186q49 -88 139 -129q51 -20 86 -30.5t62 -10.5q72 0 154 20q96 29 141 66q45 35 90 110q51 88 53 135l31 1448l377 -2l12 66l-985 -12v-47l498 -5l-39 -1540q-35 -68 -121 -125q-88 -59 -160 -59q-156 0 -221.5 71.5t-65.5 233.5q0 51 31 174 q35 123 55 160q35 59 101 59q53 0 88 -59q33 -55 33 -109q0 -20 -43 -118l-58 45h-10q-55 0 -55 -47q0 -55 26 -82q23 -20 86 -29q8 10 21.5 25.5t25.5 31.5q10 12 24.5 34t18.5 26q12 66 13 125q0 123 -62 202q-43 6 -84 7q-150 0 -198 -115q-10 -20 -19.5 -38.5t-19.5 -39 t-17.5 -40t-17.5 -40.5q-41 -84 -41 -176zM446 455q2 4 2 5t-2 -1v-4z" />
<glyph unicode="K" horiz-adv-x="686" d="M27 1612q2 -10 3 -21.5t1 -25.5l43 8l6 -1516l-39 -2l2 -73l227 32l-8 49l-72 -2l-18 592l86 156l350 -1022l-78 -2l-6 -57l230 10l-2 53l-84 -2l-367 1090l326 565l96 8l16 51l-237 -8l6 -61l41 4q-111 -176 -204 -341t-177 -319l-27 811l107 21l-10 41l-111 -6 q-51 -2 -75.5 -9.5t-24.5 -11.5v-12z" />
<glyph unicode="L" horiz-adv-x="747" d="M0 1231l102 4l7 -1208l553 45l2 -78h53l-8 375q-14 -4 -26.5 -5.5t-14.5 -1.5h-15l4 -155l-458 -43l-25 1073l119 6v51l-293 -8v-55z" />
<glyph unicode="M" horiz-adv-x="1239" d="M10 96l10 -53l287 -35l23 49l-101 11l56 1163l309 -1131l289 838l47 -834q-43 -2 -70 -3t-37 -5l-4 -61l381 16l12 55l-198 -2l-82 1348l207 10l6 62l-375 -15v-63l80 2l12 -166l-280 -809l-287 928q2 20 2 29q0 10 2 45h127v49l-342 10q0 -4 -1 -10t-1 -11v3 q-2 -8 -2 -21v-20h102l-86 -1391z" />
<glyph unicode="N" horiz-adv-x="878" d="M-4 27l336 -27v74l-103 -4l23 893q74 -182 170 -400.5t219 -478.5v-12l-74 6l-30 -47l294 -21l9 45l-86 8l18 1063h78l-10 54l-244 -9l-8 -45h82q-12 -291 -18.5 -512t-8.5 -378l-385 903l4 149h125l12 62l-356 -9l-14 -53h125l-29 -1220l-102 -2z" />
<glyph unicode="O" horiz-adv-x="817" d="M0 743q0 -125 13.5 -234.5t37.5 -207.5q82 -301 266 -301q154 0 293 250q139 246 140 561q0 688 -289 688q-152 0 -309 -225q-152 -221 -152 -531zM113 756q0 260 119 473t225 213q115 0 172 -285q35 -186 35 -395q0 -260 -123 -486q-123 -221 -226 -221q-111 0 -170 293 q-16 92 -24 194.5t-8 213.5z" />
<glyph unicode="P" horiz-adv-x="823" d="M12 31l451 -25v51l-150 9l-12 679q119 0 248 41q150 45 225 134q16 23 32.5 55.5t31.5 79.5q25 92 24 147q0 137 -80 238q-92 104 -221 104q-119 0 -251 -17.5t-279 -51.5q10 -31 10 -50q35 6 70.5 13.5t60.5 11.5q10 0 27 4l-54 -1376l-104 8zM291 1464q110 13 198 13 q176 0 230 -111q35 -74 37 -279q0 -16 -10.5 -40.5t-26.5 -57.5v2q-76 -121 -180 -157q-80 -29 -238 -35z" />
<glyph unicode="Q" horiz-adv-x="794" d="M-6 791q0 -166 65 -310q82 -172 224 -190q-16 -51 -26.5 -89t-16.5 -65q-12 -43 -13 -84q0 -119 105 -217q57 -24 122 -24h5q61 0 135 24q29 37 54.5 85t45.5 110q-4 35 -12 69.5t-20 63.5q-43 88 -103 88q-10 0 -16 -2q-31 -10 -51.5 -26.5t-32.5 -35.5 q-8 -14 -16.5 -38.5t-18.5 -61.5q4 -27 21.5 -46t41.5 -32q4 -2 21 -2q37 0 67 31q8 18 9 39v14t-4 17q-18 8 -37 8q-18 0 -41 -8q-6 -14 -6 -31v-6q-14 6 -21 22q4 47 47 94q27 16 37 17q39 0 62 -82q4 -16 6 -32.5t2 -33.5q0 -88 -66 -159v2q-20 -16 -96 -21h-6 q-74 0 -129 86v-2q-8 18 -13.5 41t-7.5 49q-2 12 -3 23.5t-1 21.5q0 20 3 43t7 47q6 25 11.5 49.5t15.5 53.5q59 4 123.5 31.5t130.5 76.5q127 98 127 371v51q-10 238 -43 348v-2q-68 215 -242 215q-162 0 -311 -217q-70 -104 -102.5 -196t-32.5 -178zM100 682 q0 47 6.5 102.5t16.5 114.5q35 160 108 279q97 149 232 149h2q90 0 137 -244q14 -74 19.5 -156.5t5.5 -174.5q0 -381 -265 -400q16 51 37 105.5t47 113.5q-14 6 -34 23q-35 -61 -60.5 -122.5t-46.5 -119.5q-157 12 -188 166q-16 78 -17 164z" />
<glyph unicode="R" horiz-adv-x="1210" d="M4 1366l10 -47q49 14 85 23.5t57 15.5l18 -1321l-133 -6l-8 -47l354 16v43l-115 -4l-8 528q121 0 232 43q190 -663 443 -663h1q129 0 186 119q47 86 48 227q0 72 -52 168q-58 114 -124 114h-1q-29 0 -98 -40q-29 -55 -29 -95q0 -43 56 -98q51 0 82 43q-14 31 -39 53h-15 q-10 0 -17 -2t-15 -6v6q0 86 71 86q45 0 82 -112q33 -92 33 -164q0 -29 -39 -172q-53 -74 -133 -74q-98 0 -176 127q-59 98 -115 274q-6 27 -12 52.5t-15 54.5q-10 33 -19 68.5t-19 70.5q362 166 362 473q0 360 -577 361q-16 0 -58.5 -11.5t-113.5 -33.5q-23 -8 -45.5 -16.5 t-45 -16.5t-49 -17.5t-49.5 -19.5zM250 1386q33 10 68.5 15.5t76.5 5.5q98 0 219 -35h-2q139 -45 174 -108q23 -43 37.5 -75t22.5 -58.5t11 -50t3 -50.5q0 -45 -20 -76q-29 -39 -48.5 -67.5t-31.5 -46.5q-57 -78 -174 -131q-8 -4 -63.5 -24.5t-160.5 -61.5q-12 0 -20 1 t-18 1q-8 0 -22.5 1t-37.5 1z" />
<glyph unicode="S" horiz-adv-x="845" d="M16 819q0 -78 29 -147q88 -86 268 -113q104 -16 167 -27.5t87 -23.5v2q111 -55 111 -221q0 -49 -17.5 -91t-49 -72t-73.5 -47.5t-92 -17.5q-51 0 -87.5 13.5t-57.5 44.5q-43 61 -43 94q0 49 18 57q2 -27 35 -26l13 2q25 47 24 76q0 45 -41 45h-18l-66 -84q-6 -39 -6 -86 q0 -88 66 -140q55 -53 143 -53q92 0 117 8h-2q90 25 153 94q72 74 72 166q0 102 -66 207q-53 92 -182 113q-25 4 -50.5 7t-51.5 7q-29 4 -57.5 7t-57.5 8q-115 35 -156 133q-8 18 -8 53q0 162 168 410q170 258 326 258q33 0 64.5 -8.5t66.5 -24.5l-4 2q41 -47 65.5 -83 t32.5 -61q4 -14 7 -56t7 -114q-23 -68 -48 -102.5t-54 -40.5q-12 31 -43 31q-20 0 -38.5 -15.5t-41.5 -44.5v-10q-2 -10 -3 -18t-1 -17q0 -47 57 -65q63 12 95 37q25 23 48 54.5t44 78.5q41 92 41 156q0 174 -138 325q-74 39 -141 39q-102 0 -182 -47q-74 -39 -147.5 -112.5 t-145.5 -180.5q-156 -223 -156 -379z" />
<glyph unicode="T" horiz-adv-x="854" d="M-2 1630q4 -29 4 -59v-70v-100l47 8l-2 76l412 16l-19 -1452q-47 -2 -75 -2h-33q-2 -12 -4 -23.5t-6 -27.5l329 2l2 51l-80 2l-28 1452l342 13v-127l49 10l-4 231l-45 19v-78h-842l-2 71z" />
<glyph unicode="U" horiz-adv-x="948" d="M-2 1227l111 2q-2 -53 -4.5 -103.5t-6.5 -103.5t-5 -108.5t-5 -108.5q-12 -260 -12 -438q0 -143 133 -258q125 -106 268 -107q121 0 162 14q201 63 201 545v434l112 -2l11 49l-258 13v-21q-8 0 -9 4q-2 -4 -7 -13t-15 -26l94 -2q-2 -109 -4 -214t-6 -210 q-8 -332 -41 -385q-25 -43 -58 -59q-74 -80 -176 -80q-154 0 -227 98q-70 92 -70 248q0 49 24 836l109 6v55h-319z" />
<glyph unicode="V" horiz-adv-x="770" d="M0 1032l121 -4q12 -106 34.5 -232t53.5 -278q25 -129 50.5 -258t49.5 -258h19l413 1380l105 4v56l-256 6v-68h65l-282 -1042l-144 686l127 -4l-10 61l-338 17v-15q0 -16 -8 -51z" />
<glyph unicode="W" horiz-adv-x="1112" d="M-4 1165l113 4l235 -1194l184 451l131 -315l461 1134l86 -4l6 59l-325 19l-4 -66l176 -6l-377 -905l-145 285l-162 -351l-172 895l143 5v51l-326 4z" />
<glyph unicode="X" horiz-adv-x="940" d="M-18 926l217 -4l221 -437l-230 -428l-122 -6l-29 -53h291v65l-70 -4l197 357l211 -412l-58 2l-10 -67l289 -9l10 54l-104 8l-283 528l369 676l108 -8q27 25 37 41q0 20 -31 20t-129 13l-108 14l-15 -72l56 -4l-326 -610l-172 328l64 -3v62l-363 10z" />
<glyph unicode="Y" horiz-adv-x="929" d="M2 41q0 -127 61 -264q16 -39 57.5 -85t100.5 -102q121 -111 201 -129q18 -6 78 -6q51 0 155 47q104 49 140 254q2 41 12 299l49 1452l82 4l2 52l-281 -21l-2 -43l121 6l-16 -506q-39 -68 -82 -128t-94 -113q-47 -43 -105 -80q-82 -47 -119 -47q-63 0 -69 45 q-4 109 -7 194.5t-3 149.5v51l-11 387l119 15l10 65l-309 -31l-20 -71l133 16q4 -639 6 -770q2 -47 22 -80q33 -55 115 -55h8l21 2q117 57 211 137t168 180l-15 -413q-2 -76 -3 -151t-3 -152q-10 -238 -39 -383q-43 -195 -125 -234q-31 -14 -84 -14q-150 0 -290 176 q-68 86 -103 167t-35 161q0 176 148 208q115 -37 115 -81q0 -14 -21 -109q-2 -4 -2 -8t-2 -8q-16 23 -37 22q-18 0 -36.5 -17.5t-18.5 -33.5q0 -6 5 -23.5t17 -44.5q39 -16 64 -16h8l18 2q43 102 43 201q0 84 -63 129q-49 27 -143 45q-92 -20 -127 -96q-25 -55 -25 -152z " />
<glyph unicode="Z" horiz-adv-x="829" d="M6 -4l731 121l21 293l-53 -11l-21 -211q-57 -16 -113.5 -30.5t-115.5 -28.5q-150 -35 -240 -35q-23 0 -22 2q0 47 677 1434l-710 -72v-319l73 8l-14 260l512 39z" />
<glyph unicode="[" d="M0 -2l340 74v55l-184 -35l18 1204l119 7q0 57 -14 57h-224z" />
<glyph unicode="\" horiz-adv-x="600" d="M76 1753l57 21l412 -1721l-103 -57z" />
<glyph unicode="]" horiz-adv-x="348" d="M-2 47l10 -55l221 45l45 1442l-178 34l-20 -49l112 -43l-67 -1345z" />
<glyph unicode="^" horiz-adv-x="540" d="M-4 889q23 -23 45 -23l231 240l195 -293l55 18l-186 576z" />
<glyph unicode="_" horiz-adv-x="1323" d="M35 109l6 -109l1282 72l-6 102z" />
<glyph unicode="`" horiz-adv-x="215" d="M121 1278l8 -37q23 -117 43.5 -209t30.5 -151h41l4 516z" />
<glyph unicode="a" horiz-adv-x="727" d="M0 219q0 -66 92 -129q82 -51 156 -51q121 0 248 67q23 -96 77 -96q63 0 101 148l-33 51q-41 -123 -70 -146q-2 4 -3 6.5t-1 8.5q-2 6 -2 18l-18 916q0 31 -78 102q-51 49 -156 49q-37 0 -63.5 -3t-46.5 -7q-76 -23 -137 -127q-63 -94 -64 -178q0 -74 102 -207 q39 -14 62 -14q29 0 53 57q-4 27 -5 42t-5 30q-4 25 -19.5 36t-33.5 11q-37 0 -52 -35q-16 20 -16 121q4 55 25.5 89t47 54.5t47 32.5t46.5 16t63 2q33 -12 62 -31.5t46 -38t34 -71.5l4 -49q6 -46 6 -101.5t-6 -121.5l8 -33l4 -318q-166 113 -319 113q-37 0 -66 -19.5 t-53 -54.5q-37 -63 -37 -139zM102 219q0 156 101 156q49 0 123.5 -34t142.5 -79q25 -29 27 -61q-3 -19 -13 -35q-29 -27 -84 -44.5t-123 -17.5h-32t-37 2q-29 16 -41 24.5t-14 10.5q-49 43 -50 78z" />
<glyph unicode="b" horiz-adv-x="765" d="M6 1489l92 2l19 -1626h-82q-14 -25 -15 -51q0 -25 52 -25q41 0 202 25l11 51h-54l-4 235q66 -86 179 -86q296 0 296 415q0 124 -71 206q-78 88 -197 88q-127 0 -209 -137l-10 909l90 2l-20 47l-262 4zM225 463q29 78 82 137q61 74 119 74q84 0 143 -113h-2q23 -49 34 -97 t11 -102q0 -294 -193 -294h-1q-135 0 -191 139v-4z" />
<glyph unicode="c" horiz-adv-x="591" d="M20 305q0 -117 56 -194q66 -102 168 -103h9q134 0 253 178q-25 12 -44.5 20.5t-29.5 12.5q-31 -78 -75 -111.5t-89 -35.5h-10q-165 0 -174 272v15q0 233 186 407q51 51 66 51q23 0 37 -10t30 -33q25 -37 25 -82q0 -55 -22 -69q-17 16 -31 16q-23 0 -51 -35q-8 -18 -9 -47 q0 -88 70 -88q16 0 31.5 5t36.5 15q67 107 67 208q0 71 -43 134q-23 33 -49.5 50.5t-60.5 17.5h-21q-8 0 -16 -2q-162 -88 -248 -256q-63 -132 -63 -298q0 -19 1 -38z" />
<glyph unicode="d" horiz-adv-x="718" d="M0 420q0 -143 76 -240q80 -100 221 -100q147 0 229 113l-4 -240l-51 -8l-18 -49l237 12l8 69l-90 -12l10 1725h64l10 59h-254l-22 -59h125l-13 -1082q-81 119 -231 119q-297 0 -297 -307zM104 381q0 305 215 305q70 0 140 -92q69 -90 69 -166q0 -287 -198 -287 q-225 0 -226 240z" />
<glyph unicode="e" horiz-adv-x="612" d="M6 348q0 -119 84 -227q92 -121 205 -121q82 0 145 82q55 74 56 164q0 100 -113 100q-59 0 -59 -70q0 -57 55 -57q53 0 59 47q0 -12 6 -8q0 -63 -43 -117q-57 -55 -100 -61q-27 6 -42 13t-42 20q-41 43 -78 128q-30 68 -30 177q0 26 2 55l413 8q-2 53 -3 108.5t-3 108.5 q-8 162 -41 254q-49 127 -141 127h-2q-132 0 -248 -270q-41 -82 -60.5 -195.5t-19.5 -265.5zM111 524q2 80 14 139.5t49 147.5q35 90 84 141q20 23 61 41q4 1 8 1q46 0 81 -179q8 -55 12 -113.5t4 -117.5v-52z" />
<glyph unicode="f" horiz-adv-x="602" d="M-8 834l155 6l19 -924l-78 -6l-6 -64l305 37l-8 49l-107 -8l-41 916l287 8v67l-291 -14l-16 318q-4 100 -5 182t-1 145q6 100 92 107h17.5t17.5 -2l8 -4q47 -23 90 -57t84 -81q49 -55 74.5 -103t25.5 -95q0 -109 -94 -109h-18t-19 4q29 18 29 58q0 14 -25 45 q-29 33 -47 32q-33 0 -56.5 -21.5t-23.5 -51.5q0 -49 50 -84q41 -31 90 -31q98 0 153 66q10 37 11 73q0 119 -117 277q-125 154 -244 154q-9 0 -18 -1q-66 0 -108 -44t-44 -107v-47v-37q0 -20 1 -51t3 -86q2 -84 4 -197t6 -258l-137 -6v-12q0 -6 -18 -43z" />
<glyph unicode="g" horiz-adv-x="722" d="M-59 -592q0 -94 82 -158q37 -29 83 -41t101 -18q55 2 90 12q59 18 180 123q125 111 125 156l6 1358h64l10 53l-246 -12l-10 -45l106 2v-176q-76 86 -229 86q-127 0 -217 -82q-86 -84 -86 -197q0 -109 66 -186q74 -80 200 -80q186 0 266 112l-4 -817q-6 -57 -114 -141 q-45 -35 -82 -58.5t-82 -43.5h-10q-8 -4 -11.5 -4.5t-27.5 -2.5q-78 6 -135 58q-47 53 -52 127q0 31 10.5 57.5t26.5 48.5q43 45 109 45q43 0 49 -59q-47 0 -80 -19q-12 -10 -12 -34q0 -25 16 -47q14 -6 25.5 -8.5t21.5 -2.5q37 0 86 29q10 25 13.5 42t3.5 28q0 51 -45 86.5 t-105 35.5q-80 0 -139 -81q-53 -72 -53 -146zM82 418q0 94 41 164h-2q49 88 143 88q129 0 185 -52q25 -25 38 -61.5t13 -91.5q0 -70 -62 -133q-63 -61 -151 -62q-90 0 -146 37q-59 37 -59 111z" />
<glyph unicode="h" horiz-adv-x="634" d="M10 1354h96q23 -842 25 -1272l-100 -4l-13 -70l306 19v71l-97 -8l-6 389q215 221 228 221q4 0 4 -20q0 -483 6 -752l-90 -10l-7 -63l285 49v49l-100 -14l-4 751q0 96 -51 96q-25 0 -275 -227l-18 795h127l10 57l-305 -4z" />
<glyph unicode="i" horiz-adv-x="274" d="M0 535l92 4q6 -188 12 -318q2 -47 2 -84t3 -71l-60 6v-13q0 -2 -4 -11t-8 -28l215 -20l10 47l-78 10l-22 551l-162 -26v-47zM39 821q0 -102 78 -102t78 102q0 105 -78 105t-78 -105z" />
<glyph unicode="j" horiz-adv-x="411" d="M-303 -588q0 -102 53 -153q109 -137 252 -142q323 0 323 317q0 13 -1 27v217q0 119 -2 269v174q-2 141 -3 252v194q0 76 -1 125t-1 76l93 2v53h-277l-10 -59l110 -2q-1 -40 -1 -89t1 -106q-1 -29 -1 -62q0 -82 4 -186q-1 -31 -1 -65v-35q1 -53 3 -119q0 -444 2 -665v-8 q0 -52 -23 -117q-20 -47 -40.5 -67.5t-38 -31t-45 -16.5t-83.5 -6q-88 0 -170 78q-78 61 -82 147q-2 14 -2 28q0 42 23 83q37 57 100 57q25 0 45.5 -18.5t20.5 -40.5q0 -10 -2 -15q-20 4 -31 5q-70 0 -70 -58q0 -80 84 -80q39 25 59.5 54.5t20.5 74.5q0 8 -1 17.5t-3 19.5v4 q-29 43 -61.5 63.5t-63.5 20.5q-84 0 -135 -73q-45 -63 -45 -144zM217 1030q0 -106 68 -106q66 0 65 106q1 111 -65 111q-68 0 -68 -111z" />
<glyph unicode="k" horiz-adv-x="604" d="M-4 -2l217 -4l10 61h-78l-10 400l123 163l193 -710l-72 -2l-6 -56l274 -6l4 70l-96 -4l-236 788l170 226l109 2l6 55h-235l-9 -59h66l-293 -379l-22 952l116 6v55l-215 11l-14 -76l49 2l6 -1438h-51z" />
<glyph unicode="l" horiz-adv-x="313" d="M0 1536l106 -18l7 -1459l-101 -6v-53h307l9 78l-115 -10l-16 1505l-170 12z" />
<glyph unicode="m" horiz-adv-x="933" d="M-2 750h108l-10 -678l-73 -4l-15 -50h254l8 60l-80 -2l5 481q55 49 98 81t74 42q16 -6 22 -23q12 -35 19 -311v-276l-70 -7l-8 -47l205 7l-7 59l-41 -4v489q16 25 35 50.5t43 52.5q59 61 90 61q96 0 97 -227q0 -43 -4.5 -100.5t-10.5 -127.5q-4 -33 -6 -59.5t-6 -48.5 q-10 -94 -12 -115l-74 -2l-16 -53l247 20l2 41l-71 -4q6 195 10 308.5t6 152.5v16q0 86 -29 154q-39 94 -118 94q-41 0 -105 -28l-78 -93v56q-8 53 -61 53q-61 0 -135 -59q-14 -12 -29.5 -24.5t-30.5 -27.5l-36 -39v130h32v51l-225 -11z" />
<glyph unicode="n" horiz-adv-x="651" d="M16 864l7 -61l108 22l-4 -788l-90 -12l-10 -50q2 -16 24 -16q35 0 242 45l-12 55l-29 -4l-14 500q18 27 40.5 55.5t51.5 63.5q80 88 104 88q33 0 33 -264q0 -160 -18.5 -307.5t-59.5 -284.5l-65 -12v-58l282 51v52l-88 -15q18 160 28.5 300.5t10.5 262.5q0 82 -1 131.5 t-3 65.5q-14 150 -82 150q-57 0 -147 -95v2q-51 -53 -91 -114l-6 217l56 12v47z" />
<glyph unicode="o" horiz-adv-x="557" d="M4 410q0 -133 45 -246q63 -145 184 -146q227 0 228 392q0 137 -43 249q-59 160 -170 160q-61 0 -107.5 -39t-81.5 -116q-55 -123 -55 -254zM80 393q0 113 35 217q47 139 131 140q70 0 104 -146q27 -100 27 -213q0 -319 -125 -319q-88 0 -137 118q-35 92 -35 203z" />
<glyph unicode="p" horiz-adv-x="753" d="M-6 -637l266 -22l16 63l-75 4l4 871q66 -141 217 -142q113 0 203 133q75 119 75 235q0 81 -47 165q-59 90 -137 90q-92 0 -188 -51q-41 -23 -71 -48.5t-52 -52.5l2 146h45l31 45l-254 22l-33 -63l125 -10l-23 -1344l-92 8zM213 408v63q0 61 92 137q92 78 162 78 q74 0 113 -63q16 -27 26 -59t10 -68q0 -106 -51 -197q-59 -98 -168 -98q-63 0 -127 73q-57 72 -57 134z" />
<glyph unicode="q" horiz-adv-x="663" d="M0 332q0 -193 276 -193q125 0 193 60l-43 -856q-41 2 -56 1t-38 -1q0 -12 -21 -50q141 -10 212 -15t79 -5q31 0 31 22q0 12 -2 16.5l-6 13.5t-7 13l-90 3l50 1425l47 -4l6 47l-203 12l-16 -51l86 -2l-9 -139q-51 63 -170 63q-127 0 -225 -121q-94 -113 -94 -239zM90 352 q0 90 86 183q84 94 174 94q51 0 86 -33t35 -80v-10q-4 -78 -9 -129t-13 -72v2q-39 -106 -148 -106q-211 0 -211 151z" />
<glyph unicode="r" horiz-adv-x="671" d="M-2 2l336 10l8 47h-123v588q27 68 51.5 94.5t61.5 61.5q86 84 162 86q37 4 49 -31q18 -18 18 -88q0 -90 -29 -154q-33 -81 -106 -81h-2q-29 0 -29 28q0 10 4 30.5t13 24.5q0 -23 41 -32q31 12 30 49v31q-14 23 -39 22q-10 0 -19 -1t-19 -3q-66 -59 -66 -121q0 -37 37 -61 q29 -23 65 -23q86 0 140 127q16 47 24 94.5t8 98.5q0 176 -112 176q-84 0 -178 -82q-33 -31 -125 -131v12l-172 -26l-19 -43h107l-17 -648l-100 -2v-53z" />
<glyph unicode="s" horiz-adv-x="622" d="M12 702q0 -127 99 -192q23 -14 71.5 -33.5t126.5 -42.5q127 -39 148 -125q14 -63 14 -98q2 -33 0 -57.5t-25 -69.5q-43 -78 -163 -90h-5q-32 0 -100 20q-29 10 -44 20.5t-21 18.5q6 -2 18 -2q39 0 39 94q0 61 -45 62q-33 0 -56.5 -30t-23.5 -62q0 -88 86 -144 q61 -41 154 -47q121 10 184 62q78 74 88 188q-4 182 -74 281l-61 47q-31 25 -131 43q-57 8 -94 18t-60 19q-51 37 -53 92q-1 10 -1 19q0 101 58 202q74 115 162 152q12 -2 28.5 -1t28.5 1h31q57 0 92 -72h-2q14 -29 21.5 -60.5t7.5 -68.5q0 -39 -23 -94q-25 -57 -57 -58h-8 q8 14 13 30t9 36q-29 41 -79 41q-37 0 -62 -58q2 -10 3 -21t3 -20q0 -4 1 -9t1 -9q53 -43 129 -43q12 0 19.5 1t15.5 3q82 129 82 227q0 113 -72 273q-55 24 -91 24h-3q-125 0 -256 -172q-123 -160 -123 -295z" />
<glyph unicode="t" horiz-adv-x="925" d="M-2 1120l385 29l12 -950q4 -188 172 -189q25 0 53.5 2t59.5 4q80 49 139 168q57 115 58 197q0 104 -95 104q-131 0 -131 -92v-6q23 -45 62 -45q53 0 65 82l6 2q23 -18 23 -43q0 -92 -64 -190q-61 -102 -129 -105q-13 -4 -25 -4q-34 0 -54 31q-25 102 -28 203.5t-3 187.5 v72q0 35 2 65l-10 514l323 27v92l-323 -19q-2 92 -3 164t-4 119h-110l4 -291q-160 -8 -255 -12t-118 -6z" />
<glyph unicode="u" horiz-adv-x="618" d="M-8 780h57q8 -63 13.5 -143t7.5 -178q2 -127 4 -209t4 -119q0 -4 1 -7t1 -7q4 -35 12 -59.5t47 -47.5q16 -4 37 -4q150 0 244 148v-174l-29 -7l-4 -45l191 56v41l-84 -25q10 281 15 479.5t5 319.5v47q0 20 -2 33l35 10l12 20l-16 19l-140 -31l-18 -57l47 12l-16 -616 q-102 -141 -191 -152l-16 4l-6 4q-33 21 -33 270v56q-2 45 -4 91t-6 91t-5 90t-5 92h55v62l-211 -15z" />
<glyph unicode="v" horiz-adv-x="575" d="M0 762l102 -2q125 -621 191 -789q35 166 85 389.5t109 479.5l74 -4l-6 61l-197 4l-8 -51l70 -6l-121 -529l-135 445l102 -2v55h-264z" />
<glyph unicode="w" horiz-adv-x="940" d="M-4 719l82 2q-2 -236 -6 -375q-2 -84 -3 -133t-1 -63q0 -160 94 -160q135 0 254 162q10 -158 98 -158q82 0 231 143l3 -213l-62 -12v-14q0 -4 -4 -14.5t-8 -26.5l227 43l6 49l-59 -8l-12 807l63 2l8 49l-231 -6l-10 -50l77 2l2 -530q-143 -168 -210 -168q-29 0 -29 72 l8 583l61 5l-8 49l-192 -17q-8 -8 -8 -24v-29l57 6l-6 -434v4q-16 -35 -39 -67.5t-51 -61.5q-70 -80 -123 -80q-27 0 -27 27l8 643h43l15 47h-240z" />
<glyph unicode="x" horiz-adv-x="800" d="M0 735l102 2l191 -411q-35 -57 -65 -100t-50 -76q-23 -29 -34 -48.5t-19 -29.5h-107v-58l256 11l19 47h-100l129 192l178 -383l-72 -6l-8 -47l317 18l17 50l-142 -9l-225 475l254 388h98l37 43l-268 22v-65h63l-215 -328l-149 317l63 2l9 47h-269z" />
<glyph unicode="y" horiz-adv-x="661" d="M-63 -510q10 -68 42.5 -126t86.5 -107q113 -100 266 -101q20 0 61 -2q45 4 51.5 8t12.5 9q27 12 53 49q23 43 22 67l25 1538h61l11 43h-271l-10 -43h105l-2 -454q-127 -174 -203 -174h-10q-6 2 -11 6q-6 10 -9 23.5t-5 27.5l-20 498l98 -7l10 46l-285 20v-10 q0 -6 -20 -31l106 -10q2 -94 2 -168q0 -76 2 -139q2 -106 3.5 -165t1.5 -73q6 -88 110 -88q115 0 230 139l-2 -465q-2 -106 -7 -190q1 -45 1 -83.5t-1 -70.5v-21q0 -144 -26 -190q-29 -37 -90 -37q-111 8 -211 80q-94 74 -103 170q0 49 45 123q43 20 76 21q45 0 74 -47 q-6 2 -19 2q-65 0 -65 -62q0 -14 3 -23.5t7 -17.5q36 -26 60 -26h2q29 0 48 18t38 57v7q0 70 -88 135h-11q-12 2 -24.5 3t-24.5 1q-90 0 -135 -39q-20 -18 -34.5 -49t-26.5 -72z" />
<glyph unicode="z" horiz-adv-x="823" d="M-20 2l751 64l23 198l-56 -10l-14 -131l-502 -55l570 641l-605 4l-6 -166l58 -15l-6 125l344 -4z" />
<glyph unicode="{" horiz-adv-x="358" d="M0 563h18q10 2 17.5 3t13.5 1q96 0 96 -108q0 -23 -7 -53.5t-19 -73.5q-27 -82 -27 -131q0 -37 30 -74t89 -70q31 -14 54.5 -23t51.5 -24q10 -4 18.5 -7t16.5 -7l8 20q-176 63 -176 209q0 20 5.5 56t15.5 86q23 102 22 159q0 63 -86 82q137 57 138 168q0 57 -62 195 q-31 70 -45 127t-14 102q0 92 73 186q10 14 45 52.5t95 97.5l-15 16q-285 -180 -284 -395q0 -98 65 -215q33 -59 49.5 -98t16.5 -66q0 -106 -195 -153z" />
<glyph unicode="}" horiz-adv-x="362" d="M27 1485q127 -51 178 -121q53 -76 53 -205q0 -100 -82 -291q-43 -94 -63.5 -154.5t-20.5 -88.5q0 -51 45 -95q-12 -23 -16 -43t-4 -41q0 -61 61 -149q57 -82 58 -107q0 -57 -142 -135l33 -51q174 88 174 182q0 61 -70 162q-63 90 -63 125q0 29 53 29h41l-8 63 q-96 41 -96 90q0 45 102 272.5t102 338.5q0 168 -317 282z" />
<glyph unicode="~" horiz-adv-x="714" d="M2 733l8 -12l43 -6q25 115 41 153q31 86 92 86q37 0 142 -100q104 -102 186 -102q80 0 133 96q45 78 45 158q0 61 -61 110q-29 16 -57.5 28.5t-63.5 16.5q-35 -6 -66.5 -37.5t-31.5 -66.5q0 -63 67 -64q39 0 39 33q0 47 -26 53q-2 10 -5 11q2 8 25 8q35 0 68 -41 q33 -43 32 -78q0 -158 -147 -158q-43 0 -152 99q-109 106 -153 106q-70 0 -111 -115q-10 -43 -22.5 -90t-24.5 -88z" />
<glyph unicode="&#xad;" horiz-adv-x="522" d="M6 512l14 -78l490 72l-23 115z" />
<glyph unicode="&#xba;" horiz-adv-x="292" d="M96 1399q0 -53 35 -90t84 -37t84 37t35 90t-35 90t-84 37t-84 -37t-35 -90zM172 1382q0 25 15.5 44.5t37.5 19.5q23 0 40.5 -19.5t17.5 -44.5q0 -29 -17.5 -48t-40.5 -19t-38 19.5t-15 47.5z" />
<glyph unicode="&#xc0;" horiz-adv-x="905" d="M4 2l358 18v56l-98 -4l162 520l229 22l64 -358l-117 -4l-18 -51l325 12v57l-131 -8q-102 602 -155.5 915.5t-57.5 340.5h-18l-418 -1450l-106 -5zM350 1722l277 -96l22 51l-243 172zM442 645l129 483q18 -139 37 -250.5t35 -197.5z" />
<glyph unicode="&#xc1;" horiz-adv-x="905" d="M4 2l358 18v56l-98 -4l162 520l229 22l64 -358l-117 -4l-18 -51l325 12v57l-131 -8q-102 602 -155.5 915.5t-57.5 340.5h-18l-418 -1450l-106 -5zM442 647l129 481q18 -139 37 -250.5t35 -197.5zM442 1645l54 -52l233 191l-74 98z" />
<glyph unicode="&#xc2;" horiz-adv-x="888" d="M4 2l358 18v56l-98 -4l162 520l229 22l64 -358l-117 -4l-18 -51l325 12v57l-131 -8q-102 602 -155.5 915.5t-57.5 340.5h-18l-418 -1450l-106 -5zM332 1571l37 -19l163 144l140 -174l43 14l-135 350zM442 647l129 481q18 -139 37 -250.5t35 -197.5z" />
<glyph unicode="&#xc3;" horiz-adv-x="884" d="M4 2l358 18v56l-98 -4l162 520l229 22l64 -358l-117 -4l-18 -51l325 12v57l-131 -8q-102 604 -155.5 916.5t-57.5 339.5h-18l-418 -1450l-106 -5zM215 1520l8 -13l41 -6q12 63 22.5 103.5t18.5 58.5q35 86 96 86q37 0 140 -102q109 -106 188 -107q82 0 133 100 q47 76 47 164q0 35 -16 61.5t-45 51.5q-57 37 -125 47q-35 -8 -65.5 -40t-30.5 -66q0 -68 65 -68q41 0 41 35q0 47 -31 53l-2 4q2 0 2 4q0 12 25 12q35 0 66 -40q35 -45 34 -82q0 -164 -147 -164q-41 0 -154 102q-113 111 -153 111q-72 0 -111 -119q-10 -43 -23.5 -92 t-23.5 -94zM442 647l129 481q18 -139 37 -250.5t35 -195.5z" />
<glyph unicode="&#xc4;" horiz-adv-x="903" d="M4 2l358 18v56l-98 -4l162 520l229 20l64 -356l-117 -4l-18 -51l325 12v55l-131 -8q-102 604 -155.5 916.5t-57.5 339.5h-18l-418 -1448l-106 -5zM375 1653q0 -35 20.5 -59.5t55.5 -24.5q31 0 52 24.5t21 59.5t-21.5 59.5t-51.5 24.5q-35 0 -55.5 -24.5t-20.5 -59.5z M442 645l129 483q18 -139 37 -251.5t35 -196.5zM580 1632q0 -37 24.5 -63.5t65.5 -26.5q35 0 61.5 26.5t26.5 63.5q0 39 -26.5 64.5t-61.5 25.5q-41 0 -65.5 -25.5t-24.5 -64.5z" />
<glyph unicode="&#xc5;" horiz-adv-x="905" d="M4 2l358 18v56l-98 -4l162 520l229 22l64 -358l-117 -4l-18 -51l325 12v57l-131 -8q-102 602 -155.5 915.5t-57.5 340.5h-18l-418 -1450l-106 -5zM442 647l129 481q18 -139 37 -250.5t35 -197.5zM467 1741q0 -59 36 -98t89 -39t89 39t36 98q0 53 -36 94t-89 41t-89 -41 t-36 -94zM545 1720q0 31 18.5 50.5t40.5 19.5q25 0 43.5 -19.5t18.5 -50.5q0 -29 -18.5 -49t-43.5 -20q-23 0 -41 20.5t-18 48.5z" />
<glyph unicode="&#xc6;" horiz-adv-x="1376" d="M4 2l361 18v56l-99 -4l164 518l229 22l62 -333v-23l-113 -6l-20 -49l133 6l2 -152l-125 -2l-8 -49l723 14l2 -86h55l-10 238l-43 -10q-6 -27 -6 -60l2 -30l-432 -11l-4 152l41 2v55l-44 -4l-10 447l166 24l-4 -141h45l10 313l-47 25l-4 -137l-166 -31l-14 663l532 19v-47 q0 -23 -2 -53q0 -10 -1 -26.5t-1 -29.5h58l-6 285l-54 8q4 -16 6 -38.5t2 -49.5l-782 -33l-8 -43l117 4l4 -753q-49 299 -86 510t-60 336h-18l-422 -1448l-106 -5zM446 645l129 481q20 -139 39 -250.5t33 -195.5z" />
<glyph unicode="&#xc7;" horiz-adv-x="712" d="M326 412q0 -53 47 -101q12 -4 18 -4h17q10 0 23 1t28 3h6q106 8 160 152q14 53 23 93t14 62v11q0 16 -7.5 34.5t-25.5 41.5q-27 41 -70 40q-8 0 -24 -4h-7q-23 -8 -39 -15t-32 -15l-8 186l-29 -10q-2 -2 -4 -2q-4 -2 -8 -2l-11 -11q-4 -86 -8 -150.5t-8 -107.5l18 -10 q12 -6 20.5 -10t12.5 -6q63 104 92 104q2 0 15 -4q37 0 43 -20q4 -10 8 -78v-15q0 -76 -43 -138t-115 -83q-31 2 -41 31q10 -8 27 -8h6q14 29 14 41q0 10 -4 18l2 -4q0 49 -47 49h-8q-41 -10 -55 -69z" />
<glyph unicode="&#xc8;" horiz-adv-x="772" d="M-8 14l715 15l2 -86h55l-10 237l-45 -8q-2 -10 -2 -27v-34v-29l-428 -12l-15 651l162 24l-4 -139h47l8 314l-47 24l-4 -135l-164 -33l-14 664l528 20v-47q0 -25 -2 -57q0 -10 -1 -26.5t-1 -26.5h55l-6 284l-51 10q4 -16 6 -38.5t2 -51.5l-778 -32v-43l111 4l12 -1370 l-123 -3zM291 1686l278 -97l21 53l-242 173z" />
<glyph unicode="&#xc9;" horiz-adv-x="772" d="M-8 14l715 15l2 -86h55l-10 237l-45 -8q-2 -10 -2 -27v-34v-29l-428 -12l-15 651l162 24l-4 -139h47l8 314l-47 24l-4 -135l-164 -33l-14 664l528 20v-47q0 -25 -2 -57q0 -10 -1 -26.5t-1 -26.5h55l-6 286l-51 10q4 -18 6 -40.5t2 -51.5l-778 -32v-43l111 4l12 -1370 l-123 -3zM324 1608l51 -54l235 193l-73 94z" />
<glyph unicode="&#xca;" horiz-adv-x="772" d="M-8 14l715 15l2 -86h55l-10 237l-45 -8q-2 -10 -2 -27v-34v-29l-428 -12l-15 651l162 24l-4 -139h47l8 314l-47 24l-4 -135l-164 -33l-14 666l528 20v-49q0 -25 -2 -57q0 -10 -1 -26.5t-1 -26.5h55l-6 286l-51 10q4 -18 6 -40.5t2 -51.5l-778 -32v-41l111 4l12 -1372 l-123 -3zM246 1602q25 -16 41 -17l159 141l138 -174l45 15l-135 348z" />
<glyph unicode="&#xcb;" horiz-adv-x="772" d="M-8 14l715 15l2 -86h55l-10 237l-45 -8q-2 -10 -2 -27v-34v-29l-428 -12l-15 651l162 24l-4 -139h47l8 314l-47 24l-4 -135l-164 -33l-14 664l528 20v-49q0 -25 -2 -55q0 -10 -1 -26.5t-1 -26.5h55l-6 284l-51 10q4 -18 6 -39.5t2 -50.5l-778 -32v-43l111 4l12 -1370 l-123 -3zM238 1688q0 -35 23.5 -59.5t51.5 -24.5q35 0 55.5 24.5t20.5 59.5t-20.5 58t-55.5 23q-29 0 -52 -23t-23 -58zM442 1667q0 -41 27 -66.5t63 -25.5q35 0 63 25.5t28 66.5q0 37 -28 62.5t-63 25.5q-37 0 -63.5 -25.5t-26.5 -62.5z" />
<glyph unicode="&#xcc;" d="M39 1417l145 -4l-51 -1354l-55 -4q-6 -6 -6 -16v2q-4 -10 -11.5 -22.5t-9.5 -18.5l273 10v64l-66 -6l4 1345l98 -2l27 62l-324 6zM61 1675l269 -96l18 51l-231 172z" />
<glyph unicode="&#xcd;" d="M39 1417l145 -4l-51 -1354l-55 -4q-6 -6 -6 -16v2q-4 -10 -11.5 -22.5t-9.5 -18.5l273 10v64l-66 -6l4 1345l98 -2l27 62l-324 6zM113 1645l49 -52l227 191l-72 98z" />
<glyph unicode="&#xce;" horiz-adv-x="380" d="M-2 1569q8 -4 21.5 -9.5t17.5 -7.5l158 144l133 -174l45 14l-131 350zM39 1417l145 -4l-51 -1354l-55 -4q-6 -6 -6 -16v2l-21 -41l275 10v64l-66 -6l4 1345l98 -2l27 62l-326 6z" />
<glyph unicode="&#xcf;" d="M39 1413l145 -4l-51 -1350l-55 -4q-6 -6 -6 -16v2q-4 -10 -11.5 -22.5t-9.5 -18.5l273 10v64l-66 -6l4 1341l98 -2l27 61l-324 7z" />
<glyph unicode="&#xd0;" horiz-adv-x="919" d="M-45 721l158 6l8 -682h-45q-23 0 -41 -2l-17 -55q66 0 106 -1t66 -1q29 0 51.5 -1t55.5 -1q150 0 262 94q43 35 85 92t85 135q102 186 102 576q0 160 -53 315q-29 94 -72.5 159.5t-99.5 106.5q-33 27 -84 44.5t-119 29.5q-53 10 -106 16.5t-107 6.5q-41 0 -84 -3.5 t-90 -7.5l-8 -16q4 -4 8 -14.5t13 -32.5q20 4 38.5 8t36.5 8l9 -676l-154 13zM231 1507q66 -4 144 -23.5t164 -53.5q162 -184 161 -758q0 -184 -73 -357q-41 -96 -95.5 -163.5t-125.5 -108.5q-51 -6 -95 -6h-41l-18 694l106 4v74l-108 6z" />
<glyph unicode="&#xd1;" horiz-adv-x="876" d="M-4 27l336 -27v76l-103 -4l23 895q74 -184 170 -402.5t219 -478.5v-12l-74 6l-30 -49l294 -21l9 45l-86 8l18 1067h78l-10 56l-244 -8l-8 -48h82q-12 -293 -18.5 -514t-8.5 -378l-385 905l4 151h125l12 62l-356 -8l-14 -54h125l-29 -1224l-102 -4zM133 1405l8 -12l43 -7 q14 63 22.5 104.5t18.5 57.5q35 86 94 86q37 0 144 -102q106 -106 184 -107q80 0 135 101q45 78 45 164q0 61 -61 110q-29 23 -58.5 34t-64.5 15q-35 -6 -65.5 -36.5t-30.5 -71.5q0 -66 67 -66q37 0 37 35q0 47 -24 53q-2 10 -4 13q2 8 22 8q35 0 70 -41q33 -45 33 -82 q0 -164 -148 -164q-43 0 -151 102q-113 111 -156 111q-70 0 -111 -121q-10 -43 -23.5 -91t-25.5 -93z" />
<glyph unicode="&#xd2;" horiz-adv-x="823" d="M0 745q0 -125 13.5 -234.5t37.5 -209.5q82 -301 266 -301q152 0 293 252q139 246 140 561q0 690 -289 690q-152 0 -309 -225q-152 -221 -152 -533zM113 758q0 260 118 473q122 215 226 215q115 0 172 -285q16 -92 25.5 -191.5t9.5 -205.5q0 -260 -123 -488 q-123 -221 -226 -221q-111 0 -170 293q-16 92 -24 195.5t-8 214.5zM295 1696l276 -97l21 54l-242 172z" />
<glyph unicode="&#xd3;" horiz-adv-x="823" d="M0 745q0 -125 13.5 -234.5t37.5 -209.5q82 -301 266 -301q152 0 293 252q139 246 140 561q0 690 -289 690q-152 0 -309 -225q-152 -221 -152 -533zM113 758q0 260 118 473q120 215 226 215q115 0 172 -285q16 -92 25.5 -191.5t9.5 -205.5q0 -260 -123 -485 q-123 -223 -226 -224q-111 0 -170 293q-16 92 -24 195.5t-8 214.5zM440 1645l52 -52l233 191l-74 98z" />
<glyph unicode="&#xd4;" horiz-adv-x="839" d="M0 745q0 -125 13.5 -234.5t37.5 -209.5q82 -301 266 -301q152 0 293 252q139 246 140 561q0 690 -289 690q-152 0 -309 -225q-152 -221 -152 -533zM113 758q0 260 118 473q120 215 226 215q115 0 172 -285q16 -92 25.5 -191.5t9.5 -205.5q0 -260 -123 -485 q-123 -223 -226 -224q-111 0 -170 293q-16 92 -24 195.5t-8 214.5zM219 1571l37 -19l162 144l137 -174l45 14l-135 350z" />
<glyph unicode="&#xd5;" horiz-adv-x="815" d="M0 745q0 -125 13.5 -234.5t37.5 -209.5q82 -301 266 -301q152 0 293 252q139 246 140 561q0 690 -289 690q-154 0 -309 -223q-152 -225 -152 -535zM96 1528l8 -12l41 -7q14 63 23.5 102.5t17.5 57.5q35 86 93 86q39 0 143 -100q109 -106 186 -107q80 0 135 101 q45 78 45 163q0 59 -63 111q-29 18 -58.5 31.5t-64.5 17.5q-33 -6 -65 -41v2q-31 -31 -31 -67q0 -68 67 -68q39 0 39 35q0 47 -28 53l-2 4q2 0 2 2q0 14 22 15q37 0 66 -41q35 -45 35 -82q0 -164 -146 -164q-45 0 -153 102q-113 111 -154 111q-70 0 -113 -127 q-12 -43 -23.5 -88t-21.5 -90zM113 758q0 258 118 475q122 215 226 215q117 0 172 -287q37 -180 37 -397q0 -258 -125 -485q-123 -223 -226 -224q-111 0 -170 293q-16 94 -24 196.5t-8 213.5z" />
<glyph unicode="&#xd6;" horiz-adv-x="839" d="M0 745q0 -125 13.5 -234.5t37.5 -209.5q82 -301 266 -301q152 0 293 252q72 125 106 265t34 294q0 690 -289 690q-154 0 -309 -223q-152 -221 -152 -533zM113 758q0 260 118 473q122 215 226 215q113 0 172 -287q35 -186 35 -395q0 -260 -123 -488q-123 -221 -226 -221 q-111 0 -170 293q-16 92 -24 194.5t-8 215.5zM262 1653q0 -35 20.5 -59.5t55.5 -24.5q29 0 51.5 24.5t22.5 59.5t-22.5 59.5t-51.5 24.5q-35 0 -55.5 -24.5t-20.5 -59.5zM465 1634q0 -41 25.5 -66.5t62.5 -25.5q39 0 64.5 25.5t25.5 66.5q0 35 -25.5 61.5t-64.5 26.5 q-37 0 -62.5 -26.5t-25.5 -61.5z" />
<glyph unicode="&#xd8;" horiz-adv-x="821" d="M-111 125l76 -47l101 174q84 -252 251 -252q156 0 295 250q141 250 142 561q0 328 -72 506l111 190l-76 52l-86 -150q-70 90 -168 90q-156 0 -311 -223q-152 -221 -152 -533q0 -190 35 -364zM113 756q0 260 118 473q124 215 228 215q72 0 125 -119l-463 -793 q-4 55 -6 112.5t-2 111.5zM139 383l482 825q47 -198 47 -446q0 -258 -125 -486q-123 -221 -228 -221q-125 0 -176 328z" />
<glyph unicode="&#xd9;" horiz-adv-x="940" d="M-2 1231l111 4q-2 -53 -4.5 -105.5t-6.5 -103.5q-4 -55 -5 -109.5t-5 -109.5q-12 -260 -12 -438q0 -145 133 -260q125 -106 268 -107q121 0 162 14q201 63 201 547v436l112 -2l11 50l-258 12v-21q-8 0 -9 4q-2 -4 -7 -13t-15 -25l94 -3q-2 -109 -4 -214t-6 -212 q-8 -330 -41 -387q-25 -43 -58 -59q-76 -80 -176 -80q-150 0 -227 98q-70 94 -70 250q0 47 25 840l108 6v53h-319zM317 1540l277 -96l22 49l-243 176z" />
<glyph unicode="&#xda;" horiz-adv-x="937" d="M-2 1231l111 4q-2 -53 -4.5 -104.5t-6.5 -104.5q-4 -55 -5 -109.5t-5 -109.5q-12 -260 -12 -438q0 -145 133 -260q125 -106 268 -107q121 0 162 14q201 63 201 547v436l112 -2l11 50l-258 12v-21q-8 0 -9 4q-2 -4 -7 -13t-15 -25l94 -3q-2 -109 -4 -214t-6 -212 q-8 -330 -41 -387q-25 -43 -58 -59q-76 -80 -176 -80q-150 0 -227 98q-70 94 -70 250q0 47 25 840l108 6v53h-319zM410 1464l51 -51l233 195l-71 94z" />
<glyph unicode="&#xdb;" horiz-adv-x="937" d="M-2 1231l111 4q-2 -53 -4.5 -104.5t-6.5 -104.5q-4 -55 -5 -109.5t-5 -109.5q-12 -260 -12 -438q0 -145 133 -260q125 -106 268 -107q121 0 162 14q201 63 201 547v436l112 -2l11 50l-258 12v-21q-8 0 -9 4q-2 -4 -7 -13t-15 -25l94 -3q-2 -109 -4 -214t-6 -212 q-8 -330 -41 -387q-25 -43 -58 -59q-76 -80 -176 -80q-150 0 -227 98q-70 94 -70 250q0 47 25 840l108 6v53h-319zM289 1411q8 -4 22.5 -9t18.5 -7l162 143l137 -172l47 10l-137 353z" />
<glyph unicode="&#xdc;" horiz-adv-x="937" d="M-2 1229l111 4q-2 -53 -4.5 -104.5t-6.5 -102.5q-4 -55 -5 -109.5t-5 -109.5q-12 -260 -12 -438q0 -145 133 -260q125 -106 268 -107q121 0 162 14q201 63 201 545v438l112 -2l11 47l-258 13v-19q-8 0 -9 4q-2 -4 -7 -13t-15 -25l94 -3q-2 -109 -4 -214t-6 -214 q-8 -328 -41 -385q-25 -43 -58 -59q-76 -80 -176 -80q-154 0 -227 98q-70 94 -70 250q0 49 25 838l108 6v55h-319zM352 1526q0 -35 21.5 -60.5t56.5 -25.5q33 0 54.5 25.5t21.5 60.5t-21.5 58.5t-54.5 23.5q-35 0 -56.5 -23.5t-21.5 -58.5zM557 1505q0 -41 25.5 -66.5 t64.5 -25.5q37 0 63.5 25.5t26.5 66.5q0 35 -26.5 61.5t-63.5 26.5q-39 0 -64.5 -26.5t-25.5 -61.5z" />
<glyph unicode="&#xdd;" horiz-adv-x="929" d="M2 41q0 -127 61 -264q16 -39 57.5 -86t100.5 -101q119 -111 201 -131q18 -6 78 -6q55 0 155 49q104 49 140 254q4 45 12 299l49 1454l82 4l2 52l-281 -21l-2 -43l121 6l-16 -506q-78 -141 -176 -241q-43 -43 -105 -82q-82 -47 -119 -47q-63 0 -69 45q-4 111 -7 195.5 t-3 150.5v51l-11 387l119 15l10 65l-309 -31l-20 -71l133 16q4 -637 6 -772q2 -49 22 -78q33 -55 115 -55h8l21 2q117 55 211 135t168 180l-15 -413q-2 -74 -3 -150t-3 -153q-10 -238 -39 -383q-43 -195 -125 -234q-31 -14 -84 -14q-150 0 -290 176q-68 86 -103 167t-35 161 q0 176 148 208q115 -37 115 -81q0 -12 -21 -109q-2 -4 -2 -8t-2 -8q-16 23 -37 22q-18 0 -36.5 -17.5t-18.5 -33.5q0 -6 5 -23.5t17 -44.5q39 -16 64 -16h8l18 2q43 102 43 203q0 82 -63 127q-49 27 -143 45q-92 -20 -127 -96q-25 -55 -25 -152zM442 1649l54 -54l233 195 l-74 96z" />
<glyph unicode="&#xe0;" horiz-adv-x="729" d="M0 219q0 -66 92 -129q82 -51 156 -51q117 0 258 76q12 -104 67 -105q63 0 101 148l-33 53q-41 -125 -70 -145q-4 8 -4 12q-2 6 -2 18l-18 920q0 31 -78 102q-51 49 -156 49q-37 0 -63.5 -3t-46.5 -7q-74 -23 -137 -127q-63 -96 -64 -180q0 -74 102 -205q37 -16 62 -16 q29 0 53 57q-4 27 -5 42t-5 32q-4 25 -19.5 35t-33.5 10q-37 0 -52 -33q-16 20 -16 121q0 53 45 125q53 74 96 86q41 12 88 12q55 0 102.5 -31.5t57.5 -89.5v2q12 -193 12 -311v-41l9 -338q-193 127 -342 127q-37 0 -66 -19.5t-53 -54.5q-37 -63 -37 -141zM102 219 q0 156 101 156q98 0 299 -133q2 -20 2 -37v-29q-49 -35 -104.5 -53.5t-123.5 -18.5h-32t-37 2q-29 16 -41 24.5t-14 10.5q-49 43 -50 78zM150 1350l274 -97l18 54l-237 172z" />
<glyph unicode="&#xe1;" horiz-adv-x="729" d="M0 221q0 -68 92 -131q82 -51 156 -51q117 0 258 76q12 -104 67 -105q63 0 101 148l-33 53q-41 -125 -70 -145q-4 8 -4 12q-2 6 -2 18l-18 920q0 31 -78 104q-53 47 -156 47q-37 0 -63.5 -3t-46.5 -7q-76 -23 -137 -127q-63 -94 -64 -180q0 -74 102 -205q37 -16 62 -16 q29 0 53 57q-4 27 -5 42t-5 32q-4 25 -19.5 36t-33.5 11q-37 0 -52 -35q-16 20 -16 121q0 55 45 125q51 74 96 88q41 12 88 12q55 0 102.5 -32.5t57.5 -90.5v2q12 -193 12 -311v-41l9 -338q-193 127 -342 127q-37 0 -66 -19.5t-53 -54.5q-37 -63 -37 -139zM102 221 q0 156 101 156q49 0 123.5 -35t175.5 -100q2 -20 2 -37v-29q-49 -35 -104.5 -53.5t-123.5 -18.5h-32t-37 2q-29 16 -41 24.5t-14 10.5q-49 43 -50 80zM168 1296l51 -51l232 193l-74 94z" />
<glyph unicode="&#xe2;" horiz-adv-x="729" d="M0 221q0 -68 92 -131q82 -51 156 -51q117 0 258 76q12 -104 67 -105q63 0 101 148l-33 53q-39 -121 -70 -145l-3 6t-1 8q-2 4 -2 16l-18 922q0 29 -78 102q-51 49 -156 49q-37 0 -63.5 -3t-46.5 -7q-74 -23 -137 -127q-63 -96 -64 -180q0 -74 102 -207q37 -16 62 -16 q29 0 53 59q-4 27 -5 41t-5 31q-4 25 -19.5 36t-33.5 11q-37 0 -52 -35q-16 20 -16 123q0 53 45 125q53 72 96 86q41 12 88 12q55 0 102.5 -32.5t57.5 -88.5v2q12 -193 12 -311v-43l9 -338q-188 127 -342 127q-70 0 -119 -74q-37 -63 -37 -139zM102 221q0 156 101 156 q49 0 123.5 -34t175.5 -99q2 -23 2 -39v-29q-49 -35 -104.5 -53.5t-123.5 -18.5h-32t-37 2q-29 16 -41 24.5t-14 10.5q-49 43 -50 80zM131 1346q16 -10 23.5 -13.5t13.5 -7.5l162 143l135 -172l45 11l-135 352z" />
<glyph unicode="&#xe3;" horiz-adv-x="731" d="M0 221q0 -68 92 -131q82 -51 156 -51q115 0 260 76q12 -104 65 -105q68 0 101 148l-31 53q-23 -61 -39 -97t-33 -48l-3 6t-1 8q-2 6 -2 16l-18 922q0 33 -78 104q-53 47 -154 47q-39 0 -65.5 -3t-46.5 -7q-76 -23 -137 -127q-63 -96 -64 -180q0 -74 104 -207 q33 -16 60 -16q29 0 53 59q-4 27 -5 42t-5 32q-4 23 -19.5 34t-33.5 11q-37 0 -50 -33q-18 16 -18 121q0 29 11.5 58.5t33.5 66.5q51 74 96 88q41 12 88 12q55 0 102.5 -32.5t57.5 -90.5v2q12 -193 12 -311v-43l9 -338q-188 127 -342 127q-70 0 -119 -74q-37 -63 -37 -139z M16 1292l9 -12l41 -6q14 63 24 103t16 57q35 84 95 84q37 0 141 -101q106 -106 186 -106q78 0 134 100q45 82 45 164q0 35 -16.5 61.5t-47.5 51.5q-29 18 -57.5 31.5t-63.5 17.5q-35 -8 -66.5 -41t-31.5 -68q0 -68 68 -67q39 0 38 34q0 47 -28 54l-2 4q2 0 2 4q0 12 24 12 q35 0 66 -41q33 -45 33 -82q0 -164 -146 -164q-45 0 -153 103q-113 111 -152 110q-70 0 -111 -120q-10 -43 -22 -91.5t-25 -91.5zM104 221q0 156 99 156q49 0 123.5 -34t175.5 -99q2 -23 2 -39v-29q-96 -72 -228 -72h-32t-37 2q-53 33 -55 35q-47 41 -48 80z" />
<glyph unicode="&#xe4;" horiz-adv-x="729" d="M0 219q0 -66 92 -129q82 -51 156 -51q117 0 258 76q12 -104 67 -105q63 0 101 148l-33 53q-41 -125 -70 -145q-4 8 -4 12q-2 6 -2 18l-18 920q0 31 -78 102q-51 49 -156 49q-37 0 -63.5 -3t-46.5 -7q-74 -23 -137 -127q-63 -96 -64 -180q0 -74 102 -205q37 -16 62 -16 q29 0 53 57q-4 27 -5 42t-5 32q-4 25 -19.5 35t-33.5 10q-37 0 -52 -33q-16 20 -16 121q0 53 45 125q49 70 96 86q41 12 88 12q55 0 102.5 -31.5t57.5 -89.5v2q12 -193 12 -311v-41l9 -338q-193 127 -342 127q-37 0 -66 -19.5t-53 -54.5q-37 -63 -37 -141zM102 219 q0 156 101 156q98 0 299 -133q2 -20 2 -37v-29q-49 -35 -104.5 -53.5t-123.5 -18.5h-32t-37 2q-29 16 -41 24.5t-14 10.5q-49 43 -50 78zM154 1382q0 -35 21.5 -59.5t51.5 -24.5q33 0 54.5 25t21.5 59q0 35 -21.5 59.5t-54.5 24.5q-31 0 -52 -24.5t-21 -59.5zM356 1362 q0 -37 26 -63.5t60 -26.5q41 0 65.5 26.5t24.5 63.5q0 39 -24.5 64.5t-65.5 25.5q-35 0 -60.5 -25.5t-25.5 -64.5z" />
<glyph unicode="&#xe5;" horiz-adv-x="729" d="M0 221q0 -68 92 -131q82 -51 156 -51q117 0 258 76q12 -104 67 -105q63 0 101 148l-33 53q-41 -125 -70 -145q-4 8 -4 12q-2 6 -2 18l-18 920q0 31 -78 104q-49 47 -156 47q-37 0 -63.5 -3t-46.5 -7q-74 -18 -137 -127q-63 -94 -64 -180q0 -74 102 -205q37 -16 62 -16 q29 0 53 59q-4 25 -5 40t-5 32q-4 25 -19.5 36t-33.5 11q-37 0 -52 -35q-16 20 -16 121q0 55 45 125q51 74 96 88q41 12 88 12q55 0 102.5 -32.5t57.5 -88.5v2q12 -197 12 -311v-43l9 -338q-193 127 -342 127q-37 0 -66 -19.5t-53 -54.5q-37 -63 -37 -139zM102 221 q0 156 101 156q49 0 123.5 -35t175.5 -100q2 -20 2 -37v-29q-49 -35 -104.5 -53.5t-123.5 -18.5h-32t-37 2q-29 16 -41 24.5t-14 10.5q-49 43 -50 80zM180 1417q0 -59 36 -97t89 -38t90 38t37 97q0 57 -37 96t-90 39t-89 -38.5t-36 -96.5zM260 1399q0 31 17.5 50t39.5 19 q25 0 42.5 -19t17.5 -50t-17.5 -51.5t-42.5 -20.5q-23 0 -40 20.5t-17 51.5z" />
<glyph unicode="&#xe6;" horiz-adv-x="1112" d="M0 219q0 -66 92 -129q84 -51 160 -51q121 0 260 76q12 -104 66 -105q53 0 84 78q61 -47 137 -47q86 0 149 82q55 74 56 164q0 100 -115 100q-61 0 -62 -70q0 -57 56 -57q55 0 61 57q8 -6 8 -20q0 -59 -45 -117q-47 -59 -102 -59q-68 0 -78 16q-147 92 -154 369l459 14 q-2 53 -3 109.5t-3 109.5q-10 166 -43 254q-45 127 -143 127q-115 0 -254 -270l-29 -68l-4 230q0 33 -80 102q-51 49 -156 49q-39 0 -65.5 -3t-46.5 -7q-70 -20 -139 -127q-63 -96 -64 -178q0 -72 104 -207q39 -14 60 -14q31 0 55 57q-4 27 -5 42t-5 30q-4 25 -19.5 36 t-35.5 11q-35 0 -50 -35q-18 18 -18 121q0 53 47 125q49 74 96 86q41 12 91 12q55 0 102 -31.5t57 -89.5v2q12 -193 13 -309v-43l8 -336q-190 127 -346 127q-70 0 -117 -74q-39 -63 -39 -139zM104 219q0 156 101 156q49 0 123.5 -34t177.5 -99q2 -23 2 -39v-29 q-98 -70 -229 -70h-33q-16 0 -37 2q-29 16 -41 24.5t-14 10.5q-49 43 -50 78zM567 188q12 -16 24.5 -32.5t26.5 -28.5q-20 -49 -40 -64q-4 4 -7 15q-2 6 -2 18zM573 565q6 111 80 289q84 209 170 209q61 0 90 -205q8 -57 12.5 -115.5t4.5 -117.5v-52z" />
<glyph unicode="&#xe7;" horiz-adv-x="575" d="M20 307q0 -55 13.5 -103t42.5 -93q53 -86 133 -101q-4 -66 -6 -117t-6 -92q0 -4 -1 -9t-1 -9q14 -6 20 -11l6 -5v2q10 -6 16.5 -8.5t10.5 -4.5q57 106 90 107q4 0 16 -4q37 0 43 -23q4 -8 9 -76v-14q0 -80 -43.5 -144.5t-114.5 -84.5h2q-39 6 -47 37q16 -14 37 -15 q14 31 14 43q0 4 -4 17q0 47 -47 47h-8q-43 -10 -58 -70q2 -27 13.5 -53.5t33.5 -48.5q16 -4 23 -4h14q12 0 27.5 1t32.5 3q106 8 161 155q14 53 23.5 93t13.5 63h-2q4 6 4 14q0 16 -7 35t-25 41q-31 43 -74 43q-8 0 -25 -4h-6q-20 -8 -37.5 -15.5t-34.5 -17.5l-8 129 q121 8 242 178q-25 12 -44.5 19.5t-29.5 11.5q-31 -78 -72 -115.5t-88 -37.5h-10v4l-10 -4q-174 12 -174 278q0 244 192 430q53 49 66 49q23 0 37 -10t30 -31q25 -39 25 -84q0 -55 -22 -69q-16 16 -31 16q-23 0 -51 -35q-4 -10 -6.5 -23.5t-2.5 -25.5q0 -88 70 -88 q27 0 68 23q68 104 67 211q0 68 -43 131q-47 70 -110 69h-21q-8 0 -16 -2q-147 -94 -232 -258q-78 -154 -78 -340z" />
<glyph unicode="&#xe8;" horiz-adv-x="612" d="M6 350q0 -119 84 -229q92 -121 205 -121q82 0 145 82q55 74 56 164q0 102 -113 102q-59 0 -59 -69q0 -59 55 -60q53 0 59 60q6 -6 6 -21q0 -61 -43 -117q-45 -61 -100 -61q-35 0 -52.5 4t-25.5 12q-145 98 -147 371l448 16q-2 53 -3 109.5t-3 107.5q-10 164 -41 256 q-49 127 -141 127q-113 0 -250 -272q-41 -82 -60.5 -195.5t-19.5 -265.5zM76 526q2 59 21.5 130t54.5 159q83 211 167 211q59 0 89 -207q8 -55 12 -114.5t4 -118.5v-51zM135 1282l273 -94l20 51l-238 172z" />
<glyph unicode="&#xe9;" horiz-adv-x="612" d="M6 350q0 -119 84 -229q92 -121 205 -121q82 0 145 82q55 74 56 164q0 102 -113 102q-59 0 -59 -69q0 -57 55 -58q53 0 59 58q6 -6 6 -21q0 -61 -43 -117q-45 -61 -100 -61q-35 0 -52.5 4t-25.5 12q-145 98 -147 371l448 16q-2 53 -3 109.5t-3 107.5q-8 162 -41 258 q-49 127 -141 127q-111 0 -250 -272q-41 -84 -60.5 -197.5t-19.5 -265.5zM76 526q2 59 21.5 130t54.5 161q83 209 167 209q61 0 89 -205q8 -57 12 -115.5t4 -119.5v-51zM186 1274l54 -57l229 194l-74 94z" />
<glyph unicode="&#xea;" horiz-adv-x="608" d="M6 350q0 -119 84 -229q92 -121 205 -121q82 0 145 82q55 74 56 164q0 102 -113 102q-59 0 -59 -69q0 -57 55 -58q53 0 59 58q6 -6 6 -21q0 -61 -43 -117q-45 -61 -100 -61q-35 0 -52.5 4t-25.5 12q-145 98 -147 371l448 16q-2 53 -3 109.5t-3 107.5q-8 162 -41 258 q-49 127 -141 127q-111 0 -250 -272q-41 -84 -60.5 -197.5t-19.5 -265.5zM76 528q2 57 21.5 128t54.5 161q83 209 167 209q61 0 89 -205q8 -57 12 -115.5t4 -119.5v-51zM119 1223q23 -16 37 -17l159 140l136 -172l43 10l-134 352z" />
<glyph unicode="&#xeb;" horiz-adv-x="612" d="M6 348q0 -117 84 -227q92 -121 205 -121q82 0 145 82q55 74 56 164q0 100 -113 100q-59 0 -59 -67q0 -59 55 -60q53 0 59 60q6 -6 6 -21q0 -61 -43 -117q-45 -61 -100 -61q-35 0 -52.5 4t-25.5 12q-145 98 -147 371l448 14q-2 53 -3 109.5t-3 109.5q-8 160 -41 256 q-49 127 -141 127q-113 0 -250 -272q-41 -82 -60.5 -195.5t-19.5 -267.5zM76 526q2 59 21.5 130t54.5 159q83 209 167 209q61 0 89 -205q8 -57 12 -115.5t4 -117.5v-51zM145 1262q0 -35 21.5 -60.5t54.5 -25.5t53.5 25.5t20.5 60.5t-20.5 58t-53.5 23t-54.5 -23t-21.5 -58z M346 1241q0 -41 25.5 -66.5t64.5 -25.5q35 0 61.5 25.5t26.5 66.5q0 35 -26.5 61.5t-61.5 26.5q-39 0 -64.5 -26.5t-25.5 -61.5z" />
<glyph unicode="&#xec;" horiz-adv-x="325" d="M-45 809l262 -94l19 53l-232 170zM0 535l94 4q6 -188 12 -318v-84t3 -71l-60 6v-13q0 -2 -12 -39l219 -20l8 47l-78 10l2 547l-188 -20v-49z" />
<glyph unicode="&#xed;" horiz-adv-x="346" d="M0 537l94 4q6 -186 12 -320q2 -47 3 -84q0 -37 2 -71l-62 6v-13q0 -2 -12 -39l219 -20l10 49l-80 8l2 559l-188 -34v-45zM61 758l52 -51l225 190l-72 94z" />
<glyph unicode="&#xee;" horiz-adv-x="366" d="M-53 760q16 -10 23 -13.5t12 -7.5l155 144l133 -174l45 14l-131 348zM0 537l94 4q6 -186 12 -320q2 -47 3 -84q0 -37 2 -71l-60 6v-13q0 -2 -4 -11t-10 -28l221 -20l10 49l-80 8l9 553l-197 -26v-47z" />
<glyph unicode="&#xef;" horiz-adv-x="356" d="M-16 809q0 -35 21.5 -58.5t49.5 -23.5q33 0 54.5 23.5t21.5 58.5t-21.5 59.5t-54.5 24.5q-29 0 -50 -24.5t-21 -59.5zM0 535l94 4q4 -94 6 -173t6 -145q2 -47 3 -84q0 -37 2 -71l-60 6v-13q0 -2 -4 -11t-10 -28l221 -20l10 47l-80 10l2 545l-190 -20v-47zM182 788 q0 -35 25.5 -61.5t60.5 -26.5q37 0 61.5 27t24.5 61q0 41 -24.5 66t-61.5 25q-35 0 -60.5 -25t-25.5 -66z" />
<glyph unicode="&#xf0;" horiz-adv-x="489" d="M4 410q0 -133 45 -246q63 -145 184 -146q227 0 228 392q0 137 -43 249q-59 160 -170 160q-61 0 -107.5 -39t-81.5 -116q-55 -123 -55 -254zM80 393q0 113 35 217q47 139 131 140q70 0 104 -146q27 -100 27 -213q0 -319 -125 -319q-88 0 -137 118q-35 92 -35 203z" />
<glyph unicode="&#xf1;" horiz-adv-x="653" d="M-18 1055l8 -13l41 -6q12 63 22 103.5t17 56.5q37 86 96 86q37 0 141 -100q53 -53 100.5 -79t84.5 -26q80 0 133 97q47 84 47 165q0 66 -64 111q-51 39 -121 49q-35 -6 -66.5 -40t-31.5 -68q0 -66 68 -66q39 0 39 35q0 49 -29 53v6q0 12 22 13q35 0 66 -41q33 -41 33 -80 q0 -166 -144 -166q-41 0 -151 104q-113 111 -156 111q-72 0 -108 -121q-4 -23 -11.5 -48.5t-13.5 -48t-12 -44t-10 -43.5zM16 870l7 -61l108 22l-4 -794l-90 -12l-10 -50q6 -16 24 -16q16 0 76.5 11.5t167.5 33.5l-12 57l-31 -4l-12 502q31 49 92 119q74 88 104 88 q33 0 33 -264q0 -160 -18.5 -309.5t-59.5 -286.5l-67 -12v-60l284 53v50l-88 -15q18 160 28.5 302.5t10.5 267.5q0 82 -1 131t-3 65q-16 152 -82 152q-57 0 -147 -95v3q-25 -27 -48.5 -56.5t-41.5 -60.5l-7 219l56 12v47z" />
<glyph unicode="&#xf2;" horiz-adv-x="481" d="M4 412q0 -133 45 -246q63 -147 184 -148q227 0 228 394q0 139 -43 252q-59 161 -170 161q-61 0 -107.5 -40t-81.5 -117q-55 -123 -55 -256zM80 395q0 115 35 219q45 139 131 140q72 0 104 -144q27 -104 27 -217q0 -322 -125 -321q-88 0 -137 118q-35 94 -35 205zM98 1006 l271 -95l20 52l-235 172z" />
<glyph unicode="&#xf3;" horiz-adv-x="481" d="M4 414q0 -72 11.5 -133.5t33.5 -114.5q63 -147 184 -148q227 0 228 396q0 137 -43 250q-59 161 -170 161q-61 0 -107.5 -40t-81.5 -117q-55 -123 -55 -254zM80 397q0 59 9 112.5t26 106.5q47 139 131 140q70 0 104 -146q27 -104 27 -215q0 -324 -125 -323q-88 0 -137 118 q-35 94 -35 207zM111 973l49 -53l229 194l-72 94z" />
<glyph unicode="&#xf4;" horiz-adv-x="507" d="M4 414q0 -72 11.5 -133.5t33.5 -114.5q63 -147 184 -148q227 0 228 396q0 137 -43 250q-57 161 -170 161q-119 0 -189 -157q-55 -123 -55 -254zM55 920q14 -10 21.5 -13.5t13.5 -5.5l162 141l133 -170l45 11l-133 350zM80 397q0 59 9 112.5t26 106.5q47 139 131 140 q70 0 104 -146q14 -53 20.5 -107t6.5 -108q0 -324 -125 -323q-88 0 -137 118q-35 94 -35 207z" />
<glyph unicode="&#xf5;" horiz-adv-x="561" d="M-68 905l9 -12l41 -6q14 59 24 103t14 61v-2q33 86 95 86q41 0 141 -103q109 -104 186 -104q78 0 133 96q45 82 46 166q0 63 -64 110q-29 23 -57.5 34.5t-61.5 15.5q-18 -2 -35.5 -13.5t-31 -27t-22.5 -34t-9 -34.5q0 -66 68 -65q39 0 38 34q0 51 -28 56l-4 8l2 -4 q0 14 24 14q35 0 66 -41q33 -45 33 -82q0 -164 -146 -164q-47 0 -151 105q-115 109 -154 108q-37 0 -62.5 -29.5t-45.5 -88.5q-10 -45 -22.5 -93.5t-25.5 -93.5zM4 414q0 -135 45 -248q68 -147 189 -148q229 0 229 396q0 139 -43 252q-61 161 -174 161q-119 0 -191 -157 q-55 -123 -55 -256zM82 397q0 59 8 113.5t25 105.5q49 139 133 140q72 0 108 -146q14 -53 19.5 -107t5.5 -108q0 -324 -125 -323q-90 0 -139 121q-35 91 -35 204z" />
<glyph unicode="&#xf6;" horiz-adv-x="497" d="M4 412q0 -70 11.5 -131.5t33.5 -116.5q63 -145 184 -146q227 0 228 394q0 139 -43 252q-57 159 -170 159q-119 0 -189 -155q-55 -123 -55 -256zM57 1006q0 -35 20.5 -60.5t53.5 -25.5q29 0 51.5 25.5t22.5 60.5t-22.5 58t-51.5 23q-33 0 -53.5 -23t-20.5 -58zM80 395 q0 115 35 219q47 139 131 140q70 0 104 -146q27 -100 27 -215q0 -322 -125 -321q-88 0 -137 118q-35 94 -35 205zM256 985q0 -41 25.5 -65.5t60.5 -24.5q39 0 64.5 24.5t25.5 65.5q0 35 -25.5 61.5t-64.5 26.5q-35 0 -60.5 -26.5t-25.5 -61.5z" />
<glyph unicode="&#xf8;" horiz-adv-x="489" d="M4 410q0 -133 45 -246q63 -145 184 -146q227 0 228 392q0 137 -43 249q-59 160 -170 160q-61 0 -107.5 -39t-81.5 -116q-55 -123 -55 -254zM80 393q0 113 35 217q47 139 131 140q70 0 104 -146q27 -100 27 -213q0 -319 -125 -319q-88 0 -137 118q-35 92 -35 203z" />
<glyph unicode="&#xf9;" horiz-adv-x="600" d="M-8 784h57q8 -66 13.5 -145.5t7.5 -177.5q2 -127 4 -209t4 -121q0 -4 1 -7t1 -7q4 -35 12 -59.5t47 -47.5q16 -4 37 -4q147 0 254 150v-176l-22 -7l-5 -45l175 56v41l-84 -25q10 281 15 480.5t5 322.5v47q0 20 -2 33l35 10l12 20l-16 19l-140 -31l-18 -59l47 14l-2 -637 q-106 -145 -215 -145h-12v6q-14 35 -33 340q-2 45 -4 91t-6 91q-4 47 -5 92t-5 92h55v62l-211 -17zM117 1055l272 -94l23 51l-240 172z" />
<glyph unicode="&#xfa;" horiz-adv-x="598" d="M-8 784h57q8 -63 13.5 -143t7.5 -178q2 -129 4 -211t4 -121q0 -4 1 -7t1 -7q4 -35 12 -59.5t47 -47.5q16 -4 37 -4q147 0 254 150v-176l-22 -7l-5 -45l175 56v41l-84 -25q10 281 15 480.5t5 322.5v49t-2 31l35 10l12 20l-16 19l-140 -31l-18 -57l47 14l-2 -639 q-106 -145 -215 -145h-12v6q-14 35 -33 340q-2 45 -4 91t-6 93q-4 45 -5 90t-5 92h55v64l-211 -16zM143 1047l52 -52l231 191l-74 94z" />
<glyph unicode="&#xfb;" horiz-adv-x="604" d="M-8 784h57q8 -63 13.5 -143t7.5 -178q2 -129 4 -211t4 -121q0 -4 1 -7t1 -7q4 -35 12 -59.5t47 -47.5q16 -4 37 -4q147 0 254 150v-176l-22 -7l-5 -45l175 56v41l-84 -25q10 281 15 480.5t5 322.5v49t-2 33l35 10l12 20l-16 17l-140 -29l-18 -59l47 14l-2 -639 q-106 -145 -215 -145h-12v6q-14 35 -33 340q-2 47 -4 92t-6 92q-4 45 -5 90t-5 92h55v64l-211 -16zM98 1044q16 -10 23.5 -13t13.5 -7l162 143l135 -172l45 11l-135 350z" />
<glyph unicode="&#xfc;" horiz-adv-x="602" d="M-8 784h57q8 -66 13.5 -145.5t7.5 -177.5q2 -127 4 -209t4 -121q0 -4 1 -7t1 -7q4 -35 12 -59.5t47 -47.5q16 -4 37 -4q147 0 254 150v-176l-22 -7l-5 -45l175 56v41l-84 -25q10 281 15 480.5t5 322.5v47q0 20 -2 33l35 10l12 20l-16 17l-140 -29l-18 -59l47 14l-2 -637 q-106 -145 -215 -145h-12v6q-14 35 -33 340q-2 45 -4 91t-6 91q-4 47 -5 92t-5 92h55v62l-211 -17zM70 1087q0 -35 21.5 -59t51.5 -24q33 0 54.5 24.5t21.5 58.5q0 35 -21.5 59.5t-54.5 24.5q-31 0 -52 -24.5t-21 -59.5zM270 1065q0 -35 27 -61.5t61 -26.5q39 0 63.5 26.5 t24.5 61.5q0 41 -24.5 66.5t-63.5 25.5q-35 0 -61.5 -25.5t-26.5 -66.5z" />
<glyph unicode="&#xfd;" horiz-adv-x="636" d="M-63 -711q10 -78 42.5 -145.5t86.5 -122.5q113 -115 266 -115q29 0 61 9q47 10 62 10q29 0 55 55q23 49 22 76l25 1765h61l11 47h-271l-10 -47h117l-2 -563q-137 -156 -217 -156q-6 0 -19 4v-2q-6 14 -9 30t-5 32l-20 571l98 -8l10 51l-285 25v-12q0 -6 -20 -35l106 -13 q2 -106 2 -194q0 -86 2 -158q2 -123 3.5 -189.5t1.5 -82.5q6 -100 110 -101q115 0 242 158l-2 -518v-233t2 -164q-4 -195 -25 -256q-20 -55 -108 -56q-113 0 -217 95q-100 94 -101 206q0 61 45 142h-4q51 23 80 22q43 0 74 -51q-6 2 -19 2q-66 0 -65 -74q0 -14 3 -24t7 -21 q37 -31 62 -30q29 0 48 21.5t38 64.5v10q0 78 -88 154h-11q-12 2 -24.5 3t-24.5 1q-90 0 -135 -45q-37 -37 -61 -138zM193 1098l51 -51l233 192l-74 96z" />
<glyph unicode="&#xff;" horiz-adv-x="643" d="M-63 -711q10 -78 42.5 -145.5t86.5 -122.5q113 -115 266 -115q20 0 61 11q47 10 62 10q29 0 55 53q23 49 22 76l25 1765h61l11 47h-271l-10 -47h117l-2 -563q-137 -156 -217 -156q-6 0 -19 4v-2q-6 14 -9 30t-5 32l-20 571l98 -8l10 51l-285 25v-12q0 -6 -20 -35l106 -13 q2 -109 2 -194q0 -86 2 -158q2 -123 3.5 -191.5t1.5 -82.5q6 -98 110 -99q115 0 242 158l-2 -518v-233t2 -164q-4 -195 -25 -256q-20 -55 -108 -56q-113 0 -217 95q-100 94 -101 206q0 59 45 144l-4 -2q45 23 80 22q45 0 74 -51q-6 2 -19 2q-66 0 -65 -74q0 -14 3 -24t7 -21 q37 -31 62 -30q29 0 48 21.5t38 64.5v10q0 78 -88 154h-9q-12 2 -24.5 3t-26.5 1q-90 0 -135 -45q-20 -18 -34.5 -53.5t-26.5 -84.5zM154 1174q0 -35 20.5 -59.5t54.5 -24.5q33 0 54.5 24.5t21.5 59.5t-21.5 59t-54.5 24q-35 0 -55 -24t-20 -59zM356 1153q0 -41 25 -66.5 t65 -25.5q35 0 62 25.5t27 66.5t-27 66.5t-62 25.5q-41 0 -65.5 -25.5t-24.5 -66.5z" />
<glyph unicode="&#x152;" horiz-adv-x="1366" d="M0 743q0 -125 13.5 -234.5t39.5 -207.5q80 -301 269 -301q154 0 296 252q27 49 49.5 99t39.5 104l4 -385l-125 -2l-8 -50l722 15l3 -86h55l-8 237l-47 -8q-2 -10 -3.5 -24.5t-1.5 -36.5l2 -31l-434 -10l-14 651l164 23l-4 -140h49l8 314l-47 24l-4 -135l-166 -33l-16 664 l532 20q-2 -29 -2 -69q0 -41 -2 -88h57l-4 284l-55 10q4 -18 6 -39.5t2 -50.5l-780 -32l-4 -15q-55 39 -119 39q-156 0 -313 -225q-154 -223 -154 -533zM113 756q0 256 120 475q121 213 230 213q117 0 174 -285q35 -186 35 -397q0 -262 -125 -486q-123 -221 -228 -221 q-113 0 -172 293q-16 92 -25 194.5t-9 213.5zM618 1434l78 4v-150q-31 95 -78 146z" />
<glyph unicode="&#x153;" horiz-adv-x="1024" d="M4 412q0 -70 11.5 -131.5t33.5 -116.5q68 -145 189 -146q164 0 213 183q37 -70 94 -117q76 -63 155 -64q84 0 150 82q55 78 55 164q0 100 -114 101q-61 0 -62 -68q0 -59 55 -59q51 0 62 57q8 -6 8 -21q0 -57 -45 -114q-45 -61 -102 -62q-68 0 -78 17q-76 47 -112 138 t-40 230l457 15v59q0 31 -2 55q-2 27 -2 54t-2 51q-10 168 -43 254q-43 129 -144 129q-115 0 -252 -275q-39 -76 -61 -172q-57 168 -176 168t-193 -155q-55 -123 -55 -256zM82 395q0 115 35 219q47 139 133 140q72 0 108 -146q27 -100 27 -215q0 -322 -127 -321 q-92 0 -139 118q-37 92 -37 205zM477 547q4 55 23.5 124.5t54.5 159.5q82 211 168 211q63 0 90 -204q18 -113 18 -236v-47z" />
<glyph unicode="&#x2000;" horiz-adv-x="986" />
<glyph unicode="&#x2001;" horiz-adv-x="1972" />
<glyph unicode="&#x2002;" horiz-adv-x="986" />
<glyph unicode="&#x2003;" horiz-adv-x="1972" />
<glyph unicode="&#x2004;" horiz-adv-x="657" />
<glyph unicode="&#x2005;" horiz-adv-x="493" />
<glyph unicode="&#x2006;" horiz-adv-x="328" />
<glyph unicode="&#x2007;" horiz-adv-x="328" />
<glyph unicode="&#x2008;" horiz-adv-x="246" />
<glyph unicode="&#x2009;" horiz-adv-x="394" />
<glyph unicode="&#x200a;" horiz-adv-x="109" />
<glyph unicode="&#x2010;" horiz-adv-x="522" d="M6 512l14 -78l490 72l-23 115z" />
<glyph unicode="&#x2011;" horiz-adv-x="522" d="M6 512l14 -78l490 72l-23 115z" />
<glyph unicode="&#x2012;" horiz-adv-x="522" d="M6 512l14 -78l490 72l-23 115z" />
<glyph unicode="&#x2013;" horiz-adv-x="1042" d="M6 512l28 -78l996 72l-47 115z" />
<glyph unicode="&#x2014;" horiz-adv-x="2066" d="M6 512l57 -78l1991 72l-93 115z" />
<glyph unicode="&#x202f;" horiz-adv-x="394" />
<glyph unicode="&#x205f;" horiz-adv-x="493" />
<glyph unicode="&#x25fc;" horiz-adv-x="819" d="M0 0v819h819v-819h-819z" />
</font>
</defs>
</svg>
