<?xml version="1.0" standalone="no"?>
<!DOCTYPE svg PUBLIC "-//W3C//DTD SVG 1.1//EN" "http://www.w3.org/Graphics/SVG/1.1/DTD/svg11.dtd" >
<svg xmlns="http://www.w3.org/2000/svg">
<metadata></metadata>
<defs>
<font id="kidsregular" horiz-adv-x="1636" >
<font-face units-per-em="2048" ascent="1638" descent="-410" />
<missing-glyph horiz-adv-x="461" />
<glyph horiz-adv-x="2048" />
<glyph horiz-adv-x="2048" />
<glyph unicode="&#xd;" horiz-adv-x="0" />
<glyph unicode=" "  horiz-adv-x="461" />
<glyph unicode="&#x09;" horiz-adv-x="461" />
<glyph unicode="&#xa0;" horiz-adv-x="461" />
<glyph unicode="!" horiz-adv-x="461" d="M108 152q6 94 140 168q4 4 20 4q54 0 86.5 -68t32.5 -127q0 -57 -53.5 -93t-114.5 -36q-44 0 -75 52q-32 52 -36 100zM129 620v56q0 39 3 161t3 191q0 104 8.5 180t20.5 136.5t24 115.5q12 80 101 80q54 0 94.5 -31t40.5 -77q-4 -26 -19 -98t-25 -141t-16 -161 q-5 -100 -7.5 -254.5t-3.5 -202t-9 -71.5q-28 -102 -108 -108q-66 6 -86.5 68t-20.5 156z" />
<glyph unicode="&#x22;" horiz-adv-x="536" d="M131 1120q0 22 12.5 94t12.5 122q0 34 -8 88q0 35 19 53t48 18q58 0 69 -35q14 -42 15 -139q0 -104 -16.5 -184.5t-77.5 -92.5q-36 6 -51 24q-16 16 -23 52zM348 1132q0 24 6 87.5t6 103.5q0 43 -8 105q0 68 68 67q56 0 68 -35q16 -59 16 -176q0 -82 -9.5 -148t-25.5 -79 q-14 -15 -49 -21q-40 8 -52 28t-20 68z" />
<glyph unicode="#" horiz-adv-x="1583" d="M12 540q4 43 24 79q19 37 52 45q80 24 336 61q32 98 76 219q-78 -12 -216 -55q-28 0 -50 29t-25 65q7 63 47 78q34 14 93 31.5t121 31.5q62 12 89 16q23 61 61.5 170.5t67.5 188.5q18 41 108 41q84 0 84 -32q-28 -78 -70 -193.5t-58 -161.5h57h119q28 81 52 135 q23 54 48 144q3 14 28.5 23t59.5 9q88 0 88 -49q-7 -38 -32.5 -104.5t-59.5 -157.5q136 -15 320 -88q32 -11 32 -65q0 -42 -19.5 -81t-39.5 -39q-70 24 -119.5 40t-108 29t-116.5 15q-41 -122 -70 -233q218 -14 369 -84q36 -15 36 -67q0 -38 -24 -73.5t-51 -35.5 q-189 84 -361 84q-12 -44 -48 -183.5t-52 -199.5q-6 -34 -88 -41q-40 4 -68 18.5t-28 38.5q54 188 96 371q-116 0 -200 -6q-17 -53 -41 -122t-62 -179q-37 -110 -65 -188q-6 -28 -92 -36q-102 8 -103 44q18 63 45.5 140.5t58.5 163.5t59 164q-268 -42 -316 -56q-36 0 -44 56 zM620 735q19 0 62.5 2.5t73.5 2.5h55l69 228h-71q-75 0 -109 -4q-52 -137 -80 -229z" />
<glyph unicode="$" horiz-adv-x="1292" d="M-43 180q0 46 43.5 82.5t91.5 36.5q48 -1 72 -31q57 -86 176 -92q12 4 32 4q0 122 10.5 222t30 263t19.5 219v24q-73 42 -146 85t-123.5 102t-50.5 142q3 86 93 163q89 76 243 108q0 70 4 132q0 22 22 35t54 13q41 0 73 -17t32 -43q-1 -36 -5 -51v-65q16 0 40 -9 q4 12 4 66q0 22 28 34.5t64 12.5q62 0 79 -31t17 -96q0 -54 -4 -78q54 -56 82 -91.5t62 -95.5q8 -16 8 -36q0 -36 -28 -67t-64 -33q-4 2 -12 4t-11 4q-10 6 -28 32q-17 25 -25 31q-2 -19 -4 -121t-4 -122q76 -70 135.5 -152t96 -176t36.5 -188q-21 -218 -281 -336 q9 -112 13 -168q0 -29 -28 -46.5t-69 -17.5q-26 0 -44.5 10t-18.5 27q-4 23 -12 151q-58 -16 -105 -24q0 -20 2 -44t5 -46q4 -22 6 -41q0 -27 -27 -42t-66 -15q-45 0 -64 23.5t-22 50.5q-3 28 -4 90q-18 0 -43.5 -2.5t-42.5 -2.5q-61 0 -143 24.5t-140.5 72.5t-58.5 116z M344 1216q0 -11 14.5 -23.5t40.5 -27t37 -20.5q2 30 4 75.5t4 71.5q-100 -20 -100 -76zM545 213q48 4 107 27l8 520q-22 16 -39 28t-25 17q-10 -94 -20.5 -175.5t-17 -146.5t-10 -129.5t-3.5 -140.5zM608 1052q34 -20 52 -28l4 252q-10 8 -44 16q-1 -28 -6.5 -112t-5.5 -128 zM811 297q35 14 61 51q27 38 27 68q0 106 -84 208z" />
<glyph unicode="%" horiz-adv-x="1652" d="M64 1224q2 80 39 155t102 122t147 47t160 -59q30 27 64 27q64 0 106 -51t60 -122t18 -135q0 -94 -45 -174.5t-124 -129t-175 -52.5q-154 6 -245 112q-91 104 -107 260zM236 1233q6 -90 52 -146.5t132 -62.5q80 10 124 66t44 143q0 55 -20 75q-14 -8 -56 -16q-23 2 -44 13 t-44.5 29t-40.5 28t-35 10q-53 0 -81 -40q-27 -40 -31 -99zM307 129q60 124 140.5 257t224.5 360.5t238 393t157 316.5q11 33 61 33q44 0 81.5 -23t37.5 -55q0 -3 -2 -10t-2 -9q-60 -134 -149 -292t-204.5 -348t-237.5 -391t-187 -320q-1 -7 -25 -13q-42 4 -87.5 35.5 t-45.5 65.5zM832 223q6 114 48 197q-14 14 -20 36q4 37 37 68.5t94 38.5q55 53 89 53q40 0 65 -36q36 0 106.5 -15t134.5 -43t90 -66q52 -84 52 -180q0 -170 -168 -276q-82 -56 -184 -56q-141 0 -240 73q-98 73 -104 206zM996 209q0 -31 57 -64t119 -37q32 8 40 8 q72 18 106 61t34 91q0 92 -91 124t-204 32q-24 -32 -42.5 -99t-18.5 -116z" />
<glyph unicode="&#x26;" horiz-adv-x="1577" d="M20 408q6 68 31 116q70 134 198.5 258.5t286.5 200.5q-72 191 -80 353q8 114 59 185t157 71q148 0 288 -116q73 -54 138.5 -135t65.5 -157q0 -16 -9 -52q-32 -70 -135 -134q-104 -64 -240 -118q50 -100 107 -201t112 -184.5t109 -150.5q134 74 223 140q17 8 29 8 q34 0 63 -33t29 -74q0 -35 -24 -53q-63 -52 -98 -74q-34 -24 -118 -74q100 -151 128 -221q4 -13 4 -21q0 -32 -33 -57t-74 -25q-55 0 -82 44q-52 88 -135 204q-128 -43 -293 -57q-77 0 -115 -4q-138 2 -267 35t-221 113q-94 81 -104 213zM213 412q0 -58 50.5 -94t104.5 -51 t136 -31q108 -10 137 -13q167 7 283 45q-34 47 -84 122.5t-111 183.5t-125 245q-198 -89 -348 -291q-40 -64 -43 -116zM647 1313q4 -61 26.5 -140.5t43.5 -128.5q229 90 235 156q0 28 -36.5 66t-87.5 72q-50 34 -88 50q-22 8 -40 8q-46 0 -53 -83z" />
<glyph unicode="'" horiz-adv-x="553" d="M116 1360q4 74 55 135t126 61q98 0 146.5 -87t48.5 -193q0 -91 -36 -176q-26 -51 -62 -96t-79 -75.5t-87 -35.5q-52 -1 -60 71q7 60 37 72q88 40 98 164q-15 -12 -55 -20q-58 9 -91 60.5t-41 119.5z" />
<glyph unicode="(" horiz-adv-x="784" d="M112 604q3 162 49.5 308t135.5 256q30 39 78.5 126.5t88.5 142t99 87.5q8 4 25 4q33 0 58.5 -40t25.5 -87q0 -52 -29 -70q-47 -35 -72 -76.5t-59 -114.5q-36 -74 -60 -104q-147 -188 -153 -428q2 -146 55.5 -289t137.5 -254t172 -169q8 -8 8 -25q0 -36 -34 -79.5 t-66 -43.5h-13q-141 94 -241 232t-152 299t-54 325z" />
<glyph unicode=")" horiz-adv-x="801" d="M0 -172q7 58 37 72q46 32 72 74t62.5 115t64.5 103q160 179 160 441q0 143 -49 284t-127 253t-164 170l-9 16q0 34 36 82q37 47 65 47q6 0 10 -2.5t6 -2.5q136 -94 232 -230t144 -294.5t48 -318.5q0 -341 -201 -586q-28 -34 -81.5 -121.5t-94.5 -140t-103 -86.5 q-12 -4 -18 -4q-34 0 -60.5 40t-29.5 89z" />
<glyph unicode="*" horiz-adv-x="712" d="M140 1247q8 45 28 45q76 12 168 12q-48 63 -76 144q0 28 21 48t47 20t32 -17q22 -44 43 -87.5t25 -51.5q16 25 42 74t42 69q0 5 16 5q26 0 51 -15.5t25 -36.5q0 -28 -42 -91t-42 -65q104 0 127 -8q21 0 21 -45q0 -26 -9 -34.5t-35 -16.5q-14 0 -37 4t-38 4h-21 q12 -19 61.5 -67.5t57.5 -56.5q5 -4 5 -19q0 -14 -17 -28t-43 -17q-84 24 -160 139q-4 -6 -34.5 -64t-56 -89.5t-61.5 -41.5q-24 0 -45 10t-22 26q2 8 2 12q6 10 61.5 98t59.5 98h-24q-26 0 -76 -4t-64 -4q-24 0 -32 51z" />
<glyph unicode="+" horiz-adv-x="1259" d="M84 608q4 36 24 62t56 26h200q92 0 160 -4q0 61 10.5 180.5t10.5 188.5q0 28 25.5 43.5t62.5 15.5q35 0 61.5 -15.5t26.5 -43.5q0 -75 -10.5 -193t-10.5 -180q144 0 400 -80q45 -18 45 -63q0 -38 -32.5 -69.5t-76.5 -31.5q-28 6 -99 27t-123 32t-114 13q0 -84 8.5 -196 t8.5 -176q-1 -48 -89 -56q-88 8 -88 56q0 52 -8 170.5t-8 205.5q-64 4 -172 4h-188q-72 0 -80 84z" />
<glyph unicode="," horiz-adv-x="553" d="M148 20q6 52 24 92q24 53 73.5 84.5t102.5 31.5q58 0 85.5 -41t27.5 -99q0 -82 -46 -188t-122 -207q-25 -33 -57 -33q-20 0 -34 16t-18 40q20 46 48 93t65 111q-26 -16 -49 -16q-42 0 -70 36q-26 36 -30 80z" />
<glyph unicode="-" horiz-adv-x="624" d="M51 637q9 67 41 67q57 0 228 -12.5t208 -23.5q40 -12 40 -64q0 -27 -12 -45.5t-28 -18.5q-45 8 -436 32q-32 0 -41 65z" />
<glyph unicode="." horiz-adv-x="407" d="M180 20q3 10 12 75t29.5 94.5t71.5 29.5q46 0 84.5 -20t50.5 -51q8 -16 8 -56q0 -188 -112 -188q-56 0 -100 32q-44 30 -44 84z" />
<glyph unicode="/" horiz-adv-x="743" d="M96 -184q49 180 86.5 409t77 469t96 425t152.5 329q30 41 84 41q32 0 52 -15q20 -14 20 -42q0 -10 -8 -31q-98 -148 -154 -337.5t-91.5 -405t-79 -468t-95.5 -399.5q-12 -27 -68 -27q-29 0 -50 14q-22 14 -22 38z" />
<glyph unicode="0" horiz-adv-x="1204" d="M-16 664q0 110 29 218t89 201.5t146 159.5q-23 23 -29 65q12 91 104.5 129.5t200.5 38.5q107 0 207 -36q82 -36 134.5 -87t84.5 -115t58 -146q46 -143 67 -241.5t21 -186.5q0 -113 -46 -228t-128.5 -210.5t-195 -152.5t-238.5 -57q-92 6 -196 67t-182 158t-102 203 q-24 146 -24 220zM160 731q2 -25 7 -69.5t11 -79.5t10 -70q12 -62 62.5 -133t119.5 -120t134 -54q115 0 220.5 99.5t168.5 250.5q23 58 23 133q0 154 -92 408q-30 92 -107 150t-181 58q12 -18 13 -52q0 -32 -21.5 -61t-58.5 -36q-91 -24 -158.5 -89.5t-106 -154.5 t-44.5 -180z" />
<glyph unicode="1" horiz-adv-x="608" d="M280 1493q0 33 35 52t81 19q82 0 88 -40q17 -72 27 -162t13.5 -185t3.5 -204v-121q2 -86 3.5 -249t6 -280t15.5 -211q0 -32 -36.5 -54t-84.5 -25q-66 9 -72 39q-18 82 -23 218t-9 437t-13 483.5t-35 282.5z" />
<glyph unicode="2" horiz-adv-x="1296" d="M37 268q4 84 80 134q75 50 167 50q78 0 160 -42.5t144 -106.5q280 215 336 437q24 96 24 212q0 96 -29.5 180t-94 134.5t-160.5 50.5q-94 0 -189 -46.5t-159 -102.5q-12 -12 -36 -15q-36 0 -68 36q-33 37 -36 75q8 32 16 40q82 90 213 153t271 63q152 0 272 -80 q102 -71 151.5 -193.5t49.5 -265.5q0 -157 -51 -307t-145.5 -275.5t-225.5 -218.5q86 -39 170 -45q71 9 107 17q46 0 71 -33t25 -78q0 -68 -48 -74q-82 -8 -124 -8q-184 1 -352 105q-118 -58 -228 -64q-77 4 -147 38t-114.5 94t-49.5 136zM213 244q30 -64 135 -72 q56 6 96 28q-88 84 -164 84q-64 0 -67 -40z" />
<glyph unicode="3" horiz-adv-x="1007" d="M88 100q3 48 49 84q47 35 99 35q50 -11 150 -42t138 -33q96 8 140 93t44 195q0 78 -21 140t-59 88q-70 56 -237 61q-50 0 -59 90q7 97 53 97q183 0 223 44q68 72 68 144q0 42 -31 74t-77 50q-44 19 -84 19q-16 0 -30 -2t-36.5 -6.5l-32.5 -6.5q-29 -4 -41 -4 q-84 0 -92 72q10 132 240 132q204 0 319 -148q69 -86 69 -180q0 -144 -155 -277q88 -45 131 -139t43 -219q0 -112 -36 -229.5t-113.5 -196t-194.5 -78.5q-37 0 -74 7.5t-97 25.5t-97.5 26t-77.5 8q-6 0 -24.5 -5t-28.5 -7q-58 34 -68 88z" />
<glyph unicode="4" horiz-adv-x="1100" d="M12 1116q0 17 36 27t83 10q84 -1 84 -25q30 -380 74 -636q2 -20 66.5 -28t193.5 -12q73 4 191 4q0 110 -9 380q7 342 65 556q10 34 59 59t97 25q52 0 52 -36v-12q-40 -200 -61 -388t-23 -380q8 -127 8 -191q41 0 64.5 -28.5t23.5 -72.5q0 -39 -22 -67.5t-58 -32.5 q16 -120 64 -212q0 -28 -88 -36q-94 8 -103 36q-33 90 -53 216q-112 0 -332 -8q-274 8 -295 64q-14 28 -41.5 189t-50.5 338t-25 261z" />
<glyph unicode="5" horiz-adv-x="1280" d="M0 328q0 46 27.5 83t64.5 37q28 0 43 -12q28 -18 109.5 -73t132 -84t98 -46t101.5 -18q60 9 84 13q80 18 145 81.5t102 136.5t37 113q-3 76 -46.5 143.5t-105.5 117.5t-122 79t-94 33h-23q-79 0 -205 -68q-14 -12 -43 -36t-69 -27q-73 19 -100.5 71t-27.5 140 q-20 123 -20 227q7 280 80 338q30 23 108 23h36q44 2 93 3.5t92.5 6.5t98 17t112.5 34q18 6 36 6q41 0 66.5 -40t25.5 -91q0 -48 -27 -60q-177 -84 -401 -92q-38 4 -92 4q-26 -118 -32 -204q5 -38 13 -127q175 83 266 83q99 -2 237 -83t239 -224t101 -321q-9 -150 -98 -258 t-224 -166q-136 -60 -282 -72q-92 3 -203 54.5t-296 185.5q-30 20 -37 72z" />
<glyph unicode="6" horiz-adv-x="1237" d="M33 576q8 136 61.5 262t136 237t175 208t218.5 216q20 21 52 21q38 0 65 -28q27 -26 27 -64q0 -28 -16 -40q-74 -70 -182 -202t-195 -258t-111 -193q-22 -58 -28 -147q3 -128 58.5 -239t117.5 -134q32 -7 96 -15q114 4 225 55t139 113q12 28 12 103q0 120 -43 202.5 t-149 82.5q-74 0 -148 -46t-132 -126q-22 -28 -60 -35q-28 0 -48 21.5t-24 53.5q16 86 81.5 159t156 115t178.5 42q94 0 167 -39t122 -106t74 -151t25 -175q0 -107 -32 -193q-24 -52 -99 -120.5t-200.5 -119t-287.5 -50.5q-50 0 -74 2q-86 8 -168.5 94.5t-135 220 t-54.5 273.5z" />
<glyph unicode="7" horiz-adv-x="1011" d="M131 1392q3 41 26 69.5t66 31.5q50 2 162 2q1 0 122 2.5t191 9t130 21.5q52 0 82 -39t30 -93q0 -16 -8 -40q-82 -188 -148 -339t-117 -294.5t-87 -305t-48 -341.5q-3 -46 -28.5 -69t-63.5 -23q-45 0 -82.5 32t-37.5 72q22 203 70 397.5t102.5 349t106 272t77.5 177.5 q-204 -14 -340 -20q-30 3 -68.5 6.5t-68 15.5t-47.5 37t-21 69z" />
<glyph unicode="8" horiz-adv-x="1239" d="M125 504q7 100 71 168q126 134 248 256q-266 216 -272 385q4 70 44 125.5t103 84.5t133 29q112 0 230 -44t230 -103q12 12 26 25.5t28 21.5t30 8q38 0 67 -31t29 -73q0 -32 -21 -48q13 -12 13 -44q0 -34 -23 -64t-65 -32q-36 10 -52 16q-36 -34 -67 -66t-90 -93t-75 -77 q376 -270 376 -608q0 -136 -82 -219.5t-258 -83.5q-47 0 -130 -33q-82 -32 -122 -32q-60 0 -109 48q-103 100 -172.5 225t-89.5 259zM299 496q2 -60 39.5 -131t95.5 -126t119 -71q14 2 44.5 18.5t58.5 22.5q34 4 66.5 7t65.5 7q46 10 71 54.5t25 109.5q0 98 -38 173.5 t-99 131.5t-155 123q-130 -115 -272 -262q-14 -13 -21 -57zM352 1300q2 -56 68 -127t139 -125q169 158 229 220q-58 26 -109 47.5t-118 41t-117 19.5q-52 0 -76 -28q-10 -14 -16 -48z" />
<glyph unicode="9" horiz-adv-x="1124" d="M60 1024q6 112 32 209q21 66 67.5 124.5t109.5 103.5t133 70t138 25q176 0 269 -48q4 18 28 29t56 11q54 0 90.5 -34t36.5 -105q0 -32 -4 -53q24 -50 24 -117q0 -83 -49 -199q-14 -124 -25.5 -232.5t-18.5 -178t-19 -191.5t-16 -166q-5 -68 -22 -124t-44.5 -126 t-40.5 -114q-12 -46 -41.5 -69t-67.5 -23q-41 0 -68.5 35t-27.5 98q5 47 28 102t45.5 109t26.5 104q48 406 56 457q-66 -81 -158 -124t-186 -44q-116 3 -197 63q-75 60 -113 171t-42 237zM256 1028q9 -200 92 -236q44 -22 92 -28q160 4 336 260q3 28 6.5 74t8.5 119.5 t5 74.5q-81 32 -130.5 48t-102.5 16q-67 0 -136.5 -38t-116 -100t-50.5 -130q0 -35 -4 -60z" />
<glyph unicode=":" horiz-adv-x="381" d="M180 20q3 10 12 75t29.5 94.5t71.5 29.5q46 0 84.5 -20t50.5 -51q8 -16 8 -56q0 -188 -112 -188q-56 0 -100 32q-44 30 -44 84zM223 876q3 10 12 75t29.5 94.5t71.5 29.5q42 0 81.5 -20.5t51.5 -50.5q6 -24 6 -64q0 -82 -22 -129q-23 -47 -89 -55q-56 4 -98.5 36 t-42.5 84z" />
<glyph unicode=";" horiz-adv-x="469" d="M148 20q6 52 24 92q24 53 73.5 84.5t102.5 31.5q58 0 85.5 -41t27.5 -99q0 -82 -46 -188t-122 -207q-25 -33 -57 -33q-20 0 -34 16t-18 40q20 46 48 93t65 111q-26 -16 -49 -16q-42 0 -70 36q-26 36 -30 80zM223 876q3 10 12 75t29.5 94.5t71.5 29.5q42 0 81.5 -20.5 t51.5 -50.5q6 -24 6 -64q0 -82 -22 -129q-23 -47 -89 -55q-56 4 -98.5 36t-42.5 84z" />
<glyph unicode="&#x3c;" horiz-adv-x="1239" d="M76 620q6 80 40 111q64 58 365 194.5t515 210.5q20 4 28 4q45 0 74.5 -37t29.5 -87q0 -70 -61 -88q-86 -26 -236.5 -83t-293.5 -121t-213 -108q30 -17 117 -57.5t201.5 -93.5t121.5 -57q52 -20 144 -92t136 -148q8 -25 8 -39q0 -42 -37 -77.5t-79 -39.5q-42 9 -69 34.5 t-81 85.5t-90 81q-7 4 -96.5 42t-186.5 82.5t-181 91.5t-120 83q-30 30 -36 108z" />
<glyph unicode="=" horiz-adv-x="1175" d="M121 448q7 76 59 76q86 -16 272 -24q60 0 167.5 2t185.5 2q143 0 215 -8q34 -3 53 -29q19 -25 19 -59q0 -30 -19.5 -51t-52.5 -21q-168 8 -236 8h-80q-59 2 -164.5 3t-191.5 5q-86 2 -172 12q-48 4 -55 84zM156 796q6 80 72 80q40 -6 153 -16q57 0 108 4.5t148.5 16 t153.5 17.5q57 5 117 5h75q30 -3 49.5 -33t19.5 -69q0 -61 -52 -61q-17 0 -56.5 2t-59.5 2q-64 0 -124.5 -5t-138 -13.5t-137.5 -14t-120 -7.5q-47 2 -93 5t-78 22q-31 19 -37 65z" />
<glyph unicode="&#x3e;" horiz-adv-x="1192" d="M68 164q38 151 304 268q50 22 248 118t256 130q-70 42 -197 96.5t-244 97t-230 78.5q-57 16 -65 92q0 46 30 83t74 37q9 0 19 -2.5t13 -2.5q131 -46 309.5 -119t318.5 -141.5t180 -106.5q36 -31 36 -112q0 -72 -32 -104q-77 -77 -173.5 -127.5t-251.5 -114.5t-254 -119 t-173 -139q-18 -22 -52 -29q-40 0 -77 37.5t-39 79.5z" />
<glyph unicode="?" horiz-adv-x="1192" d="M135 1192q15 76 73 150t156 125t220 57q126 0 229 -44t175 -120t110 -175t38 -208q0 -155 -85 -256.5t-198 -151t-212 -65.5q-3 0 -13 -160q0 -47 -88 -55q-54 3 -77 29t-23 78q0 6 3 96t10.5 134t25.5 46q94 18 188.5 49t174.5 99q80 70 82 176q0 81 -35 158.5 t-114 129.5t-199 52q-46 0 -98.5 -25.5t-98 -70t-72.5 -95.5q-24 -53 -92 -61q-34 3 -57 31t-23 77zM408 0q42 192 151 192q52 0 84 -52q13 -22 13 -48q0 -30 -33 -72t-39 -53q-36 -63 -88 -63q-32 0 -57 30t-31 66z" />
<glyph unicode="@" horiz-adv-x="2115" d="M41 772q3 230 147 356q56 50 149 161t154 170t160 104.5t238 48.5q138 0 266.5 -55t231.5 -154t162 -226t59 -265q0 -124 -43 -255t-128 -225t-208 -112q-132 0 -172 132q-152 -138 -330 -145q-104 6 -180.5 67.5t-117.5 157.5t-44 203q8 88 44.5 171.5t97.5 152.5 t141 109t168 40h40q26 25 52 29q60 1 120 -61q20 88 84 88q37 0 67 -18.5t30 -53.5q0 -36 -15.5 -101t-17.5 -91q12 -74 12 -156q0 -81 -9 -156.5t-19 -95.5q4 -25 18 -62.5t41 -37.5q40 2 82.5 50t75.5 122.5t47 150.5q8 75 8 97q0 105 -47.5 204.5t-129 178.5t-182 124 t-204.5 45q-112 -2 -191 -38t-127.5 -85t-118.5 -133q-69 -84 -116 -124q-134 -109 -140 -324q2 -152 83 -301t228.5 -243.5t336.5 -94.5q118 4 284 36.5t326 88.5t270 122q4 4 21 4q26 0 49 -32q22 -32 22 -68q0 -26 -16 -36q-120 -76 -293 -134t-345 -87t-302 -29 q-8 0 -23 1t-22 1q-175 6 -319 77.5t-245.5 187t-155 251.5t-54.5 268zM524 752q18 -152 75 -222t136 -74q88 4 173.5 61.5t115.5 119.5q0 88 -4 123q2 36 6 100l6 96q-4 26 -24 27q-6 0 -23 -4t-29 -6q-20 10 -49 34.5t-51 37t-51 12.5q-63 0 -127 -42t-94 -112 q-3 -10 -31.5 -57.5t-28.5 -93.5z" />
<glyph unicode="A" d="M56 213q8 50 32 97t69 116.5t58 93.5q-61 -8 -75 -8q-28 0 -46 24.5t-22 59.5q5 38 27.5 60t54.5 31t70 12t75 5q50 104 89.5 189.5t117.5 257t113 239.5t57 90q42 40 76 40q70 0 142 -108t128.5 -250t107.5 -295t58 -167q45 -8 68.5 -46t23.5 -82q0 -42 -16 -48 q44 -103 85 -173.5t127 -194.5q18 -30 19 -60q0 -32 -28.5 -52t-70.5 -24q-60 8 -79 40q-112 144 -256 464q-277 20 -493 21q-42 0 -83 -2.5t-49 -2.5q-156 -288 -204 -368q-26 -44 -84 -51q-34 0 -62 27t-30 65zM504 712h137q191 0 342 -8q-26 72 -74.5 204.5t-96.5 243 t-66 110.5q-2 0 -6 -6z" />
<glyph unicode="B" horiz-adv-x="1360" d="M56 76q3 56 26.5 97.5t57.5 41.5q4 45 4 201q0 409 -28 780q0 24 29.5 40t69.5 16t66 -15t26 -45q13 -88 13 -272q8 0 57 2t84 2q112 0 215 -8q62 62 98.5 117.5t36.5 119.5q-52 178 -375 178q-82 0 -194 -9t-117 -9q-57 0 -65 92q3 38 17.5 66.5t34.5 31.5 q160 21 284 21q104 0 209 -19.5t199 -64.5t153 -123q59 -79 59 -189q0 -120 -144 -272q8 -5 57.5 -29.5t83 -47.5t52.5 -52q63 -111 63 -239q0 -108 -52 -206t-149 -173t-229 -117.5t-286 -42.5q-70 0 -105 4q-5 -49 -71 -49q-38 0 -76.5 22t-38.5 46q-57 10 -65 104z M324 172q12 0 61 -8q102 0 229.5 37t218.5 111t91 180q0 56 -25 116q-10 24 -51 45t-103 42t-65 22q-42 -16 -144 -25q-109 7 -204 39q-2 -52 -2.5 -261.5t-5.5 -297.5z" />
<glyph unicode="C" horiz-adv-x="1628" d="M56 760q8 122 16 180q22 116 89.5 231t167 209t217.5 148.5t238 54.5q158 0 388 -127q65 -37 65 -94q0 -38 -29.5 -64t-75.5 -30q-43 10 -57 16q-100 56 -152 77q-53 21 -139 21q-28 0 -44 -2q-72 -4 -171 -75t-179 -173.5t-101 -191.5q-22 -98 -29 -205q2 -133 46 -238 t116 -173q72 -66 158 -96q148 -56 401 -56q82 2 117.5 23.5t86 70t99.5 66.5q34 8 52 8q56 0 94 -34.5t38 -86.5q0 -61 -63 -119q-161 -151 -457 -151h-4q-240 0 -508 98q-80 33 -148 101t-120.5 164.5t-81.5 210.5q-28 114 -30 237z" />
<glyph unicode="D" horiz-adv-x="1671" d="M-4 51q0 51 31 69t102 36q12 116 34.5 291t34 261t24 213t18.5 263q0 90 -44 284q0 46 30 71t71 25q80 0 94 -56q16 -39 27 -93.5t16.5 -114.5t5.5 -108v-52q0 -162 -15.5 -289t-48 -329t-40.5 -317l62 9q63 10 141.5 18t164.5 8q56 0 172 -8q61 0 147.5 57t148 161 t61.5 238q0 164 -86 311t-230.5 235.5t-308.5 88.5q-15 0 -42.5 -1t-41.5 -1q-32 0 -50 25.5t-22 64.5q8 105 68 105q29 4 84 4q164 0 315 -67t269 -185t185 -272t67 -320t-79.5 -319t-197.5 -245t-225 -92q-30 0 -45 4q-77 16 -181 17q-87 0 -170 -11.5t-210 -33.5 q-6 -48 -40 -72t-79 -24q-32 0 -55.5 11t-26.5 29q-7 -2 -22.5 -5t-28.5 -7q-38 0 -61 38t-23 85z" />
<glyph unicode="E" horiz-adv-x="1124" d="M92 -72q8 74 52 92q36 406 36 644q0 349 -59 700q0 46 30.5 73t76.5 27q40 0 66 -20t30 -60q30 -253 44 -404q13 -150 13 -316q0 -258 -41 -608q111 14 282.5 27t237.5 13q50 -3 77 -32t27 -68q0 -44 -24 -75t-64 -33q-30 -3 -119 -8.5t-195 -13.5t-199 -18t-154 -24 q-108 0 -117 104zM352 1323q3 47 28 78q24 31 68 31h105q112 0 238.5 -7t176.5 -16q34 -6 53 -37q19 -32 19 -72q0 -42 -27 -69t-81 -27q-48 6 -150 11t-225 8.5t-133 5.5q-30 6 -49 32.5t-23 61.5zM408 796q8 94 71 101h80q139 -1 233 -29q56 -20 56 -88q0 -40 -26 -68 t-70 -28q-38 8 -84 11t-98 5t-99 4q-27 0 -43 27t-20 65z" />
<glyph unicode="F" horiz-adv-x="1153" d="M104 1468q8 94 44 101q108 14 292 14q188 0 345.5 -23t226.5 -75q45 -32 45 -98q0 -49 -21 -80.5t-55 -34.5q-112 56 -234.5 70t-322.5 18q16 -165 16 -252q0 -48 -8 -196q42 -8 101 -22t109 -23t85 -11q36 -3 55 -34.5t19 -77.5q0 -45 -22.5 -76t-61.5 -31 q-43 2 -93.5 13t-114 28.5t-85.5 21.5q-3 -28 -18 -115.5t-25.5 -163t-12.5 -141.5q6 -84 23 -145q9 -19 9 -43q0 -63 -45 -99t-111 -36q-65 1 -76 27q-2 2 -4 9t-4 11q2 13 11 49q9 35 9 51q-8 36 -16 136q2 79 9 134.5t26.5 188.5t19.5 168q-17 10 -30.5 43.5t-16.5 73.5 q8 86 56 92q4 41 4 121q0 61 -9 163q-9 104 -10 120h-41q-30 0 -47 37t-21 87z" />
<glyph unicode="G" horiz-adv-x="1876" d="M41 721q2 164 71.5 327t189.5 294t276.5 208.5t324.5 77.5q120 0 230 -60t188 -148q27 -26 27 -72q0 -44 -37 -78t-82 -37q-47 9 -61 31q-46 65 -121 106t-150 41q-124 -16 -241 -79.5t-207.5 -161.5t-144.5 -218q-53 -122 -56 -248q8 -143 97 -255.5t226 -174.5t281 -65 q105 2 203.5 31.5t179.5 87.5t131 143q52 85 58 193q-46 0 -212 -34q-164 -34 -292 -77q-12 -4 -21 -4q-40 0 -67.5 43t-30.5 96q7 70 43 80q124 50 371 92.5t364 42.5q53 0 53 -6q20 -55 20 -153q0 -87 -22 -179t-61 -174.5t-89 -138.5q-72 -80 -174 -136t-221 -85 t-245 -31q-188 3 -352.5 69.5t-264.5 190.5q-178 224 -182 461z" />
<glyph unicode="H" horiz-adv-x="1573" d="M-33 33q0 5 2.5 15t2.5 16q159 386 159 882v6q0 116 -7.5 226t-17.5 193t-20 153q-10 72 -10 84q0 53 85 53h3.5h2.5q89 0 101 -53q22 -116 43.5 -302t24.5 -319q312 21 416 21q144 0 268 -21q10 124 17 228.5t12.5 177.5t15.5 171q0 22 25.5 35t62.5 13q46 0 77 -18 q30 -18 30 -46q-20 -265 -52 -616q168 -54 168 -140q0 -38 -22 -67t-54 -33q-15 8 -24 8q-56 23 -72 27q-3 -74 -16 -284q-12 -211 -12 -339q0 -72 -105 -80q-44 3 -77.5 24.5t-33.5 55.5q0 62 7 167t21 271t20 246q-120 22 -312 23q-172 -1 -360 -23q-8 -133 -24.5 -276.5 t-51.5 -287.5q-36 -142 -96 -244q-28 -48 -88 -48q-42 0 -75.5 29.5t-33.5 71.5z" />
<glyph unicode="I" horiz-adv-x="1016" d="M-180 213q0 48 25 81.5t67 33.5q34 0 67 -8.5t87 -25.5q54 -18 74 -22q-3 118 -5 216t-4 155q9 375 9 621q-24 0 -36 -4q-69 4 -114.5 36t-45.5 96q0 36 19 64.5t53 28.5q17 0 54 -8q38 -9 42 -9q30 0 83 8.5t98 16.5t87 13.5t85 5.5q85 0 143 -19q32 -9 33 -73 q0 -43 -19.5 -73t-49.5 -30q-58 6 -103 6q-39 -1 -145 -19q0 -536 32 -1076q82 -14 285 -36q28 -3 43.5 -31t15.5 -69q0 -43 -20 -73.5t-52 -30.5q-148 16 -255 29.5t-239 38.5q-132 24 -250 60q-64 18 -64 97z" />
<glyph unicode="J" horiz-adv-x="927" d="M-8 368q0 88 29 160t104 72q46 0 75 -32q28 -30 28 -76q0 -30 -20 -78.5t-24 -65.5q3 -58 59 -103q55 -45 129 -45q83 0 139.5 40t89 125t40.5 215q2 26 2 76q0 96 -9 173t-29.5 203t-29.5 199t-12 180q0 71 26.5 114.5t57.5 43.5q55 0 61 -74q15 -155 57.5 -382 t56.5 -319q14 -94 14 -254q0 -110 -46 -234t-148 -211t-257 -87q-79 0 -169 31t-128 73q-96 108 -96 256z" />
<glyph unicode="K" horiz-adv-x="1243" d="M104 652q6 62 40 104q0 183 -36 608q0 49 23 76.5t61 27.5q40 0 71 -25t34 -67q11 -101 22 -261.5t17 -234.5q164 133 276 243.5t224 268.5q30 40 72 40q41 0 70.5 -30t29.5 -75q0 -31 -17 -59q-36 -59 -73.5 -105t-89.5 -102.5t-84 -96.5q31 -101 153.5 -315.5 t172.5 -314.5t50 -201q0 -37 -12 -73q-24 -64 -96 -64q-39 0 -72.5 25t-36.5 63q-8 92 -38.5 179t-84.5 191.5t-101 198t-83 187.5q-22 -24 -72 -67t-102 -89t-66 -60q4 -44 4 -132q0 -212 -20 -352q3 -50 6.5 -96t4.5 -73.5t1 -62.5q0 -36 -33 -58t-79 -22q-38 0 -68 16 t-32 44q-11 92 -19 260q8 57 12.5 121.5t6.5 135.5t4 135q-32 48 -40 112z" />
<glyph unicode="L" horiz-adv-x="1095" d="M51 1380q0 40 32.5 64t76.5 24t72 -18.5t28 -53.5q0 -99 16 -188t51 -221.5t51 -200.5t18 -143q20 -159 20 -319q4 -34 4 -111q36 2 203 12.5t237 10.5q152 0 152 -120q0 -42 -27 -71t-73 -29h-103q-173 0 -497 -32q-98 0 -107 84q2 6 3 8.5t1 3.5v160q-1 206 -21 420 q-8 86 -25 166t-46 194.5t-43 186t-23 173.5z" />
<glyph unicode="M" horiz-adv-x="1779" d="M135 903q4 200 18.5 336.5t34.5 169.5q16 26 56 43q42 16 84 16q120 0 120 -100q90 -40 170.5 -113t151 -162t114 -144.5t60.5 -55.5q29 17 59.5 82t100.5 231t119 258t100 123q43 25 113 25q62 0 106 -20q46 -21 54 -60q18 -83 34 -239.5t25.5 -339.5t9.5 -353 q-1 -228 -21 -395q-6 -46 -47 -71.5t-98 -29.5q-51 3 -83 29.5t-32 75.5q16 222 30 502.5t14 456.5t-17 176q-6 0 -6 -8q-31 -56 -92 -225t-98 -258t-79 -122q-62 -54 -109 -85q-47 -32 -103 -34q-93 19 -151.5 84.5t-125 185.5t-121 189t-141.5 97q-15 -72 -21 -279 q3 -233 31.5 -534t65.5 -515q0 -24 -28.5 -39.5t-68.5 -15.5q-80 0 -92 47q-46 134 -75.5 316t-44 376t-17.5 379z" />
<glyph unicode="N" horiz-adv-x="1569" d="M121 215q29 180 49 353.5t36 358t26 320.5q6 100 42 158.5t94 58.5q62 0 132 -49q40 -26 62 -50.5t41.5 -55.5t43.5 -70q96 -138 174.5 -261.5t165.5 -293.5t153 -360q32 84 61 257.5t50 371t33 367.5q10 170 12 257q0 28 24 43.5t60 15.5q46 0 79.5 -21t33.5 -55 q-2 -170 -24 -441t-60.5 -526t-85.5 -378q-28 -78 -87.5 -136.5t-123.5 -62.5q-52 6 -85 45t-54 93t-45 114q-26 77 -78.5 183.5t-119 220.5t-144.5 238t-166 254q-6 -116 -26 -292.5t-50 -353.5t-64 -313q-11 -62 -75 -70q-34 4 -59 27.5t-25 52.5z" />
<glyph unicode="O" horiz-adv-x="1728" d="M68 772q8 78 8 92q20 156 77 280t136 211t166 144t178 93q61 54 145 81t182 27q130 0 251.5 -50t203.5 -147q189 -222 189 -559q0 -152 -35 -303q-36 -148 -128.5 -282.5t-244.5 -222t-352 -89.5q-92 9 -148 17q-171 28 -293.5 103t-195.5 177.5t-105 212.5t-34 215z M280 792q2 -82 33.5 -164t87 -151t130.5 -116.5t161 -63.5q40 -9 127 -17q114 2 218.5 44t188.5 142t126 265q28 113 28 229q0 175 -70 306q-72 131 -186 186q-40 -32 -88 -32q-20 0 -61 2t-63 2q-78 0 -132 -15q-23 -14 -55 -58.5t-49 -54.5q-18 -13 -64 -20q-50 6 -72 24 q-118 -82 -189 -213t-71 -295z" />
<glyph unicode="P" horiz-adv-x="1188" d="M-43 700q0 46 23.5 82.5t62.5 36.5q13 -2 17 -2.5t9 -1.5t8 -1t15 -3q-2 86 -3 170.5t-4.5 173t-13 175t-24.5 159.5q7 103 113 103q44 0 68 -16.5t24 -39.5q202 0 378.5 -72t285 -195t116.5 -269q0 -110 -70 -191t-182 -132t-242 -75t-249 -26q-5 4 -13 4 q-26 -362 -48 -547q-6 -57 -80 -57q-36 0 -64 19t-28 48q40 377 40 561q-29 5 -54 10.5t-43 13t-30 26t-12 46.5zM272 1348q8 -227 8 -572q8 0 26 -1t28 -1q112 0 230 24t199 76t81 130v12q-8 106 -90 181t-210 113t-272 38z" />
<glyph unicode="Q" horiz-adv-x="1833" d="M41 660q5 222 122 412t312 304t418 117q73 23 155 23q130 0 240 -52t190 -143t123 -208t43 -241q0 -296 -196 -592q-48 -74 -108 -124q20 -14 70 -59t75 -60q14 -12 14 -41q0 -43 -38 -90q-39 -46 -81 -46q-5 0 -11.5 2.5t-8.5 2.5q-33 14 -66 44.5t-67.5 64t-62.5 46.5 q-158 -88 -345 -88q-148 0 -287 55.5t-249.5 156.5t-174.5 234q-65 134 -67 282zM260 704q2 -87 31.5 -173.5t85 -159.5t127.5 -115q146 -86 315 -92q66 8 80 8q-19 10 -26 18t-11 20t-10 34q0 47 33 83.5t83 36.5q31 0 58.5 -11.5t63.5 -34.5q36 -24 55 -34 q128 138 201.5 281t73.5 307q0 203 -116 324q-22 -8 -44 -12q-36 10 -102.5 35t-106 38t-83.5 15q-28 -6 -72 -37t-64 -35q-16 0 -27 -4q-35 2 -66 23t-35 33q-124 -36 -221 -116t-155 -192t-68 -240z" />
<glyph unicode="R" horiz-adv-x="1200" d="M72 412q2 184 19 377t50 377t82 327q23 71 113 71q41 0 73 -15t35 -33q98 -6 210.5 -42t217.5 -98t174 -144q70 -84 78 -180q0 -112 -41 -200.5t-98 -146t-113 -89.5q60 -231 168 -565q4 -17 4 -23q0 -41 -42 -72.5t-90 -31.5q-60 0 -72 48q-22 71 -56 194.5t-66 236.5 t-46 156q-16 -2 -113 -10q-165 8 -275 47q-10 -130 -16 -293q8 -127 8 -203q0 -42 -30 -69.5t-70 -30.5q-82 8 -88 92q-8 82 -16 320zM303 811q155 -49 273 -55q138 16 239 77t101 183q0 77 -95 147.5t-219.5 114t-197.5 43.5q-54 -186 -101 -510z" />
<glyph unicode="S" horiz-adv-x="1300" d="M-84 360q0 34 33 61t71 27q42 0 60 -28q72 -106 195 -177.5t237 -74.5q66 4 117 36t123 106q72 73 80 81q67 67 67 161q0 71 -36.5 139.5t-121.5 135.5t-217 121q-27 12 -106.5 38t-135.5 53.5t-99.5 74t-57.5 115.5q-1 20 -9 59q2 101 62 166t151 94t191 29h5 q142 0 319 -53q24 -6 24 -52q0 -41 -20 -79q-22 -37 -52 -41q-49 20 -132.5 38.5t-163.5 18.5q-75 0 -124.5 -25t-55.5 -76q0 -50 36 -87t89 -61t132 -48t99 -32q128 -49 211 -116t127 -138.5t61 -140.5t17 -132q0 -112 -30 -187.5t-114 -137.5q-30 -23 -82.5 -81.5t-83 -87 t-87 -55t-132.5 -28.5q-205 0 -369 90t-266 250q-12 18 -12 44z" />
<glyph unicode="T" horiz-adv-x="1239" d="M-92 1288q0 58 51 88q92 48 194.5 97t222.5 96t246 84t262 59q52 0 78 -30q25 -28 25 -74q0 -39 -18.5 -68.5t-56.5 -36.5q-150 -35 -384 -107q-2 -85 -8 -187.5t-16 -226t-16.5 -235t-8.5 -207.5q8 -252 41 -376q4 -18 4 -24q0 -37 -27 -59q-27 -21 -65 -25 q-84 8 -96 65q-44 163 -52 403q2 96 7.5 163t19 212t19.5 241t6 187q-46 -16 -97 -39.5t-128 -63.5t-95 -48q-13 -4 -20 -4q-32 0 -60 36.5t-28 79.5z" />
<glyph unicode="U" horiz-adv-x="1292" d="M47 940q3 83 6 139.5t5 112.5q4 56 6 144q0 29 27 44.5t65 15.5q47 0 79.5 -19t32.5 -54q0 -97 -8 -311q2 -112 9 -195t22.5 -170t44.5 -176q40 -126 134 -199q94 -72 202 -76q86 2 159 49t120 138t53 221q2 29 2 84q0 128 -16.5 259t-49 273t-80.5 296q-4 12 -4 18 q0 38 44 68t91 30q62 0 74 -40q33 -108 62.5 -235.5t51 -254t32.5 -240.5t11 -217q0 -12 -1 -33.5t-1 -31.5q-6 -112 -37 -215.5t-87.5 -189.5t-137 -141.5t-182.5 -70.5q-32 -4 -96 -4q-188 0 -329.5 106t-206.5 307q-52 157 -73 287.5t-24 280.5z" />
<glyph unicode="V" horiz-adv-x="1499" d="M51 1380q0 24 21.5 47.5t53.5 38.5q30 14 58 14q42 0 60 -24q36 -50 52 -95t38 -124t38 -117q21 -45 63.5 -100t74.5 -99q33 -43 53 -97q46 -116 84 -260t70 -300q0 -8 4 -8q8 0 26.5 48t36.5 106.5t64 215.5q48 158 72 238q59 195 136 370.5t132 233.5q34 34 80 35 q48 0 84 -31.5t36 -70.5q0 -25 -12 -37q-94 -131 -159 -295.5t-136 -410.5t-119 -385t-118 -253q-15 -25 -60.5 -41t-99.5 -16q-50 0 -86 18t-39 52q-53 355 -159 651q-22 62 -47 101t-77 109q-52 72 -71 114q-20 38 -47.5 125t-42.5 126t-47 85q-8 12 -17 36z" />
<glyph unicode="W" horiz-adv-x="1939" d="M24 1388q0 48 28.5 72.5t72.5 24.5q34 0 59.5 -12.5t30.5 -36.5q40 -153 90.5 -335.5t86 -310t70.5 -260.5q34 -134 62 -254q49 270 103.5 472t140.5 376q27 52 75.5 80.5t104.5 28.5q60 0 100 -29.5t44 -79.5q19 -201 70 -512q52 -310 90 -407q29 124 109.5 411.5 t154.5 543.5t80 268q6 26 35 41.5t65 15.5q44 0 72 -22.5t28 -70.5q0 -16 -8 -56q-107 -337 -163.5 -519.5t-120 -413.5t-99.5 -411q0 -31 -44.5 -49.5t-100.5 -18.5q-90 0 -107 35q-48 62 -87.5 191.5t-68.5 281.5t-51 314.5t-30 230.5q-32 -60 -73 -216.5t-97 -391.5 t-70 -281q-8 -34 -62 -59.5t-110 -28.5q-78 6 -96 51q-22 74 -54 182t-128 439t-146 507.5t-56 208.5z" />
<glyph unicode="X" horiz-adv-x="1343" d="M0 72q2 6 4 17t4 15q30 64 122 191t198 257t204 244q-48 84 -127 197t-157 203t-132 125q-48 25 -56 88q0 42 28 75q30 32 68 32q12 0 36 -8q144 -63 472 -568q316 310 380 352q38 20 64 21q42 0 69 -37.5t27 -83.5q0 -36 -16 -47q-372 -322 -416 -373q31 -60 97 -197 t123.5 -252.5t104.5 -201t79 -121.5q16 -26 16 -41q0 -38 -39 -72.5t-82 -34.5q-26 0 -43 17q-25 25 -90.5 164t-154.5 328t-142 276q-40 -48 -110.5 -139.5t-138 -184.5t-123.5 -172t-97 -141q-13 -20 -51 -20q-39 0 -79 28q-39 28 -42 64z" />
<glyph unicode="Y" horiz-adv-x="1220" d="M84 1458q0 42 34 72t74 30q56 0 68 -40q36 -107 80.5 -186.5t123.5 -199.5q78 -120 124 -206q212 302 344 500q16 32 68 32q45 0 80.5 -25t35.5 -63q0 -16 -8 -32q-58 -92 -107 -166t-92 -135t-118 -167.5t-99 -140.5q0 -73 5 -168.5t15 -248t15 -230.5q0 -37 -27 -59 t-67 -25q-40 3 -70.5 24.5t-30.5 51.5q-4 50 -12.5 149t-13.5 186q-4 87 -6 177q-44 38 -52 112q6 40 17 60q-43 90 -89 164t-115 177.5t-106.5 172.5t-66.5 154q-4 10 -4 30z" />
<glyph unicode="Z" horiz-adv-x="1460" d="M-100 188q0 50 28 84q80 98 185 217t274 305t270 299.5t195 223.5q-94 1 -568 19q-40 0 -62 31t-26 73q8 96 68 96h76q532 0 647 -51q78 -34 78 -168q-1 -60 -17 -80q-90 -110 -216 -252.5t-311 -344.5t-252 -275t-109 -129q76 0 195 13t300 38t294 39t171 14 q44 0 70 -30t26 -78q0 -42 -19 -71.5t-52 -29.5q-16 0 -251 -32.5t-452.5 -58.5t-341.5 -28q-89 6 -96 12q-38 18 -71 68q-33 48 -33 96z" />
<glyph unicode="[" horiz-adv-x="880" d="M96 1229q2 98 36.5 164.5t102 106.5t169.5 56q44 0 66 -34t22 -82q0 -28 -12 -50.5t-32 -25.5q-82 -17 -117 -50.5t-38 -84.5q2 -33 27.5 -117t27.5 -131q0 -34 -17 -94.5t-19 -106.5q19 -72 26.5 -159.5t16 -198t22.5 -174.5q17 -121 53 -172.5t95 -65.5t215 -26 q33 -3 51 -30.5t18 -65.5q0 -44 -21 -75.5t-57 -31.5q-157 2 -273.5 46t-189.5 144.5t-92 264.5q-6 56 -28 215q-24 159 -32 237q0 38 -4 52q0 48 11.5 111.5t11.5 92.5q0 40 -4 60q-29 130 -35 225z" />
<glyph unicode="\" horiz-adv-x="1079" d="M196 1466q0 38 42 72q42 35 86 35q55 0 63 -41q20 -50 52 -104t70.5 -116t58.5 -108q57 -128 109.5 -263.5t99.5 -266t100.5 -280.5t113.5 -306q5 -8 5 -26q0 -40 -40 -69.5t-88 -29.5q-50 0 -59 37q-63 160 -97.5 254t-105 288.5t-119 320t-100.5 245.5 q-24 54 -90.5 163t-96.5 177q-4 12 -4 18z" />
<glyph unicode="]" horiz-adv-x="700" d="M-47 1436q0 46 18.5 79t48.5 33q188 -38 326 -119t138 -233q0 -86 -19 -180q2 -26 22.5 -103t20.5 -137q0 -160 41 -516q6 -62 6 -116q0 -196 -106 -294q-105 -99 -297 -102q-34 0 -53.5 29t-22.5 75q4 36 19 64t40 28q125 9 169 60.5t44 143.5q0 70 -6 150t-13.5 143 t-17 156.5t-12.5 162.5q-1 77 -16 160.5t-15 119.5q2 32 9 72t7 56q0 50 -30 83.5t-73 53t-96 34.5t-101 29q-30 6 -31 68z" />
<glyph unicode="^" horiz-adv-x="1175" d="M33 856l8 24q40 80 96.5 152t145.5 173t149 177t108 162q22 43 107 43q56 0 101.5 -19.5t56.5 -51.5q42 -126 84.5 -244t106.5 -293t100 -279q0 -28 -19.5 -50t-48.5 -35q-30 -13 -60 -15q-50 7 -56 37l-260 743q-46 -75 -142 -188.5t-183 -217.5t-131 -178 q-10 -22 -52 -28q-35 0 -71.5 28t-39.5 60z" />
<glyph unicode="_" horiz-adv-x="1208" d="M-56 -176q0 84 40 84q80 3 232.5 15t230.5 18q77 6 177 8q230 -7 396 -45q32 -6 32 -68q0 -40 -16 -68t-40 -28q-183 38 -396 45q-92 -2 -186 -9.5t-223 -18t-207 -13.5q-40 0 -40 80z" />
<glyph unicode="`" horiz-adv-x="663" d="M129 1524q0 27 21 56q20 28 42 28h17q42 -28 270 -119q46 -18 91 -59q46 -40 46 -82q0 -31 -16.5 -58.5t-40.5 -29.5q-52 53 -115 90.5t-167.5 84.5t-132.5 60q-12 7 -15 29z" />
<glyph unicode="a" horiz-adv-x="1401" d="M64 469q7 62 20 84q24 38 54 121.5t72 140.5t138 113q120 72 280 72h60q36 32 68 36q76 0 184 -76l16 68q6 34 36.5 55t72.5 21q48 0 91.5 -28t43.5 -72q0 -34 -15 -97.5t-17 -91.5q4 -46 13 -79.5t31 -103t33 -117t11 -95.5q0 -38 -19 -156q15 -37 37 -109.5t22 -130.5 q0 -36 -12 -48q-38 -36 -96 -36q-29 0 -49 11t-31.5 28t-21.5 39q-9 24 -21 54q-76 -72 -196.5 -116t-248.5 -44q-152 0 -264 64q-74 46 -141 134t-108 186t-43 173zM256 484q8 -26 8 -36q90 -353 348 -360q118 3 228.5 71.5t142.5 139.5q29 57 29 133q0 107 -64 260 q-10 35 -40 35q-8 0 -30 -4t-38 -6q-32 10 -81.5 41.5t-79 46t-71.5 14.5q-54 0 -113 -22.5t-106 -65t-65 -98.5q-4 -19 -25 -49.5t-31 -50t-12 -49.5z" />
<glyph unicode="b" horiz-adv-x="1456" d="M0 228q0 69 36 119.5t85 60.5l-29 248q-30 8 -61 38.5t-31 73.5q0 68 72 140q12 72 12 167q0 38 -2 101.5t-5 137.5t-5 130q8 212 49 301q20 55 92 55q39 0 74 -18t56 -50.5t21 -74.5q-23 -107 -37.5 -261t-19.5 -284q5 -28 5 -64q224 136 452 136q144 -14 264 -97.5 t190 -212t70 -270.5q0 -121 -59 -231.5t-159 -194.5t-222 -131t-240 -47q-45 0 -153.5 10t-178.5 10q-14 0 -44 -2t-44 -2q-46 0 -88 35t-69 86t-31 91zM303 731q4 -109 45 -411q80 -106 272 -124q97 0 203.5 68t176.5 176q71 108 71 216q0 46 -4 61q-9 47 -65 111 t-133 109.5t-144 45.5q-104 -2 -223.5 -60.5t-194.5 -130.5q0 -37 -4 -61z" />
<glyph unicode="c" horiz-adv-x="1579" d="M43 620q2 126 44.5 237t132.5 192.5t224 109.5q104 21 193 21q216 0 307 -115q29 -34 29 -78q0 -40 -31.5 -69.5t-77.5 -33.5q-29 6 -45 14t-54.5 31t-66.5 33.5t-61 10.5q-23 -1 -141 -17q-110 -20 -167 -113t-61 -223q8 -57 8 -75q18 -128 119 -249.5t297 -123.5 q46 4 144 20q79 17 125.5 51.5t118 99.5t112.5 81q20 8 60 8q58 0 95 -35t37 -90q0 -76 -84 -139q-37 -24 -80.5 -53t-84.5 -51t-91 -40q-105 -39 -179.5 -55t-231.5 -16q-166 0 -300.5 98.5t-210.5 252.5q-75 154 -79 316z" />
<glyph unicode="d" horiz-adv-x="1376" d="M121 633q2 138 62.5 273t171.5 220.5t253 85.5q54 0 160 -20q26 20 51 20q85 0 189 -108q-6 78 -12.5 152.5t-8.5 115.5q2 30 3.5 52t2.5 38.5t3 44t4 53.5q3 64 36 98t76 34q52 0 89.5 -36t37.5 -92q-7 -82 -15 -312q8 -270 36 -460q28 -106 28 -164q0 -54 -20 -120 q0 -31 12 -130.5t12 -154.5q0 -118 -124 -131q-48 9 -69 39.5t-28 87.5q-68 -68 -180.5 -112.5t-234.5 -46.5q-103 9 -144 20q-274 71 -360 356q-22 75 -31 197zM336 596q14 -94 62 -177t120 -132t154 -49q28 0 55 6q110 26 201 91t129 157q0 151 -37 276q-12 0 -24 -4 q-49 10 -81.5 48.5t-73.5 93.5t-81 75q-80 35 -136 35q-92 0 -157.5 -65t-98 -162t-32.5 -193z" />
<glyph unicode="e" horiz-adv-x="1409" d="M51 340q7 44 29 56q-18 60 -24 140q2 122 47 245.5t140.5 218t235.5 124.5q113 20 181 21q89 0 158.5 -23.5t124.5 -64.5t112 -103t90 -98q55 -66 55 -139q0 -60 -38 -105.5t-110 -62.5q-44 -12 -142 -28t-182 -35.5t-192 -59.5q-108 -38 -220 -102q52 -96 141 -155 t197 -85t226 -28q134 4 312 40q40 0 68 -33t28 -75q0 -68 -59 -80q-180 -37 -340 -37q-218 0 -411 79q-192 80 -322 278q-3 -3 -10.5 -5.5l-10.5 -3.5q-25 0 -52.5 40.5t-31.5 80.5zM236 540q4 -20 4 -48q222 103 401 151q44 13 151.5 42t140.5 39t35 16q0 11 -43.5 67.5 t-119 104.5t-172.5 48q-82 0 -154 -34t-125.5 -94t-84.5 -136t-33 -156z" />
<glyph unicode="f" horiz-adv-x="852" d="M12 721q8 107 203 191q-4 27 -9 57t-9.5 57.5t-9.5 67.5t-7 74q7 88 25 155q26 86 99 148t171 93.5t201 31.5q68 0 68 -97q0 -35 -14 -61q-14 -27 -34 -27q-92 -2 -191 -39.5t-118 -111.5q-7 -27 -15 -107q2 -28 9.5 -84.5t9.5 -87.5q30 6 61.5 13.5t63.5 12.5t52 5 q92 0 92 -100q0 -52 -35 -74.5t-103 -37t-90 -24.5q4 -46 4 -148q0 -123 -16 -252.5t-41 -237.5t-51 -166q-16 -44 -84 -44q-40 0 -68 23t-28 65q4 30 36 168t51 248t19 213q0 43 -2 63q-12 -6 -49.5 -28t-61 -32.5t-49.5 -10.5q-33 3 -54.5 26t-25.5 58z" />
<glyph unicode="g" horiz-adv-x="1347" d="M51 700q5 26 5 72q8 78 51 148.5t123 163.5q80 92 106 132q64 96 232 97q106 0 192 -41q22 28 55 28q67 0 166 -108q2 4 13.5 42t22 56t32 29.5t55.5 11.5t65 -15.5t49.5 -44.5t18.5 -71q-6 -33 -19.5 -85.5t-21.5 -114.5q4 -29 18 -76.5t22 -85.5q7 -38 7 -94 q-1 -118 -31 -269q-14 -65 -22.5 -214.5t-20 -240t-55 -188.5t-133.5 -168q-127 -100 -313 -100q-88 0 -181 30t-176 83t-143 118q-14 21 -20 49q0 39 35.5 79.5t68.5 43.5q49 -16 110.5 -66.5t111.5 -88.5t106 -48q58 -8 84 -8q145 0 220.5 110t75.5 353 q-45 -40 -126.5 -69.5t-173.5 -33.5q-70 6 -141 32t-173.5 80t-126.5 65q-70 26 -117 142.5t-51 264.5zM256 680q4 -82 28 -149t72 -83q35 -9 86.5 -40.5t95.5 -57.5q42 -24 90 -34q28 0 44 -4q93 3 173.5 49.5t114.5 117.5q0 251 13 397q-11 -6 -45 -12q-52 8 -76 39 q-14 18 -29 58.5t-22 55.5t-25 27q-122 80 -200 80q-46 -2 -87 -31t-76 -76t-69 -105l-68 -116q-13 -22 -20 -116z" />
<glyph unicode="h" horiz-adv-x="1237" d="M47 784q7 92 101 152q0 14 2 42t2 46q0 66 -11 183t-12 177q6 90 11.5 131.5t34.5 81t89 39.5q34 0 64.5 -15t49 -44t18.5 -69q0 -28 -5 -40q-21 -105 -27 -229q8 -129 17 -191q111 64 247 64q83 0 160 -25t137 -72.5t95 -114.5q36 -66 37 -148q-1 -96 -5 -160 q9 -179 52 -248q20 -36 20 -72q0 -48 -34 -85q-32 -37 -82 -39q-92 18 -138.5 96t-50.5 184q0 42 6.5 122t6.5 126q0 104 -51 170t-153 66q-62 0 -126 -27t-108 -75t-54 -110q-12 -76 -22 -164t-18.5 -154t-24 -143t-39.5 -151q-18 -70 -88 -76q-50 18 -70 48t-22 88 q2 52 18.5 147t33 195t23.5 194q-34 3 -57.5 31.5t-26.5 68.5z" />
<glyph unicode="i" horiz-adv-x="395" d="M20 316q4 72 32 223.5t36 204t8 132.5q0 38 -8 140q0 78 35 117t86 39q70 0 98 -48q45 -74 45 -164q0 -70 -11 -136t-35 -172.5t-34 -168.5q-10 -63 -12 -127q2 -22 15.5 -81t13.5 -91q0 -40 -35.5 -66.5t-81.5 -29.5q-144 16 -152 228zM116 1448q0 29 31 60.5t75 53 t77 21.5q8 0 16 -2t9 -2q32 -9 32 -107q0 -80 -21 -127t-91 -61q-26 0 -57 31t-51 71t-20 62z" />
<glyph unicode="j" horiz-adv-x="868" d="M-213 -56q0 76 33 144t100 68q48 0 80.5 -35t32.5 -97q-2 -20 -8.5 -54t-8.5 -42q20 -137 99 -137h1q39 0 65 33.5t38.5 79.5t12.5 80q-2 61 -21 182.5t-19 169.5q0 208 27 364q2 20 9 70t11.5 92t4.5 74q0 60 -4 88q0 52 35 78t85 26q64 0 88 -28q40 -58 40 -164 q0 -76 -13 -127q-36 -160 -43 -373q0 -96 14.5 -252.5t14.5 -216.5q0 -102 -43.5 -188.5t-124.5 -138.5t-185 -52q-142 0 -232 106q-89 106 -89 250zM196 1384q0 30 33 71t78.5 69t79.5 28q49 -16 49 -216q0 -32 -20 -57t-46 -40t-42 -19q-26 0 -57.5 31t-52.5 71 q-22 40 -22 62z" />
<glyph unicode="k" horiz-adv-x="1067" d="M96 135q2 38 27 123q25 84 25 114q-24 26 -32 103q8 93 52 141q0 266 -33 860q0 54 30 82q31 29 75 29t76.5 -25t35.5 -73q6 -49 11 -155t8 -221t5 -225q1 -108 1 -148q82 65 206.5 185.5t188.5 229.5q34 61 92 61q43 0 73.5 -30t30.5 -78q0 -26 -12 -47 q-72 -121 -235 -305q36 -106 125.5 -349t105.5 -291q4 -8 4 -36q0 -36 -31 -62t-73 -26q-64 0 -92 72q-95 232 -201 544q-173 -146 -191 -160q-9 -54 -20.5 -119t-31.5 -124t-56 -101t-92 -53q-20 4 -31.5 10.5t-17.5 16.5t-10.5 23t-12.5 34z" />
<glyph unicode="l" horiz-adv-x="471" d="M100 1247q8 133 8 193q3 62 34 93t73 31q50 0 83.5 -27.5t33.5 -68.5q-4 -118 -4 -190q0 -188 14 -348t42 -352.5t38 -269t10 -156.5q0 -62 -19 -100t-73 -44q-45 4 -83 37t-38 76q0 85 -36.5 311.5t-58.5 403.5t-24 411z" />
<glyph unicode="m" horiz-adv-x="1943" d="M20 188q2 36 11.5 90t23.5 110.5t30 113.5q15 58 31 114q-36 24 -40 84q8 94 80 176v21v31q6 140 15 206t52 86q35 8 53 9q50 0 84 -25q12 -12 12 -49q0 -46 -16 -121.5t-16 -69.5q106 106 324 107q114 0 199 -36.5t114 -110.5q168 59 322 59h5q108 0 197.5 -34.5 t153.5 -103.5t104 -173q33 -78 33 -203q0 -129 -60 -373q-12 -42 -84 -49q-90 7 -108 57q-16 35 -24 109q0 51 24 160t24 163q0 80 -42 135.5t-112 82t-150 26.5q-140 0 -244 -72q0 -36 -4 -56v-200v-140q-8 -216 -156 -248q-24 8 -28 8q-44 20 -52 88q3 43 11.5 88 t22.5 103.5t22 105.5t8 92q0 81 -4 103q-74 42 -80 104q8 46 36 72q0 44 -88 44q-121 0 -239 -67q-74 -40 -115.5 -89t-61.5 -109t-29 -153.5t-15 -164.5q-20 -161 -144 -193q-43 12 -58.5 30t-21.5 62z" />
<glyph unicode="n" horiz-adv-x="1284" d="M20 1016q6 46 40 85t80 39q52 0 88 -40q50 -60 65 -127q185 92 367 92q108 0 196 -35.5t146 -109.5q58 -72 73 -180q5 -26 5 -88q0 -52 -9 -187q7 -98 33 -166q28 -74 28 -119q0 -56 -31 -90.5t-81 -38.5q-174 19 -184 357q8 178 8 244q-3 92 -63.5 152t-160.5 60 q-146 -8 -296 -108q12 -153 12 -420q0 -228 -12 -276q-12 -52 -105 -60q-46 3 -82.5 23.5t-36.5 48.5q24 289 25 403q-1 81 -9 201q-24 0 -52 20t-31 56q7 50 43 100q-2 6 -28 69t-28 95z" />
<glyph unicode="o" horiz-adv-x="1409" d="M80 516q0 146 63 267.5t172 191t240 69.5h45q14 42 64 67t112 25q101 -12 193.5 -64t151.5 -139.5t63 -197.5q0 -32 9.5 -64.5t28 -76.5t28.5 -72t10 -61q0 -62 -60 -125q-98 -104 -195.5 -179t-211 -120t-238.5 -45q-122 0 -224.5 79.5t-167.5 201.5t-83 243zM289 540 q2 -78 42.5 -150.5t107.5 -121t145 -55.5q74 0 154 39.5t148 94.5t110 105q24 34 24 60q0 20 -19 65t-24 83q-10 36 -20.5 70.5t-20.5 70.5q-18 52 -64 75q-46 24 -124 48q-9 -48 -63.5 -79t-139.5 -36q-88 -10 -156.5 -51.5t-85.5 -114.5q-6 -39 -14 -103z" />
<glyph unicode="p" horiz-adv-x="1351" d="M56 -144q2 60 9 116t22.5 153t22 148t6.5 99q-34 48 -40 97q6 51 40 94v74q0 248 -20 467q0 45 80 45q38 0 67 -8.5t29 -20.5q8 -76 8 -164q48 55 119.5 95.5t151 60.5t153.5 20q98 0 198 -37.5t182 -105t131 -157.5t49 -191q0 -58 -16.5 -100.5t-45 -90t-34.5 -63.5 q-38 -106 -115 -198.5t-179 -148.5t-214 -56q-118 0 -222 62q-106 62 -166 138q0 -48 -17 -163t-19 -169q2 -24 15 -79t13 -85q0 -44 -30 -74t-66 -30q-44 0 -68 48q-38 92 -44 224zM280 479q40 -69 82 -126t97 -103t121 -62q34 -8 67 -8q78 0 142.5 46t112.5 113t98 157.5 t61 107.5q6 12 6 37q0 54 -53.5 127t-140.5 124.5t-181 51.5q-31 0 -68 -8q-112 -18 -212 -98.5t-119 -153.5q-3 -56 -7 -108t-6 -97z" />
<glyph unicode="q" horiz-adv-x="1519" d="M188 504q2 144 70.5 289t188 238t265.5 93q100 0 197 -34t156 -99q3 16 7 37.5t11.5 39.5t20.5 29q12 11 32 11q47 0 89.5 -23t42.5 -53v4q0 2 -64 -254t-64 -290q28 -30 28 -96q0 -90 -64 -144q-12 -84 -20 -256q6 -184 28 -252q0 -4 6 -4q18 0 108 72l91 72q6 0 14 8 q22 0 42.5 -19t33.5 -46.5t13 -49.5q0 -24 -9 -33q-40 -48 -161.5 -130.5t-201.5 -82.5h-2q-64 0 -82 69q-26 95 -40 178.5t-16 221.5q8 94 8 152q-96 -44 -240 -52q-118 3 -227 45.5t-165 98.5q-90 86 -96 260zM372 528q4 -94 68 -153t176 -68q26 0 52 -4q198 10 272 78 q14 84 40 223.5t32 175.5q-34 60 -105.5 112t-171.5 52t-180 -62t-127.5 -158t-55.5 -196z" />
<glyph unicode="r" horiz-adv-x="819" d="M68 180q9 182 16 252q0 26 -8 100q8 108 40 185q-12 151 -48 367q0 27 37 48t79 21q56 -1 68 -29q8 -15 14 -46.5t13.5 -79.5t9.5 -58q68 81 171 158.5t220 101.5q34 0 53 -35t19 -81q0 -64 -35 -72q-60 -18 -148.5 -79t-161.5 -141t-91 -151q0 -137 -23 -221 q-16 -52 -20 -103t-4.5 -131t-4.5 -126q0 -48 -84 -56q-82 8 -100 47q-6 12 -12 129z" />
<glyph unicode="s" horiz-adv-x="1024" d="M-96 252q0 36 36 68t72 32q28 0 39 -16q54 -80 141 -135q86 -55 172 -57q54 4 92 28t88 73t76 71q20 20 21 48q0 48 -49 116t-128.5 128t-164.5 88q-49 17 -106 37.5t-99 48t-68 70.5q-26 42 -26 104q0 94 66.5 159t197.5 73q94 0 229 -12t183 -27q16 -6 16 -49 q0 -38 -19 -77.5t-40 -39.5q-16 2 -82.5 12.5t-124.5 17.5t-110 7q-134 0 -140 -52q0 -34 38 -56.5t114.5 -48t91.5 -31.5q136 -52 230 -141t138 -179t44 -152q-4 -65 -22 -104.5t-89 -95.5q-20 -14 -62 -58t-69.5 -68t-72.5 -43t-105 -19q-339 0 -500 251q-8 18 -8 29z" />
<glyph unicode="t" horiz-adv-x="831" d="M-28 1180q0 50 27 67t81 17q96 0 160 -21q-9 128 -72 336q0 36 37 57t84 21q53 -1 59 -25q70 -230 92 -424q12 -3 28 -4.5t24 -3.5q37 2 99.5 25t72.5 27q26 0 41.5 -29t15.5 -70q0 -72 -67 -97q-66 -24 -162 -28q-16 4 -40 4q0 -150 -11 -420t-13 -380q4 -31 4 -97 q0 -24 -30 -40t-74 -19q-80 8 -80 40q-6 74 -12 191q0 112 12 331.5t12 317.5v105q-98 31 -223 31q-65 0 -65 88z" />
<glyph unicode="u" horiz-adv-x="1167" d="M148 748q2 118 13 233q10 108 11 108v-1q12 32 49 51.5t76 19.5h2q86 0 86 -75q-13 -90 -21 -292q2 -157 23.5 -294t63.5 -223.5t102 -94.5q89 0 155 52t104 120t52 123q1 8 14 141.5t25 198.5q6 29 84 29q52 0 86.5 -12t34.5 -31q-10 -97 -22 -213t-19 -208t-10 -196 q8 -178 18 -268q1 -20 -75 -20q-41 0 -76.5 5t-39.5 15q-20 55 -20 205q-69 -89 -135.5 -121.5t-140.5 -32.5h-56q-147 18 -232.5 139.5t-117.5 287.5t-34 354z" />
<glyph unicode="v" horiz-adv-x="1239" d="M-8 1080q0 45 38.5 70.5t90.5 25.5q72 0 84 -44q26 -92 64.5 -172t104.5 -197t87 -163q21 -48 41.5 -105.5t42 -119t35.5 -91.5q8 0 83.5 171t129 287t127.5 241q17 33 63 33q48 0 88.5 -29t40.5 -67q0 -4 -2 -12t-2 -9q-74 -135 -127 -243t-82 -174t-94 -215t-101 -220 q-20 -39 -44 -56t-80 -19q-58 0 -92 21t-60 67q-5 12 -31.5 95t-56.5 169q-32 88 -68 176q-31 76 -110.5 223t-109.5 205q-30 60 -60 152z" />
<glyph unicode="w" horiz-adv-x="1835" d="M33 968q0 56 32 88q33 32 79 32q68 0 92 -60q38 -90 71.5 -187t64 -193t66.5 -203t62 -177q22 59 60 193t63 211q25 78 65 168q60 120 127 120q41 0 69 -28q7 0 17.5 2t14.5 2q96 0 96 -144q11 -86 34.5 -201t53.5 -218.5t55 -149.5q39 127 191 520t166 416q13 33 71 33 q50 0 85.5 -23.5t35.5 -68.5q0 -25 -4 -35q-32 -78 -97 -235.5t-120 -297t-103 -278.5q-50 -140 -76 -242q0 -24 -40 -36.5t-96 -12.5q-82 1 -101 25q-56 58 -101.5 184t-79.5 270t-54 230q-22 -50 -58 -160t-84 -266q-50 -156 -62 -190q-9 -26 -56.5 -45t-100.5 -19 q-65 0 -75 32q-37 88 -196 494q-158 404 -167 450z" />
<glyph unicode="x" horiz-adv-x="1075" d="M56 215q6 24 12 37q48 94 110 181t174 235q-148 232 -248 360q-19 32 -24 60q0 48 41 84t84 36q35 0 47 -16q42 -52 79 -105.5t97 -146.5q60 -92 68 -104q54 63 155 154.5t154 125.5q27 20 71 20q45 0 76 -35t31 -73q-1 -31 -15 -41q-64 -49 -135 -111.5t-132 -121.5 q-61 -58 -93 -94q36 -58 102 -158t105.5 -163t73.5 -126q4 -9 4 -29q0 -32 -39.5 -56t-85.5 -28q-50 6 -68 35q-66 105 -137 217t-98 148q-37 -50 -80.5 -117t-91 -139t-88.5 -128q-1 -2 -21 -8q-34 0 -80 33t-48 74z" />
<glyph unicode="y" horiz-adv-x="1183" d="M24 860q0 42 38 71t82 29q76 0 100 -61q20 -50 55 -155.5t61 -175t65 -141t91 -130.5q270 586 328 768q17 55 100 55q48 0 84.5 -24t36.5 -64q0 -4 -2 -12t-2 -12q-31 -89 -82 -200.5t-124 -257.5t-121 -241t-74 -157q24 -30 24 -84q0 -51 -27 -89.5t-69 -38.5 q-35 -66 -90 -176q-56 -110 -70 -136q-12 -24 -56 -24q-36 0 -68 28.5t-36 70.5q2 4 4 16t4 17q22 57 85 183.5t75 152.5q-80 68 -137 151.5t-97.5 174.5t-88 220.5t-76.5 196.5q-3 12 -6 21t-7 24z" />
<glyph unicode="z" horiz-adv-x="1149" d="M-129 37q1 33 21 67q58 85 129 173.5t191 230.5t193 232q73 92 131 172q-76 24 -164 24q-119 0 -251 -37q-39 0 -62 32.5t-26 76.5q7 72 39 76q155 48 313 48q165 0 340 -65q55 -18 55 -119q0 -52 -12 -72q-51 -80 -134.5 -184t-187.5 -223.5t-176 -203t-94 -113.5 q57 24 250 45.5t346 21.5h88q48 0 48 -88q0 -42 -18 -76.5t-46 -34.5q-88 0 -236 -10.5t-284 -29t-199 -40.5q-8 -2 -36 -13.5t-48.5 -17t-40.5 -5.5q-48 0 -88.5 42t-40.5 91z" />
<glyph unicode="{" horiz-adv-x="620" d="M41 748q2 16 2 36q6 29 36 85.5t52.5 104.5t43.5 128t30 190q4 53 32 116.5t74.5 105.5t104.5 42q52 0 88 -30t36 -74q0 -27 -12 -43q-15 -20 -45.5 -52.5t-44.5 -53.5t-18 -51q-8 -60 -17 -126.5t-21 -118t-34 -107.5t-59 -116q62 -62 82.5 -155t22.5 -244.5t10 -229 t48 -139.5q12 -18 13 -44q0 -39 -35.5 -70t-81.5 -31q-56 0 -92 53q-46 60 -63 121t-21 139q0 28 2 90q2 60 2 94q0 120 -28 204q-7 24 -40.5 57.5t-49.5 56t-17 62.5z" />
<glyph unicode="|" horiz-adv-x="805" d="M568 -41q0 24 11 190.5t18.5 273.5t14 234t6.5 227q0 54 -2 76q0 58 -8 136q2 104 17.5 177t15.5 83q-1 64 63 64q26 0 45 -16t19 -48q0 -30 -8 -81t-14 -119t-6 -196v-61q0 -135 -10 -348t-22 -402t-12 -190q0 -24 -19 -37.5t-44 -13.5q-28 0 -46.5 13t-18.5 38z" />
<glyph unicode="}" horiz-adv-x="559" d="M112 1317q0 52 45 91.5t91 39.5q58 0 87 -67t29 -134q0 -20 -8 -131q8 -85 35 -176q8 -20 41.5 -53t50.5 -55t17 -56q0 -12 -8 -45q-32 -86 -45 -176.5t-18 -183t-12.5 -212t-25.5 -206.5q-7 -46 -44 -69.5t-83 -23.5q-44 0 -74 23t-30 61q4 28 19 115t22.5 142t7.5 111 q0 88 -4 132q8 174 59 300q-116 122 -124 280q0 24 2 69t2 66q0 65 -32 158z" />
<glyph unicode="~" horiz-adv-x="1200" d="M80 540q8 34 24 52q46 54 143 140t144 104q18 6 41 6q61 0 144.5 -35t174.5 -84t101 -51q30 0 71 34t64 34q38 0 69 -34q32 -36 32 -82q0 -34 -23 -65q-85 -88 -185 -94q-8 2 -24 3.5t-24 2.5q-24 8 -115 61.5t-150 84t-94 30.5q-11 0 -21 -6q-30 -19 -101.5 -76 t-102.5 -94q-22 -17 -52 -23q-40 0 -76.5 28t-39.5 64z" />
<glyph unicode="&#xa1;" horiz-adv-x="491" d="M121 -223q4 8 4 18q14 48 22.5 130.5t11.5 161.5t7 203.5t6 180.5q2 67 8 123t15 107t10 63q0 42 29.5 65t68.5 23q45 0 77 -22.5t32 -57.5q0 -25 -14 -125.5t-17 -177.5q-6 -78 -14.5 -263.5t-15.5 -289t-19 -152.5q-16 -72 -109 -71q-42 0 -70.5 21.5t-31.5 62.5z M213 1052q2 72 47.5 150t111.5 78q53 0 66.5 -37t13.5 -107q0 -100 -28 -128q-40 -40 -125 -48q-41 10 -61 31t-25 61z" />
<glyph unicode="&#xa2;" horiz-adv-x="1095" d="M51 796q0 104 45.5 201t142.5 167t240 92q12 86 26.5 125t66.5 39q48 0 84 -29t36 -68q-5 -46 -16 -84q106 -21 185.5 -86t125.5 -145q13 -18 13 -44q0 -32 -26 -52t-62 -23q-42 9 -52 27q-26 42 -88 89t-129 62q-21 -142 -27 -350q8 -168 17 -256q36 0 66 9t55 23.5 t47.5 33.5t38.5 32q12 13 32 13q34 0 63 -26t29 -58q0 -14 -16 -40q-130 -150 -311 -149v-59q0 -90 -17.5 -143t-87.5 -60q-36 3 -62 23q-26 18 -26 48q0 24 4 72t4 84v56q-189 60 -272 145q-58 56 -94 144q-35 87 -35 187zM215 792q0 -110 63 -186q62 -74 170 -110 q-9 116 -16 260q4 98 24 315q-121 -24 -181 -102.5t-60 -176.5z" />
<glyph unicode="&#xa3;" horiz-adv-x="1343" d="M-33 735q0 45 33.5 68t99.5 41t80 24q-3 8 -45 98.5t-59.5 145t-19.5 104.5q14 300 503 320q182 0 287.5 -39t161.5 -118t100 -220q0 -91 -100 -98q-41 4 -72 23q-30 18 -37 56q-40 212 -256 212h-39q-34 -1 -104 -4.5t-123.5 -15.5t-91.5 -44q-37 -31 -41 -88 q6 -82 108 -288q12 2 91.5 21t105.5 23q44 0 69 -29t25 -71q0 -44 -30.5 -65t-93.5 -34t-75 -17q53 -94 92.5 -208t39.5 -225q0 -51 -4 -75q74 5 128.5 8.5t102 14t85.5 34t60 63.5q24 48 76 48q44 0 80 -31t36 -70q0 -14 -16 -39q-76 -94 -110.5 -125t-74.5 -41t-175 -30 q-186 -25 -356 -31q-106 8 -180 10q-24 0 -56 -13.5t-56 -13.5q-28 0 -47 29t-22 67q9 56 71 81.5t134 25.5q20 0 55 -2.5l49 -3.5q12 2 29 2q0 8 3 37.5t3 44.5q-1 173 -123 399q-52 -13 -77 -20t-67 -19.5t-52 -15.5q-50 0 -77.5 27.5t-27.5 66.5z" />
<glyph unicode="&#xa4;" horiz-adv-x="1331" d="M37 1084q0 50 40.5 97.5t86.5 47.5q22 0 40 -11t36 -28.5t36 -34.5q78 75 199 92q19 53 109 53q84 0 217 -40q20 34 41.5 68.5t47.5 57.5t62 23q47 0 87.5 -40.5t40.5 -88.5q0 -25 -15 -50.5t-36.5 -50.5t-41.5 -47q162 -146 162 -288q0 -60 -41 -203q18 -19 40 -42.5 t37 -47t15 -43.5q0 -41 -54 -88.5t-102 -51.5q-18 6 -31 15t-26 23t-27 30q-33 -46 -132 -93q-100 -47 -212 -50q-108 7 -176 43q-12 -25 -28 -56.5t-32.5 -55.5t-38 -42t-48.5 -22q-46 0 -92.5 41t-48.5 83q20 52 100 160q-148 154 -152 320q8 112 48 204q-30 19 -53 34 t-38 33.5t-20 48.5zM320 809q0 -75 36 -146.5t100 -116t144 -46.5q64 8 92 16q76 22 133 72.5t86 112t29 114.5q0 94 -59 158.5t-149 95.5t-179 31q-7 -20 -26.5 -29.5t-62 -25t-56.5 -29.5q-80 -70 -88 -207z" />
<glyph unicode="&#xa5;" horiz-adv-x="1188" d="M80 1323q0 33 31 59.5t69 26.5q46 0 64 -37q57 -110 92.5 -179t75 -142t71 -132t109.5 -198q76 158 123 266.5t91 244.5t74 284q6 32 35 49.5t66 17.5q84 1 84 -75v-23q-38 -156 -76 -278.5t-96 -258.5q33 -3 82 -8.5t83 -23.5t34 -56q0 -34 -20 -61t-52 -27 q-108 24 -188 29q-20 -40 -70 -129q-50 -90 -66 -123q304 23 369 23q22 0 36.5 -24t14.5 -56q0 -28 -11 -50t-30 -22q-114 -4 -387 -29q-4 -121 -4 -323q0 -60 -88 -68q-51 6 -69.5 30t-22.5 81t-4 65q4 68 4 192q-63 -6 -170.5 -23t-173.5 -21q-44 0 -52 84q8 68 40 67 q66 8 188 27.5t172 25.5v17q-88 148 -156 260h-55q-38 4 -64.5 6.5t-44.5 16.5t-24 52q6 52 30 64t82 12q-42 69 -78 129.5t-66.5 119.5t-51.5 118z" />
<glyph unicode="&#xa6;" horiz-adv-x="831" d="M563 1132q8 166 29 304q6 35 32 53.5t60 18.5q88 0 88 -93q-8 -73 -16 -243q2 -85 6 -148.5t15 -187.5t15 -179t4 -112q0 -100 -13 -210.5t-15 -170.5q8 -66 8 -117q0 -26 -27 -44.5t-65 -18.5q-35 0 -54.5 16t-28.5 42t-11 54t-6 64q2 62 15 180t13 188q-4 79 -19 224.5 t-21.5 217.5t-8.5 162z" />
<glyph unicode="&#xa7;" horiz-adv-x="1300" d="M20 39q0 41 37 68.5t78 27.5q55 -1 65 -31q48 -132 116 -168q40 -20 116 -20q86 0 184 25t163 70t65 101q0 50 -39 93q-24 -18 -70 -25q-38 0 -69 26q-30 26 -33 66q9 38 10 44q-42 28 -166.5 74.5t-182 72t-110.5 77.5q-54 54 -55 132q0 96 20 167t64 173 q-118 140 -125 248q11 128 100.5 204.5t208.5 111.5q119 34 267 56q90 8 124 8q101 0 171 -28t109.5 -68.5t63.5 -84.5l40 -75q8 -24 8 -36q0 -32 -35 -54t-80 -26q-57 8 -69 36q-38 78 -84 113t-136 35q-58 0 -176 -20q-301 -56 -303 -172q5 -71 111 -156q56 -42 114.5 -74 t158.5 -80q101 -48 143 -70q228 -116 228 -280q0 -112 -120 -252q116 -140 116 -268q0 -89 -56.5 -160.5t-158 -118.5t-229.5 -65q-100 -16 -200 -16q-123 0 -190 32q-68 32 -102 88q-64 92 -88 172q-4 10 -4 27zM332 727q4 -7 4 -19q10 -41 66 -70t179.5 -77.5t186.5 -85.5 q43 62 57.5 86.5t14.5 46.5q0 60 -128 119q-124 56 -327 166q-48 -110 -53 -166z" />
<glyph unicode="&#xa8;" horiz-adv-x="936" d="M140 1364q10 72 70 132t134 60q47 0 84 -36q28 -28 28 -84q0 -76 -42 -138t-111 -69q-153 14 -163 135zM604 1364q15 68 57.5 124t102.5 56q27 0 55 -16q45 -28 45 -108q0 -161 -129 -173q-48 12 -71.5 20.5t-39.5 31t-20 65.5z" />
<glyph unicode="&#xa9;" horiz-adv-x="1943" d="M0 860q0 112 36 210q38 98 108 159q56 48 145 149.5t153.5 160t163.5 100.5t238 45q352 0 588 -328q70 -99 104 -157q33 -57 33 -119q0 -36 -24 -63t-46 -30q29 -104 29 -182q0 -144 -65 -271.5t-174.5 -225.5t-245 -156t-271.5 -68q-20 -2 -62 -2q-210 0 -372 116.5 t-250 297.5t-88 364zM152 856q2 -152 78 -301t212 -243.5t308 -94.5q33 0 51 2q132 14 271.5 97.5t229.5 209.5t90 262q0 200 -172 367q-11 12 -20 41q0 33 26.5 60.5t53.5 27.5q14 0 26.5 -11t28 -29t21.5 -24q-104 143 -225 229.5t-287 86.5q-112 -2 -190 -34t-129 -78.5 t-119 -124.5q-68 -77 -113 -115q-135 -110 -141 -328zM428 708q2 36 13 111t11 121q2 22 3.5 62t5.5 65.5t14 48.5q54 110 143.5 181t200.5 71q79 0 144 -27.5t104 -60.5q25 -18 25 -56q0 -32 -20.5 -56t-51.5 -28q-4 4 -12 5q-27 4 -77 31.5t-87 27.5q-70 0 -119 -38.5 t-73 -100t-24 -129.5q0 -31 -15 -97.5t-17 -94.5q30 -136 232 -136q48 0 115 36t157 100q8 8 32 8q34 0 63 -28t29 -64q0 -24 -16 -36q-42 -36 -113 -79t-144 -72t-115 -29q-279 9 -375 152q-26 42 -33 112z" />
<glyph unicode="&#xaa;" horiz-adv-x="747" d="M28 1252q9 76 54.5 144.5t114 110t143.5 41.5q48 0 68 -4q14 16 40 16q36 0 92 -57l15 41q11 35 57 35q28 0 52 -18.5t24 -44.5q0 -24 -14 -73t-14 -75q4 -16 4 -47q2 -14 8 -44.5t9 -50.5t3 -38q0 -38 -24 -117q5 -19 12.5 -57t7.5 -78q0 -37 -8 -39q-14 -11 -48 -17 q-34 8 -36 9q-10 4 -15 16t-10 33.5t-8 29.5q-78 -68 -211 -71q-92 5 -162 54t-110 128t-44 173zM60 725q8 55 32 55q78 8 123 8q54 0 140.5 -7.5t105.5 -8.5q30 -3 80.5 -4.5t73 -2.5t53.5 -9q24 -6 24 -52q0 -29 -12 -48t-33 -19q-30 3 -96.5 5.5t-98.5 4.5 q-16 2 -51.5 5.5t-58 5.5t-50.5 4t-60 2q-46 0 -124 -8q-18 0 -32 20t-16 49zM140 1243q32 -231 188 -239q62 3 119 36.5t81 71.5q24 42 25 100q-1 32 -21 132q-6 24 -24 24h-8h-12q-4 1 -16 2q-12 2 -20 6q-14 10 -34.5 28.5t-38 27t-43.5 8.5q-46 0 -88 -24t-60 -68 q-6 -12 -20 -28t-21 -32.5t-7 -44.5z" />
<glyph unicode="&#xab;" horiz-adv-x="911" d="M8 668q6 60 52 112q114 134 239 216q9 4 25 4q36 0 62 -33.5t26 -73.5q0 -20 -12 -33q-13 -14 -71 -61t-93.5 -81t-35.5 -50q2 -19 59.5 -89t83 -104.5t38.5 -83.5q0 -52 -23.5 -79.5t-58.5 -31.5q-32 7 -43 27q-26 44 -96 118.5t-107 126.5t-45 116zM484 668 q8 54 37 102t72 97t83 93q10 16 36 17q36 0 70 -32q33 -33 33 -65q0 -12 -6 -24q-42 -40 -93.5 -102t-51.5 -86q2 -32 24 -56t62 -55t61 -56t21 -57q0 -31 -23 -57.5t-49 -30.5q-36 18 -70 50.5t-81 85t-73 76.5q-46 48 -52 100z" />
<glyph unicode="&#xac;" horiz-adv-x="1364" d="M47 832q3 46 22.5 79t51.5 33q44 0 246 14.5t321 14.5q230 1 312 -45q51 -26 106 -116t99.5 -199t74.5 -209q0 -34 -38 -62t-83 -30q-65 8 -79 56q-40 118 -97 225.5t-94 141.5q-31 25 -172 25q-100 0 -307 -12q-206 -12 -250 -13q-20 5 -52 5q-26 0 -42 27t-19 65z" />
<glyph unicode="&#xad;" horiz-adv-x="624" d="M51 637q9 67 41 67q57 0 228 -12.5t208 -23.5q40 -12 40 -64q0 -27 -12 -45.5t-28 -18.5q-45 8 -436 32q-32 0 -41 65z" />
<glyph unicode="&#xae;" horiz-adv-x="1943" d="M0 735q0 114 36 211q38 96 108 158q54 48 143 150t154.5 161t164.5 100.5t238 44.5q188 0 333 -88t255 -239q78 -112 107.5 -163.5t29.5 -113.5q0 -36 -23.5 -62t-46.5 -30q29 -104 29 -184q0 -144 -65 -271t-174 -225t-244.5 -156.5t-272.5 -68.5q-20 -2 -57 -2 q-212 0 -375.5 116.5t-251.5 297.5t-88 364zM152 731q2 -110 44 -224t121.5 -208t189.5 -149q111 -56 239 -56q37 0 55 2q134 14 272.5 97.5t228.5 210t90 260.5q0 200 -172 368q-14 14 -20 39q3 36 26.5 62t49.5 26q20 0 41 -21.5t39 -41.5q-104 143 -225 229t-287 86 q-112 0 -190 -32.5t-128 -77.5t-118.5 -123t-114.5 -117q-135 -114 -141 -330zM461 708q8 278 43 460q2 22 28 35t56 13q64 0 64 -28q62 20 128 20q91 0 169.5 -36.5t124.5 -105t46 -158.5q0 -60 -18 -103t-42 -67t-60 -54q78 -190 140 -320v-16q0 -27 -37 -51.5t-75 -24.5 q-38 6 -47 27q-105 248 -149 338q-22 0 -65 -5.5t-63 -7.5q-12 2 -33 4t-38 5q4 -44 6.5 -77.5t6.5 -64.5t9 -64t17 -87q0 -27 -29 -45.5t-67 -22.5q-62 8 -72 48q-36 124 -43 388zM637 788q37 -8 107 -16q96 3 152 44.5t56 123.5q-3 54 -52.5 81t-119.5 27q-84 0 -128 -32 q-14 -130 -15 -228z" />
<glyph unicode="&#xb1;" horiz-adv-x="1200" d="M24 80q4 36 20.5 62t43.5 26q15 0 90 -11t115 -13q78 -4 201.5 -10t232 -10t208.5 -10t130 -10q39 -6 39 -71q0 -32 -11 -54t-28 -22q-30 0 -252.5 11t-313.5 15.5t-215 8.5q-44 0 -104 2t-104 20.5t-52 65.5zM24 809q3 38 24.5 64t59.5 26h199q92 0 158 -2 q0 60 11.5 179.5t11.5 187.5q0 29 24 44t60 15q37 0 62.5 -14.5t25.5 -44.5q0 -78 -9.5 -194.5t-9.5 -176.5q171 -5 399 -84q48 -11 48 -65q0 -36 -33 -66.5t-78 -30.5q-36 8 -104.5 28.5t-119 31t-112.5 10.5q0 -58 1.5 -89.5t7 -99t8 -101t2.5 -79.5q0 -47 -88 -55 q-88 8 -88 55q0 60 -9.5 173t-9.5 200q-79 6 -197 6h-164q-34 0 -55 24.5t-25 57.5z" />
<glyph unicode="&#xb2;" horiz-adv-x="700" d="M16 1468q4 8 4 17q20 44 62.5 85.5t99 68t115.5 26.5q44 -1 80 -13q88 -31 130 -126.5t42 -208.5q0 -151 -117 -317q24 0 39 -4q57 6 105 28q2 0 6 2t6 2q18 0 31.5 -19t13.5 -41q0 -28 -28 -40t-65.5 -15t-64.5 -5q-75 8 -103 16q-64 -56 -153 -64q-134 26 -143 117 q9 45 48.5 76t88.5 31q65 0 135 -36q108 140 108 256q0 55 -18 114t-54.5 98.5t-90.5 39.5q-56 0 -109 -38q-54 -38 -84 -82q-4 -10 -28 -16q-18 0 -35 16t-21 32zM168 973q6 -10 12.5 -14.5t16 -7.5t22.5 -7q50 8 70 33q-46 23 -74 23q-40 0 -47 -27z" />
<glyph unicode="&#xb3;" horiz-adv-x="647" d="M43 1065q0 25 29.5 46t56.5 21q34 0 100.5 -24t102.5 -24q56 9 88 53.5t32 105.5q0 154 -204 162q-30 0 -39 51q7 52 31 52q83 0 139.5 17t56.5 83q0 40 -43 60t-90 20q-9 0 -29 -2t-30 -2q-76 0 -84 36q8 47 44 59.5t99 12.5q141 0 221 -88q38 -44 39 -100 q0 -88 -98 -148q54 -26 82.5 -78t28.5 -118q0 -110 -59 -194t-161 -89q-24 1 -49 6.5t-64.5 16t-68.5 15.5t-53 5h-13h-20q-4 4 -16 4q-20 16 -29 41z" />
<glyph unicode="&#xb4;" horiz-adv-x="676" d="M160 1348q8 22 8 28q15 34 78 80q62 48 106 60q26 10 75 37.5t89 33.5q42 0 67 -31.5t25 -75.5q0 -52 -60 -85t-128 -47q-40 -8 -68 -21.5t-65 -34.5q-37 -20 -51 -24q-18 0 -46 24q-26 26 -30 56z" />
<glyph unicode="&#xb5;" horiz-adv-x="1163" d="M96 -377q24 86 50 216.5t45 257t24 200.5q-36 115 -43 243q8 110 8 160q0 68 -7 118t-21 103t-17 66q0 50 37.5 79.5t83.5 29.5q57 0 68 -31q31 -84 49 -147t18 -142q0 -34 -6.5 -105t-7.5 -83q2 -128 42 -219.5t97 -138.5q56 -46 108 -46q94 11 155 101t93 219 q0 124 -4 192q2 25 4 76t4 72q3 26 34.5 40.5t72.5 14.5q97 0 97 -47q0 -18 -7 -163.5t-8 -213.5q4 -168 35 -350q0 -40 -40 -70.5t-83 -34.5q-28 6 -41.5 24t-17.5 38q-4 22 -10 66q-57 -108 -127.5 -146.5t-156.5 -38.5q-136 1 -237 93q-29 -165 -111 -480 q-12 -37 -63 -37q-41 0 -79 26t-38 58z" />
<glyph unicode="&#xb6;" horiz-adv-x="1356" d="M37 989q0 13 4 47q4 50 20.5 93t47.5 103t43 89q20 52 73 105.5t120 87.5t126 34q71 0 109 -40q192 92 300 92q88 0 128 -52q74 -93 104.5 -253.5t50.5 -460.5t37.5 -461.5t71.5 -321.5q0 -35 -44 -61q-46 -27 -92 -27q-46 1 -52 25q-54 144 -69.5 277t-24 351t-28.5 376 q-22 158 -82 331q-4 25 -48 25q-52 0 -124 -44q26 -108 27 -224q-1 -96 -23 -208q0 -639 -56 -1077q0 -35 -72 -35q-48 0 -85.5 19t-37.5 49q5 84 19 227t21 229t7 181q0 75 -8 211q-60 -32 -132 -35q-84 0 -160.5 47.5t-123.5 127.5t-47 173z" />
<glyph unicode="&#xb7;" horiz-adv-x="1071" d="M131 608q11 70 62 129t119 59q44 0 73 -24q39 -30 39 -96q0 -74 -36 -132.5t-104 -64.5q-70 12 -108 39q-39 26 -45 90z" />
<glyph unicode="&#xb8;" horiz-adv-x="545" d="M112 -420q0 68 68 76q21 -2 33.5 -12t29 -28t32 -27t41.5 -9q96 0 96 127q0 78 -44 84q-21 -3 -63 -23q-41 -20 -65 -20q-64 0 -64 92q4 31 14.5 54.5t28.5 48.5t37 53q6 16 33 16q24 0 45.5 -18t21.5 -37q-10 -24 -14 -35.5t-10 -25.5q20 4 38 8.5l30 7.5 q116 -18 116 -260q0 -87 -60 -144t-136 -57h-4q-92 0 -139 29t-65 100z" />
<glyph unicode="&#xb9;" horiz-adv-x="456" d="M223 1708q0 40 21.5 62t54.5 22q44 0 57 -37q24 -66 25 -215q1 -32 1 -138.5t6 -175t24 -122.5q0 -38 -23 -59.5t-57 -24.5q-40 6 -48 32q-32 101 -40 304v143q0 150 -21 209z" />
<glyph unicode="&#xba;" horiz-adv-x="811" d="M51 725q7 71 57 71q29 -4 79 -5t65 -3q24 0 63 -1.5t83 -5t81 -5.5q116 8 168 20q30 0 45.5 -21.5t15.5 -53.5q0 -47 -32 -53q-84 -16 -197 -16q-63 0 -190 8q-76 0 -117 -4q-26 3 -44 4.5t-34 7.5t-27 19t-16 38zM64 1224q0 96 57 177.5t146 128.5t177 47 q48 0 99.5 -18.5t86 -55.5t34.5 -88q0 -35 -17 -51q57 -6 57 -92q0 -94 -51 -176t-135 -131t-178 -53q-90 3 -160 59q-69 55 -104 169q-12 42 -12 84zM232 1247q10 -57 45 -97t91 -46q65 8 104.5 67.5t39.5 128.5q-16 8 -31 36t-25 40t-40 20q-60 0 -121 -44t-63 -105z" />
<glyph unicode="&#xbb;" horiz-adv-x="991" d="M43 432q7 26 13 37q21 25 80.5 82t89.5 89.5t30 51.5q0 15 -27 52t-70 86.5t-51 58.5q-2 3 -12 23q0 36 35.5 68t73.5 32q29 0 39 -16q130 -156 164 -208q32 -53 32 -100q0 -62 -49 -112q-169 -162 -231 -228q-4 -4 -29 -12q-28 0 -56.5 32t-31.5 64zM545 440q8 42 49 76 t84.5 70t52.5 78q0 20 -30.5 60t-68.5 81t-69 75q-6 6 -14 32q0 38 32.5 75t65.5 37q16 0 33 -8q55 -41 89.5 -86.5t119.5 -165.5q31 -54 31 -96q0 -62 -60 -132q-32 -40 -65 -80t-68 -69t-75 -39q-36 0 -70 28t-37 64z" />
<glyph unicode="&#xbc;" horiz-adv-x="1683" d="M215 1436q0 23 35.5 41t69.5 18q38 -1 44 -15q31 -79 46.5 -187.5t33.5 -243.5t44 -217q0 -25 -33.5 -47t-69.5 -25q-29 7 -33 16q-26 44 -44 183.5t-35.5 271t-49.5 189.5q0 8 -8 16zM276 8q4 14 13 29q90 125 211 337t229 403t219.5 355t235.5 283q16 17 49 17 q39 0 71 -31t32 -70q0 -24 -19 -47q-130 -120 -238.5 -280.5t-263.5 -442t-218 -391.5q-63 -112 -165 -242q-16 -16 -41 -16q-34 0 -72.5 31.5t-42.5 64.5zM960 620q0 9 28 16t60 7q40 0 40 -6q28 -206 61 -340q0 -7 39 -13q176 14 204 15q-2 46 -12 144.5t-12 160.5 q8 125 20 197q0 23 56 23q39 0 67.5 -13t28.5 -35q-22 -136 -28 -252q3 -45 5.5 -73t5.5 -69.5t5 -69.5q24 0 37.5 -22t13.5 -54q0 -58 -39 -64q2 -14 24 -92q0 -18 -25 -31t-59 -16q-28 6 -40 24.5t-18 45.5t-13 61q-78 -6 -140 -10q-61 -4 -105 -6q-98 7 -107 28 q-18 28 -55 200q-38 172 -42 244z" />
<glyph unicode="&#xbd;" horiz-adv-x="1712" d="M240 1503q3 26 30.5 39.5t61.5 13.5q53 0 59 -24q21 -90 21 -256v-160q8 -164 20 -240q0 -24 -31 -41t-69 -20q-38 7 -43 21q-10 24 -13.5 70.5t-4.5 124t-3 118.5v90q0 184 -24 254q0 6 -4 10zM312 64q2 4 4 15t4 13q87 132 195.5 344t209.5 412.5t206 370t222 293.5 q18 20 47 20q26 0 51 -14.5t41 -39t16 -50.5q0 -24 -20 -44q-122 -124 -224 -289.5t-244.5 -456t-200.5 -404t-150 -242.5q-10 -16 -45 -16t-72.5 28t-39.5 60zM1000 332q9 44 51.5 74t93.5 30q43 -4 159 -88q164 150 164 336q0 72 -38 122t-107 50q-39 0 -66 -14t-70.5 -45 t-74.5 -41q-20 0 -44 26t-28 46q34 67 118.5 110t164.5 43q67 0 133 -33q140 -82 140 -280q0 -206 -191 -375q43 -17 63 -21q28 4 84 21q22 0 37 -20.5t15 -49.5t-21.5 -40t-51 -12.5t-59.5 -2.5q-86 6 -159 41q-65 -36 -129 -41q-72 6 -125 50t-59 114zM1116 303 q8 -6 16.5 -16.5t18 -15.5t25.5 -7q34 9 44 16q-66 44 -75 44q-22 0 -29 -21z" />
<glyph unicode="&#xbe;" d="M43 776q0 27 28.5 49.5t53.5 22.5q22 0 42.5 -7t47.5 -19t49 -20t43 -10q38 6 62.5 33t35.5 65q11 36 11 78q0 154 -176 168q-24 0 -31 52q9 59 31 59q32 0 44 -4q53 4 92.5 28.5t39.5 76.5q0 40 -37.5 64t-79.5 24q-10 0 -26.5 -2t-24.5 -2q-70 0 -76 40q6 44 42 58 t93 14q135 0 193 -96q36 -48 36 -104q0 -77 -96 -156q92 -56 92 -201q0 -109 -53 -204t-151 -103q-22 2 -45.5 8t-58.5 18t-59.5 18.5t-48.5 6.5h-8h-12h-12q-4 4 -12 4q-20 16 -29 41zM223 43q9 28 17 37q104 124 232.5 314t256 379t252.5 345q125 154 258 266q26 16 41 17 q38 0 71 -35.5t33 -73.5q0 -36 -24 -53q-137 -107 -256.5 -256t-301.5 -426t-252 -378t-178 -220q-14 -10 -36 -10q-32 0 -71 31.5t-42 62.5zM956 608q0 20 76 20q52 0 52 -12q6 -198 32 -344q5 -14 88 -20q52 4 156 4q0 64 -8 184q8 200 44 312q8 20 48 20q38 0 67 -14.5 t29 -36.5q-22 -94 -32.5 -165.5t-12.5 -131.5t-2 -168q22 0 35 -20q12 -22 12 -52q0 -27 -12.5 -47.5t-32.5 -20.5q1 -24 17 -92q0 -18 -21 -29t-55 -11q-23 0 -36.5 12t-20.5 32.5t-10 50t-5 42.5q-88 -1 -135 -5q-203 10 -217 44q-12 24 -34 201t-22 247z" />
<glyph unicode="&#xbf;" horiz-adv-x="1163" d="M92 80q2 121 55 208.5t131 142.5t159 84t151 40q4 0 12 162q0 24 24 37.5t56 13.5q44 0 76 -18q32 -20 32 -50q0 -20 -4 -44v-88q0 -180 -36 -181q-86 -14 -184.5 -47t-178.5 -102.5t-82 -177.5q0 -127 85.5 -233.5t263.5 -106.5q72 0 148 56q78 56 120 136q28 56 88 64 q84 -7 84 -107q-14 -78 -72.5 -153t-155.5 -125t-217 -56q-166 0 -293 75t-194.5 200t-67.5 270zM572 964q2 23 12 39.5t31 43.5t28 45q34 64 84 63q36 0 62 -31.5t26 -66.5q0 -39 -20 -85t-54.5 -78t-72.5 -34q-50 8 -80 60q-4 8 -16 44z" />
<glyph unicode="&#xc0;" d="M56 213q8 50 32 97t69 116.5t58 93.5q-61 -8 -75 -8q-28 0 -46 24.5t-22 59.5q5 38 27.5 60t54.5 31t70 12t75 5q50 104 89.5 189.5t117.5 257t113 239.5t57 90q42 40 76 40q70 0 142 -108t128.5 -250t107.5 -295t58 -167q45 -8 68.5 -46t23.5 -82q0 -42 -16 -48 q44 -103 85 -173.5t127 -194.5q18 -30 19 -60q0 -32 -28.5 -52t-70.5 -24q-60 8 -79 40q-112 144 -256 464q-277 20 -493 21q-42 0 -83 -2.5t-49 -2.5q-156 -288 -204 -368q-26 -44 -84 -51q-34 0 -62 27t-30 65zM504 712h137q191 0 342 -8q-26 72 -74.5 204.5t-96.5 243 t-66 110.5q-2 0 -6 -6zM514 1860q0 27 21 56q20 28 42 28h17q42 -28 270 -119q46 -18 91 -59q46 -40 46 -82q0 -31 -16.5 -58.5t-40.5 -29.5q-52 53 -115 90.5t-167.5 84.5t-132.5 60q-12 7 -15 29z" />
<glyph unicode="&#xc1;" d="M56 213q8 50 32 97t69 116.5t58 93.5q-61 -8 -75 -8q-28 0 -46 24.5t-22 59.5q5 38 27.5 60t54.5 31t70 12t75 5q50 104 89.5 189.5t117.5 257t113 239.5t57 90q42 40 76 40q70 0 142 -108t128.5 -250t107.5 -295t58 -167q45 -8 68.5 -46t23.5 -82q0 -42 -16 -48 q44 -103 85 -173.5t127 -194.5q18 -30 19 -60q0 -32 -28.5 -52t-70.5 -24q-60 8 -79 40q-112 144 -256 464q-277 20 -493 21q-42 0 -83 -2.5t-49 -2.5q-156 -288 -204 -368q-26 -44 -84 -51q-34 0 -62 27t-30 65zM504 712h137q191 0 342 -8q-26 72 -74.5 204.5t-96.5 243 t-66 110.5q-2 0 -6 -6zM551 1729q8 22 8 28q15 34 78 80q62 48 106 60q26 10 75 37.5t89 33.5q42 0 67 -31.5t25 -75.5q0 -52 -60 -85t-128 -47q-40 -8 -68 -21.5t-65 -34.5q-37 -20 -51 -24q-18 0 -46 24q-26 26 -30 56z" />
<glyph unicode="&#xc2;" d="M56 213q8 50 32 97t69 116.5t58 93.5q-61 -8 -75 -8q-28 0 -46 24.5t-22 59.5q5 38 27.5 60t54.5 31t70 12t75 5q50 104 89.5 189.5t117.5 257t113 239.5t57 90q42 40 76 40q70 0 142 -108t128.5 -250t107.5 -295t58 -167q45 -8 68.5 -46t23.5 -82q0 -42 -16 -48 q44 -103 85 -173.5t127 -194.5q18 -30 19 -60q0 -32 -28.5 -52t-70.5 -24q-60 8 -79 40q-112 144 -256 464q-277 20 -493 21q-42 0 -83 -2.5t-49 -2.5q-156 -288 -204 -368q-26 -44 -84 -51q-34 0 -62 27t-30 65zM491 1681q6 19 12 23q38 36 148.5 106t171.5 86 q88 0 204 -72t165 -120q8 -8 8 -27q0 -26 -27 -48.5t-61 -25.5q-36 13 -96.5 60t-95.5 68t-81 21q-4 0 -11 -2t-9 -2q-22 -13 -75 -50.5t-89 -59t-76 -31.5q-29 0 -56.5 24.5t-31.5 49.5zM504 712h137q191 0 342 -8q-26 72 -74.5 204.5t-96.5 243t-66 110.5q-2 0 -6 -6z" />
<glyph unicode="&#xc3;" d="M56 213q8 50 32 97t69 116.5t58 93.5q-61 -8 -75 -8q-28 0 -46 24.5t-22 59.5q5 38 27.5 60t54.5 31t70 12t75 5q50 104 89.5 189.5t117.5 257t113 239.5t57 90q42 40 76 40q70 0 142 -108t128.5 -250t107.5 -295t58 -167q45 -8 68.5 -46t23.5 -82q0 -42 -16 -48 q44 -103 85 -173.5t127 -194.5q18 -30 19 -60q0 -32 -28.5 -52t-70.5 -24q-60 8 -79 40q-112 144 -256 464q-277 20 -493 21q-42 0 -83 -2.5t-49 -2.5q-156 -288 -204 -368q-26 -44 -84 -51q-34 0 -62 27t-30 65zM439 1728q9 32 51.5 58.5t95.5 40t90 13.5q46 0 122.5 -35.5 t84.5 -35.5q16 0 45 12.5t43 14.5q29 0 48 -26q20 -26 20 -62q0 -20 -15 -40q-39 -38 -113 -44q-12 4 -32 4q-16 4 -67 29t-83 38t-58 13q-20 -3 -42 -12t-54 -24q-30 -14 -44 -20q-8 0 -17 -4q-20 0 -46.5 28t-28.5 52zM504 712h137q191 0 342 -8q-26 72 -74.5 204.5 t-96.5 243t-66 110.5q-2 0 -6 -6z" />
<glyph unicode="&#xc4;" d="M56 213q8 50 32 97t69 116.5t58 93.5q-61 -8 -75 -8q-28 0 -46 24.5t-22 59.5q5 38 27.5 60t54.5 31t70 12t75 5q50 104 89.5 189.5t117.5 257t113 239.5t57 90q42 40 76 40q70 0 142 -108t128.5 -250t107.5 -295t58 -167q45 -8 68.5 -46t23.5 -82q0 -42 -16 -48 q44 -103 85 -173.5t127 -194.5q18 -30 19 -60q0 -32 -28.5 -52t-70.5 -24q-60 8 -79 40q-112 144 -256 464q-277 20 -493 21q-42 0 -83 -2.5t-49 -2.5q-156 -288 -204 -368q-26 -44 -84 -51q-34 0 -62 27t-30 65zM380 1680q10 72 70 132t134 60q47 0 84 -36q28 -28 28 -84 q0 -76 -42 -138t-111 -69q-153 14 -163 135zM504 712h137q191 0 342 -8q-26 72 -74.5 204.5t-96.5 243t-66 110.5q-2 0 -6 -6zM844 1680q15 68 57.5 124t102.5 56q27 0 55 -16q45 -28 45 -108q0 -161 -129 -173q-48 12 -71.5 20.5t-39.5 31t-20 65.5z" />
<glyph unicode="&#xc5;" d="M56 213q8 50 32 97t69 116.5t58 93.5q-61 -8 -75 -8q-28 0 -46 24.5t-22 59.5q5 38 27.5 60t54.5 31t70 12t75 5q50 104 89.5 189.5t117.5 257t113 239.5t57 90q42 40 76 40q70 0 142 -108t128.5 -250t107.5 -295t58 -167q45 -8 68.5 -46t23.5 -82q0 -42 -16 -48 q44 -103 85 -173.5t127 -194.5q18 -30 19 -60q0 -32 -28.5 -52t-70.5 -24q-60 8 -79 40q-112 144 -256 464q-277 20 -493 21q-42 0 -83 -2.5t-49 -2.5q-156 -288 -204 -368q-26 -44 -84 -51q-34 0 -62 27t-30 65zM504 712h137q191 0 342 -8q-26 72 -74.5 204.5t-96.5 243 t-66 110.5q-2 0 -6 -6zM525 1823q4 70 37 127t95 57q42 0 56 -20q10 20 36 20q86 0 142.5 -81t56.5 -171q0 -82 -49.5 -137t-149.5 -55t-160 79t-64 181zM637 1802q0 -39 25 -77q25 -40 67 -42q48 14 72 30t24 54q0 36 -32 71.5t-68 43.5q-8 -8 -28 -12.5t-31 -8.5t-21 -22 q0 4 -8 -37z" />
<glyph unicode="&#xc6;" horiz-adv-x="1980" d="M184 33q9 40 21 59q10 17 74 125.5t88.5 149.5t56.5 98q-22 17 -28 67q3 45 32.5 75t83.5 30q120 263 200 428t160.5 293t139.5 158q72 35 232 55.5t329 20.5q85 0 195 -9q32 0 48.5 -25.5t16.5 -64.5q0 -38 -20.5 -63t-53.5 -25q-24 0 -84.5 2t-95.5 2q-231 -1 -403 -33 q-6 -52 -17 -272q5 -38 5 -104q147 8 251 8q115 0 168 -8q61 -18 61 -97q0 -75 -84 -75q-49 8 -108 8q-48 0 -154 -8t-122 -9q10 -142 38 -313q28 -170 54 -266q126 0 487 92q42 0 67.5 -32t25.5 -77q0 -55 -40 -67q-200 -52 -386 -86t-286 -37q-45 0 -70.5 35.5t-29.5 83.5 q6 66 35 71q-7 38 -26 119.5t-25 118.5q-48 -4 -91 -7.5t-102.5 -8.5t-116 -7t-90.5 -2q-58 -111 -260 -473q-13 -23 -61 -23q-39 0 -75 25t-40 68zM696 612q26 0 304 25q-20 277 -23 399q4 48 4 148q-61 -99 -147 -272.5t-138 -299.5z" />
<glyph unicode="&#xc7;" horiz-adv-x="1687" d="M56 756q4 74 20 184q20 118 90.5 233t176 208t228.5 147.5t244 54.5q106 0 201.5 -35.5t195.5 -91.5q72 -44 72 -96q0 -36 -32 -62q-30 -26 -80 -30q-43 10 -56 16q-112 58 -162.5 78t-138.5 20q-30 0 -47 -2q-76 -4 -179 -75t-185.5 -173.5t-104.5 -191.5 q-21 -99 -27 -205q2 -132 47.5 -237.5t120 -172.5t164.5 -97q148 -56 412 -56q86 2 123 23.5t89 70t103 66.5q33 8 53 8q58 0 97 -34.5t39 -86.5q0 -61 -64 -119q-164 -148 -473 -147q-15 0 -44 1t-58 3t-45 2q-24 -21 -27 -47q14 5 39 8l24 4q140 -14 148 -200 q0 -72 -84 -122t-164 -50q-71 0 -116.5 25t-71.5 95q0 60 57 68q23 -4 49.5 -31t37.5 -36t44 -9q50 0 90.5 24t40.5 48q0 84 -47 92q-21 -4 -64.5 -20.5t-66.5 -16.5q-39 -1 -45 57q4 4 4 17q6 73 47 115q-215 44 -283 67q-166 63 -278 262t-114 447z" />
<glyph unicode="&#xc8;" horiz-adv-x="1124" d="M92 -72q8 74 52 92q36 406 36 644q0 349 -59 700q0 46 30.5 73t76.5 27q40 0 66 -20t30 -60q30 -253 44 -404q13 -150 13 -316q0 -258 -41 -608q111 14 282.5 27t237.5 13q50 -3 77 -32t27 -68q0 -44 -24 -75t-64 -33q-30 -3 -119 -8.5t-195 -13.5t-199 -18t-154 -24 q-108 0 -117 104zM352 1323q3 47 28 78q24 31 68 31h105q112 0 238.5 -7t176.5 -16q34 -6 53 -37q19 -32 19 -72q0 -42 -27 -69t-81 -27q-48 6 -150 11t-225 8.5t-133 5.5q-30 6 -49 32.5t-23 61.5zM401 1876q0 27 21 56q20 28 42 28h17q42 -28 270 -119q46 -18 91 -59 q46 -40 46 -82q0 -31 -16.5 -58.5t-40.5 -29.5q-52 53 -115 90.5t-167.5 84.5t-132.5 60q-12 7 -15 29zM408 796q8 94 71 101h80q139 -1 233 -29q56 -20 56 -88q0 -40 -26 -68t-70 -28q-38 8 -84 11t-98 5t-99 4q-27 0 -43 27t-20 65z" />
<glyph unicode="&#xc9;" horiz-adv-x="1124" d="M92 -72q8 74 52 92q36 406 36 644q0 349 -59 700q0 46 30.5 73t76.5 27q40 0 66 -20t30 -60q30 -253 44 -404q13 -150 13 -316q0 -258 -41 -608q111 14 282.5 27t237.5 13q50 -3 77 -32t27 -68q0 -44 -24 -75t-64 -33q-30 -3 -119 -8.5t-195 -13.5t-199 -18t-154 -24 q-108 0 -117 104zM348 1720q8 22 8 28q15 34 78 80q62 48 106 60q26 10 75 37.5t89 33.5q42 0 67 -31.5t25 -75.5q0 -52 -60 -85t-128 -47q-40 -8 -68 -21.5t-65 -34.5q-37 -20 -51 -24q-18 0 -46 24q-26 26 -30 56zM352 1323q3 47 28 78q24 31 68 31h105q112 0 238.5 -7 t176.5 -16q34 -6 53 -37q19 -32 19 -72q0 -42 -27 -69t-81 -27q-48 6 -150 11t-225 8.5t-133 5.5q-30 6 -49 32.5t-23 61.5zM408 796q8 94 71 101h80q139 -1 233 -29q56 -20 56 -88q0 -40 -26 -68t-70 -28q-38 8 -84 11t-98 5t-99 4q-27 0 -43 27t-20 65z" />
<glyph unicode="&#xca;" horiz-adv-x="1124" d="M92 -72q8 74 52 92q36 406 36 644q0 349 -59 700q0 46 30.5 73t76.5 27q40 0 66 -20t30 -60q30 -253 44 -404q13 -150 13 -316q0 -258 -41 -608q111 14 282.5 27t237.5 13q50 -3 77 -32t27 -68q0 -44 -24 -75t-64 -33q-30 -3 -119 -8.5t-195 -13.5t-199 -18t-154 -24 q-108 0 -117 104zM280 1693q6 19 12 23q38 36 148.5 106t171.5 86q88 0 204 -72t165 -120q8 -8 8 -27q0 -26 -27 -48.5t-61 -25.5q-36 13 -96.5 60t-95.5 68t-81 21q-4 0 -11 -2t-9 -2q-22 -13 -75 -50.5t-89 -59t-76 -31.5q-29 0 -56.5 24.5t-31.5 49.5zM352 1323 q3 47 28 78q24 31 68 31h105q112 0 238.5 -7t176.5 -16q34 -6 53 -37q19 -32 19 -72q0 -42 -27 -69t-81 -27q-48 6 -150 11t-225 8.5t-133 5.5q-30 6 -49 32.5t-23 61.5zM408 796q8 94 71 101h80q139 -1 233 -29q56 -20 56 -88q0 -40 -26 -68t-70 -28q-38 8 -84 11t-98 5 t-99 4q-27 0 -43 27t-20 65z" />
<glyph unicode="&#xcb;" horiz-adv-x="1124" d="M92 -72q8 74 52 92q36 406 36 644q0 349 -59 700q0 46 30.5 73t76.5 27q40 0 66 -20t30 -60q30 -253 44 -404q13 -150 13 -316q0 -258 -41 -608q111 14 282.5 27t237.5 13q50 -3 77 -32t27 -68q0 -44 -24 -75t-64 -33q-30 -3 -119 -8.5t-195 -13.5t-199 -18t-154 -24 q-108 0 -117 104zM232 1688q10 72 70 132t134 60q47 0 84 -36q28 -28 28 -84q0 -76 -42 -138t-111 -69q-153 14 -163 135zM352 1323q3 47 28 78q24 31 68 31h105q112 0 238.5 -7t176.5 -16q34 -6 53 -37q19 -32 19 -72q0 -42 -27 -69t-81 -27q-48 6 -150 11t-225 8.5 t-133 5.5q-30 6 -49 32.5t-23 61.5zM408 796q8 94 71 101h80q139 -1 233 -29q56 -20 56 -88q0 -40 -26 -68t-70 -28q-38 8 -84 11t-98 5t-99 4q-27 0 -43 27t-20 65zM696 1688q15 68 57.5 124t102.5 56q27 0 55 -16q45 -28 45 -108q0 -161 -129 -173q-48 12 -71.5 20.5 t-39.5 31t-20 65.5z" />
<glyph unicode="&#xcc;" horiz-adv-x="1016" d="M-180 213q0 48 25 81.5t67 33.5q34 0 67 -8.5t87 -25.5q54 -18 74 -22q-3 118 -5 216t-4 155q9 375 9 621q-24 0 -36 -4q-69 4 -114.5 36t-45.5 96q0 36 19 64.5t53 28.5q17 0 54 -8q38 -9 42 -9q30 0 83 8.5t98 16.5t87 13.5t85 5.5q85 0 143 -19q32 -9 33 -73 q0 -43 -19.5 -73t-49.5 -30q-58 6 -103 6q-39 -1 -145 -19q0 -536 32 -1076q82 -14 285 -36q28 -3 43.5 -31t15.5 -69q0 -43 -20 -73.5t-52 -30.5q-148 16 -255 29.5t-239 38.5q-132 24 -250 60q-64 18 -64 97zM-2 1876q0 27 21 56q20 28 42 28h17q42 -28 270 -119 q46 -18 91 -59q46 -40 46 -82q0 -31 -16.5 -58.5t-40.5 -29.5q-52 53 -115 90.5t-167.5 84.5t-132.5 60q-12 7 -15 29z" />
<glyph unicode="&#xcd;" horiz-adv-x="1016" d="M-180 213q0 48 25 81.5t67 33.5q34 0 67 -8.5t87 -25.5q54 -18 74 -22q-3 118 -5 216t-4 155q9 375 9 621q-24 0 -36 -4q-69 4 -114.5 36t-45.5 96q0 36 19 64.5t53 28.5q17 0 54 -8q38 -9 42 -9q30 0 83 8.5t98 16.5t87 13.5t85 5.5q85 0 143 -19q32 -9 33 -73 q0 -43 -19.5 -73t-49.5 -30q-58 6 -103 6q-39 -1 -145 -19q0 -536 32 -1076q82 -14 285 -36q28 -3 43.5 -31t15.5 -69q0 -43 -20 -73.5t-52 -30.5q-148 16 -255 29.5t-239 38.5q-132 24 -250 60q-64 18 -64 97zM29 1700q8 22 8 28q15 34 78 80q62 48 106 60q26 10 75 37.5 t89 33.5q42 0 67 -31.5t25 -75.5q0 -52 -60 -85t-128 -47q-40 -8 -68 -21.5t-65 -34.5q-37 -20 -51 -24q-18 0 -46 24q-26 26 -30 56z" />
<glyph unicode="&#xce;" horiz-adv-x="1016" d="M-180 213q0 48 25 81.5t67 33.5q34 0 67 -8.5t87 -25.5q54 -18 74 -22q-3 118 -5 216t-4 155q9 375 9 621q-24 0 -36 -4q-69 4 -114.5 36t-45.5 96q0 36 19 64.5t53 28.5q17 0 54 -8q38 -9 42 -9q30 0 83 8.5t98 16.5t87 13.5t85 5.5q85 0 143 -19q32 -9 33 -73 q0 -43 -19.5 -73t-49.5 -30q-58 6 -103 6q-39 -1 -145 -19q0 -536 32 -1076q82 -14 285 -36q28 -3 43.5 -31t15.5 -69q0 -43 -20 -73.5t-52 -30.5q-148 16 -255 29.5t-239 38.5q-132 24 -250 60q-64 18 -64 97zM-72 1681q6 19 12 23q38 36 148.5 106t171.5 86q88 0 204 -72 t165 -120q8 -8 8 -27q0 -26 -27 -48.5t-61 -25.5q-36 13 -96.5 60t-95.5 68t-81 21q-4 0 -11 -2t-9 -2q-22 -13 -75 -50.5t-89 -59t-76 -31.5q-29 0 -56.5 24.5t-31.5 49.5z" />
<glyph unicode="&#xcf;" horiz-adv-x="1016" d="M-180 213q0 48 25 81.5t67 33.5q34 0 67 -8.5t87 -25.5q54 -18 74 -22q-3 118 -5 216t-4 155q9 375 9 621q-24 0 -36 -4q-69 4 -114.5 36t-45.5 96q0 36 19 64.5t53 28.5q17 0 54 -8q38 -9 42 -9q30 0 83 8.5t98 16.5t87 13.5t85 5.5q85 0 143 -19q32 -9 33 -73 q0 -43 -19.5 -73t-49.5 -30q-58 6 -103 6q-39 -1 -145 -19q0 -536 32 -1076q82 -14 285 -36q28 -3 43.5 -31t15.5 -69q0 -43 -20 -73.5t-52 -30.5q-148 16 -255 29.5t-239 38.5q-132 24 -250 60q-64 18 -64 97zM-92 1716q10 72 70 132t134 60q47 0 84 -36q28 -28 28 -84 q0 -76 -42 -138t-111 -69q-153 14 -163 135zM372 1716q15 68 57.5 124t102.5 56q27 0 55 -16q45 -28 45 -108q0 -161 -129 -173q-48 12 -71.5 20.5t-39.5 31t-20 65.5z" />
<glyph unicode="&#xd0;" horiz-adv-x="1671" d="M-4 51q0 51 31 69t102 36q13 176 63 504q-18 -2 -59 -10.5t-65 -12.5q-50 0 -60 90q8 64 33 74q55 21 172 39q25 256 27 344q0 90 -44 284q0 46 30 71t71 25q80 0 94 -56q49 -122 49 -355q0 -68 -9 -170t-11 -135q70 -2 158 -17t118 -16q16 4 39 4q34 0 52 -22.5 t18 -61.5q0 -28 -11.5 -44.5t-29.5 -23.5t-42 -10t-46 -5q-40 2 -125 17t-147 15q-8 -58 -26 -168t-28 -178.5t-14 -132.5l62 9q63 10 141.5 18t164.5 8q56 0 172 -8q61 0 147.5 57t148 161t61.5 238q0 164 -86 311t-230.5 235.5t-308.5 88.5q-15 0 -42.5 -1t-41.5 -1 q-32 0 -50 25.5t-22 64.5q8 105 68 105q29 4 84 4q164 0 315 -67t269 -185t185 -272t67 -320t-79.5 -319t-197.5 -245t-225 -92q-30 0 -45 4q-77 16 -181 17q-87 0 -170 -11.5t-210 -33.5q-6 -48 -40 -72t-79 -24q-32 0 -55.5 11t-26.5 29q-7 -2 -22.5 -5t-28.5 -7 q-38 0 -61 38t-23 85z" />
<glyph unicode="&#xd1;" horiz-adv-x="1569" d="M47 172q28 166 49.5 346t36.5 351t27 335q7 102 42 159t95 57q63 0 131 -48q40 -26 62.5 -51t40 -53t45.5 -72q96 -140 175 -265t165.5 -295t150.5 -356q32 83 60.5 255t49.5 369.5t33 366.5t14 261q0 29 24 44.5t60 15.5q47 0 79.5 -21t32.5 -55q-2 -120 -14 -306.5 t-34 -387t-53 -379.5t-67 -271q-28 -80 -88 -139t-124 -61q-52 6 -85 45t-54 93t-45 113q-96 281 -508 897q-6 -116 -26 -289t-50 -354t-63 -317q-12 -60 -78 -68q-34 4 -59 27t-25 53zM536 1759q13 50 92.5 81.5t143.5 31.5q34 0 71 -14t82.5 -36t55.5 -22q13 0 43 13.5 t43 15.5q28 0 48.5 -26.5t20.5 -61.5q0 -25 -16 -41q-36 -36 -112 -43q-12 4 -31 4q-18 2 -69.5 27.5t-81.5 39t-58 13.5q-21 -4 -44.5 -13.5t-50.5 -23.5l-45 -20q-8 0 -16 -4q-21 0 -46.5 28t-29.5 51z" />
<glyph unicode="&#xd2;" horiz-adv-x="1728" d="M100 664q8 74 8 92q26 204 114 352t203 238t239 139q125 107 327 107q130 0 251 -50t206 -146q188 -224 188 -560q0 -152 -36 -304q-34 -146 -126.5 -280.5t-245 -222t-352.5 -89.5q-86 7 -149 17q-172 28 -293.5 103t-194 177t-105.5 212q-32 111 -34 215zM312 684 q2 -110 56 -216.5t148 -182t209 -97.5q36 -9 127 -16q114 2 218 44t189 143t125 265q26 104 27 228q0 176 -71 306q-70 132 -185 186q-34 -30 -88 -31q-19 0 -60 2t-63 2q-79 -1 -133 -17q-22 -14 -53.5 -58t-49.5 -54q-16 -12 -65 -20q-23 2 -45 11t-26 13 q-116 -82 -188 -213.5t-72 -294.5zM717 1917q0 28 21 56q20 28 42 28h16q32 -22 271 -121q47 -19 92 -59.5t45 -79.5q0 -32 -16 -58.5t-39 -30.5q-54 52 -117.5 90t-176.5 90q-113 50 -124 56q-8 6 -14 29z" />
<glyph unicode="&#xd3;" horiz-adv-x="1728" d="M100 664q8 74 8 92q26 204 114 352t203 238t239 139q125 107 327 107q130 0 251 -50t206 -146q188 -224 188 -560q0 -152 -36 -304q-34 -146 -126.5 -280.5t-245 -222t-352.5 -89.5q-86 7 -149 17q-172 28 -293.5 103t-194 177t-105.5 212q-32 111 -34 215zM312 684 q2 -110 56 -216.5t148 -182t209 -97.5q36 -9 127 -16q114 2 218 44t189 143t125 265q26 104 27 228q0 176 -71 306q-70 132 -185 186q-34 -30 -88 -31q-19 0 -60 2t-63 2q-79 -1 -133 -17q-22 -14 -53.5 -58t-49.5 -54q-16 -12 -65 -20q-23 2 -45 11t-26 13 q-116 -82 -188 -213.5t-72 -294.5zM748 1741q8 21 8 27q10 23 43 52.5t72.5 54.5t68.5 33q28 9 77.5 37.5t86.5 34.5q40 0 66 -32t26 -76q0 -53 -62 -86q-62 -34 -126 -45q-38 -7 -62 -18.5t-65 -35t-57 -26.5q-20 0 -47 24.5t-29 55.5z" />
<glyph unicode="&#xd4;" horiz-adv-x="1728" d="M100 664q8 74 8 92q26 204 114 352t203 238t239 139q125 107 327 107q130 0 251 -50t206 -146q188 -224 188 -560q0 -152 -36 -304q-34 -146 -126.5 -280.5t-245 -222t-352.5 -89.5q-86 7 -149 17q-172 28 -293.5 103t-194 177t-105.5 212q-32 111 -34 215zM312 684 q2 -110 56 -216.5t148 -182t209 -97.5q36 -9 127 -16q114 2 218 44t189 143t125 265q26 104 27 228q0 176 -71 306q-70 132 -185 186q-34 -30 -88 -31q-19 0 -60 2t-63 2q-79 -1 -133 -17q-22 -14 -53.5 -58t-49.5 -54q-16 -12 -65 -20q-23 2 -45 11t-26 13 q-116 -82 -188 -213.5t-72 -294.5zM492 1732q5 16 12 23q22 21 83 63t128 80.5t109 49.5q87 0 203.5 -72t164.5 -121q8 -9 8 -27q0 -26 -26 -47t-62 -24q-35 12 -96.5 59.5t-95.5 67.5t-80 20q-6 0 -12.5 -2t-8.5 -2q-26 -16 -76.5 -51.5t-88.5 -57.5t-74 -30 q-28 0 -57 23.5t-31 47.5z" />
<glyph unicode="&#xd5;" horiz-adv-x="1728" d="M100 664q8 74 8 92q26 204 114 352t203 238t239 139q125 107 327 107q130 0 251 -50t206 -146q188 -224 188 -560q0 -152 -36 -304q-34 -146 -126.5 -280.5t-245 -222t-352.5 -89.5q-86 7 -149 17q-172 28 -293.5 103t-194 177t-105.5 212q-32 111 -34 215zM312 684 q2 -110 56 -216.5t148 -182t209 -97.5q36 -9 127 -16q114 2 218 44t189 143t125 265q26 104 27 228q0 176 -71 306q-70 132 -185 186q-34 -30 -88 -31q-19 0 -60 2t-63 2q-79 -1 -133 -17q-22 -14 -53.5 -58t-49.5 -54q-16 -12 -65 -20q-23 2 -45 11t-26 13 q-116 -82 -188 -213.5t-72 -294.5zM444 1780q14 49 93.5 80.5t142.5 31.5q34 0 71.5 -14t82.5 -36t55 -22q16 0 46.5 13t41.5 15q28 0 47.5 -27t19.5 -62q0 -23 -16 -39q-38 -38 -112 -44q-12 4 -32 4q-11 2 -92 40.5t-116 38.5q-18 -2 -43 -11.5t-47 -20.5q-24 -11 -50 -23 q-8 0 -16 -4q-20 0 -46 28t-30 52z" />
<glyph unicode="&#xd6;" horiz-adv-x="1728" d="M100 664q8 74 8 92q26 204 114 352t203 238t239 139q125 107 327 107q130 0 251 -50t206 -146q188 -224 188 -560q0 -152 -36 -304q-34 -146 -126.5 -280.5t-245 -222t-352.5 -89.5q-86 7 -149 17q-172 28 -293.5 103t-194 177t-105.5 212q-32 111 -34 215zM312 684 q2 -110 56 -216.5t148 -182t209 -97.5q36 -9 127 -16q114 2 218 44t189 143t125 265q26 104 27 228q0 176 -71 306q-70 132 -185 186q-34 -30 -88 -31q-19 0 -60 2t-63 2q-79 -1 -133 -17q-22 -14 -53.5 -58t-49.5 -54q-16 -12 -65 -20q-23 2 -45 11t-26 13 q-116 -82 -188 -213.5t-72 -294.5zM492 1736q6 46 36 91t75 72.5t93 27.5q48 -1 84 -35q28 -28 29 -84q0 -48 -18.5 -94t-54.5 -78q-34 -30 -80 -36q-154 14 -164 136zM956 1736q16 69 58 125t102 56q22 -1 56 -17q44 -28 44 -108q0 -161 -128 -172q-70 16 -98 36 q-28 18 -34 80z" />
<glyph unicode="&#xd8;" horiz-adv-x="1691" d="M94 762q0 208 73.5 373t191 276t252.5 173t257 73q6 37 41 58t82 21q56 -3 134.5 -47.5t158.5 -119.5q8 4 29 4q43 0 81 -40.5t38 -84.5q0 -30 -12 -39q85 -130 134.5 -273.5t49.5 -330.5q-4 -169 -83 -333t-243 -277t-406 -131q-28 0 -88 -8q-138 5 -284 65 q-93 -118 -152 -168q-26 -21 -55 -21q-38 0 -71.5 33.5t-37.5 71.5q6 28 16 39q100 91 140 147q-120 98 -180 232q-60 133 -64 253q0 14 -1 29t-1 25zM295 788q0 -66 12 -132q23 -156 149 -275q90 121 153 221.5t170 279t187 296.5t179 233q-65 73 -141 97q-22 -30 -72 -36 q-120 -18 -236 -73t-206 -142.5t-142 -207.5q-53 -121 -53 -261zM616 289q66 -35 208 -45q16 4 28 4q132 12 262 93.5t212.5 218t82.5 304.5q-11 236 -133 400q-88 -98 -167 -211t-153 -232t-168 -271.5t-172 -260.5z" />
<glyph unicode="&#xd9;" horiz-adv-x="1292" d="M80 832q3 83 5.5 133.5t6.5 128.5q2 78 4 135q0 28 27 43.5t65 15.5q44 0 77.5 -19t33.5 -53q0 -162 -6 -313q2 -108 8.5 -193.5t22.5 -172.5t44 -173q27 -86 78.5 -147t119.5 -94q66 -33 138 -35q86 2 159 48t120 138t53 222q2 26 2 82q0 186 -36 388t-109 443 q-4 13 -4 19q0 37 43.5 66.5t91.5 29.5q60 0 72 -39q47 -154 82 -318.5t56 -328.5q20 -164 20 -300q0 -13 -1 -35.5t-1 -31.5q-8 -150 -61 -283.5t-151 -223.5t-231 -108q-33 -4 -97 -4q-189 0 -330 106t-206 306q-52 158 -72 288t-24 280zM444 1900q0 28 21 56t43 28h16 q38 -24 272 -120q45 -18 90 -58q46 -42 46 -82q0 -32 -16 -58q-18 -26 -40 -30q-42 42 -89.5 73.5t-94.5 55t-120.5 56.5t-110.5 51q-11 4 -17 28z" />
<glyph unicode="&#xda;" horiz-adv-x="1292" d="M80 832q3 83 5.5 133.5t6.5 128.5q2 78 4 135q0 28 27 43.5t65 15.5q44 0 77.5 -19t33.5 -53q0 -162 -6 -313q2 -108 8.5 -193.5t22.5 -172.5t44 -173q27 -86 78.5 -147t119.5 -94q66 -33 138 -35q86 2 159 48t120 138t53 222q2 26 2 82q0 186 -36 388t-109 443 q-4 13 -4 19q0 37 43.5 66.5t91.5 29.5q60 0 72 -39q47 -154 82 -318.5t56 -328.5q20 -164 20 -300q0 -13 -1 -35.5t-1 -31.5q-8 -150 -61 -283.5t-151 -223.5t-231 -108q-33 -4 -97 -4q-189 0 -330 106t-206 306q-52 158 -72 288t-24 280zM484 1720q8 24 8 29q16 35 79 81 t105 58q29 10 78 38q50 28 86 34q42 0 67 -32t25 -76q0 -52 -61 -85t-127 -47q-36 -7 -63 -19t-67 -34.5t-55 -26.5q-19 0 -46 25t-29 55z" />
<glyph unicode="&#xdb;" horiz-adv-x="1351" d="M80 832q3 83 5.5 133.5t6.5 128.5q2 78 4 135q0 28 27 43.5t65 15.5q44 0 77.5 -19t33.5 -53q0 -162 -6 -313q2 -108 8.5 -193.5t22.5 -172.5t44 -173q27 -86 78.5 -147t119.5 -94q66 -33 138 -35q86 2 159 48t120 138t53 222q2 26 2 82q0 186 -36 388t-109 443 q-4 13 -4 19q0 37 43.5 66.5t91.5 29.5q60 0 72 -39q47 -154 82 -318.5t56 -328.5q20 -164 20 -300q0 -13 -1 -35.5t-1 -31.5q-8 -150 -61 -283.5t-151 -223.5t-231 -108q-33 -4 -97 -4q-189 0 -330 106t-206 306q-52 158 -72 288t-24 280zM248 1692q6 18 12 24 q24 22 84 63.5t127 79.5t109 49q86 0 202 -72t166 -120q8 -8 8 -28q0 -24 -27 -46.5t-61 -25.5q-36 13 -96 59.5t-94 67.5t-82 21q-6 0 -12 -2q-6 -3 -8 -3q-32 -19 -82 -54t-84 -55t-74 -30q-28 0 -56.5 24t-31.5 48z" />
<glyph unicode="&#xdc;" horiz-adv-x="1292" d="M47 940q3 83 6 139.5t5 112.5q4 56 6 144q0 29 27 44.5t65 15.5q47 0 79.5 -19t32.5 -54q0 -97 -8 -311q2 -112 9 -195t22.5 -170t44.5 -176q40 -126 134 -199q94 -72 202 -76q86 2 159 49t120 138t53 221q2 29 2 84q0 128 -16.5 259t-49 273t-80.5 296q-4 12 -4 18 q0 38 44 68t91 30q62 0 74 -40q33 -108 62.5 -235.5t51 -254t32.5 -240.5t11 -217q0 -12 -1 -33.5t-1 -31.5q-6 -112 -37 -215.5t-87.5 -189.5t-137 -141.5t-182.5 -70.5q-32 -4 -96 -4q-188 0 -329.5 106t-206.5 307q-52 157 -73 287.5t-24 280.5zM183 1716q10 72 70 132 t134 60q47 0 84 -36q28 -28 28 -84q0 -76 -42 -138t-111 -69q-153 14 -163 135zM647 1716q15 68 57.5 124t102.5 56q27 0 55 -16q45 -28 45 -108q0 -161 -129 -173q-48 12 -71.5 20.5t-39.5 31t-20 65.5z" />
<glyph unicode="&#xdd;" horiz-adv-x="1220" d="M84 1458q0 42 34 72t74 30q56 0 68 -40q36 -107 80.5 -186.5t123.5 -199.5q78 -120 124 -206q212 302 344 500q16 32 68 32q45 0 80.5 -25t35.5 -63q0 -16 -8 -32q-58 -92 -107 -166t-92 -135t-118 -167.5t-99 -140.5q0 -73 5 -168.5t15 -248t15 -230.5q0 -37 -27 -59 t-67 -25q-40 3 -70.5 24.5t-30.5 51.5q-4 50 -12.5 149t-13.5 186q-4 87 -6 177q-44 38 -52 112q6 40 17 60q-43 90 -89 164t-115 177.5t-106.5 172.5t-66.5 154q-4 10 -4 30zM612 1576q8 22 8 28q15 34 78 80q62 48 106 60q26 10 75 37.5t89 33.5q42 0 67 -31.5t25 -75.5 q0 -52 -60 -85t-128 -47q-40 -8 -68 -21.5t-65 -34.5q-37 -20 -51 -24q-18 0 -46 24q-26 26 -30 56z" />
<glyph unicode="&#xde;" horiz-adv-x="1196" d="M-68 725q0 50 21 92.5t51 42.5q14 -4 36 -10t48 -14q16 138 16 317q0 139 -8 426q8 184 16 289q0 28 23 43.5t57 15.5q46 0 76.5 -22.5t30.5 -61.5q-10 -127 -10 -291q194 -11 363.5 -81.5t274.5 -200.5t105 -306q-2 -132 -99.5 -217t-244.5 -125t-301 -42q-77 6 -143 12 q-56 -422 -84 -524q-10 -51 -88 -60q-34 4 -57 21t-23 43q66 370 80 544q-38 10 -70 19.5t-51 29.5t-19 60zM276 788q10 0 84 -8q101 2 204 22t179.5 64.5t84.5 116.5q0 75 -43 139t-118 114t-172 81t-206 39q0 -33 2 -130.5t2 -158.5q-1 -163 -17 -279z" />
<glyph unicode="&#xdf;" horiz-adv-x="1388" d="M144 1485q3 42 33.5 72t74.5 30q28 0 48 -9.5t24 -21.5q140 -63 216 -67q27 6 103 6q106 0 201.5 -60.5t154 -158.5t58.5 -205q0 -66 -34.5 -137.5t-78.5 -105.5q140 -67 228 -194.5t88 -277.5q0 -62 -27 -160q-26 -73 -83.5 -123t-138.5 -75.5t-171 -25.5 q-96 0 -192 29.5t-179 89t-137 145.5q0 -54 6 -153t14 -159q0 -64 -88 -64q-80 0 -80 52q-12 96 -20 284q2 92 8 174t20 217t19.5 209t5.5 150q0 48 -2 70q-4 238 -43 356q-26 103 -28 113zM344 440h24q82 0 140 -100q54 -94 144 -144q90 -48 184 -52q108 3 173.5 57.5 t65.5 158.5q0 189 -157.5 278.5t-368.5 109.5q-28 0 -45 26q-16 26 -20 62q3 40 21 66t48 26q122 0 211 -25q8 36 23 55.5t40 40.5t37 37t12 44q0 68 -35 123.5t-94 86.5t-127 31q-53 0 -75 -4q-81 4 -189 43q30 -202 31 -416q0 -74 -6 -150t-18.5 -187t-18.5 -167z" />
<glyph unicode="&#xe0;" horiz-adv-x="1401" d="M64 572q7 64 20 84q24 38 47 102t40 100.5t59.5 83t117.5 90.5q128 72 280 72h60q36 32 68 36q53 0 93.5 -21t90.5 -54l16 67q6 34 36.5 55t72.5 21q48 0 91.5 -28t43.5 -72q0 -34 -15 -97t-17 -91q4 -46 13 -79.5t31 -103t33 -117.5t11 -96q0 -38 -19 -156 q15 -38 37 -110t22 -129q0 -37 -12 -49q-37 -37 -96 -37q-30 0 -50 11.5t-31 28.5t-26 54t-16 39q-76 -72 -196.5 -116t-248.5 -44q-152 0 -264 64q-74 46 -141 134t-108 186t-43 172zM256 588q8 -25 8 -35q90 -353 348 -361q118 3 228.5 71.5t142.5 140.5q29 56 29 132 q0 106 -64 260q-10 36 -40 36q-7 0 -29 -5q-21 -5 -39 -8q-30 10 -80 42.5t-80 47.5t-72 15q-56 0 -114 -22.5t-104 -65.5q-46 -44 -66 -101q-4 -16 -35 -61.5t-33 -85.5zM475 1503q0 27 22 55q21 29 43 29h15q65 -39 273 -119q47 -20 91.5 -60t44.5 -81q0 -31 -16 -58 t-40 -30q-50 51 -115 91t-135 71q-68 31 -166 75q-10 5 -17 27z" />
<glyph unicode="&#xe1;" horiz-adv-x="1431" d="M64 572q7 64 20 84q24 38 47 102t40 100.5t59.5 83t117.5 90.5q128 72 280 72h60q36 32 68 36q53 0 93.5 -21t90.5 -54l16 67q6 34 36.5 55t72.5 21q48 0 91.5 -28t43.5 -72q0 -34 -15 -97t-17 -91q4 -46 13 -79.5t31 -103t33 -117.5t11 -96q0 -38 -19 -156 q15 -38 37 -110t22 -129q0 -37 -12 -49q-37 -37 -96 -37q-30 0 -50 11.5t-31 28.5t-26 54t-16 39q-76 -72 -196.5 -116t-248.5 -44q-152 0 -264 64q-74 46 -141 134t-108 186t-43 172zM256 588q8 -25 8 -35q90 -353 348 -361q118 3 228.5 71.5t142.5 140.5q29 56 29 132 q0 106 -64 260q-10 36 -40 36q-7 0 -29 -5q-21 -5 -39 -8q-30 10 -80 42.5t-80 47.5t-72 15q-56 0 -114 -22.5t-104 -65.5q-46 -44 -66 -101q-4 -16 -35 -61.5t-33 -85.5zM612 1340q8 24 8 28q16 36 79 82q63 48 106 58q28 10 63 30t51.5 28t48.5 13q42 0 67.5 -31.5 t25.5 -75.5q0 -52 -61.5 -86t-127.5 -46q-51 -10 -111.5 -44t-72.5 -36q-20 0 -46 25t-30 55z" />
<glyph unicode="&#xe2;" horiz-adv-x="1396" d="M84 500q6 62 20 84q24 38 48 102t40.5 101t59 83t116.5 90q126 72 279 72h61q34 34 68 35q76 0 184 -76l17 70q4 34 35 55q32 20 72 20q48 0 92 -28t44 -72q0 -34 -15 -98t-17 -90q4 -46 13 -79t31 -103t33 -118t11 -96q0 -47 -20 -155q16 -38 38.5 -110.5t22.5 -130.5 q-1 -36 -13 -48q-36 -36 -96 -36q-39 0 -60.5 18t-36.5 52t-27 62q-75 -72 -195.5 -116t-247.5 -44q-158 0 -264 64q-75 46 -142 134t-108 185t-43 173zM276 516q8 -24 8 -37q90 -350 349 -358q79 2 158 35t136 82t77 94q28 56 28 133q0 92 -64 260q-10 35 -40 35 q-9 0 -29.5 -5t-38.5 -7q-32 11 -82 43.5t-79 46.5t-71 14q-87 0 -171 -51t-113 -137q-4 -16 -35 -62t-33 -86zM377 1317q5 13 10 23q40 36 150.5 106t170.5 86q88 0 207 -74q119 -72 160 -118q9 -8 9 -27q0 -26 -27 -48.5t-61 -25.5q-36 13 -98 61t-95 68t-78 20 q-4 0 -11.5 -2t-9.5 -2q-25 -15 -77.5 -52.5t-87.5 -58t-74 -30.5q-29 0 -57 24.5t-31 49.5z" />
<glyph unicode="&#xe3;" horiz-adv-x="1396" d="M84 500q6 62 20 84q24 38 48 102t40.5 101t59 83t116.5 90q126 72 279 72h61q34 34 68 35q76 0 184 -76l17 70q4 34 35 55q32 20 72 20q48 0 92 -28t44 -72q0 -34 -15 -98t-17 -90q4 -46 13 -79t31 -103t33 -118t11 -96q0 -47 -20 -155q16 -38 38.5 -110.5t22.5 -130.5 q-1 -36 -13 -48q-36 -36 -96 -36q-39 0 -60.5 18t-36.5 52t-27 62q-75 -72 -195.5 -116t-247.5 -44q-158 0 -264 64q-75 46 -142 134t-108 185t-43 173zM276 516q8 -24 8 -37q90 -350 349 -358q79 2 158 35t136 82t77 94q28 56 28 133q0 92 -64 260q-10 35 -40 35 q-9 0 -29.5 -5t-38.5 -7q-32 11 -82 43.5t-79 46.5t-71 14q-87 0 -171 -51t-113 -137q-4 -16 -35 -62t-33 -86zM328 1364q14 48 93 80t142 32q34 0 69.5 -13t82.5 -35.5t57 -22.5q16 0 45 12.5t43 14.5q29 0 48.5 -27t19.5 -61q0 -22 -16 -40q-36 -38 -111 -44q-12 4 -33 4 q-16 4 -68 29t-83 38t-58 13q-18 -3 -39.5 -11.5t-51 -22.5t-48.5 -22q-8 0 -16 -4q-19 0 -45.5 27.5t-30.5 52.5z" />
<glyph unicode="&#xe4;" horiz-adv-x="1396" d="M84 500q6 62 20 84q24 38 48 102t40.5 101t59 83t116.5 90q126 72 279 72h61q34 34 68 35q76 0 184 -76l17 70q4 34 35 55q32 20 72 20q48 0 92 -28t44 -72q0 -34 -15 -98t-17 -90q4 -46 13 -79t31 -103t33 -118t11 -96q0 -47 -20 -155q16 -38 38.5 -110.5t22.5 -130.5 q-1 -36 -13 -48q-36 -36 -96 -36q-39 0 -60.5 18t-36.5 52t-27 62q-75 -72 -195.5 -116t-247.5 -44q-158 0 -264 64q-75 46 -142 134t-108 185t-43 173zM276 516q8 -24 8 -37q90 -350 349 -358q79 2 158 35t136 82t77 94q28 56 28 133q0 92 -64 260q-10 35 -40 35 q-9 0 -29.5 -5t-38.5 -7q-32 11 -82 43.5t-79 46.5t-71 14q-87 0 -171 -51t-113 -137q-4 -16 -35 -62t-33 -86zM328 1360q10 72 70 132t134 60q46 0 84 -36q26 -26 27 -84q0 -76 -41.5 -137t-109.5 -71q-152 16 -164 136zM792 1360q15 68 57.5 124t102.5 56q24 0 56 -16 q44 -28 44 -109q0 -160 -128 -172q-70 16 -98 35t-34 82z" />
<glyph unicode="&#xe5;" horiz-adv-x="1396" d="M84 500q6 62 20 84q24 38 48 102t40.5 101t59 83t116.5 90q126 72 279 72h61q34 34 68 35q76 0 184 -76l17 70q4 34 35 55q32 20 72 20q48 0 92 -28t44 -72q0 -34 -15 -98t-17 -90q4 -46 13 -79t31 -103t33 -118t11 -96q0 -47 -20 -155q16 -38 38.5 -110.5t22.5 -130.5 q-1 -36 -13 -48q-36 -36 -96 -36q-39 0 -60.5 18t-36.5 52t-27 62q-75 -72 -195.5 -116t-247.5 -44q-158 0 -264 64q-75 46 -142 134t-108 185t-43 173zM276 516q8 -24 8 -37q90 -350 349 -358q79 2 158 35t136 82t77 94q28 56 28 133q0 92 -64 260q-10 35 -40 35 q-9 0 -29.5 -5t-38.5 -7q-32 11 -82 43.5t-79 46.5t-71 14q-87 0 -171 -51t-113 -137q-4 -16 -35 -62t-33 -86zM344 1452q4 68 37 126t94 58q43 0 57 -20q10 20 36 20q88 0 144 -80q56 -82 56 -172q0 -82 -50 -137t-150 -55q-98 0 -159 79t-65 181zM456 1432q0 -38 24 -77 t69 -42q44 12 69 27.5t25 55.5q0 38 -30.5 72t-67.5 44q-7 -8 -37 -15t-43 -29q-1 2 -9 -36z" />
<glyph unicode="&#xe6;" horiz-adv-x="2296" d="M68 664q6 102 36 132q28 30 67 94.5t60 94.5t68.5 67.5t128.5 67.5q90 32 192 33q88 -1 156 -17q4 2 16 8.5t26 10.5t34 4q31 -2 62 -21.5t57 -43.5t45 -42l28 68q20 56 96 56q51 0 95.5 -28t44.5 -77v-27q129 96 289 96q122 -3 205.5 -36.5t138.5 -87.5t129 -161 t90 -130q28 -34 28 -84q0 -75 -65 -113q-42 -70 -127 -76q-8 4 -20 4l-122 12q-122 11 -226 11q-256 1 -376 -75q12 -109 124 -176.5t256 -67.5q94 10 157 41.5t131 97.5q30 25 68 25q47 0 84 -32.5t37 -78.5q1 -59 -61 -105q-78 -60 -185 -109.5t-183 -49.5 q-288 11 -440 102q-14 -42 -96 -51q-30 4 -72 20q-18 10 -27 31.5t-16 57.5q-7 37 -10 47q-134 -90 -348 -96q-225 7 -363 120q-60 52 -107.5 136t-75 177t-29.5 171zM264 664q12 -152 62 -246t123 -135t159 -43q105 3 205 51t139 105q34 47 39 83q0 41 -8 93q7 66 17 112 q0 44 -14.5 94t-45.5 50h-20q-8 2 -25.5 3t-32 6t-26.5 15q-60 61 -106 91t-110 30q-80 0 -155 -37.5t-109 -103.5q-10 -18 -37 -47t-41 -54t-14 -67zM1204 592q86 36 207 62t265 26q98 0 245 -20q-60 121 -152.5 196.5t-191.5 75.5q-102 -2 -183.5 -51t-130 -125.5 t-59.5 -163.5z" />
<glyph unicode="&#xe7;" horiz-adv-x="1544" d="M51 604q2 142 53.5 270t158.5 214t261 100q15 0 45.5 2t46.5 2q137 0 239.5 -41t148.5 -123q20 -34 20 -68q0 -42 -32 -69q-30 -27 -76 -31q-44 9 -64 33q-42 48 -92 68t-136 20h-75q-89 -6 -151 -59.5t-92 -139.5t-30 -182q0 -82 41 -180t141 -171t261 -73q19 0 69 4 q78 7 130.5 35t129.5 81q76 52 120 64q20 6 42 6q58 0 98 -38t40 -92q0 -39 -27 -77q-27 -39 -82 -63q-84 -44 -163 -74t-162.5 -46.5t-169.5 -16.5h-88q-14 -17 -28 -47q14 4 40 8t28 4q77 -8 109 -60t39 -140q0 -72 -87 -126t-165 -54q-70 0 -114 25t-70 95l-8 24 q0 16 18 28t43 16q24 -5 50.5 -32t37.5 -35.5t43 -8.5q49 0 92 28t43 52q0 83 -51 92q-19 -4 -63.5 -20.5t-67.5 -16.5q-35 -1 -41 57q4 4 4 17q7 43 45 115q-111 20 -202.5 77.5t-156.5 142.5t-101.5 188.5t-41.5 215.5z" />
<glyph unicode="&#xe8;" horiz-adv-x="1401" d="M72 372q8 45 28 56q-18 60 -24 140q2 122 47.5 245t141 217.5t235.5 124.5q104 21 180 21q90 0 160 -24t122 -62.5t87 -75.5t115 -125q56 -63 56 -141q0 -57 -38.5 -103.5t-110.5 -64.5q-38 -10 -134.5 -26t-185 -36t-195 -59t-220.5 -103q75 -142 226.5 -203t336.5 -65 q135 4 313 41q40 0 68 -32.5t28 -76.5q0 -68 -61 -80q-177 -36 -339 -36q-498 0 -732 356q-2 -2 -10 -4q-6 -2 -10 -4q-25 0 -52.5 40t-31.5 80zM256 572q4 -18 4 -48q248 110 400 152q36 10 140 38t144.5 40t42.5 18q0 12 -43.5 68t-118.5 103.5t-173 47.5 q-108 0 -197.5 -58.5t-142 -155.5t-56.5 -205zM293 1503q0 28 20.5 56t42.5 28h16q50 -31 271 -119q47 -20 92 -60t45 -81q0 -31 -16.5 -58t-38.5 -30q-50 51 -115.5 91t-177.5 90t-125 56q-8 4 -14 27z" />
<glyph unicode="&#xe9;" horiz-adv-x="1401" d="M72 372q8 45 28 56q-18 60 -24 140q2 122 47.5 245t141 217.5t235.5 124.5q104 21 180 21q90 0 160 -24t122 -62.5t87 -75.5t115 -125q56 -63 56 -141q0 -57 -38.5 -103.5t-110.5 -64.5q-38 -10 -134.5 -26t-185 -36t-195 -59t-220.5 -103q75 -142 226.5 -203t336.5 -65 q135 4 313 41q40 0 68 -32.5t28 -76.5q0 -68 -61 -80q-177 -36 -339 -36q-498 0 -732 356q-2 -2 -10 -4q-6 -2 -10 -4q-25 0 -52.5 40t-31.5 80zM256 572q4 -18 4 -48q248 110 400 152q36 10 140 38t144.5 40t42.5 18q0 12 -43.5 68t-118.5 103.5t-173 47.5 q-108 0 -197.5 -58.5t-142 -155.5t-56.5 -205zM324 1327q8 27 8 29q10 23 43 53.5t73 54.5t68 31q30 11 78 39t86 35q40 0 66 -32.5t26 -76.5q0 -53 -60 -85.5t-128 -47.5q-38 -6 -67.5 -20t-64.5 -35q-34 -21 -52 -25q-18 0 -46 25.5t-30 54.5z" />
<glyph unicode="&#xea;" horiz-adv-x="1401" d="M72 372q8 45 28 56q-18 60 -24 140q2 122 47.5 245t141 217.5t235.5 124.5q104 21 180 21q90 0 160 -24t122 -62.5t87 -75.5t115 -125q56 -63 56 -141q0 -57 -38.5 -103.5t-110.5 -64.5q-38 -10 -134.5 -26t-185 -36t-195 -59t-220.5 -103q75 -142 226.5 -203t336.5 -65 q135 4 313 41q40 0 68 -32.5t28 -76.5q0 -68 -61 -80q-177 -36 -339 -36q-498 0 -732 356q-2 -2 -10 -4q-6 -2 -10 -4q-25 0 -52.5 40t-31.5 80zM256 572q4 -18 4 -48q248 110 400 152q36 10 140 38t144.5 40t42.5 18q0 12 -43.5 68t-118.5 103.5t-173 47.5 q-108 0 -197.5 -58.5t-142 -155.5t-56.5 -205zM307 1280q7 18 13 24q45 38 153 107.5t168 83.5q60 0 137.5 -37.5t141.5 -83.5t88 -70q8 -8 8 -28q0 -26 -26 -47t-62 -25q-35 12 -95.5 59t-95.5 68t-81 21q-5 0 -11.5 -2t-7.5 -2q-30 -17 -82.5 -53.5t-86.5 -56.5t-72 -30 q-30 0 -57.5 23t-31.5 49z" />
<glyph unicode="&#xeb;" horiz-adv-x="1401" d="M72 372q8 45 28 56q-18 60 -24 140q2 122 47.5 245t141 217.5t235.5 124.5q104 21 180 21q90 0 160 -24t122 -62.5t87 -75.5t115 -125q56 -63 56 -141q0 -57 -38.5 -103.5t-110.5 -64.5q-38 -10 -134.5 -26t-185 -36t-195 -59t-220.5 -103q75 -142 226.5 -203t336.5 -65 q135 4 313 41q40 0 68 -32.5t28 -76.5q0 -68 -61 -80q-177 -36 -339 -36q-498 0 -732 356q-2 -2 -10 -4q-6 -2 -10 -4q-25 0 -52.5 40t-31.5 80zM256 572q4 -18 4 -48q248 110 400 152q36 10 140 38t144.5 40t42.5 18q0 12 -43.5 68t-118.5 103.5t-173 47.5 q-108 0 -197.5 -58.5t-142 -155.5t-56.5 -205zM260 1323q10 72 71 132.5t134 60.5q46 0 84 -36q27 -30 27 -84q0 -76 -41.5 -138t-110.5 -70q-152 14 -164 135zM725 1323q13 68 56 124t103 56q18 0 56 -14q43 -27 43 -109q0 -162 -127 -172q-51 12 -73 20t-38.5 30t-19.5 65 z" />
<glyph unicode="&#xec;" horiz-adv-x="844" d="M-47 1472q0 28 20.5 56t42.5 28h17q33 -22 270 -120q46 -18 91 -58q46 -42 46 -82q0 -32 -16.5 -58t-38.5 -30q-53 52 -116 90t-171 86.5t-131 59.5q-8 4 -14 28zM51 272q5 76 31.5 217t36.5 200t10 143q0 42 -8 141q0 77 34.5 116t84.5 39q70 0 100 -48q45 -72 45 -164 q0 -68 -11.5 -138.5t-34.5 -173t-34 -164.5t-12 -128q2 -24 14.5 -82t12.5 -90q0 -40 -34.5 -67t-80.5 -30q-145 15 -154 229z" />
<glyph unicode="&#xed;" horiz-adv-x="809" d="M-51 1368q8 24 8 28q14 34 76.5 80.5t106.5 59.5q32 12 78.5 38t84.5 34q42 0 67.5 -32t25.5 -77q0 -53 -59 -84.5t-128 -46.5q-39 -8 -69 -22t-66 -34.5t-50 -23.5q-20 0 -46 25t-29 55zM51 272q5 76 31.5 217t36.5 200t10 143q0 42 -8 141q0 77 34.5 116t84.5 39 q70 0 100 -48q45 -72 45 -164q0 -68 -11.5 -138.5t-34.5 -173t-34 -164.5t-12 -128q2 -24 14.5 -82t12.5 -90q0 -40 -34.5 -67t-80.5 -30q-145 15 -154 229z" />
<glyph unicode="&#xee;" horiz-adv-x="1140" d="M-196 1308q6 16 12 23q41 37 150 107t169 86q89 0 207 -73t162 -120q8 -9 8 -27q0 -25 -27 -46.5t-61 -24.5q-35 12 -96.5 59.5t-95.5 67.5t-80 20q-4 0 -12 -2t-9 -2q-22 -13 -74.5 -50t-90.5 -59t-74 -30q-28 0 -57 23.5t-31 47.5zM51 272q5 76 31.5 217t36.5 200 t10 143q0 42 -8 141q0 77 34.5 116t84.5 39q70 0 100 -48q45 -72 45 -164q0 -68 -11.5 -138.5t-34.5 -173t-34 -164.5t-12 -128q2 -24 14.5 -82t12.5 -90q0 -40 -34.5 -67t-80.5 -30q-145 15 -154 229z" />
<glyph unicode="&#xef;" horiz-adv-x="1128" d="M-180 1376q10 72 70 132q60 61 134 61q46 0 84 -37q26 -26 27 -84q0 -78 -41.5 -139t-109.5 -70q-153 13 -164 137zM51 272q5 76 31.5 217t36.5 200t10 143q0 42 -8 141q0 77 34.5 116t84.5 39q70 0 100 -48q45 -72 45 -164q0 -68 -11.5 -138.5t-34.5 -173t-34 -164.5 t-12 -128q2 -24 14.5 -82t12.5 -90q0 -40 -34.5 -67t-80.5 -30q-145 15 -154 229zM284 1376q13 67 56.5 123.5t103.5 56.5q24 0 56 -16q46 -28 45 -108q1 -162 -129 -172q-70 16 -98 35t-34 81z" />
<glyph unicode="&#xf0;" horiz-adv-x="1687" d="M80 633q2 138 69.5 272.5t184 220.5t254.5 86q120 0 208 -67q42 19 72 19q8 0 19 -2.5t16 -2.5q43 -15 125 -159q6 164 24 323q-94 -19 -251 -27q-32 0 -53 26q-22 26 -23 62q3 70 59 76q167 26 287 52q3 8 13 50.5t22 69.5t34 43.5t60 16.5q49 0 86 -32t37 -77 q113 57 141 74q16 8 29 8q31 0 55 -38q25 -39 25 -79q-1 -35 -21 -49q-82 -65 -264 -119q-24 -168 -37 -302.5t-14 -276.5q2 -29 2 -89q21 -67 21 -112q0 -66 -44 -172q-2 -15 -4 -48.5t-4 -51.5v-100q0 -96 -24 -147q-22 -51 -104 -57q-54 9 -69 37.5t-28 102.5 q-62 -49 -155.5 -79t-199.5 -34q-130 7 -216 45q-294 110 -332 537zM297 633q0 -96 47.5 -180t127.5 -134.5t175 -50.5q100 10 209.5 65t147.5 119q8 78 8 111q0 63 -12 137q-18 0 -36 -4q-54 9 -75 31q-24 18 -45 64.5t-39 86.5t-49 58q-74 47 -152 47q-86 0 -156 -58.5 t-110.5 -141.5t-40.5 -150z" />
<glyph unicode="&#xf1;" horiz-adv-x="1267" d="M51 973q8 46 41 84.5t80 38.5q46 0 88 -39q50 -61 64 -129q188 92 368 92q164 0 278 -82t138 -242q4 -30 4 -88q0 -62 -8 -188q8 -102 32 -164q28 -70 28 -121q0 -56 -31 -89.5t-81 -37.5q-104 11 -142 115q-38 103 -42 241q8 168 8 244q-3 92 -63.5 151.5t-160.5 59.5 q-148 -7 -296 -107q12 -156 12 -419q0 -231 -12 -277q-6 -27 -35 -42.5t-69 -16.5q-48 2 -84 22q-37 19 -37 49q25 274 25 404q0 70 -8 201q-24 0 -53 19q-29 18 -31 56q6 46 44 101q0 2 -27 65.5t-30 98.5zM299 1340q14 48 94.5 80t142.5 32q34 0 70.5 -14t82 -36t55.5 -22 q16 0 46 13.5t42 15.5q28 0 47.5 -26.5t19.5 -61.5q-1 -27 -15 -41q-40 -40 -112 -43q-12 2 -32 2q-15 3 -65 28t-83 39q-34 15 -60 15q-30 -5 -83 -30t-58 -27q-6 0 -14 -4q-21 0 -48 28t-30 52z" />
<glyph unicode="&#xf2;" horiz-adv-x="1439" d="M112 471q0 146 63 267.5t172.5 191.5t240.5 70h45q12 44 62 68t114 24q100 -12 192.5 -64t152.5 -139q58 -87 62 -197q0 -34 10 -66t29 -76t28 -73t9 -61q0 -63 -59 -123q-98 -104 -195.5 -178.5t-210.5 -120t-239 -45.5q-123 0 -226.5 79.5t-167.5 201.5 q-66 121 -82 241zM320 496q2 -77 42.5 -149.5t108 -121.5t145.5 -57q108 2 227 80t185 160q24 36 24 61q0 20 -19 65.5t-25 81.5q-10 35 -20 70.5t-20 69.5q-18 52 -66 77t-122 47q-9 -49 -63.5 -79.5t-140.5 -36.5q-88 -10 -155 -51t-85 -113q-10 -42 -16 -104zM340 1452 q0 27 22 56q22 28 42 28h16q42 -27 272 -121q43 -16 89.5 -57.5t46.5 -81.5q0 -32 -16 -58.5t-40 -29.5q-52 52 -115 89.5t-177 89.5q-114 53 -124 57q-11 5 -16 28z" />
<glyph unicode="&#xf3;" horiz-adv-x="1439" d="M112 471q0 146 63 267.5t172.5 191.5t240.5 70h45q12 44 62 68t114 24q100 -12 192.5 -64t152.5 -139q58 -87 62 -197q0 -34 10 -66t29 -76t28 -73t9 -61q0 -63 -59 -123q-98 -104 -195.5 -178.5t-210.5 -120t-239 -45.5q-123 0 -226.5 79.5t-167.5 201.5 q-66 121 -82 241zM320 496q2 -77 42.5 -149.5t108 -121.5t145.5 -57q108 2 227 80t185 160q24 36 24 61q0 20 -19 65.5t-25 81.5q-10 35 -20 70.5t-20 69.5q-18 52 -66 77t-122 47q-9 -49 -63.5 -79.5t-140.5 -36.5q-88 -10 -155 -51t-85 -113q-10 -42 -16 -104zM372 1327 q8 23 9 29q14 36 76 82t106 57q30 11 78.5 39t85.5 35q42 0 67 -32.5t25 -76.5q0 -53 -59 -85.5t-127 -47.5q-38 -6 -68.5 -20.5t-65.5 -35.5t-51 -24q-20 0 -46 24.5t-30 55.5z" />
<glyph unicode="&#xf4;" horiz-adv-x="1485" d="M112 471q0 146 63 267.5t172.5 191.5t240.5 70h45q12 44 62 68t114 24q100 -12 192.5 -64t152.5 -139q58 -87 62 -197q0 -34 10 -66t29 -76t28 -73t9 -61q0 -63 -59 -123q-98 -104 -195.5 -178.5t-210.5 -120t-239 -45.5q-123 0 -226.5 79.5t-167.5 201.5 q-66 121 -82 241zM244 1288q6 18 12 25q44 37 152 106.5t168 83.5q86 0 202 -70.5t166 -119.5q8 -10 8 -29q0 -25 -26 -46q-28 -22 -62 -26q-34 11 -96 59t-96 68.5t-80 20.5q-5 0 -12 -2q-6 -2 -8 -2q-32 -19 -80.5 -53t-85 -55.5t-74.5 -31.5q-28 0 -56 23t-32 49z M320 496q2 -77 42.5 -149.5t108 -121.5t145.5 -57q108 2 227 80t185 160q24 36 24 61q0 20 -19 65.5t-25 81.5q-10 35 -20 70.5t-20 69.5q-18 52 -66 77t-122 47q-9 -49 -63.5 -79.5t-140.5 -36.5q-88 -10 -155 -51t-85 -113q-10 -42 -16 -104z" />
<glyph unicode="&#xf5;" horiz-adv-x="1439" d="M112 471q0 146 63 267.5t172.5 191.5t240.5 70h45q12 44 62 68t114 24q100 -12 192.5 -64t152.5 -139q58 -87 62 -197q0 -34 10 -66t29 -76t28 -73t9 -61q0 -63 -59 -123q-98 -104 -195.5 -178.5t-210.5 -120t-239 -45.5q-123 0 -226.5 79.5t-167.5 201.5 q-66 121 -82 241zM316 1288q14 50 93 81.5t144 31.5q35 0 70 -14t80 -37t57 -23q16 0 46 13.5t42 15.5q29 0 48 -26q20 -26 20 -62q0 -22 -17 -39q-35 -37 -111 -45q-12 4 -32 4q-14 2 -66 28t-84 39t-57 13q-19 -3 -43.5 -12.5t-54.5 -23.5q-29 -14 -43 -20q-8 0 -17 -4 q-20 0 -46.5 28t-28.5 52zM320 496q2 -77 42.5 -149.5t108 -121.5t145.5 -57q108 2 227 80t185 160q24 36 24 61q0 20 -19 65.5t-25 81.5q-10 35 -20 70.5t-20 69.5q-18 52 -66 77t-122 47q-9 -49 -63.5 -79.5t-140.5 -36.5q-88 -10 -155 -51t-85 -113q-10 -42 -16 -104z " />
<glyph unicode="&#xf6;" horiz-adv-x="1439" d="M112 471q0 146 63 267.5t172.5 191.5t240.5 70h45q12 44 62 68t114 24q100 -12 192.5 -64t152.5 -139q58 -87 62 -197q0 -34 10 -66t29 -76t28 -73t9 -61q0 -63 -59 -123q-98 -104 -195.5 -178.5t-210.5 -120t-239 -45.5q-123 0 -226.5 79.5t-167.5 201.5 q-66 121 -82 241zM316 1284q6 46 36 91t75 73t93 28t84 -36q29 -28 29 -84q0 -48 -18.5 -94.5t-53.5 -77t-82 -35.5q-151 11 -163 135zM320 496q2 -77 42.5 -149.5t108 -121.5t145.5 -57q108 2 227 80t185 160q24 36 24 61q0 20 -19 65.5t-25 81.5q-10 35 -20 70.5t-20 69.5 q-18 52 -66 77t-122 47q-9 -49 -63.5 -79.5t-140.5 -36.5q-88 -10 -155 -51t-85 -113q-10 -42 -16 -104zM780 1284q14 67 57 123.5t103 56.5q26 0 56 -16q44 -28 44 -108q0 -160 -128 -172q-68 15 -97 34.5t-35 81.5z" />
<glyph unicode="&#xf8;" horiz-adv-x="1308" d="M68 512q0 118 26.5 219t75.5 183q48 82 114 138q61 53 136.5 87.5t147.5 50.5t144 22q22 48 68 48q66 0 136 -31t124 -76q50 0 89 -48q39 -47 39 -93q0 -21 -9 -29q80 -143 80 -271q0 -31 -13.5 -82.5t-13.5 -76.5q0 -24 -4 -41v-41q0 -130 -81 -233.5t-208 -162.5 t-255 -63q-134 0 -268 72q-18 -22 -45 -54t-54 -52.5t-53 -20.5q-36 0 -76 43.5t-43 79.5q9 27 47.5 61.5t46.5 46.5q-76 78 -113.5 153t-37.5 171zM280 516q0 -48 22.5 -92t57.5 -72q66 78 127 167t115 170t119 157t163 166q-24 28 -75 49q-14 -17 -22.5 -21t-34.5 -8 q-212 -20 -338 -142q-128 -122 -134 -374zM516 240q76 -44 144 -44q76 2 154 37t130 96.5t52 139.5v103q2 16 17 68.5t15 90.5q-13 66 -41 117q-70 -61 -126.5 -128.5t-109.5 -145.5t-116 -170.5t-119 -163.5z" />
<glyph unicode="&#xf9;" horiz-adv-x="1229" d="M180 704q3 119 14 234q11 114 11 106q10 31 47.5 51.5t75.5 20.5q88 0 88 -76q-12 -90 -20 -292q2 -158 23.5 -295t64 -223.5t100.5 -94.5q130 0 209 99.5t104 197.5q2 16 9 96.5t14.5 144t15.5 99.5q6 29 84 29q51 0 86 -12q34 -11 34 -33q-12 -116 -23 -221t-19 -203 q-8 -96 -10 -192q8 -178 20 -269q0 -19 -76 -19q-110 0 -116 19q-18 48 -19 205q-69 -88 -135 -120q-68 -32 -142 -32h-57q-214 26 -296 250t-87 530zM356 1495q0 28 21 56t43 28h16q56 -34 272 -119q46 -20 91 -59t45 -80q0 -32 -17 -58.5t-39 -29.5q-40 40 -89 72.5 t-96 55.5t-120 56t-111 51q-10 5 -16 27z" />
<glyph unicode="&#xfa;" horiz-adv-x="1229" d="M180 704q3 119 14 234q11 114 11 106q10 31 47.5 51.5t75.5 20.5q88 0 88 -76q-12 -90 -20 -292q2 -158 23.5 -295t64 -223.5t100.5 -94.5q130 0 209 99.5t104 197.5q2 16 9 96.5t14.5 144t15.5 99.5q6 29 84 29q51 0 86 -12q34 -11 34 -33q-12 -116 -23 -221t-19 -203 q-8 -96 -10 -192q8 -178 20 -269q0 -19 -76 -19q-110 0 -116 19q-18 48 -19 205q-69 -88 -135 -120q-68 -32 -142 -32h-57q-214 26 -296 250t-87 530zM387 1336q9 26 9 28q14 34 78 81t106 58q24 8 75 37.5t89 36.5q42 0 67 -31.5t25 -77.5q0 -52 -62 -86t-127 -46 q-39 -6 -67 -20t-65 -36t-50 -24q-20 0 -47.5 25t-30.5 55z" />
<glyph unicode="&#xfb;" horiz-adv-x="1229" d="M180 704q3 119 14 234q11 114 11 106q10 31 47.5 51.5t75.5 20.5q88 0 88 -76q-12 -90 -20 -292q2 -158 23.5 -295t64 -223.5t100.5 -94.5q130 0 209 99.5t104 197.5q2 16 9 96.5t14.5 144t15.5 99.5q6 29 84 29q51 0 86 -12q34 -11 34 -33q-12 -116 -23 -221t-19 -203 q-8 -96 -10 -192q8 -178 20 -269q0 -19 -76 -19q-110 0 -116 19q-18 48 -19 205q-69 -88 -135 -120q-68 -32 -142 -32h-57q-214 26 -296 250t-87 530zM340 1308q4 16 12 23q22 22 82 63.5t128 80t110 49.5q88 0 204 -72t164 -121q8 -9 8 -27q0 -25 -26 -46q-28 -22 -62 -25 q-35 12 -96.5 59.5t-95.5 67.5t-80 20q-4 0 -12 -2q-6 -2 -8 -2q-22 -13 -74.5 -50t-90.5 -59t-75 -30q-30 0 -57.5 23.5t-30.5 47.5z" />
<glyph unicode="&#xfc;" horiz-adv-x="1229" d="M180 704q3 119 14 234q11 114 11 106q10 31 47.5 51.5t75.5 20.5q88 0 88 -76q-12 -90 -20 -292q2 -158 23.5 -295t64 -223.5t100.5 -94.5q130 0 209 99.5t104 197.5q2 16 9 96.5t14.5 144t15.5 99.5q6 29 84 29q51 0 86 -12q34 -11 34 -33q-12 -116 -23 -221t-19 -203 q-8 -96 -10 -192q8 -178 20 -269q0 -19 -76 -19q-110 0 -116 19q-18 48 -19 205q-69 -88 -135 -120q-68 -32 -142 -32h-57q-214 26 -296 250t-87 530zM293 1300q8 72 68.5 132.5t134.5 60.5q48 0 84 -37q28 -29 28 -84q0 -76 -41 -138t-111 -70q-156 14 -163 136zM756 1300 q15 68 57.5 124t102.5 56q24 0 57 -16q43 -29 43 -108q0 -160 -127 -172q-50 11 -73 19.5t-40 30.5q-16 22 -20 66z" />
<glyph unicode="&#xfd;" horiz-adv-x="1233" d="M56 815q0 44 38 72.5t82 28.5q76 0 100 -60q22 -56 54 -153.5t60 -174t66.5 -146.5t92.5 -130q115 252 201 449t126 319q17 55 101 55q48 0 83.5 -23.5t35.5 -64.5q0 -2 -2 -10t-2 -13q-30 -84 -80 -195t-108 -228t-121 -244t-91 -189q25 -32 25 -84q0 -51 -27 -90 q-28 -38 -70 -38q-38 -70 -93.5 -181l-65.5 -131q-13 -24 -57 -24q-34 0 -68 29t-37 71q2 4 4.5 16t3.5 17q20 48 79.5 167.5t82.5 167.5q-104 84 -169.5 198t-137.5 305t-94 241q-2 6 -12 43zM396 1071q8 25 8 29q10 23 43 53.5t73 54.5t68 31q26 10 62 30.5t55 29.5t47 14 q41 0 66.5 -32.5t25.5 -76.5q0 -53 -60 -85.5t-128 -47.5q-38 -6 -67 -19.5t-65 -35t-53 -25.5q-19 0 -46 25.5t-29 54.5z" />
<glyph unicode="&#xfe;" horiz-adv-x="1415" d="M100 -84q2 64 8.5 126t17 141t18.5 137q-32 38 -40 96q6 60 40 108v68q0 63 -10.5 189.5t-12.5 199.5q7 225 71 411q10 48 68 48q46 0 83.5 -30t37.5 -70q-10 -34 -27.5 -91t-28.5 -113t-13 -116q8 -42 8 -64q74 84 196 134q124 50 240 50q131 0 264.5 -66t220 -181 t86.5 -250q0 -57 -17.5 -101t-49.5 -91.5t-40 -63.5q-40 -107 -119 -201t-184 -150t-221 -56q-69 0 -131.5 22t-112.5 54.5t-92 69.5t-61 54q0 -29 -6.5 -78.5t-14.5 -109.5t-10 -100q2 -32 16.5 -98t14.5 -101q0 -46 -31.5 -79.5t-71.5 -33.5q-44 0 -56 52q-32 108 -40 284 zM320 461q26 -34 58.5 -75.5t73 -80.5t89.5 -67q49 -30 102 -38q19 -4 59 -4q94 0 159 49t101.5 110t81 156t68.5 122q8 9 8 23q0 47 -50 115t-133.5 118.5t-176.5 50.5q-27 0 -68 -8q-76 -12 -156 -53.5t-136 -95t-68 -99.5q0 -105 -12 -223z" />
<glyph unicode="&#xff;" horiz-adv-x="1183" d="M24 860q0 42 38 71t82 29q76 0 100 -61q20 -50 55 -155.5t61 -175t65 -141t91 -130.5q270 586 328 768q17 55 100 55q48 0 84.5 -24t36.5 -64q0 -4 -2 -12t-2 -12q-31 -89 -82 -200.5t-124 -257.5t-121 -241t-74 -157q24 -30 24 -84q0 -51 -27 -89.5t-69 -38.5 q-35 -66 -90 -176q-56 -110 -70 -136q-12 -24 -56 -24q-36 0 -68 28.5t-36 70.5q2 4 4 16t4 17q22 57 85 183.5t75 152.5q-80 68 -137 151.5t-97.5 174.5t-88 220.5t-76.5 196.5q-3 12 -6 21t-7 24zM196 1308q10 72 70 132t134 60q47 0 84 -36q28 -28 28 -84q0 -76 -42 -138 t-111 -69q-153 14 -163 135zM660 1308q15 68 57.5 124t102.5 56q27 0 55 -16q45 -28 45 -108q0 -161 -129 -173q-48 12 -71.5 20.5t-39.5 31t-20 65.5z" />
<glyph unicode="&#x152;" horiz-adv-x="2412" d="M12 596q2 202 118 379t274 317q50 45 119 118t120.5 122.5t108 83.5t112.5 36q155 0 300.5 -135t250.5 -297q6 74 12.5 139t17.5 112t31 57q86 41 236 41q202 0 496 -76q46 -11 45 -78q0 -44 -28.5 -77.5t-76.5 -33.5q-169 40 -240 54t-153 14q-63 0 -115 -12 q-10 -66 -14 -140t-6 -157t-4 -155q124 0 247 -8t173 -20q56 -12 55 -88q0 -45 -21.5 -76.5t-54.5 -31.5q-64 13 -177 23t-222 10q0 -140 5 -278.5t19 -223.5q36 0 56 -2q46 0 91 7t123 20.5t142 23.5q40 0 64 -37t24 -92q0 -31 -12.5 -56t-36.5 -28q-240 -36 -315 -45.5 t-156 -9.5q-47 0 -121 8q-66 14 -88 303q-57 -79 -152 -156.5t-211.5 -128t-232.5 -50.5q-199 0 -352 59t-253.5 155.5t-149 205t-48.5 204.5zM244 572q5 -100 62 -177t146.5 -130t188.5 -79t183 -26q90 0 211 70.5t222 183t139 227.5q-4 131 -4 252q-39 98 -120 216 t-178 206q-98 89 -186 109q-58 0 -112 -42t-128.5 -123t-104.5 -106q-77 -73 -147 -158t-121 -195.5t-51 -227.5z" />
<glyph unicode="&#x153;" horiz-adv-x="2291" d="M88 484q0 142 59 256t163 178.5t230 64.5h52q0 59 47 90t109 31q106 0 205 -64t163 -160q47 68 109 121.5t137 86.5q76 32 162 36q124 0 210 -30t143.5 -81t144 -160t90.5 -113q32 -30 32 -88t-55 -107q-33 -54 -75 -67t-122 -13q-96 0 -211 -6.5t-241 -26.5 q-128 -22 -216 -60q16 -103 116 -166.5t220 -65.5q214 40 336 163q33 33 72 33q44 0 80.5 -33.5t36.5 -83.5q1 -57 -49 -98q-74 -66 -181 -123.5t-179 -57.5h-46q-172 0 -276.5 27t-165 72t-117.5 117q-105 -95 -228 -146t-259 -51q-134 0 -241 75t-171 195q-64 121 -84 255 zM324 504q2 -82 33 -152t89 -115t138 -53q76 2 157.5 34t144.5 89t87 133q7 126 23 201q-22 90 -91 146.5t-157 72.5q-2 -70 -48 -92q-46 -20 -145 -28q-78 -10 -139.5 -45t-79.5 -99q-10 -68 -12 -92zM1192 559q264 117 532 117q46 0 176 -8q-58 110 -154 181t-202 71 q-102 -8 -180 -61t-122 -133t-50 -167z" />
<glyph unicode="&#x2c6;" horiz-adv-x="973" d="M188 1321q6 19 12 23q38 36 148.5 106t171.5 86q88 0 204 -72t165 -120q8 -8 8 -27q0 -26 -27 -48.5t-61 -25.5q-36 13 -96.5 60t-95.5 68t-81 21q-4 0 -11 -2t-9 -2q-22 -13 -75 -50.5t-89 -59t-76 -31.5q-29 0 -56.5 24.5t-31.5 49.5z" />
<glyph unicode="&#x2dc;" horiz-adv-x="805" d="M140 1368q9 32 51.5 58.5t95.5 40t90 13.5q46 0 122.5 -35.5t84.5 -35.5q16 0 45 12.5t43 14.5q29 0 48 -26q20 -26 20 -62q0 -20 -15 -40q-39 -38 -113 -44q-12 4 -32 4q-16 4 -67 29t-83 38t-58 13q-20 -3 -42 -12t-54 -24q-30 -14 -44 -20q-8 0 -17 -4q-20 0 -46.5 28 t-28.5 52z" />
<glyph unicode="&#x2000;" horiz-adv-x="1003" />
<glyph unicode="&#x2001;" horiz-adv-x="2007" />
<glyph unicode="&#x2002;" horiz-adv-x="1003" />
<glyph unicode="&#x2003;" horiz-adv-x="2007" />
<glyph unicode="&#x2004;" horiz-adv-x="669" />
<glyph unicode="&#x2005;" horiz-adv-x="501" />
<glyph unicode="&#x2006;" horiz-adv-x="334" />
<glyph unicode="&#x2007;" horiz-adv-x="334" />
<glyph unicode="&#x2008;" horiz-adv-x="250" />
<glyph unicode="&#x2009;" horiz-adv-x="401" />
<glyph unicode="&#x200a;" horiz-adv-x="111" />
<glyph unicode="&#x2010;" horiz-adv-x="624" d="M51 637q9 67 41 67q57 0 228 -12.5t208 -23.5q40 -12 40 -64q0 -27 -12 -45.5t-28 -18.5q-45 8 -436 32q-32 0 -41 65z" />
<glyph unicode="&#x2011;" horiz-adv-x="624" d="M51 637q9 67 41 67q57 0 228 -12.5t208 -23.5q40 -12 40 -64q0 -27 -12 -45.5t-28 -18.5q-45 8 -436 32q-32 0 -41 65z" />
<glyph unicode="&#x2012;" horiz-adv-x="624" d="M51 637q9 67 41 67q57 0 228 -12.5t208 -23.5q40 -12 40 -64q0 -27 -12 -45.5t-28 -18.5q-45 8 -436 32q-32 0 -41 65z" />
<glyph unicode="&#x2013;" horiz-adv-x="1216" d="M-24 584q0 56 36 68q284 88 588 88q204 0 412 -40q46 -6 45 -84q0 -44 -19.5 -76t-54.5 -32q-239 41 -399 41q-126 0 -250 -20.5t-266 -63.5q-38 0 -65 38q-27 39 -27 81z" />
<glyph unicode="&#x2014;" horiz-adv-x="2068" d="M96 664q3 58 25.5 97.5t58.5 39.5q23 -3 119 -13q65 2 207 19t221 17q176 0 360 -16t389.5 -41.5t395.5 -49.5q60 -7 60 -105q0 -54 -26.5 -95.5t-70.5 -41.5q-120 10 -344.5 40.5t-368.5 45.5t-294 15q-100 0 -275 -14.5t-254 -16.5q-93 8 -143 10q-52 5 -60 109z" />
<glyph unicode="&#x2018;" horiz-adv-x="536" d="M92 1168q7 104 39 180q40 79 102.5 139.5t126.5 68.5q26 0 41 -21t15 -55q0 -56 -31 -69q-87 -35 -101 -164q19 17 52 17q40 0 70 -29t46.5 -72t16.5 -79q0 -48 -24.5 -92t-66.5 -72t-89 -31q-178 13 -197 279z" />
<glyph unicode="&#x2019;" horiz-adv-x="553" d="M116 1360q4 74 55 135t126 61q98 0 146.5 -87t48.5 -193q0 -91 -36 -176q-26 -51 -62 -96t-79 -75.5t-87 -35.5q-52 -1 -60 71q7 60 37 72q88 40 98 164q-15 -12 -55 -20q-58 9 -91 60.5t-41 119.5z" />
<glyph unicode="&#x201c;" horiz-adv-x="856" d="M-28 1044q0 88 29 224t83 256q18 40 47 40q25 0 45 -22t20 -47q0 -3 -2 -10t-2 -9q-14 -20 -34 -89.5t-37 -110.5q14 16 43 16q50 0 77 -42.5t27 -96.5q0 -39 -12 -78q-50 -118 -168 -127q-50 4 -83 31t-33 65zM336 1120q2 62 28 135t70 148t106 153q18 26 56 27 q22 0 36 -17q15 -16 15 -42q0 -4 -6 -29q-48 -51 -121 -182q24 14 52 14q44 0 70 -36.5t26 -82.5q0 -56 -25 -104q-24 -49 -76.5 -79t-110.5 -34q-94 8 -112 76q-2 10 -4 27.5t-4 25.5z" />
<glyph unicode="&#x201d;" horiz-adv-x="868" d="M129 1356q3 60 27 108q26 49 78.5 79t105.5 30q58 0 89.5 -36.5t31.5 -92.5q0 -89 -55 -204q-54 -114 -146 -228q-22 -27 -60 -31q-20 0 -34 17q-14 18 -18 42q10 36 30 68.5t54 77.5q32 44 48 70q-20 -16 -57 -19q-86 21 -94 119zM528 1411q8 58 17 82q25 62 69 92.5 t94 30.5q51 0 85.5 -26t34.5 -66q0 -90 -28 -225t-83 -255q-15 -38 -53 -44q-21 0 -40.5 23t-23.5 44q8 27 8 25q13 19 33.5 88.5t38.5 111.5q-13 -13 -47 -20q-99 21 -105 139z" />
<glyph unicode="&#x201e;" horiz-adv-x="903" d="M148 20q6 52 24 92q24 53 73.5 84.5t102.5 31.5q58 0 85.5 -41t27.5 -99q0 -82 -46 -188t-122 -207q-25 -33 -57 -33q-20 0 -34 16t-18 40q20 46 48 93t65 111q-26 -16 -49 -16q-42 0 -70 36q-26 36 -30 80zM553 80q2 26 10 76q23 68 71 102.5t101 34.5q121 1 121 -133 q0 -94 -21 -217t-63 -240q-18 -47 -55 -47q-24 0 -43.5 20t-21.5 48q8 16 8 20q11 22 29 97t32 118q-23 -19 -57 -19q-52 0 -81 43t-30 97z" />
<glyph unicode="&#x2022;" horiz-adv-x="475" d="M228 652q3 112 54.5 195t141.5 97q38 6 91 31t79 35t70 10q48 0 92 -12q52 -13 93.5 -66t64.5 -129q22 -75 22 -153q0 -93 -33 -163.5t-102 -96.5q-44 -17 -92.5 -47.5t-75 -42.5t-70.5 -13q-11 2 -35 2q-96 8 -163 59.5t-101 129.5t-36 164z" />
<glyph unicode="&#x2026;" horiz-adv-x="1872" d="M192 116q6 41 34 82.5t68 68t83 26.5q42 0 75 -33q22 -22 23 -76q0 -68 -36.5 -126t-98.5 -58q-136 0 -148 116zM876 92q39 160 140 160q29 0 51 -12q41 -20 41 -96q0 -63 -26 -106q-24 -42 -82 -42q-114 0 -124 96zM1532 112q6 48 50 88t94 40q42 0 65 -27 q14 -18 14 -49q0 -50 -32 -92q-33 -42 -79 -52q-52 7 -79 27.5t-33 64.5z" />
<glyph unicode="&#x202f;" horiz-adv-x="401" />
<glyph unicode="&#x2039;" horiz-adv-x="456" d="M16 641q0 63 48 115q126 157 220 221q12 6 32 6q34 0 59 -30.5t25 -68.5q0 -24 -9 -32q-5 -5 -63.5 -54t-93 -84.5t-34.5 -57.5q0 -16 16.5 -38t65.5 -77.5t73.5 -87t35.5 -62.5q9 -19 9 -39q0 -36 -26 -60q-24 -24 -58 -28q-28 10 -32 20q-30 40 -61 77t-82 89t-77 82 q-48 54 -48 109z" />
<glyph unicode="&#x203a;" horiz-adv-x="487" d="M60 903q0 36 28 69q30 32 60 32q16 0 32 -8q102 -68 224 -220q48 -54 48 -116q0 -54 -48 -107q-79 -86 -129.5 -139.5t-90.5 -110.5q-14 -19 -40 -23q-27 0 -52.5 27t-27.5 65q2 8 4 20q2 14 4 20q13 30 38.5 61.5t73.5 85t66 76.5t18 41q0 20 -33 55t-95 87t-64 54 q-6 6 -16 31z" />
<glyph unicode="&#x205f;" horiz-adv-x="501" />
<glyph unicode="&#x2122;" horiz-adv-x="1951" d="M172 1352q6 54 51 84q297 156 557 184q28 0 46 -24t18 -60q0 -26 -12 -47t-31 -25q-64 -14 -147.5 -38.5t-85.5 -24.5q-2 -76 -14 -247q-12 -170 -14 -242q9 -150 23 -212q0 -68 -92 -76q-49 8 -55 32q-28 114 -31 233q1 77 16 222t15 233q-32 -5 -89 -29.5t-71 -30.5 q-12 -4 -18 -4q-24 0 -43.5 22t-22.5 50zM908 1100q3 150 18.5 263t33.5 136q22 29 84 29q88 0 88 -60q50 -20 102.5 -74t111 -126t65.5 -72q16 0 79.5 127t91.5 176q26 49 66 70q8 4 36 4q48 0 93.5 -15.5t51.5 -33.5q14 -54 14 -252q-1 -328 -39 -508q-6 -48 -96 -56 q-35 4 -59.5 21t-24.5 43q5 50 27.5 224t29.5 230.5t7 94.5q0 23 -4 23l-2 -2l-2 -2q-23 -34 -69.5 -138t-93.5 -157t-129 -58q-24 7 -40 17q-22 21 -78.5 102.5t-99 134.5t-82.5 76q-28 -95 -36 -309q2 -48 19 -312q0 -30 -55 -36q-58 6 -64 36q-38 154 -44 404z" />
<glyph unicode="&#x25fc;" horiz-adv-x="1207" d="M0 0v1208h1208v-1208h-1208z" />
</font>
</defs>
</svg>
