<?xml version="1.0" standalone="no"?>
<!DOCTYPE svg PUBLIC "-//W3C//DTD SVG 1.1//EN" "http://www.w3.org/Graphics/SVG/1.1/DTD/svg11.dtd" >
<svg xmlns="http://www.w3.org/2000/svg">
<metadata></metadata>
<defs>
<font id="soupbonebold" horiz-adv-x="1318" >
<font-face units-per-em="2048" ascent="1638" descent="-410" />
<missing-glyph horiz-adv-x="706" />
<glyph horiz-adv-x="2048" />
<glyph horiz-adv-x="2048" />
<glyph unicode="&#xd;" horiz-adv-x="2048" />
<glyph unicode=" "  horiz-adv-x="706" />
<glyph unicode="&#x09;" horiz-adv-x="706" />
<glyph unicode="&#xa0;" horiz-adv-x="706" />
<glyph unicode="!" horiz-adv-x="675" d="M132 -65.5q-4 48.5 26 90.5q32 37 83 40t91 -30q34 -30 38 -80.5t-26 -89.5q-33 -37 -82.5 -41t-91.5 31q-34 31 -38 79.5zM262 385q2 33 20.5 247.5t28 394t0.5 267.5q-17 23 -21.5 54.5t13.5 60.5q38 51 99.5 55.5t97.5 -53.5q14 -23 15 -45t-4 -35.5t-17 -34.5 q15 -169 -10 -487.5t-62 -439.5q-30 -98 -54.5 -153.5t-40.5 -69t-28.5 -0.5t-19 42.5t-11 69.5t-5.5 70.5t-1 56.5z" />
<glyph unicode="&#x22;" horiz-adv-x="829" d="M162 1294q0 47 33 74t73.5 27.5t76.5 -25t42 -70.5q16 -154 -51 -372q-18 -48 -68.5 -68t-75.5 10q-22 27 -6 84q15 51 13 101.5t-10.5 81t-18 75t-8.5 82.5zM477 1329q7 59 69.5 72.5t116.5 -21t39 -92.5q-53 -201 -69 -336q-5 -48 -47 -74.5t-78 -4.5t-27 92 q11 89 1 200.5t-5 163.5z" />
<glyph unicode="#" horiz-adv-x="1542" d="M150 333q0 31 20.5 62t58.5 47q23 6 37.5 1.5t30 -13t18.5 -8.5q13 0 84 -7t107 -9q0 132 2 200q-93 8 -180 8q-3 0 -18.5 -5.5t-30 -7t-41.5 6.5q-27 9 -43 32t-17.5 50.5t5 54t23.5 46t40 24.5q15 3 33 -0.5t32 -8.5t17 -5q142 0 184 -4q1 56 4.5 126t3.5 78q0 3 -6 18 t-8.5 29.5t4.5 41.5q13 34 45.5 50t65.5 14t62 -20t36 -47q4 -15 0.5 -33.5t-9 -34t-5.5 -18.5q0 -21 -3 -90t-4 -112q38 1 101.5 0t107.5 0q1 48 9 109t8 67q0 4 -6.5 18.5t-9 29t4.5 40.5q13 34 45.5 51t65.5 14.5t62 -20.5t36 -47q4 -15 0.5 -33.5t-9 -33.5t-5.5 -19 q0 -16 -5.5 -79.5t-6.5 -102.5q22 0 105 3t112 1q40 -4 79 -14.5t65.5 -28t28.5 -38.5t-41 -48t-134 -54q-23 -6 -61 -7.5t-87.5 -0.5t-68.5 0q0 -34 3 -101t3 -106q16 0 52 -1t60 -0.5t45 3.5q223 27 235 -31q7 -37 -67 -87q-84 -56 -170 -66q-23 -3 -48.5 -4t-58 -1 t-50.5 -1v-102q-1 -53 -12 -102t-27.5 -82t-37 -43.5t-40 5t-37.5 72.5t-29 150q-2 14 -6 102q-47 0 -116 2t-105 2q0 -16 1 -52t0.5 -60.5t-3.5 -45.5q-8 -53 -23.5 -98.5t-34.5 -74t-39 -35.5t-37.5 9t-31 67.5t-18.5 133.5q-1 28 0.5 84.5t1.5 75.5q-33 2 -77.5 7 t-75.5 9.5t-36 4.5q-4 0 -20.5 -5.5t-31 -7t-40.5 5.5q-35 12 -54 40.5t-19 59.5zM692 403q39 0 106 -1t111 -1q0 39 -2 107.5t-2 101.5q-45 -1 -109 0t-100 0q0 -32 -2 -101t-2 -106z" />
<glyph unicode="$" horiz-adv-x="1236" d="M75 95q18 51 72 73q19 8 34.5 9t28.5 -6t21 -13t20.5 -19t18.5 -18q6 -6 49.5 -23.5t77.5 -25.5q0 2 6.5 49.5t15.5 118t13 118.5q-40 2 -82.5 16.5t-83 43t-70.5 67t-44 93.5t-5 118q13 71 42 127.5t61.5 92t79.5 64t82 42.5t84 29v12q0 4 -7.5 19.5t-11 30t3.5 40.5 q12 34 40 57.5t59 31t61.5 -7.5t46.5 -52q10 -24 11.5 -43t-1 -27.5t-11.5 -24t-11 -20.5q23 -4 55 -4q0 2 -1.5 24t3.5 27q21 43 70 60.5t94.5 2t56.5 -56.5q9 -34 -30 -98q51 -16 95.5 -70t67.5 -118q0 -4 19 -23t20 -25q4 -36 -13 -65t-42.5 -43t-55.5 -14t-52 18 q-19 15 -24.5 48.5t-12.5 47.5q-16 -143 -23 -196q89 -2 164.5 -45.5t101.5 -128.5q21 -136 -70 -265.5t-278 -197.5q-16 -77 -24 -103q0 -22 -35 -100t-68 -78q-25 0 -40 71.5t-15 112.5q0 12 4 52q-86 -14 -100 -15q4 9 2 10l-2 -4q0 -20 -47.5 -124.5t-77.5 -104.5 q-20 0 -28.5 88t-8.5 144v2q-3 1 -80.5 25.5t-103.5 39.5q-29 -18 -62.5 -6t-48.5 39q-29 50 -11 101zM322 653q2 -52 135 -102q5 45 18.5 149.5t16.5 155.5q-1 -1 -31 -20.5t-42 -30t-35.5 -34t-38 -53t-23.5 -65.5zM575 68q47 9 87 18q5 43 16 137t16 139q-53 -12 -80 -14 q-8 -69 -39 -280zM633 549q39 3 80 12q7 52 18 121t16.5 113t8.5 88q-27 2 -80 2q-3 -59 -19.5 -168t-23.5 -168zM854 164q75 52 112.5 108.5t24.5 102.5q0 23 -36.5 29t-65.5 -1q-26 -182 -35 -239z" />
<glyph unicode="%" horiz-adv-x="1265" d="M61 -119q4 27 21 46t35.5 28.5t19.5 11.5q136 204 421 530.5t405 440.5q3 2 10 21t19 37t28 22q65 22 112.5 -14.5t47.5 -92.5q0 -29 -17 -50.5t-38.5 -34.5t-22.5 -15q-88 -86 -384.5 -425.5t-430.5 -526.5q-2 -4 -9 -30t-22 -46t-43 -27q-62 -20 -110.5 30t-41.5 95z M93 604.5q-37 103.5 3 192.5q21 44 61 74t86.5 41.5t97.5 8t95 -23.5q91 -44 128.5 -147.5t-3.5 -192.5q-18 -42 -57.5 -72t-87.5 -42t-100.5 -9t-96.5 23q-89 44 -126 147.5zM223 645q13 -34 47 -59q41 -30 96 -17.5t72 58.5q13 39 -5 75.5t-56 55.5q-41 21 -87.5 10 t-64.5 -51q-15 -38 -2 -72zM703 148.5q-33 98.5 8 185.5q44 90 149.5 130.5t192.5 0.5q89 -44 121 -142.5t-11 -187.5q-44 -91 -148 -129.5t-190 2.5q-89 42 -122 140.5zM832 193.5q15 -44.5 57 -62.5q39 -17 75 -5t60 46q28 39 17.5 90t-54.5 74q-43 21 -87.5 3.5 t-63.5 -60.5q-19 -41 -4 -85.5z" />
<glyph unicode="&#x26;" horiz-adv-x="1251" d="M112 600q-10 72 13.5 127t66 105t83 79.5t75.5 46.5q35 19 77 30.5t88.5 12t91 -10.5t83.5 -41t67 -74.5t41 -116t5 -162.5q-5 -48 -8 -64q148 30 254 72q2 1 18 18t38.5 27t49.5 2q46 -11 70 -45.5t22.5 -73.5t-22.5 -67q-17 -21 -44.5 -29t-43.5 -5.5t-25 -0.5 q-91 -32 -131 -44.5t-99 -27.5t-128 -26q-9 -37 -26 -117t-30 -130t-30 -89q10 -71 -33 -121q-23 -26 -66.5 -34t-83.5 15t-47 76q-4 24 2 43t15 27.5t17.5 15t8.5 9.5q30 65 80 292q-124 -6 -226.5 30.5t-158.5 107.5q-54 71 -64 143zM301 639q1 -30 25 -57q81 -90 276 -66 q14 49 19 82q20 121 -40.5 180t-148.5 17q-18 -10 -36 -22t-43.5 -35t-39 -46t-12.5 -53z" />
<glyph unicode="'" horiz-adv-x="393" d="M115 1307q-2 47 20 76t54.5 33.5t66 -4t59 -36t29.5 -63.5q16 -152 -49 -373q-21 -64 -75 -96q-50 -31 -77 -4q-31 34 2 131q19 47 17 97t-12.5 81.5t-22.5 76t-12 81.5z" />
<glyph unicode="(" horiz-adv-x="583" d="M102 697q10 145 64 279t145 216q7 4 14 20t18.5 32.5t31.5 21.5q64 14 108.5 -27t44.5 -96q0 -26 -12 -44t-26 -25t-29 -12.5t-17 -6.5q-45 -37 -84.5 -109t-64.5 -179.5t-22.5 -227.5t53.5 -265t151 -280q24 -7 35 -49t2 -76q-13 -53 -63 -69.5t-111 7.5 q-42 16 -58 64.5t-3 91.5q-62 65 -107.5 183.5t-62.5 262t-7 288.5z" />
<glyph unicode=")" horiz-adv-x="583" d="M125 2q6 24 19 40.5t25 22.5t26 11t16 6q44 37 82 109.5t59.5 180.5t17 228.5t-56 265t-149.5 277.5q-2 1 -5 2t-9.5 7t-10 13.5t-3.5 21t7 30.5q20 44 70.5 61.5t101.5 -10.5q47 -29 58 -90q63 -65 110 -184t64.5 -263.5t7.5 -290.5t-64 -279.5t-147 -215.5 q-3 -3 -15.5 -26t-34 -37.5t-58.5 -12.5q-71 1 -99 38.5t-12 94.5z" />
<glyph unicode="*" horiz-adv-x="1286" d="M114 600q8 26 22.5 46.5t29.5 27.5q19 12 38 14t31 -2.5t24 -10t15 -5.5q41 -6 93 -6q-45 45 -68 63q-2 1 -19 10t-31.5 23t-21.5 35q-11 40 -1.5 68t32 44t47 22.5t43.5 2.5q17 -3 28.5 -14t15.5 -22t10 -19.5t12 -8.5q64 -60 104 -96q-2 68 -14 143q0 2 -7.5 21.5 t-9 36t10.5 43.5q21 43 59 54t72.5 -4t52.5 -44q10 -15 5 -33t-10 -26t9 -17q0 -50 16 -168q9 10 36 38.5t38.5 41t28.5 33t29 37.5q1 2 7 20.5t18 34t34 21.5q47 16 83 -2.5t50.5 -50.5t11.5 -60q-2 -22 -16.5 -35.5t-28.5 -20.5t-14 -14q-54 -73 -123 -151q218 18 280 -29 q39 -30 -9 -69q-71 -59 -255 -81q-31 -4 -63 -6q91 -95 184 -178q2 -2 15.5 -7.5t27.5 -20t21 -41.5q11 -40 4 -66t-28 -40.5t-44 -19.5t-45 -3q-21 2 -34 17.5t-19.5 30.5t-13.5 15q-95 76 -160 133q2 -40 18 -205q0 -2 7.5 -21t9.5 -35t-9 -42q-22 -44 -59.5 -55.5 t-69.5 0.5t-53 33q-16 20 -7 57.5t3 44.5q-28 189 -33 233q-15 -17 -43.5 -49.5t-42.5 -48.5q0 -1 -2 -7.5t-3 -9.5l-3.5 -10.5t-5 -11.5t-6.5 -11t-8.5 -11.5t-10 -9.5t-13 -8.5t-15.5 -6.5q-68 -22 -110 22t-36 91q2 22 18.5 36.5t32 21.5t15.5 11q59 91 123 164 q-26 1 -56.5 2.5t-63 3t-44.5 2.5q-3 0 -20 -4t-37 -3t-37 14q-30 22 -40 52t-2 56z" />
<glyph unicode="+" horiz-adv-x="1153" d="M98.5 518q-17.5 42 0 83.5t61.5 64.5q23 12 37 11t43 -18q102 -20 227 -20q4 204 -6 276q0 3 -7 16.5t-9.5 28.5t6.5 44q15 39 45.5 58t61 16t57.5 -25t38 -58q5 -13 6 -25t-1 -21.5t-4 -14.5t-6 -13l-5 -8q10 -90 10 -278q106 -3 281 -19q65 -6 99 -20.5t37 -31.5 t-9.5 -35.5t-36.5 -33.5t-48 -25.5t-40 -12.5q-124 -11 -281 -11q0 -118 15 -305q0 -2 7 -16t10 -29t-5 -43q-21 -52 -65 -67.5t-84.5 6.5t-55.5 69q-8 25 1 49t9 27q-18 120 -22 314q-20 1 -101.5 5.5t-105.5 4.5q-3 0 -17.5 -5.5t-29 -7t-43.5 6.5q-52 21 -69.5 63z" />
<glyph unicode="," horiz-adv-x="593" d="M106 -295q-18 36 60 119q40 41 60.5 87t23.5 80t12 78t27 78q20 39 51.5 54.5t61.5 6.5t55.5 -30t36.5 -55.5t0 -69.5q-50 -154 -203 -317q-32 -36 -100 -49q-70 -14 -85 18z" />
<glyph unicode="-" d="M164.5 562.5q2.5 31.5 23.5 59t56 37.5q21 6 46.5 -2.5t28.5 -7.5q132 -17 349 -11t331 36q310 79 301 20q-5 -36 -115 -102q-91 -56 -161 -76q-126 -39 -332 -53t-370 6q-3 1 -16.5 -6.5t-28 -12t-39.5 2.5q-38 15 -57 46.5t-16.5 63z" />
<glyph unicode="." horiz-adv-x="583" d="M156.5 32.5q-4.5 48.5 25.5 90.5q33 37 84 41t88 -31q34 -30 39 -79t-24 -89q-30 -38 -81 -42t-93 30q-34 31 -38.5 79.5z" />
<glyph unicode="/" horiz-adv-x="1017" d="M-88.5 -231q-5.5 33 14.5 67q8 17 20 26t22.5 11.5t11.5 3.5q94 121 409 584.5t356 513.5q2 1 8 13t19.5 26t34.5 24q40 18 75.5 9.5t53 -34t22 -59t-15.5 -67.5q-27 -49 -65 -49q-26 -34 -176 -260.5t-317 -466t-261 -347.5q-3 -4 -8 -20.5t-17.5 -32t-36.5 -26.5 q-38 -16 -72.5 -7.5t-53 33.5t-24 58z" />
<glyph unicode="0" horiz-adv-x="1290" d="M82 384q-33 162 15 316.5t169 325.5q33 46 93 84t130.5 60.5t144 34t140 8t111.5 -20.5q2 0 16.5 -2.5t22 -4.5t20.5 -9t19.5 -15.5t11 -24t2.5 -36.5q104 -57 175 -156.5t99.5 -212.5t29.5 -230t-28.5 -220t-81.5 -172q-19 -27 -58.5 -62t-99.5 -72.5t-129.5 -67.5 t-152 -41.5t-163 0t-166.5 62.5t-160 140q-127 154 -160 316zM278 397.5q27 -116.5 105 -204.5q71 -81 156 -116.5t160 -28t144 36.5t116 68.5t69 77.5q44 86 63.5 176.5t11.5 189t-63.5 197.5t-156.5 181q-38 23 -127 -2q-291 -123 -285 -55q2 22 37 61q-58 -9 -94 -57 q-97 -132 -130 -270t-6 -254.5z" />
<glyph unicode="1" horiz-adv-x="571" d="M176 1202q10 38 54 53.5t90 -1.5t61 -62q7 -21 -1.5 -45t-6.5 -29q0 -93 37.5 -496.5t58.5 -594.5q0 -1 8.5 -18t9.5 -32t-8 -47q-15 -39 -45 -57.5t-61 -15.5t-58.5 25t-38.5 57q-8 25 1.5 48.5t9.5 26.5q-13 62 -26 179t-24 264t-19 262t-16 247.5t-9 145.5l-11 35 q-11 35 -6 55z" />
<glyph unicode="2" horiz-adv-x="1351" d="M82 807q4 32 13.5 45.5t23.5 20.5t22 18q78 105 222.5 183.5t287.5 110.5t267.5 26t171.5 -56q17 -37 17.5 -81.5t-9 -88t-39.5 -104.5t-57.5 -109t-80.5 -125.5t-90.5 -129.5t-105.5 -144q-78 -106 -133 -205q58 20 102 34.5t100 30t86.5 24t120 31.5t140.5 36 q2 1 22 14.5t42 20t44 -0.5q29 -8 52 -39t25.5 -70t-26.5 -79q-21 -24 -43 -29t-43.5 0.5t-29.5 3.5q-344 -87 -623 -182q-31 -27 -67 -48t-78 -34.5t-84 -3.5t-72 45q-17 22 -21.5 42t6 39t19.5 30.5t29.5 30.5t25.5 24q56 73 109 172t98 162q53 75 126 170t119.5 156 t89.5 124t57 106t0 71q-26 11 -104 -1t-173 -43t-195.5 -93t-158.5 -138q-1 -2 -8.5 -18t-20 -31t-29.5 -23q-57 -22 -107 14t-40 91z" />
<glyph unicode="3" horiz-adv-x="1286" d="M62 913.5q-4 25.5 3 52t23 52.5q12 19 27.5 27.5t29.5 11t17 4.5q83 62 212 118.5t261 90t248 36.5t172 -42q66 -51 86.5 -114t1.5 -120.5t-61 -113t-92.5 -97.5t-102.5 -69q80 8 148 -16.5t109.5 -71t63.5 -105.5t15 -124t-43 -122q-74 -120 -265.5 -260.5 t-414.5 -265.5q-8 -5 -18 -18t-17.5 -21t-28 -13t-51.5 -1q-38 5 -62.5 53t-7.5 90q13 36 99 70q128 58 321 206t246 220q83 127 -5 176q-69 39 -198 15q-120 -22 -175 -76q-6 -7 -11 -13q-27 -30 -63.5 -29t-70.5 24.5t-46 55.5q-4 22 -6 38t8.5 33.5t20 30.5t28.5 28 t35 26.5t38 26.5q3 2 5 3.5t5 3t5 3.5q29 20 83.5 53.5t94.5 59.5t88 60t75.5 63t45.5 60.5t9 62t-44 57.5q-67 52 -261.5 -22.5t-356.5 -186.5q-5 -4 -16.5 -22t-23.5 -34t-36.5 -26.5t-54.5 -3.5q-41 10 -64.5 30t-27.5 45.5z" />
<glyph unicode="4" horiz-adv-x="1310" d="M106 496q-10 46 20.5 76t98.5 63q120 73 270 187.5t252 197.5t206 145.5t169 63.5q27 0 47.5 -43.5t1.5 -89.5q-5 -13 -34 -21.5t-29 -17.5q-22 -113 -37 -424q15 1 33.5 2.5t24.5 2t22 -0.5q2 0 15 5.5t25.5 9.5t29.5 3.5t30 -8.5q30 -16 49.5 -49t11.5 -73.5t-55 -65.5 q-27 -11 -37.5 -10.5t-30 5t-34.5 3.5q-9 1 -35.5 -2t-50.5 -4q0 -9 -3.5 -56t-3 -69.5t5.5 -95.5t17 -179q0 -2 5 -18t8 -31t3 -35t-7 -33q-19 -35 -54 -53.5t-74.5 -7t-64.5 58.5q-13 29 -12.5 38.5t7.5 28t7 34.5q-9 106 -13.5 182t-4.5 103t2 72t2 54q-401 -27 -549 -21 q-220 8 -234 73zM451 592q394 26 403 26q2 34 3.5 125t8.5 144q-205 -171 -415 -295z" />
<glyph unicode="5" horiz-adv-x="1120" d="M102.5 936q-10.5 29 0 55.5t31.5 47.5t46 30q23 8 39.5 10t22 0t14.5 -7.5t12 -6.5q8 48 27 76q22 28 76 35t92 -19t16 -80q131 15 369 15q6 0 29.5 7t41.5 10t42 -5q29 -15 47 -48.5t8.5 -74.5t-55.5 -68q-9 -12 -52 -1.5t-57 8.5h-66q-193 0 -257.5 -3t-145.5 -18 q-9 -25 -29 -72.5t-34.5 -85.5t-27.5 -83.5t-12 -87.5t17 -76q7 -16 15 -14q12 2 94 70l1 1l1 1l1 1h1l1 1l1 1l1 1l1 1l1 1h1l1 2h1l1 1l1 1l1 1l1 1h1l1 1l1 1l1 1l1 1h1l1 1l1 1l1 1l1 1h1l1 1l1 1l1 1q76 61 191 88.5t205.5 22t128.5 -28.5q55 -29 73 -133t-13.5 -241 t-107.5 -244q-58 -81 -185 -156.5t-241 -115t-170 -39.5q-38 0 -76.5 30.5t-58.5 71.5q2 11 -9.5 22.5t-22 27.5t-5.5 38q9 33 22 54t32.5 33t48 7t65.5 -28q8 -4 8 -13.5t-4 -19.5t-7.5 -19.5t-0.5 -16.5t15 -9q27 -2 81.5 13t120 43.5t133.5 77.5t111 107q61 84 91.5 200 t4.5 151q-13 16 -55.5 16.5t-94.5 -12.5t-108.5 -40t-93.5 -61q-77 -69 -142.5 -96t-115.5 -12.5t-86.5 62t-58.5 126.5q-7 26 -7 58.5t5 62.5t16 68.5t21 67.5t24.5 70t22.5 66q-23 -5 -46 11q-34 22 -44.5 51z" />
<glyph unicode="6" horiz-adv-x="987" d="M108.5 373.5q12.5 93.5 37.5 173.5t63 153q108 222 326 510q1 1 7 18.5t18.5 37.5t29.5 28q20 12 48.5 12.5t54.5 -10.5t42 -40.5t10 -71.5q-4 -23 -13 -34t-23 -19.5t-23 -20.5q-249 -386 -315 -494q-35 -59 -52.5 -121.5t-21.5 -152.5q91 81 213.5 128.5t234.5 23.5 q55 -16 98 -64t63.5 -116t18 -142.5t-42.5 -153t-114 -139.5q-116 -78 -239.5 -87.5t-218.5 40t-144 141.5q-42 99 -56 203t-1.5 197.5zM336 45q5 -25 39 -48t80.5 -35t103.5 -2t103 46q39 31 61.5 72t27 78.5t0 71t-17.5 55.5t-28 26q-88 20 -184 -24t-152 -127 q-1 -1 7 -21t2 -47t-42 -45z" />
<glyph unicode="7" horiz-adv-x="1261" d="M108 986.5q1 70.5 52 98.5q16 9 38.5 9.5t43.5 -3.5l20 -4q54 -17 114.5 -20t131 8.5t131.5 26t152 37t157 35.5q23 12 51.5 22t65.5 7.5t53 -29.5q3 -3 6.5 -8.5t9.5 -24t5 -37.5t-14.5 -47.5t-41.5 -55.5q-115 -178 -174 -309q23 -5 64 -1.5t67 1.5q79 -5 110.5 -21.5 t21 -37t-36 -40t-53.5 -33.5t-38 -15l-72 -12t-118 -9q-141 -343 -184 -555q-15 -5 -21.5 -15t-6.5 -20t-4 -21.5t-13 -18.5q-22 -16 -52 -19t-57 4.5t-47.5 27t-24.5 46.5q-3 20 7 40t25 38.5t18 27.5q33 81 85 248t66 209q-95 -4 -149 2q-14 2 -34 -1.5t-31 -4t-32 7.5 q-32 17 -42 57.5t4.5 79.5t48.5 52q32 12 98 -13q28 -6 59 -6.5t79 2.5t71 4q59 150 119 267q-40 -8 -104.5 -23t-100.5 -22.5t-90.5 -17t-95 -13t-92 -4t-103.5 5.5q-13 1 -47.5 -3.5t-44.5 5.5q-51 25 -50 95.5z" />
<glyph unicode="8" horiz-adv-x="1009" d="M97 436q12 115 71 176q10 8 27 25q-55 42 -72 82t-22 80.5t-0.5 74.5t18.5 68.5t29 60t36 52.5t35 41.5t31.5 31.5t19.5 19q63 63 201.5 92.5t233.5 -4.5q111 -44 102 -115q63 -39 90 -92t14.5 -131t-71.5 -178q-18 -37 -66 -70q73 -52 121 -138t55.5 -184.5 t-41.5 -191.5q-34 -63 -96 -114.5t-140.5 -79.5t-160.5 -33t-165 27.5t-146 101.5q-56 60 -86 172t-18 227zM262 375q1 -69 25.5 -123t58.5 -94q33 -42 90 -60t117 -10.5t116.5 47.5t86.5 107q20 54 12.5 102.5t-37.5 92t-57 70t-47 38.5q-42 22 -86.5 22t-89 -9.5 t-70.5 -6.5q-57 -23 -80 -55q-40 -52 -39 -121zM285 782q17 -48 86 -69q92 28 161 2q54 11 97.5 35.5t66.5 58.5q22 34 34.5 68.5t9 70t-32.5 51.5q-26 17 -70.5 18.5t-61.5 -3.5q-182 -71 -256 -68q-56 -100 -34 -164z" />
<glyph unicode="9" horiz-adv-x="1077" d="M97 570.5q-16 130.5 37.5 254t158.5 209.5q88 72 209 98t227.5 5t165.5 -78q51 -52 82 -120.5t41 -137t6 -149.5t-16 -147.5t-33.5 -141.5t-38.5 -122t-37 -98q-102 -248 -336 -446l-11 -14q-11 -14 -22 -26.5t-29.5 -25t-35.5 -14.5q-55 -6 -98.5 39.5t-28.5 97.5 q6 20 22.5 33.5t30.5 18.5t37 10q104 84 184 186t116 175.5t46 127.5q-77 -79 -185 -95.5t-209.5 21.5t-176.5 115q-90 94 -106 224.5zM275 612q9 -86 73 -155q32 -36 81.5 -55t112 -18t136 46.5t139.5 134.5q33 49 41 111t-13 124t-69 107q-82 69 -178.5 64.5t-185.5 -70.5 q-71 -52 -108.5 -127.5t-28.5 -161.5z" />
<glyph unicode=":" horiz-adv-x="583" d="M166.5 819q-3.5 52 26.5 88q30 35 81.5 39.5t90.5 -26.5q36 -30 40 -81t-26 -89q-30 -37 -82 -42t-92 27q-35 32 -38.5 84zM232.5 151.5q-3.5 51.5 29.5 88.5q31 36 79.5 39t88.5 -29q37 -32 41 -79.5t-27 -88.5q-29 -40 -81.5 -43.5t-92.5 31.5q-34 30 -37.5 81.5z" />
<glyph unicode=";" horiz-adv-x="593" d="M75 -350q3 47 97 182q41 58 61 111t34.5 113t31.5 100q16 36 46.5 51t61.5 6.5t58 -28t39.5 -53.5t1.5 -69q-55 -163 -199 -307q-42 -42 -120 -90q-115 -70 -112 -16zM189 705.5q-4 48.5 28 85.5q36 40 89.5 40t92.5 -38q36 -35 41 -83t-26 -87q-33 -41 -91.5 -41 t-95.5 39q-34 36 -38 84.5z" />
<glyph unicode="&#x3c;" horiz-adv-x="829" d="M152 582q17 30 36 59t35.5 52t39 47t38 40.5t40 37t36.5 30.5t37 28t32.5 23.5t31.5 21.5t26 17q3 2 15.5 19.5t30 34t34.5 18.5q31 5 66 -11t54 -50t-2 -87q-11 -24 -41 -35t-38 -22q-71 -45 -134.5 -98t-134.5 -138q39 -78 105.5 -158.5t126.5 -129.5q2 -3 18.5 -13 t33.5 -25.5t21 -33.5q7 -24 2 -52.5t-21.5 -51t-46.5 -31.5t-73 6q-24 10 -36.5 33t-24.5 32q-174 125 -307 437z" />
<glyph unicode="=" horiz-adv-x="1298" d="M135 658q-5 40 11.5 74t41.5 50q32 15 48.5 13.5t35 -11.5t21.5 -10q229 -9 735 -20q98 -2 152.5 -12.5t63.5 -24.5t-4 -31t-45.5 -33t-66 -29.5t-61.5 -21.5t-35 -8q-60 0 -224.5 -5.5t-265.5 -6.5t-255 8q-13 1 -35.5 -5.5t-36.5 -7t-41 14.5q-34 26 -39 66zM139 375 q13 31 37 47q14 9 26 13.5t25.5 4t18 -1t21 -6.5t18.5 -6q104 -12 202 -14t196 6.5t149.5 14.5t144.5 20q108 15 163.5 14.5t69.5 -13t0.5 -31t-44.5 -40t-66 -41t-63.5 -32.5t-37.5 -15q-127 -36 -327 -51t-367 2q-2 0 -22 -6.5t-39.5 -8.5t-44.5 9q-46 26 -59.5 65 t-0.5 70z" />
<glyph unicode="&#x3e;" horiz-adv-x="849" d="M151.5 161q-5.5 28 4.5 48q9 25 25.5 36.5t31.5 14t16 4.5q14 12 68.5 55.5t92.5 75.5t83 79.5t68 86.5q-48 57 -101.5 104.5t-82.5 67.5t-83 55q-2 1 -18.5 6.5t-33 18.5t-25.5 37q-19 56 -3 91.5t51 50t72 5.5q23 -6 47 -37.5t27 -33.5q118 -76 183 -136 q104 -96 176 -221q-24 -53 -54.5 -102t-70.5 -93.5t-67.5 -73.5t-76 -68.5t-63 -51t-60.5 -45.5q-13 -11 -22.5 -28t-20.5 -28.5t-34 -15.5q-39 -8 -69 5.5t-42.5 39t-18 53.5z" />
<glyph unicode="?" horiz-adv-x="1091" d="M92 913q-14 46 43 119q77 177 297 322q41 29 109 48.5t144 24t148.5 -22t112.5 -85.5q53 -77 61 -167t-18.5 -171.5t-79.5 -167.5t-109.5 -152t-122 -129.5t-103.5 -95.5t-66 -53q99 71 160 92q43 16 91.5 -20t49.5 -97q1 -17 0.5 -30t-4.5 -23.5t-14.5 -19t-29 -16 t-48.5 -15.5q-7 -2 -30.5 5t-42.5 10.5t-40 -7.5q-6 -4 -27 -19t-28 -19.5t-25 -16.5t-27 -15t-25 -10t-27 -7h-26t-29 5t-28 13q-52 35 -43.5 109.5t52 156t94.5 125.5q494 401 336 641q-28 43 -78 52t-101 -8t-96 -52q-116 -90 -221 -230q0 -7 -0.5 -24.5t-1.5 -25 t-6.5 -21.5t-16.5 -29q-26 -36 -56.5 -48t-56 -3t-44.5 30t-27 47zM410 100q32 41 86 48t94 -27q39 -32 40.5 -91t-28.5 -93q-29 -37 -89 -38.5t-95 35.5q-77 80 -8 166z" />
<glyph unicode="@" horiz-adv-x="1558" d="M80 473q5 83 36.5 159.5t78 134.5t106.5 109t120 86.5t119.5 63t103 41.5t73.5 20q144 25 283 -8t242 -107.5t171 -181t80 -223.5q15 -153 -62 -319q-66 -142 -157 -201q-99 -62 -176 8q-9 9 -27.5 35t-23.5 31q-34 -48 -75 -76.5t-99.5 -40.5t-140 9t-183.5 75 q-70 37 -111.5 113t-47 159.5t29.5 167.5t106 136q84 63 165.5 92.5t160 18.5t139.5 -68q31 32 96 22t74 -47q26 -119 18 -180.5t-20.5 -123.5t-3.5 -99q16 -71 62 -36q47 35 85 136q35 97 29 174q-8 92 -94.5 183.5t-219 144t-257.5 32.5q-22 -3 -63 -18.5t-96.5 -42.5 t-111.5 -68t-104 -90t-79.5 -115t-33.5 -137q-3 -112 30 -209.5t98.5 -173t169 -121.5t233.5 -53q93 -4 163 -5t138 13.5t133 49.5q8 10 12 27t13.5 28.5t33.5 19.5q49 18 86 -1t51.5 -52.5t10.5 -62.5q-1 -20 -15 -35.5t-29 -22.5t-31 -13t-17 -7q-111 -81 -241 -103 t-320 -10q-175 11 -314.5 75.5t-228 167.5t-132.5 236t-36 283zM604.5 379q0.5 -84 50.5 -117q53 -35 103 -42t85.5 7.5t66 42t47.5 54t26 51.5q0 44 -4 94q-39 56 -59 76q-59 49 -133 39t-136 -74q-47 -47 -46.5 -131z" />
<glyph unicode="A" horiz-adv-x="1153" d="M-3 -116q-1 5 -1 9q0 13 4 21q6 12 12 23t6 14q7 125 44 271t102 347q-30 4 -55 29q-28 32 -37 58.5t-0.5 46t20.5 32t33 25.5q26 18 62 18q18 0 38 -4q201 467 363 684q48 -54 94 -125t94.5 -169.5t70 -145t68.5 -152.5q15 2 52 9t47 8l57 3q66 -1 66 -28 q0 -42 -164 -141q37 -102 68.5 -237.5t44 -205.5t34.5 -211q0 -1 4.5 -11.5t9 -24t6.5 -31.5v-7q0 -14 -5 -26q-15 -39 -42 -58t-55 -18t-52.5 11t-39.5 26q-20 28 -19 46t10 39t9 24q-22 131 -34.5 201.5t-44.5 205t-68 228.5l-447 -70q-52 -169 -96 -371t-53 -284 q-1 -13 3.5 -48t-5.5 -45q-15 -30 -56 -40q-19 -5 -38 -5q-21 -1 -41 5q-38 10 -54 34q-13 20 -15 40zM430 791l303 38q-82 190 -141 310q-79 -157 -162 -348z" />
<glyph unicode="B" horiz-adv-x="1105" d="M32 1224q6 36 46 68q7 6 18.5 9.5t21 5t24.5 3.5t20 3q-23 37 -23 70t23 61q31 39 80 39t86 -39q24 -28 24 -56q0 -31 -22 -53q50 14 111 24.5t135 14.5q24 1 47 2q47 0 89 -6q62 -8 111.5 -35.5t65.5 -74.5q13 -40 13 -82q0 -80 -46 -168q-70 -134 -194 -236 q108 -6 199.5 -37.5t152.5 -91t63 -135.5q-2 -18 -4 -51t-4 -52t-9.5 -51t-19 -55t-35 -57.5t-56 -64t-82.5 -69t-113.5 -79t-150.5 -87t-193 -98.5q-78 -40 -126 -40q-37 0 -55 24q-20 29 -20 62q1 4 1 8q2 38 23 61q-114 517 -114 908q0 125 12 237q-18 7 -41 20 q-28 14 -46 38q-14 18 -14 44zM299 936q-1 -24 -1 -50q0 -60 5 -128q111 42 213 116q102 76 160 160q45 65 45 117q0 15 -4 29q-11 35 -59 47q-22 6 -53 6q-36 0 -83 -8q-88 -14 -205 -56q-15 -153 -18 -233zM311 582q34 -310 88 -545q129 58 218.5 109.5t142 92.5 t83.5 88.5t42.5 84.5t19.5 94q-7 49 -73.5 75.5t-161.5 29.5q-26 1 -52 1q-68 0 -136 -6q-94 -8 -171 -24z" />
<glyph unicode="C" horiz-adv-x="1333" d="M72 510v22q0 92 18 195q24 144 88 269.5t159 211.5q95 88 216 122q58 17 120 16q67 0 138 -19q167 -45 269.5 -140.5t154.5 -260.5q1 -2 8 -11.5t13.5 -20.5t12.5 -25q6 -13 6 -28q0 -18 -9 -34q-28 -55 -84 -69q-14 -4 -28 -3q-38 0 -69 31q-10 10 -16.5 18.5t-10 17.5 t-5.5 14t-1.5 15t1 13.5t3 16t3.5 16.5q-51 126 -106 176.5t-167 85.5q-45 13 -88 13q-30 0 -60 -7q-70 -17 -128 -60.5t-102.5 -107.5t-74 -136t-42.5 -145q-19 -100 -19 -185v-33q4 -98 23.5 -173t56.5 -134t78.5 -97.5t91.5 -65.5q31 -17 69 -17q7 1 13 1q46 4 87.5 17 t81.5 36.5t67.5 44t44.5 37.5q109 99 151 99q8 0 14 -3q27 -16 27 -63q1 -16 -3 -36q-12 -78 -40 -108q-29 -29 -63 -57.5t-80 -60.5t-96 -54q-49 -23 -103 -38q-45 -12 -92 -12h-19q-57 3 -110 26q-50 21 -96.5 51.5t-92.5 74.5t-82.5 99t-66.5 125.5t-44.5 154 t-16.5 185.5z" />
<glyph unicode="D" horiz-adv-x="1257" d="M62 1127q-1 6 -1 13q0 30 25 62q21 29 80 43q-7 9 -9.5 13.5t-6.5 14.5t-2 22.5t8 27.5q12 28 36 47t52 24q6 1 13 1q23 0 47 -13q32 -17 56 -57q10 -13 13 -31q49 20 101 36q53 16 134 26q50 6 98 6q30 0 58 -2q76 -6 163.5 -42t159.5 -101q91 -81 127 -186 q28 -82 28 -160q0 -23 -2 -45q-10 -100 -52 -208.5t-94 -192t-113 -159.5q-70 -88 -197 -179.5t-256.5 -157t-230.5 -93.5q-2 -1 -23 -8.5t-34 -11.5q-14 -2 -35 -6q-9 -1 -17 -2q-11 0 -21 3q-17 5 -30 17q-12 12 -18.5 24.5t-6.5 30.5t1 27.5t7 36t7 33.5q63 363 63 730 q0 161 -12 324q-45 0 -76 27q-34 30 -40 66zM328 37q142 54 286.5 144t216.5 188q54 78 94 143t77 149.5t48 153.5q4 25 4 50q0 43 -12 89q-20 70 -77 123q-56 51 -125.5 76.5t-130.5 27.5h-18q-53 0 -111 -10q-68 -12 -111 -26t-86 -30q-8 -4 -12 -5q8 -164 7 -320 q1 -404 -50 -753z" />
<glyph unicode="E" horiz-adv-x="1163" d="M42 1151v11q0 46 30 79q24 30 57 37q0 23 12 41q25 41 77 43h7q47 0 76 -33q17 -17 21 -51q53 5 136.5 18t142.5 20.5t133 10.5q15 1 30 1q60 0 120 -10q76 -12 152 -40q79 -29 95 -75q3 -9 3 -17q0 -30 -40 -47q-32 -14 -83 -14q-23 0 -50 3q-14 7 -37.5 10.5t-58.5 3.5 h-35h-32q-32 0 -81.5 -4t-81 -6.5t-88.5 -9.5t-81 -9.5t-80.5 -10t-66.5 -8.5q0 -118 5 -203q163 61 219 75q69 17 136 17q61 0 122 -14q88 -20 136 -39.5t54.5 -35.5t-7.5 -30.5t-45.5 -25.5t-65 -19t-60 -12t-35.5 -4q-50 0 -92.5 -4t-68.5 -7t-69.5 -17.5l-58.5 -19.5 t-75.5 -30.5t-83.5 -34.5q19 -452 69 -641q201 55 586 148q7 2 14 1q26 0 51 -23q32 -29 41 -69q3 -14 3 -27q0 -25 -11 -48q-43 -64 -97 -64q-26 0 -54 15q-80 -21 -241.5 -55t-233.5 -52q4 -21 -2 -35q-9 -36 -45 -56q-30 -17 -63 -17q-7 1 -15 1q-42 4 -66 33 q-3 3 -14 25h-13q-40 0 -63 16q-21 15 -26.5 46.5t-0.5 57.5t13 38q20 23 45 30q-45 193 -60 662q-25 26 -35 48t-6.5 42t12.5 34.5t27 35.5q-2 84 -2 227q-35 0 -51 10q-46 25 -50 78z" />
<glyph unicode="F" horiz-adv-x="1046" d="M-14 1256q2 13 3.5 20.5t10.5 23t12.5 21t14.5 20.5t12 17q13 19 72 39q-3 4 -7.5 11.5t-5 30.5t14.5 46q31 49 77 58q9 2 18 2q36 0 66 -29q43 -41 43 -73q0 -28 -32 -50q57 21 143 27q47 4 92 3q39 -1 78 -3q84 -6 160 -14t123 -16l47 -8q31 0 64 -12t46 -39 q11 -28 11 -57v-9q-2 -34 -30 -59q-25 -22 -62 -22h-9q-50 3 -74 41q-101 41 -261 41q-134 0 -310 -29l27 -342q36 2 68 6.5t109.5 16t186.5 24.5q79 9 127 9q7 -1 13 -1q49 -2 64.5 -13t7.5 -27t-31.5 -35t-52 -36t-54.5 -29t-39 -15q-73 -15 -160 -33.5t-113 -23.5t-58 -9 t-62 -4l65 -778q7 -16 16 -31.5t12 -22t2.5 -19t-9.5 -32.5q-20 -53 -75 -67q-15 -4 -29 -4q-36 0 -64 26q-26 23 -35.5 48t-7 41t11.5 30q-33 495 -63 782q-3 0 -15 4q-41 10 -64 40q-18 23 -18 51q0 9 2 17q7 38 44 69q12 10 36 18q-10 113 -22 320q-32 -5 -56.5 -5 t-40.5 2t-25 9.5t-13 13.5q-3 4 -3 11q0 3 1 8z" />
<glyph unicode="G" horiz-adv-x="1163" d="M29 573q6 108 33 214t71.5 208t105.5 181.5t134.5 134.5t158.5 68q25 4 50 4q62 0 129 -23q78 -29 126 -54t93.5 -67t79 -102t67.5 -152q10 -24 14 -35t7 -34t-4 -37t-26.5 -31t-53.5 -29q-22 -8 -41 -8q-15 0 -28 4q-32 10 -47.5 34.5t-21 56t10.5 59.5q-21 53 -68 116 t-108 103q-48 32 -97 35h-12q-43 0 -80 -20q-43 -23 -84.5 -64.5t-74.5 -98t-62 -120.5t-47.5 -133.5t-31.5 -135.5t-13 -127t8 -108q68 -349 289 -410q26 -7 56 -7q39 0 85 13q81 22 148 64.5t116 93t54 86.5l2 17q2 17 3.5 30t1.5 34t-2 36t-8.5 28t-17.5 17 q-53 23 -100 23q-96 0 -166 -95q1 -5 1 -10q0 -37 -41 -64q-26 -16 -53 -16q-22 0 -44 10q-56 25 -73 58q-11 22 -11 48q0 16 4 33q3 17 11.5 31.5t22 26t23 18.5t25.5 16t20 11t47 30t67.5 41.5t75 33.5t89.5 23q8 1 17 1q33 0 73 -9q51 -12 96 -44q70 -50 101 -136 q23 -64 23 -137q0 -26 -3 -53q-7 -66 -37 -127.5t-74.5 -108.5t-101.5 -87.5t-118.5 -65.5t-126 -42t-123.5 -17t-111 10q-69 16 -128.5 55t-99.5 81.5t-75 104.5t-53 103t-34.5 100t-19.5 72t-8 41q-12 67 -12 142q0 29 2 58z" />
<glyph unicode="H" horiz-adv-x="1009" d="M12 642q-1 8 -2 17q0 42 33 76q31 27 68 31q8 82 21.5 189.5t21.5 177t8 102.5q0 11 -7.5 29t-8 29t13.5 40q30 49 86 52h7q51 0 81 -39q9 -11 14.5 -22.5t8.5 -20t3.5 -18t0 -15t-3 -14t-4 -11.5t-5.5 -10t-4 -8q-1 -32 -22 -196t-27 -277q54 0 230 2q126 2 194 2h45 q0 161 5 376.5t5 223.5q0 11 -7 26t-7 29.5t14 36.5q30 50 86 52h6q52 0 82 -40q27 -34 27 -68q0 -27 -17 -53q0 -138 -13 -666.5t-21 -715.5q0 -13 2.5 -29.5t3.5 -26t-4 -24t-19 -29.5q-33 -36 -77 -36q-8 0 -16 2q-54 8 -79 55q-18 32 -18 59q0 33 26 58q6 53 9.5 140.5 t6 231t5.5 226.5q-41 -1 -218 -1.5t-255 -2.5q0 -214 39 -662q5 -14 12.5 -26t10.5 -17t2 -17.5t-7 -33.5q-14 -52 -66 -70q-19 -6 -36 -7q-32 0 -60 20q-49 32 -49 77q0 18 8 39q-29 262 -29 547q0 57 1 115q-17 0 -49 18q-48 25 -56 77z" />
<glyph unicode="I" horiz-adv-x="516" d="M88 6q-6 63 -6 133q0 107 14 231q22 206 70 478t55 321q0 3 -4 17.5t-2.5 32.5t14.5 38q33 49 87 53q4 0 8 1q49 0 79 -41q27 -34 27 -67q0 -31 -24 -62q-8 -67 -46 -301t-64 -455q-21 -179 -22 -319q0 -33 2 -64q2 -16 7.5 -31t7 -21.5t-3 -18.5t-17.5 -31 q-30 -48 -84 -51h-8q-49 0 -80 38q-27 35 -27 68q0 26 17 51z" />
<glyph unicode="J" horiz-adv-x="989" d="M27 127q-3 29 -3 57q0 85 31 164q25 50 93 102q58 45 89 45q11 0 18 -5q13 -9 13 -33q0 -48 -51 -156q-8 -18 -17 -67q-6 -34 -6 -64q0 -13 1 -25q9 -92 65 -154.5t137 -84.5q42 -12 87 -12q41 0 83 10q39 8 69 44.5t46.5 81.5t27.5 102.5t14.5 98t4.5 76.5v45 q0 109 -7 236q-10 153 -41 328t-79 266q-36 38 -43 58q-5 14 -5 30t5 33q17 50 67 73q21 10 44 10q31 0 67 -18q50 -30 50 -87q0 -17 -5 -38q129 -315 129 -784q0 -78 -4 -160q-3 -108 -20 -197.5t-39 -146t-54 -100.5t-56.5 -65.5t-55 -36t-41 -17t-23.5 -4.5 q-57 -10 -110 -10q-41 0 -80 6q-87 14 -157.5 52t-122 93.5t-82.5 120.5t-39 133z" />
<glyph unicode="K" horiz-adv-x="1189" d="M111 496q5 344 10 537q1 54 1 106q0 136 -9 264q-13 28 -13 54q0 29 17 54q28 44 92 50q9 1 17 1q51 0 79 -32q13 -15 18.5 -31.5t4 -30t-4.5 -24t-7 -18.5l-3 -7q-2 -56 -2 -126q0 -105 4 -245q5 -174 5 -265q0 -30 -1 -50q140 40 306 155.5t311 248.5q16 22 44.5 38 t59.5 13q54 -5 82 -57q15 -27 14 -53q0 -24 -12 -46q-29 -59 -87 -59h-7q-115 -107 -289.5 -223.5t-302.5 -169.5q49 -33 188.5 -137t248.5 -174.5t198 -104.5q4 -1 17 -2.5t19 -3t18 -6t19 -10.5t15.5 -17.5t14.5 -26.5q8 -22 8 -42q0 -30 -18 -57q-31 -45 -85 -50h-9 q-27 1 -54 15q-31 18 -41 38q-88 36 -200.5 106t-275 185t-186.5 131q-1 -23 -5 -98.5t-7 -165t-4 -211.5q13 -19 15.5 -48.5t-9.5 -58.5q-23 -46 -80 -55q-11 -2 -21 -2q-43 0 -73 31q-33 35 -33 71q0 25 15 50q-4 125 -4 295q0 121 2 264z" />
<glyph unicode="L" horiz-adv-x="1196" d="M31 -32q8 35 30 65q16 186 17 301.5t11 302.5t48 580q0 1 -3 23.5t-1.5 43.5t10.5 37q21 37 59 51q17 7 35 6q21 0 43 -9q42 -17 68 -66q6 -17 2.5 -35.5t-11 -39.5t-7.5 -22q-36 -311 -52 -505q-16 -188 -17 -264l1 -175q0 -96 -4 -211q162 7 376.5 40.5t358.5 70.5 q1 0 14 10.5t19 13t19.5 7.5t27.5 4t31 -9q51 -18 71 -76q8 -23 8 -43q0 -31 -18 -55q-32 -40 -82 -40q-20 0 -43 6q-491 -97 -780 -113q-17 -47 -88 -57q-13 -2 -25 -2q-81 0 -114 83q-7 25 -7 48q0 15 3 29z" />
<glyph unicode="M" horiz-adv-x="1611" d="M24 -5q8 36 27 52q27 156 57 435.5t60 483t74 302.5q-3 12 -3 24q0 21 9 42q14 34 47 42q31 9 54 -3.5t50 -46t35 -40.5q75 -109 131 -214t93 -210t58.5 -178.5t50 -191t44.5 -175.5q6 39 24 151.5t26.5 164t25 150.5t28 159t27 138t30 139.5t29.5 113.5q23 75 41 101 q18 25 48 24h2q15 0 45 -20q34 -8 81.5 -129.5t97 -309t91.5 -364t81 -353.5t50 -219q26 -50 25 -86q0 -15 -4 -28q-20 -47 -80 -61q-18 -4 -33 -4q-37 0 -62 24q-40 35 -40 78q0 21 10 45q-42 168 -122 568.5t-104 496.5q-30 -133 -92 -516t-98 -523q-2 -8 -6 -46 t-10 -69.5t-13 -35.5q-21 -15 -45 -15q-20 1 -44 11q-52 22 -75 69q-39 78 -83 222.5t-80 280t-94.5 298t-122.5 277.5q-28 -126 -72 -523t-64 -516q11 -21 10 -50.5t-30 -59.5q-32 -34 -76 -34q-11 0 -23 2q-60 10 -81 58q-8 21 -8 43q0 13 3 26z" />
<glyph unicode="N" horiz-adv-x="1097" d="M10 1287q5 36 49 69q28 20 59.5 22t51.5 -7.5t23 -20.5q9 4 19 4q20 0 41 -16q32 -24 32 -74q0 -39 -6 -68q177 -265 600 -915q-6 121 -8 201q-1 24 -1 62q0 82 4 226q4 208 21 459q-20 31 -20 62q0 28 16 55q24 48 86 50h6q58 0 88 -40q15 -18 15 -47q0 -31 -17 -76 q-19 -373 -23 -591q-1 -80 -1 -152q0 -122 4 -216q6 -149 6 -202q0 -1 4 -24.5t0.5 -44.5t-19.5 -40q-31 -38 -72 -42h-8q-37 0 -77 34q-11 32 -23 51q-371 551 -614 922q-15 -165 -22 -284q-5 -88 -6 -204q0 -41 2 -86q2 -171 22 -311q15 -23 19 -53q1 -6 1 -12 q0 -24 -12 -50q-26 -44 -74 -52q-9 -2 -18 -1q-38 0 -70 31q-36 38 -36 76q0 21 11 43q-10 99 -14 201q-5 102 -5 176v12q0 71 6 181q6 119 10 175.5t16 204t16 203.5q-41 19 -64 46q-19 22 -19 50q0 7 1 13z" />
<glyph unicode="O" horiz-adv-x="1341" d="M60 694q10 115 66 242t159 242q44 49 100 84t110.5 52t110.5 26q50 8 94 9q5 0 9 -1q47 -1 84 -4t58 -7l21 -4q17 -4 34 -11t39 -20t32.5 -34t3.5 -45q97 -54 163.5 -157.5t94 -224.5t30.5 -249q0 -15 1 -30q0 -110 -20 -210q-22 -112 -64 -190q-57 -107 -145.5 -176.5 t-189.5 -93.5q-67 -16 -137 -16q-35 0 -70 4q-106 12 -207 66.5t-179 143.5q-67 76 -114.5 169t-70.5 207q-16 80 -16 161q0 33 3 67zM256 749q-16 -76 -15 -147q0 -76 18 -148q36 -136 130 -239q74 -81 157 -123.5t157 -43.5h6q71 0 135 24q67 24 115.5 71.5t72.5 106.5 q50 124 66 238q8 57 8 113q0 55 -8 111q-16 110 -77 212.5t-165 187.5q-28 8 -44 8h-2q-16 0 -41 -7t-28 -7q-159 -40 -227 -40q-51 0 -50 22q0 8 5 16q-54 -30 -70 -53q-109 -144 -143 -302z" />
<glyph unicode="P" horiz-adv-x="1038" d="M46 616q4 62 48 91q27 18 54 18h8q1 71 1 156t-1 184q-26 -7 -54 10q-50 24 -53 86v8q0 56 39 86q30 23 76 27q0 6 1 15t1 12q-18 18 -24 53q-2 10 -2 21q0 24 10 47q23 48 80 60q15 3 29 4q38 0 65 -26q27 -27 27 -72q0 -26 -9 -59q101 36 211 36q1 -1 3 -1 q112 0 206 -33t158.5 -103t70.5 -165q1 -14 1 -28q0 -69 -28 -137q-34 -82 -109.5 -159t-211 -137.5t-313.5 -87.5v-36q0 -89 -4 -172q-3 -62 -3 -154q0 -55 1 -119q24 -32 24 -66q0 -24 -12 -49q-25 -58 -93 -60h-3q-65 0 -97 56q-12 20 -11 46.5t5 38t13 32.5 q-7 104 -7 229q1 24 1 48q2 152 1 188q-21 3 -53 22q-47 26 -47 82q1 4 1 8zM336 707q236 45 362 137q114 84 114 172q0 9 -1 18q-11 90 -85 134q-66 40 -156 40h-22q-103 -6 -208 -55q0 -143 -2 -257t-2 -189z" />
<glyph unicode="Q" horiz-adv-x="1382" d="M62 506q-4 38 -4 77q0 99 26 200q37 141 125 255q51 63 142 117t189.5 83.5t196.5 36.5q18 1 35 1q75 0 127 -25q75 -30 86 -67q134 -64 226.5 -192t127.5 -276q24 -101 24 -207q0 -49 -5 -100q-17 -158 -88 -282q-51 -110 -148 -180q27 -98 41 -133q48 -51 48 -96 q0 -5 -1 -11q-8 -57 -68 -85q-26 -12 -49 -12q-31 0 -57 21q-20 16 -25 33.5t-1 35t4 19.5q-9 24 -24.5 76t-22.5 72q-49 -19 -113 -31q-58 -11 -131 -11h-13q-80 1 -157 17.5t-155 60.5t-134 111q-83 99 -135 227t-67 265zM244 686q-7 -49 -7 -97q0 -100 29 -200 q43 -147 137 -258q62 -73 160 -105q85 -29 162 -29q12 0 24 1q88 5 156 35q-50 139 -79 209t-54 98q-59 8 -88 74q-7 19 -7 37q0 38 31 72q33 36 73 36q17 0 34 -6q52 -14 82 -90q71 -101 158 -334q55 48 67 84q51 122 61 246q3 32 3 64q0 89 -22 171q-28 111 -100.5 206 t-182.5 157q-30 9 -63 9q-20 0 -40 -4q-54 -8 -90.5 -21.5t-69 -29t-36.5 -16.5q-10 -2 -17.5 0t-12.5 9t-7.5 11.5t-6 15t-3.5 11.5q-16 6 -32 6q-71 0 -153 -106q-86 -107 -106 -256z" />
<glyph unicode="R" horiz-adv-x="1155" d="M-22 1224q0 57 40 89q25 22 58 26q2 44 20 64q15 17 35 17h7q24 -4 49 -20t42 -40q102 14 197 18q25 1 49 0q71 0 142 -7q96 -10 169 -35t124 -73.5t63 -117.5q3 -20 4 -40q-1 -47 -19 -96q-26 -71 -86 -143t-171 -139t-257 -115q429 -206 643 -354q1 -2 40 -14t53 -33 q15 -23 15 -48q0 -23 -12 -47q-25 -52 -77 -61q-14 1 -22.5 -0.5t-19 4.5t-15.5 8t-13 10.5t-10.5 11.5t-8.5 11t-7 9q-208 117 -697 383q6 -52 8.5 -107t2.5 -93t-1 -123t-1 -144q14 -15 18 -49q1 -8 1 -16q0 -26 -9 -50q-22 -48 -81 -60q-15 -3 -29 -4q-40 0 -68 27 q-24 25 -24 69q0 27 9 60q2 71 7 161q4 89 5 129v25q1 33 -1 81q-2 66 -11 149h-10q-39 0 -76 20q-32 17 -39 57q-2 12 -2 24q0 28 12 56q16 40 46 54q31 16 55 16q-15 194 -31 350q-8 -3 -18 -3q-21 0 -47 14q-51 25 -51 89zM254 1206q14 -145 22.5 -273.5t12.5 -176.5 q252 69 392 161q123 80 123 160q0 11 -3 23q-9 40 -32.5 67.5t-71.5 40.5q-47 12 -83 18q-21 4 -57 4q-25 0 -56 -2q-77 -4 -111.5 -7t-125.5 -14q-7 -1 -10 -1z" />
<glyph unicode="S" horiz-adv-x="1050" d="M31 698q-7 34 -7 70q0 50 13 106q31 118 86.5 202.5t121.5 127.5q67 44 145 62q58 13 112 13q20 1 40 -1q74 -6 146 -31q121 -43 168 -77t88 -117q18 -17 38 -49q16 -26 16 -51q0 -6 -1 -13q-8 -48 -50 -74q-23 -14 -48 -13q-21 0 -43 9q-52 25 -52 91q0 10 1 20 q-63 81 -166 112q-65 18 -125 18h-18q-68 -3 -124 -28t-101.5 -89.5t-73.5 -164.5q-6 -22 -6 -43q0 -51 35 -102q50 -72 130 -96q25 -5 59 -5h11q41 1 86.5 11.5t96.5 17.5t101 14q25 4 49.5 3.5t48.5 -3.5q49 -7 90.5 -24t77 -57t56.5 -101q27 -74 27 -144q-1 -68 -25 -130 q-50 -130 -158.5 -228.5t-257.5 -158.5q-30 -12 -58 -12q-37 1 -72 21q-61 36 -82 87q-42 38 -49 51.5t-7 57.5q0 59 42 89q30 22 66 22q13 0 27 -3q10 -2 18 -6t15 -10.5t12 -13.5t9.5 -16.5t7.5 -16.5t5.5 -16.5t4 -14.5t3.5 -13l1 -8q0 -2 1 -10t2 -13t5.5 -9t12.5 -2 q52 30 94.5 59.5t80.5 64t63 71t40 76.5q14 38 14 79v5q-1 44 -18 91q-20 53 -67 71q-29 11 -63 11q-21 0 -45 -4q-61 -11 -123.5 -29t-129.5 -30q-35 -6 -63 -6q-26 0 -46 5q-58 15 -116 54t-106.5 100.5t-65.5 140.5z" />
<glyph unicode="T" horiz-adv-x="1148" d="M-104 1150q-3 15 -3 29q0 40 27 66q24 24 68 24q27 0 61 -9q174 10 314 10q60 0 114 -2q0 24 15 51q26 46 80 58q14 3 26 3q37 0 66 -26q28 -28 28 -78q330 -4 420 -12q22 16 54 18h9q28 0 56 -14q45 -26 53 -85q1 -10 1 -19q0 -46 -32 -74q-23 -22 -60 -22q-31 0 -71 15 q-213 13 -440 13q0 -723 -10 -969q19 -15 23 -51q1 -8 1 -16q0 -26 -10 -50q-22 -48 -80 -61q-16 -4 -30 -4q-38 0 -66 26q-23 23 -23 68q0 28 9 65q-2 27 -2 178q0 126 2 337q2 466 2 477q-205 0 -422 -17q-20 -15 -52 -20q-9 -1 -18 -1q-24 0 -49 9q-49 23 -61 83z" />
<glyph unicode="U" horiz-adv-x="1142" d="M65 601q-2 38 -2 75q0 81 9 160q13 116 45 247q-11 19 -8.5 51.5t20.5 57.5q31 44 89 46h6q54 0 85 -42q13 -18 12 -43q0 -36 -26 -88q-48 -177 -48 -343q-1 -54 5 -106q20 -214 110 -350q52 -80 124 -118q64 -33 124 -34h15q68 4 130.5 30t104.5 65t55 76q23 68 34 141 q11 74 13 130q1 12 1 26q0 50 -7 120q-9 90 -17 138.5t-26 158.5q-5 32 -8 48q-19 15 -30.5 47t-4.5 61q12 51 67 73q25 10 47 11q28 0 54 -16q28 -17 37 -53q7 -26 7 -50q0 -10 -1 -20q25 -114 43 -272q14 -124 14 -264q0 -40 -1 -80q-5 -186 -47 -281q-32 -72 -94 -130 t-139 -94t-167 -46q-33 -4 -64 -4q-56 -1 -110 11q-85 18 -165.5 73t-137.5 143q-68 100 -105 213t-43 232z" />
<glyph unicode="V" horiz-adv-x="1196" d="M60 1308q30 21 60 21q19 0 38 -8q48 -19 61 -109q74 -117 164.5 -271t193.5 -332.5t146 -252.5q5 16 28 97t32 111t32.5 104.5t42 121t46 114.5t59 130.5t67.5 126.5q-4 14 -4 27q0 44 43 84q31 29 69 29q14 0 30 -4q57 -15 75 -66q4 -11 4 -24q0 -42 -43 -97 q-73 -143 -131.5 -289t-84 -224.5t-71 -238t-59.5 -206.5q44 -54 44 -100q0 -40 -34 -72q-23 -23 -56 -23q-19 0 -42 8q-13 -13 -59 -20q-7 -1 -14 -1q-35 0 -65 30q-29 28 -28 70q0 11 2 24q2 16 16.5 34t16.5 23q-316 515 -578 991q-21 11 -37 42q-16 29 -16 59 q0 55 52 91z" />
<glyph unicode="W" horiz-adv-x="1579" d="M34 1306q-1 9 -1 18q0 25 10 48q23 48 82 60q15 3 29 4q39 0 65 -27q25 -25 25 -71q0 -26 -8 -58q0 -3 2.5 -40t5.5 -69.5t8.5 -90t14 -114.5t21 -128t30 -144.5t39.5 -151.5t51.5 -160.5t64.5 -160.5q41 160 90 366.5t45 209.5q-12 17 -18 47q-3 15 -3 32q-1 16 3 34 q6 36 31 53q29 23 68 23h15q48 -6 70 -44q6 -12 8 -36l2 -23q118 -186 249.5 -369t178.5 -260q17 98 72 529.5t78 531.5q-7 24 2.5 56t34.5 54q30 25 68 25q14 0 29 -3q57 -12 79 -61q4 -12 4 -25q0 -39 -37 -91q-28 -157 -64 -441t-68 -488t-67 -290q10 -33 10 -59 q0 -50 -38 -72q-31 -18 -60.5 -11.5t-66.5 42.5q-104 167 -176.5 275t-148 214t-124.5 178q-34 -188 -46 -248.5t-38.5 -160t-70.5 -227.5q0 -2 -1.5 -17.5t-4.5 -28.5t-9.5 -29t-22 -26.5t-38.5 -13.5q-9 -1 -17 -1q-17 0 -31 5q-21 8 -32 21.5t-18 31t-9 29.5t-2 20 q-84 152 -150 327t-101 318.5t-57.5 283.5t-29 221t-6.5 132q-17 17 -21 51z" />
<glyph unicode="X" horiz-adv-x="1200" d="M20 1135q2 53 48 88q31 24 62 24q16 0 32 -6q45 -15 71 -102q28 -48 121.5 -159t208.5 -232q26 33 163.5 219.5t223.5 287.5q1 2 6 18.5t17.5 33.5t36.5 28q35 17 64 17q36 0 61 -28q34 -37 34 -84q0 -16 -4 -32q-7 -33 -26.5 -50t-55.5 -34q-68 -74 -135 -158 t-153.5 -201.5t-106.5 -143.5q68 -81 187.5 -279t138.5 -225q18 -8 29 -15t23.5 -24.5t14.5 -40.5v-10q-1 -47 -45 -83q-35 -29 -70 -29q-15 0 -30 5q-30 10 -50.5 37t-23.5 53q-30 43 -128 214.5t-154 244.5q-56 -77 -170 -245t-164 -234q-1 -2 -6 -18.5t-17.5 -33.5 t-36.5 -28q-35 -17 -64 -17q-36 -1 -61 27q-34 37 -34 85q0 16 4 32q7 33 26.5 50t55.5 34q42 57 159 230t177 251q-124 136 -231 261.5t-136 168.5q-22 10 -42 40t-20 63z" />
<glyph unicode="Y" horiz-adv-x="1093" d="M29 1257q-9 21 -9 43q0 27 14 56q27 53 77 57q21 2 42.5 -9.5t42.5 -31t23 -20.5q43 -31 79 -62t83.5 -83.5t76.5 -86t106 -125.5t124 -147q122 276 221 450q-9 20 -2 54.5t29 56.5q29 30 74 30q10 0 20 -1q59 -8 82 -54q6 -10 8 -22q1 -6 1 -13q0 -5 -1 -9 q-1 -12 -3 -21t-8 -20t-8.5 -16.5t-9 -15t-6.5 -10.5q-168 -330 -256 -534q48 -31 52 -95v-10q0 -57 -41 -90q-32 -24 -66 -24q-9 0 -18 2q-1 -4 -70.5 -185t-110.5 -315q11 -21 5.5 -60t-29.5 -63q-30 -28 -71 -28q-13 0 -28 3q-59 11 -83 58q-11 19 -11 39q0 40 39 88 q98 310 211 608q-258 320 -319 389q-82 92 -160 150q-24 -2 -55.5 17.5t-44.5 49.5z" />
<glyph unicode="Z" horiz-adv-x="1030" d="M-86 999q-6 20 -6 37q0 33 22 58t63 29t60 -5q106 32 406.5 108.5t435.5 125.5q38 28 86 28h3q50 -1 67 -26q7 -12 9 -26q0 -4 1 -7q1 -9 -3 -19q-4 -12 -13 -26.5t-17.5 -26t-18 -25t-14.5 -22.5q-16 -37 -100 -164.5t-181 -273t-211 -345.5t-184 -366 q177 49 273.5 68.5t247.5 32.5q16 18 48 28q17 5 33 5q15 0 31 -5q53 -15 71 -73q7 -21 7 -41q0 -35 -20 -66q-19 -30 -65 -36q-13 -2 -24 -2q-27 0 -42 11q-46 -5 -92 -11.5t-79.5 -11.5t-83.5 -15t-74 -14.5t-82.5 -18.5t-76.5 -18t-89.5 -21.5t-90.5 -22.5 q-10 -4 -29.5 -19t-21.5 -16q-19 -8 -37 -8q-21 -1 -41 9q-38 18 -49 67q-5 21 13.5 55t41.5 43l2 2q42 113 100 235t109 216t124 211t115.5 180.5t113.5 167.5t89 131q-89 -28 -309.5 -83.5t-331.5 -90.5q-16 -16 -50 -24q-14 -3 -28 -3l-40 7q-50 20 -68 77z" />
<glyph unicode="[" horiz-adv-x="649" d="M125.5 673.5q21.5 471.5 103.5 796.5q91 31 122 34q52 4 114 -27q63 22 119 -29q26 -23 27.5 -66t-19.5 -80.5t-55 -46.5q-33 -10 -55.5 -2t-33.5 19.5t-12 19.5q-9 12 -26.5 20t-30.5 7q-33 -156 -59.5 -399.5t-31 -459t28.5 -306.5q2 0 15.5 9t26.5 11t42 -6 q55 -13 66.5 -74.5t-25.5 -99.5q-6 -6 -13 -10.5t-13.5 -7.5t-14.5 -4.5t-14.5 -3t-15.5 -1.5h-14.5t-14.5 1t-12.5 1.5t-11.5 2t-9 1.5q-29 3 -44 0.5t-28.5 -0.5t-18.5 1t-13 4t-12 8t-15 14q-74 202 -52.5 673.5z" />
<glyph unicode="\" horiz-adv-x="1017" d="M67.5 1072.5q6.5 32.5 27.5 57.5t52 37.5t66 -2.5q21 -9 34.5 -21t17.5 -20t8 -20.5t6 -16.5q48 -60 357.5 -510t397.5 -569q26 -8 50.5 -36t27.5 -62q5 -52 -32.5 -91.5t-90.5 -33.5q-20 2 -34.5 9t-24 20.5t-14 22t-9.5 25.5t-6 19q-74 84 -195 253.5t-217.5 314 t-204 308t-120.5 183.5q-57 8 -90 76q-13 24 -6.5 56.5z" />
<glyph unicode="]" horiz-adv-x="649" d="M120 1364.5q-12 59.5 27 95.5q40 35 119 17q30 18 92.5 17t130.5 -24q49 -196 56 -507.5t-23.5 -587.5t-83.5 -398q-50 -41 -123 -30q-66 -34 -118 -2q-45 27 -54 85.5t29 92.5q42 38 135 8q39 63 59 217t19.5 331t-14 351.5t-35.5 288.5q-46 -41 -80.5 -51t-75.5 10 q-48 27 -60 86.5z" />
<glyph unicode="^" horiz-adv-x="927" d="M133 1231q2 28 10 48t21 30.5t22.5 15t24.5 8.5q48 68 91 116t78.5 77.5t68.5 41t59.5 11.5t53.5 -15.5t48 -35.5t45.5 -54t43.5 -65t44 -74q3 -6 5 -9t5 -8t5 -9q16 -8 25 -15.5t19 -29t11 -52.5q4 -58 -34 -88t-89 -16q-33 10 -52 36t-22 54q-19 30 -38.5 68.5 t-28.5 58t-23 37t-25.5 16t-32.5 -17t-47 -49.5t-65 -92q-2 -26 -21.5 -55t-49.5 -40q-52 -19 -105 16.5t-47 90.5z" />
<glyph unicode="_" d="M144.5 -163q-12.5 60 23.5 95q17 17 45.5 21.5t48.5 1.5t37 -8q89 -12 248 -10.5t291.5 8t234.5 14.5q114 9 165 2.5t54 -24t-22.5 -39.5t-64 -43t-71 -36t-44.5 -18q-118 -35 -360.5 -45.5t-407.5 8.5q-21 -15 -52.5 -19t-64.5 9q-48 23 -60.5 83z" />
<glyph unicode="`" horiz-adv-x="716" d="M141 1276q-6 43 13 83.5t50.5 62.5t74.5 11.5t81 -61.5q24 -32 36 -71.5t15 -73t21 -80.5t53 -92q54 -69 73.5 -111.5t8 -55t-37.5 -11t-59.5 15.5t-62 30t-42.5 27q-209 175 -224 326z" />
<glyph unicode="a" horiz-adv-x="1005" d="M60 473q8 87 46.5 164.5t100.5 124.5q94 68 191 104q81 31 161 31q15 0 31 -1q94 -7 158 -65q-2 6 -7.5 17.5t-8.5 19t-6 17.5t-2.5 20t3.5 19q19 50 81 62q16 3 29 3q42 0 70 -28q24 -26 24 -71q0 -31 -11 -71v-11q0 -150 26 -377q26 -235 29 -333q15 -16 19 -49l2 -18 q0 -24 -9 -47q-21 -48 -81 -60q-16 -3 -30 -3q-39 0 -67 26q-6 6 -10.5 13t-7.5 13t-4.5 15t-2.5 14.5t0 16t1 15t2.5 16t3 14.5t3.5 14.5t3 13.5q0 35 -2 55q-37 -58 -81 -96q-42 -39 -106 -63q-43 -17 -98 -16q-26 0 -54 4q-88 12 -194 61q-75 36 -125.5 107.5 t-66.5 156.5q-11 58 -12 118q0 27 2 54zM238 490q-9 -37 -9 -74q0 -45 13 -89q24 -80 84 -116q58 -36 111 -47q28 -6 52 -6q21 0 39 5q38 10 72 36t56.5 57.5t41.5 69.5t29.5 66.5t19.5 54.5q2 7 3 10v112q-29 37 -70 78q-54 53 -120 61q-15 2 -29 2q-51 0 -97 -20 q-60 -26 -119 -74q-57 -44 -77 -126z" />
<glyph unicode="b" horiz-adv-x="868" d="M21 1182q-2 11 -2 23q0 22 8 44q20 48 78 62q17 4 32 4q37 0 64 -25q26 -25 26 -80q0 -22 -4 -49q23 -261 31 -373q74 22 156 26q19 1 37 1q61 -1 121 -11q76 -14 140.5 -51t98.5 -94q44 -75 44 -151q0 -71 -31 -137q-32 -68 -97 -148q-146 -180 -414 -286 q-19 -7 -47 -13q-15 -3 -33 -3q-16 0 -34 2q-38 5 -54 30q-5 9 -8 19t-3.5 21.5t0 18.5t2 20t1.5 17q-17 150 -34.5 360t-33 437.5t-20.5 283.5q-18 18 -24 52zM266 596q2 -23 13.5 -164.5t31.5 -308.5q40 19 65 32.5t63.5 37.5t71 55t58.5 69q11 15 36 48.5t34 48t19 38.5 q8 19 9 36q0 5 -1 9q-3 21 -17 44q-41 71 -153 87q-28 4 -56 3q-85 0 -174 -35z" />
<glyph unicode="c" horiz-adv-x="907" d="M55 453q-3 31 -3 60q0 267 231 405q59 35 155 39h17q90 -1 194 -41q114 -44 191 -138q47 -47 47 -88q0 -58 -46 -88q-23 -15 -52 -14q-29 0 -64 14q-15 5 -24.5 23.5t-15 38t-7.5 22.5q-23 32 -68.5 55t-90.5 31t-84 8t-54 -10q-86 -52 -120 -124q-27 -57 -27 -143 q0 -23 2 -48q3 -37 18 -80t41.5 -89t72 -81t101.5 -45q25 -5 45 -5q26 0 44 7q34 12 77 49q137 116 185 116q22 0 24 -24q1 -4 1 -9q0 -50 -59 -149q-32 -57 -51 -71q-61 -44 -139 -74q-59 -22 -109 -23q-17 0 -34 3q-85 11 -159 59.5t-123 117t-79 145.5t-37 151z" />
<glyph unicode="d" horiz-adv-x="1044" d="M63 409q-1 14 -1 29q0 78 28 154q32 90 100 143q76 57 172 91q89 31 189 32h15q108 -2 190 -53q19 236 22 399q-18 22 -26 56q-3 13 -3 25q0 23 9 48q24 51 88 59q11 1 21 1q49 0 81 -31q21 -22 21 -63q0 -30 -11 -70q-3 -50 -10.5 -163.5t-9.5 -165.5q-4 -54 -6 -160 q-1 -44 -1 -84q0 -56 3 -106q4 -84 12.5 -210.5t24.5 -267.5q15 -18 14 -47q-1 -8 -1 -18q-6 -42 -32 -68q-28 -27 -68 -27q-13 0 -28 3q-58 12 -80 60q-10 24 -10 48q0 9 2 17q4 32 20 50q-1 16 -3 46t-3 46q-43 -50 -95.5 -86t-120.5 -58q-43 -14 -92 -14q-29 0 -60 5 q-84 13 -172 63q-80 48 -126.5 136t-52.5 181zM238 476q-5 -24 -5 -48q-1 -47 17 -90q26 -66 82 -96q62 -34 118 -38q10 -1 19 -1q45 -1 79 17q42 22 77 52t61 72.5t40 70.5t24 54v109l-20 17.5t-21 18t-11 9.5q-51 39 -109 51q-30 6 -58 7q-27 0 -53 -6q-52 -12 -95 -33 t-78 -50q-53 -44 -67 -116z" />
<glyph unicode="e" horiz-adv-x="1021" d="M80 484q24 36 57 46q24 157 95 251.5t167 115.5q10 5 30 5q9 0 19 -1q34 -3 72 -7.5t88 -25.5t99.5 -50t104.5 -80.5t103 -116.5q2 -2 11.5 -8t19.5 -13.5t15 -15.5q18 -27 18 -57q1 -9 -1 -17q-6 -40 -38 -70q-28 -27 -61.5 -33t-61.5 11q-31 -3 -128 -3q-17 1 -35 1 h-49q-97 0 -179 -2q-102 -2 -109 -11q7 -37 12 -61t20 -64t34 -65t52.5 -48t76.5 -30q24 -3 46 -4q79 0 128 43q98 83 140 83q24 0 31 -27q3 -10 3 -23q0 -44 -33 -115q-17 -38 -32 -55q-33 -36 -119 -63q-59 -19 -125 -19q-29 0 -59 4q-68 9 -125 38.5t-95 68t-66.5 86.5 t-43 89.5t-21.5 80.5q-35 4 -57 24q-29 28 -29 64q1 38 25 74zM324 545q32 3 74 5t83 3t83 1t77.5 -0.5t63 -1t43.5 -0.5q15 0 14 1q0 179 -273 179q-23 0 -45 -5q-30 -7 -51 -22.5t-34 -41t-20.5 -52t-14.5 -66.5z" />
<glyph unicode="f" horiz-adv-x="854" d="M30 668q-1 9 -1 18q0 50 39 76q20 12 43.5 13.5t35.5 -2t33 -11.5q8 1 23 1q29 0 82 -3q-9 50 -23.5 117.5t-25.5 116t-21.5 108t-14.5 102.5q-2 25 -2 51q0 20 1 40q3 47 15.5 81t38 64.5t64.5 50.5q56 1 99 3h9q37 0 69 -12q37 -12 66.5 -32t59.5 -62.5t60 -101 t68 -147.5q24 -18 37 -51q8 -21 8 -42q0 -11 -2 -22q-12 -49 -65 -70q-23 -10 -45 -10q-26 0 -50 14q-26 17 -37.5 48t-11.5 59q-20 52 -37 90.5t-29 65t-24 43.5t-19.5 26.5t-18 14.5t-16 6t-18.5 2t-21 2q-32 -29 -35 -89v-17q0 -52 14 -105q15 -60 42.5 -164.5 t40.5 -175.5q81 0 143 6t104 6q18 0 33 -2q48 -3 61 -16q9 -8 9 -17q0 -6 -4 -13q-9 -17 -34 -36t-54.5 -35.5t-57.5 -28.5t-43 -14q-34 -5 -61.5 -10t-41.5 -7t-30 -3q20 -136 29 -303q6 -91 6 -154q0 -53 -4 -86q12 -20 15 -49t-9 -61q-23 -50 -82 -63q-15 -3 -29 -3 q-39 0 -67 27q-18 18 -22.5 48.5t-1 51.5t9.5 39q10 40 10 136q0 42 -2 94q-6 173 -27 319q-23 0 -60 1t-50 1q-34 -24 -68 -24q-24 0 -47 12q-48 24 -56 88z" />
<glyph unicode="g" horiz-adv-x="878" d="M66 466q4 77 29 144.5t63 108.5q73 76 156 116.5t157 41.5h5q72 0 138 -25q6 32 40 52q31 18 68 18h6q40 -2 65 -27q29 -29 35 -65q1 -7 1 -14q0 -28 -20 -52q5 -43 5 -105q0 -56 -4 -127q-4 -81 -4 -150q0 -60 3 -112q19 -148 19 -266q0 -43 -2 -82q-10 -146 -82 -239 t-216 -129q-55 -12 -107 -12h-8q-56 1 -104 22.5t-82 55t-48 86.5q-8 30 -8 64q0 26 5 54q17 93 74 164q38 47 65 47q8 0 15 -5q26 -17 26 -87q0 -55 -16 -144q-2 -9 -2 -16q0 -39 38 -61q24 -14 55 -14q24 0 52 9q110 34 141 153q17 63 17 159q0 81 -12 186 q-39 -69 -113 -101q-51 -22 -109 -22q-27 0 -56 5q-90 15 -167 77q-64 55 -94 135q-25 69 -25 137q0 10 1 20zM242 414q11 -59 55 -97q53 -45 105 -45q16 0 32 4q67 18 117 71t61 108q4 30 12 64t11 61q1 14 1 31.5t-1 39.5q-48 45 -114 49h-15q-58 0 -110 -24 q-59 -27 -109 -74q-28 -28 -43 -78q-8 -28 -8 -59q0 -24 6 -51z" />
<glyph unicode="h" horiz-adv-x="892" d="M54 30q4 32 20 52q5 151 5 303q0 75 -1 153q-4 230 -7 332v35q0 100 13 277q-17 20 -22 52q-1 9 -1 18q0 23 9 48q16 35 57 50q25 9 50 9q17 1 33 -3q42 -10 58 -41q18 -33 18 -63q0 -32 -20 -60q-17 -164 -17 -318q0 -86 5 -169q97 88 209 90h6q109 0 195 -76 q58 -49 97 -100.5t59 -108.5q20 -58 28 -109q5 -30 4 -66q0 -25 -2 -55q-6 -70 -14.5 -124t-26.5 -140q10 -18 10 -39q0 -15 -5 -30q-12 -38 -44 -53q-28 -14 -58 -14q-26 0 -52 10q-58 22 -66 77q-1 8 -1 16q0 25 10 47q13 30 38 44q32 176 33 231v13q0 107 -61 191 q-25 33 -62 69q-34 34 -79 34q-28 0 -60 -13q-84 -35 -150 -148v-109t-10 -268q20 -39 20 -72q0 -44 -36 -78q-30 -25 -67 -25q-15 0 -31 4q-56 14 -77 62q-9 23 -9 47z" />
<glyph unicode="i" horiz-adv-x="483" d="M130 352q2 124 24 291q-25 32 -25 65q0 28 18 58q27 44 81 54q12 2 23 2q39 0 66 -27q27 -24 29 -70q0 -7 1 -14q0 -35 -11 -54q-27 -259 -27 -350.5t23 -212.5q23 -40 23 -72q0 -22 -11 -40q-27 -50 -83 -59q-11 -2 -22 -2q-41 0 -69 28q-25 23 -29 65q-1 10 -1 19 q0 29 10 47q-21 139 -21 257q1 7 1 15zM168 1040q0 3 -1 6q0 45 32 80q29 34 79 38q6 1 13 1q42 0 76 -26q36 -31 41 -80q1 -7 0 -13q0 -41 -27 -75q-33 -41 -85 -45q-6 -1 -12 0q-45 0 -77 30q-37 34 -39 84z" />
<glyph unicode="j" horiz-adv-x="872" d="M51 -63q20 99 85 202q53 85 85 85h4q26 -4 26 -70q0 -72 -32 -220q-6 -27 -6 -52q0 -26 7 -50q13 -44 41 -69.5t66.5 -41.5t74.5 -21q21 -2 40 -2q13 0 25 1q91 8 136 159q38 126 38 304q0 33 -1 68q-9 223 -65 448q-17 19 -22 52q-1 9 -1 18q0 24 9 49q24 48 82 61 q15 4 29 4q38 0 63 -28q17 -20 18 -66l1 -45q53 -221 60 -438q1 -34 1 -67q0 -176 -30 -317q-35 -167 -115.5 -272.5t-192.5 -109.5q-12 -1 -25 -1q-41 0 -86 8q-59 9 -124 37.5t-113.5 74t-72.5 122.5q-13 44 -13 95q0 39 8 82zM462 1004q-1 7 -1 13q0 43 26 77 q31 36 83 40q7 1 13 1q45 0 79 -29q37 -32 40 -81q1 -5 1 -10q0 -43 -29 -77q-32 -40 -84 -44q-6 -1 -12 -1q-44 0 -78 31q-34 30 -38 80z" />
<glyph unicode="k" horiz-adv-x="968" d="M31 512q-4 17 -4 32q1 32 19 52q28 30 71 41q1 156 14.5 346.5t15.5 282.5q-13 15 -19.5 33t-5 42.5t16.5 47.5q22 33 60 45q21 7 41 7q16 0 32 -5q36 -10 58 -37q18 -29 18 -59v-9q-3 -35 -24 -61q0 -50 -11 -248.5t-12 -347.5q48 14 96 33t78.5 34t80.5 41t77 39 q9 30 34 51.5t66 22.5q57 -1 93 -51q26 -36 26 -70q0 -14 -4 -29q-12 -35 -46 -54t-65 -19q-183 -111 -360 -164q75 -44 147.5 -95.5t181 -134t146.5 -110.5q1 -1 23 -11t42 -25t27 -34q6 -17 6 -34q0 -32 -24 -64q-34 -45 -84 -45h-8q-35 1 -61.5 24t-35.5 50 q-87 57 -221 163t-217 154q-1 -49 -5.5 -135.5t-4.5 -167.5q0 -2 5 -25.5t5 -48t-10 -41.5q-27 -46 -91 -48q-2 0 -5 -1q-61 0 -93 41q-13 25 -11.5 45.5t9.5 46t8 27.5q0 108 2.5 207.5t2.5 173.5q-17 1 -29 6.5t-27 27t-24 58.5z" />
<glyph unicode="l" horiz-adv-x="430" d="M40 1262q2 26 19 51q37 50 96 50t93 -42q18 -28 18 -59v-8q-2 -36 -22 -60q7 -83 14.5 -199t14.5 -275q6 -139 6 -289v-43q-1 -174 -11 -312q22 -32 22 -63q0 -33 -26 -64q-36 -42 -88 -42h-12q-60 5 -88 50q-13 26 -13 51q-1 10 1 18q6 34 28 58q5 155 5 319 q0 147 -4 301q-9 325 -25 480q-14 16 -22 34q-6 15 -6 34v10z" />
<glyph unicode="m" horiz-adv-x="1028" d="M77 818v11q0 29 13 56q26 47 84 59q13 3 25 2q41 0 69 -31q20 -28 17 -60t-16 -59l-13 -26q62 53 84 53q76 -2 105 -13q80 -29 98 -142q63 155 196 161h4q31 0 65 -16q36 -17 74 -52t66 -97t42 -142q9 -49 8 -113q0 -39 -3 -83q-9 -116 -45 -252q5 -17 5 -33 q0 -50 -50 -86q-33 -20 -63 -20q-18 1 -35 7q-46 18 -62 68q-5 16 -5 32t6 34q11 34 36 49q25 85 37.5 159.5t13.5 127.5v14q1 45 -5 83q-6 44 -18 71.5t-26 46.5t-26 27t-21 8q-10 0 -18 -6t-20.5 -30.5t-26 -70t-33 -130t-43.5 -204.5q-1 -3 -4.5 -26t-7.5 -38 t-14.5 -34.5t-26.5 -30.5q-40 -25 -73 -25q-50 0 -85 56q-14 29 -14 55q1 5 1 11q4 31 19 53q14 129 14 217q0 192 -67 192q-29 0 -64 -116q0 -23 2 -85q2 -52 3 -123q-1 -13 -1 -29q0 -90 -6 -226q19 -40 19 -71q0 -27 -15 -46q-38 -49 -94 -49h-1q-57 0 -91 43 q-18 21 -18 50q0 32 22 75q0 71 3 295.5t3 306.5q0 19 -2 48.5t-2 39.5q-16 20 -19 54z" />
<glyph unicode="n" horiz-adv-x="933" d="M89 832v8q0 29 20 61q21 33 59 45q20 6 39 6q17 0 35 -4q36 -10 57 -37q19 -29 19 -59v-10q-4 -34 -25 -60q0 -18 -8 -38t-9 -33q68 73 160 99q65 19 121 18q23 0 45 -3q74 -11 129 -43q52 -31 88 -71.5t55.5 -90.5t29.5 -102t10 -118.5t-3.5 -125.5t-10.5 -137 q-3 -37 -5 -55q10 -18 14 -41t-3.5 -50.5t-28.5 -47.5q-43 -35 -82 -35q-5 0 -11 1q-44 6 -79 48q-17 20 -18 46t8.5 46.5t25.5 36.5q2 24 7.5 75.5t7.5 74t5 66t3 65t-1.5 57t-7 55t-13.5 46t-20.5 43.5t-30.5 34.5t-40 30.5q-26 14 -55 21q-18 4 -38 4q-13 0 -28 -2 q-37 -4 -72.5 -22.5t-74 -61.5t-70.5 -107q-3 -25 -5 -55q-1 -15 0 -33v-39q2 -42 3.5 -72.5t5.5 -94.5t6 -97q20 -31 20 -61q0 -32 -22 -64q-21 -33 -58 -45q-20 -7 -40 -7q-17 0 -33 5q-36 10 -57 37q-15 19 -17 44t4 46t17 39q-21 220 -21 322v7q0 104 15 379 q-19 23 -22 56z" />
<glyph unicode="o" horiz-adv-x="968" d="M57 451q7 88 46 169t102 132q116 94 249 122q64 14 123 13q63 1 118 -15q108 -30 177 -104q38 -40 60 -85.5t30 -84.5q6 -28 6 -65q0 -14 -1 -28q-3 -54 -10 -93t-21 -103q-9 -38 -45.5 -89t-98 -104.5t-144.5 -87.5q-82 -34 -183 -38h-18q-93 0 -197 43 q-71 29 -119.5 95.5t-64.5 150.5q-11 58 -11 119q0 26 2 53zM236 468q-7 -33 -6 -66q0 -52 17 -98q28 -76 91 -105q53 -25 112 -25h18q69 4 129.5 29t104.5 65.5t54 83.5q3 13 10.5 42t9.5 38.5t6 31.5q5 22 5 32l1 32q0 16 -4 24q-4 10 -10 26t-16 30t-23 29 q-49 56 -131 64q-19 2 -36 2q-63 1 -123 -21q-77 -28 -132 -74q-59 -54 -77 -140z" />
<glyph unicode="p" horiz-adv-x="948" d="M50 -374q7 34 32 59q25 207 36 345q9 108 9 259q0 41 -1 86q-3 208 -28 452q-20 23 -24 60v11q0 31 16 60q29 46 93 48h6q59 0 90 -39q15 -18 18 -43.5t-3.5 -46.5t-17.5 -39q7 -77 15 -129q44 41 97.5 72t115.5 49q42 12 87 12q21 0 43 -2q67 -9 126 -47 q80 -52 125.5 -139.5t48.5 -177.5q1 -9 1 -17q0 -82 -32 -161q-35 -86 -106 -138q-76 -57 -157 -86q-64 -22 -133 -22q-18 0 -37 2q-88 7 -165 57q-12 -169 -47 -439q21 -31 21 -61q0 -33 -25 -66q-36 -40 -87 -40q-6 0 -11 1q-59 5 -90 48q-17 29 -17 56q0 8 1 16zM319 424 q-2 -16 -2 -30q0 -21 5 -39q7 -30 15.5 -41.5t14.5 -12.5q47 -48 106 -61q27 -7 53 -7q31 0 61 9q55 16 106 55q74 61 74 151q0 9 -1 20q-9 102 -85 169q-46 36 -93 36q-27 0 -55 -12q-75 -33 -133.5 -106t-65.5 -131z" />
<glyph unicode="q" horiz-adv-x="952" d="M52 540q6 77 43.5 149t101.5 118q139 103 277 110h19q127 0 228 -88q9 -8 30.5 -16t40 -14t37 -18t22 -28t-6.5 -44q25 -28 61 -84q35 -52 41.5 -84t-11 -41.5t-48.5 -4t-70 24.5q-12 -136 -12 -170q-2 -37 -12 -165q-9 -111 -9 -190v-23q2 -86 19 -181q42 59 94 111 q20 19 47.5 39t56 36t54.5 25t41 4q16 -7 16 -28q0 -20 -22 -62q-22 -46 -68 -113q-19 -27 -58.5 -86t-64 -93t-56.5 -74t-57 -58q-22 -16 -41 -16h-4q-16 1 -28 4.5t-21 11.5t-15 13.5t-11.5 20.5t-7.5 21.5t-7.5 28t-7.5 29.5q-26 104 -34 208q-6 79 -6 134q0 16 1 31 q2 61 11 161l3 33q-49 -33 -109 -48q-38 -10 -82 -10q-25 0 -52 4q-74 8 -144 44q-62 30 -106 91t-61 135q-13 57 -13 115q0 18 1 37zM230 541q-5 -22 -5 -43q0 -43 18 -82q27 -59 81 -99q31 -21 74 -24q8 -1 15 -1l73 12q43 15 80 53t52 92q29 93 29 143q0 4 -1 8 q-2 49 -50 96q-38 40 -88 45q-9 1 -18 1q-41 0 -83 -18q-51 -23 -104 -69q-60 -48 -73 -114z" />
<glyph unicode="r" horiz-adv-x="851" d="M64 10q4 34 24 62q-18 223 -19 355v23q-1 118 9 214q10 104 12 129q-21 24 -25 55q-1 5 -1 10q0 27 18 60q21 33 58 45q20 7 40 7q16 0 32 -5q36 -10 58 -37q17 -22 19 -50t-6 -49.5t-21 -37.5q0 -6 -4 -56q84 63 169 87q60 17 111 18q20 0 40 -3q66 -10 120 -46 q64 -40 94 -96q25 -47 24 -97q0 -10 -1 -20q16 -26 16 -60q0 -30 -16 -59q-29 -45 -91 -47h-5q-59 0 -90 39q-16 21 -18.5 47.5t4.5 47t18 38.5q1 4 1 9q0 29 -36 50q-30 15 -70 17q-8 0 -15 1q-33 -1 -68 -9q-43 -10 -85 -38t-71 -71q-17 -27 -23 -47q-14 -51 -13 -163 q0 -103 11 -257q26 -32 26 -65q0 -29 -20 -58q-22 -33 -59 -45q-20 -7 -40 -7q-16 0 -32 5q-35 10 -57 37q-18 29 -18 58v9z" />
<glyph unicode="s" horiz-adv-x="913" d="M66 508q-2 24 -2 47q0 63 18 121q24 78 68.5 131t104.5 92.5t119 59.5t115 26q25 2 49 2q108 0 182 -48q90 -59 101 -151q28 -32 27 -66q0 -30 -21 -60q-21 -32 -58 -44q-20 -6 -39 -6q-18 0 -34 5q-36 10 -57 36q-19 24 -19 49q0 29 25 60q-10 51 -95 51q-23 0 -52 -4 q-53 -8 -96.5 -26t-81.5 -49q-38 -32 -58 -82q-18 -46 -18 -103v-12q2 -68 22 -103q12 -21 32 -21q13 0 30 9q78 43 164 56q51 8 91 8q27 0 49 -4q54 -9 79 -27q34 -24 57.5 -48.5t41.5 -62.5q17 -36 16 -79q0 -46 -24 -112q-22 -63 -69 -137q-61 -95 -168 -168t-182 -73 q-55 0 -86 20t-39 51q-48 33 -48 83q0 19 7 40q17 53 71 71q24 8 48 9q28 0 55 -12q20 -8 32 -27t11 -43q44 18 88 54.5t74 82.5q52 90 58 134q1 6 1 12q0 36 -28 59q-13 13 -40 13q-66 0 -218 -70q-49 -22 -91 -24q-4 0 -8 -1q-38 -1 -66 15q-32 16 -56.5 44t-41 66 t-26.5 76.5t-14 79.5z" />
<glyph unicode="t" horiz-adv-x="901" d="M66 824q-5 15 -5 30q1 17 7 32q12 29 36.5 50t63 22t59.5 -12q91 14 156 17q3 24 13 105.5t14 121.5q-26 35 -26 64t24 53q45 45 93 47q3 0 5 1q45 0 76 -40q22 -28 22 -59q0 -33 -26 -70q-2 -11 -23 -213q78 5 115 5q12 0 20 -1q31 -2 113 -16q1 0 18.5 3t39.5 1t38 -15 q47 -35 47 -89q0 -51 -51 -87q-26 -18 -53 -19t-45.5 8.5t-32.5 24.5q-51 14 -87 16q-11 1 -25 1q-35 0 -95 -4q-1 -43 3 -231q3 -164 4 -233v-18q0 -64 -5 -245q0 -1 4.5 -18.5t6.5 -32t-2.5 -35t-18.5 -35.5q-35 -36 -83 -36q-10 0 -20 2q-62 9 -86 56q-10 24 -10 46 q0 11 2 23q8 34 33 58v94q-1 72 -1 147q-2 126 -4 259t-3 189q-51 0 -148 -15q-18 -12 -29.5 -18.5t-37.5 -6t-51 18.5q-35 22 -45 54z" />
<glyph unicode="u" horiz-adv-x="935" d="M62 796q-4 16 -4 29t5 23q11 32 42 50t67 20q2 0 4 1q33 1 66 -19q35 -20 53 -62q8 -14 2.5 -44.5t-23.5 -54.5q3 -276 35.5 -404t126.5 -192q43 -29 76 -28q42 0 69 46q28 49 57 209q14 73 19 99q11 54 13 139.5t8 143.5q-17 26 -17 52t17 52q30 44 84 46q2 0 5 1 q51 1 89 -31q36 -29 36 -66q0 -5 -1 -9q-3 -28 -19 -49q-4 -42 -6.5 -77t-5 -63t-3 -61t-1.5 -51.5t0.5 -56.5t1.5 -54t3 -66t4 -70t5.5 -88t6.5 -100q0 -1 10.5 -15t16.5 -30q3 -8 2 -17q0 -11 -3 -24q-18 -45 -58 -63q-23 -10 -45 -11q-18 0 -34 6q-38 13 -57 46 q-8 15 -9 34t1 37.5t1 22.5q-27 -59 -78 -87q-48 -27 -98 -26h-8q-54 2 -103.5 18.5t-80.5 43.5q-128 112 -189 290q-51 149 -51 364q0 42 2 87q-26 26 -34 59z" />
<glyph unicode="v" horiz-adv-x="1007" d="M31 817q-1 6 -1 12q0 29 20 61q24 38 65 56q16 6 35 6q29 0 63 -16q37 -20 47 -60q6 -25 6 -49q0 -14 -2 -28q104 -212 185 -341.5t169 -226.5q1 3 69.5 246t105.5 363q-6 23 -0.5 59t22.5 55q25 24 65 32q10 2 20 1q29 0 57 -15q38 -21 51 -73q2 -10 2 -19 q0 -24 -12 -48q-16 -34 -40 -54q-203 -684 -208 -700q-14 -44 -24 -67t-24 -39q-12 -13 -26 -14q-3 0 -7 1q-18 4 -45 22t-65 56q-141 144 -238 287.5t-231 414.5q-27 14 -41 30t-18 48z" />
<glyph unicode="w" horiz-adv-x="1167" d="M51 716q-2 11 -2 23q0 22 8 45q15 35 57 51q27 10 54 10l30 -3q42 -9 58 -39q9 -14 12 -29.5t0.5 -29.5t-6 -24t-8.5 -21.5t-6 -12.5q4 -29 11 -88.5t10.5 -85t12.5 -76t20 -87.5t30 -91t45 -113q35 103 46 187.5t13 238.5q-26 38 -26 78q0 27 12 56q21 49 47 73.5t51 24 t50.5 -13t46.5 -34.5t37.5 -42.5t25.5 -35.5l10 -15q75 -113 121 -202t90 -208q39 129 39 263q0 44 -4 89q-17 20 -23 54q-2 11 -2 22q0 23 9 47q16 35 57 49q25 9 50 9q17 1 33 -3q42 -10 58 -41q18 -36 18 -66q0 -32 -20 -57q0 -5 -0.5 -74t-1.5 -91.5t-7 -87.5 t-16.5 -105.5t-30.5 -99t-48 -111.5q-61 -121 -117 -121q-54 0 -102 115q-43 109 -64.5 161.5t-54.5 123t-66 127.5q-11 -260 -110 -471q-28 -57 -62 -81q-26 -18 -50 -18q-8 -1 -16 1q-32 8 -58 29.5t-42 51.5q-56 99 -96.5 211.5t-60 213.5t-28 160t-11.5 110 q-17 20 -23 54z" />
<glyph unicode="x" horiz-adv-x="1093" d="M82 707q-6 15 -6 31q0 20 10 44q18 40 56 64q26 16 50 17q11 0 21 -3q22 -7 38 -28t25 -41.5t13 -22.5q16 -14 68 -56t103.5 -86.5t86.5 -80.5q24 33 45 61t45.5 57t39 46t46.5 53t47 53q-4 29 14 55.5t50 40.5q16 7 33 7q19 0 39 -8q38 -15 62 -47q19 -25 19 -50 q0 -7 -2 -14q-15 -79 -80 -101q-17 -19 -50 -55t-47.5 -52t-38 -44.5t-44 -56.5t-43.5 -64q168 -142 262 -258q31 -4 58.5 -25t35.5 -61q5 -20 5 -38q-1 -42 -27 -70q-33 -36 -77 -36q-7 0 -13 1q-32 3 -54 13.5t-32.5 27.5t-15 30.5t-7.5 32.5q-82 114 -244 240 q-25 -32 -75.5 -89t-91.5 -110.5t-82 -122.5q-2 -28 -22.5 -58t-51.5 -40q-15 -4 -29 -4q-35 0 -67 25q-40 32 -40 77q0 6 1 12q7 72 59 95q76 119 128 185t126 148q-46 39 -130 121t-124 115q-24 2 -52.5 21.5t-39.5 48.5z" />
<glyph unicode="y" horiz-adv-x="991" d="M53 721q-6 14 -6 28.5t6 28.5q12 30 33.5 52.5t52.5 33.5q16 5 31 5q14 0 27 -5q34 -11 55.5 -45.5t19.5 -60.5q12 -18 57.5 -88t70 -105t75.5 -95.5t107 -113.5q8 19 29.5 68t31.5 72t29.5 65t34.5 69t35 61t40 63q1 2 3.5 20t9 39t18.5 33q20 20 52.5 20t61 -14.5 t49.5 -40t21 -51.5q-1 -43 -22.5 -70.5t-48.5 -36.5q-17 -26 -32 -52t-32 -60.5t-26 -53.5t-28 -64.5t-23.5 -56t-26.5 -65.5t-23 -59l2 -2q53 -45 67.5 -81t-4.5 -55t-54 -27q-22 -5 -47 -5q-16 0 -33 2q-20 -54 -44.5 -96t-73.5 -112.5t-81 -121.5q8 -20 8 -38 q0 -43 -43 -81q-29 -25 -68 -27h-7q-34 0 -61 18q-30 19 -38 50q-8 25 -8 45q0 45 37 72q99 148 139.5 219.5t79.5 169.5q-68 63 -119 116.5t-91.5 107.5t-60.5 83t-58 91t-52 83q-1 1 -17.5 11.5t-32.5 25.5t-22 31z" />
<glyph unicode="z" horiz-adv-x="942" d="M29 644q0 38 24 69q24 24 64.5 30t58.5 -4q173 49 366 78t240 39q38 27 86 28h3q45 0 59 -22q18 -24 20 -47v-5q0 -20 -10 -37q-11 -19 -25 -34.5t-29.5 -32.5t-19.5 -28q-19 -28 -103.5 -145t-155 -223t-138.5 -224q71 13 154 21.5t116 15.5q15 19 47 31q21 8 43 8 l21 -2q36 -8 60 -47q23 -38 23 -81q-1 -1 -1 -2q0 -44 -27 -65q-36 -28 -76 -28q-24 0 -51 10q-47 -11 -168 -25.5t-260 -46.5q-19 -4 -37 -19q-19 -16 -29 -26q-8 -8 -24 -8q-6 0 -10 1q-24 3 -57 27q-29 22 -29 51v7q4 34 24.5 63.5t38.5 36.5q20 64 54 133.5t88.5 151.5 t83.5 124t97 132t71 94q-11 -2 -58 -8t-71 -10t-68.5 -12t-90.5 -19.5t-97 -26.5q-16 -20 -48 -35q-24 -11 -49 -11q-8 0 -16 1q-39 6 -66 42q-28 38 -28 80z" />
<glyph unicode="{" horiz-adv-x="649" d="M35 803q-23 55 7 102t87 58q20 1 30 2t26.5 -7t24.5 -13.5t23 -16.5q23 242 67 402.5t101 217.5q10 35 43.5 67t73.5 32q78 0 110 -43t17 -103q-10 -38 -42 -63t-66 -25q-47 -49 -82.5 -230t-47.5 -391.5t10.5 -417t82.5 -296.5q33 -5 64.5 -26.5t41.5 -51.5 q45 -122 -90 -147q-45 -10 -79.5 10.5t-43.5 60.5q-69 46 -114.5 176t-61 293.5t-2.5 331.5q-32 -17 -62 -20t-64 20t-54 78z" />
<glyph unicode="|" horiz-adv-x="483" d="M117.5 -131q2.5 36 21.5 61q-2 151 14.5 458.5t37.5 619.5t22 340q-17 24 -18.5 58t18.5 67q31 44 90.5 44.5t91.5 -42.5q16 -20 19 -45.5t-3.5 -45.5t-17.5 -38q-2 -100 -35.5 -692t-38.5 -730q17 -26 17 -61t-23 -68q-32 -41 -90.5 -40t-87.5 44q-20 34 -17.5 70z" />
<glyph unicode="}" horiz-adv-x="661" d="M-3 1495q11 51 58 82q14 9 31.5 11.5t34 0t35.5 -8.5t31 -12l25 -12.5l15 -7.5q78 -29 149.5 -252.5t104.5 -492.5q81 0 123 -29q48 -34 47 -98t-41 -98q-36 -24 -73.5 -21.5t-47.5 12.5q-1 -244 -47.5 -430t-107.5 -252q-14 -35 -50.5 -64t-78.5 -28q-56 3 -93 50.5 t-22 99.5q6 25 20 39.5t29 19.5l15 6q68 66 99 250t23.5 391t-46 407.5t-99.5 299.5q-61 -11 -108 39q-37 47 -26 98z" />
<glyph unicode="~" horiz-adv-x="1179" d="M54 1327.5q-17 59.5 18 99.5q22 24 54.5 32t61.5 1q66 35 152 55t152 3q59 -14 123 -46t99.5 -51t87 -11.5t111.5 56.5q223 185 221 103q0 -53 -78 -171q-41 -63 -61 -77q-71 -53 -131 -75t-111.5 -15t-90 22t-95.5 42t-98 40q-29 9 -55 10t-50.5 -6t-40.5 -14t-41.5 -21 t-37.5 -20q-2 -1 -15.5 -10t-27.5 -16.5t-36 -12t-42 3.5q-52 19 -69 78.5z" />
<glyph unicode="&#xa1;" horiz-adv-x="714" d="M216 -271.5q1 16.5 12.5 33t19.5 24t16 13.5q26 87 48.5 251t35 297.5t31.5 365.5q2 22 8.5 53.5t17 63t23.5 57t27.5 32t29 -8t29 -68t25.5 -142.5q17 -126 -18 -451t-81 -482q12 -18 13 -45.5t-21 -59.5q-29 -35 -70 -46.5t-80.5 7t-60.5 66.5q-6 23 -5 39.5zM365 1044 q-17 49 2 93t65 63t95.5 -2t62.5 -65q17 -49 -4 -95.5t-66 -60.5q-47 -17 -92 3.5t-63 63.5z" />
<glyph unicode="&#xa2;" horiz-adv-x="929" d="M68 389q8 114 33 192t69.5 125.5t94.5 72.5t126 44q-1 21 -6 94t-6 101q-27 46 -27 71q0 17 8 33q14 29 56.5 43t85.5 4t59 -43q6 -13 6.5 -31t-2 -31t-6.5 -28t-4 -16q3 -58 8 -117.5t6 -81.5q80 -24 156.5 -65t120.5 -90q32 3 54 -30t22 -73q0 -55 -51.5 -90 t-100.5 -12q-15 7 -28 25.5t-21 35.5t-10 19q-64 69 -140 96q2 -34 6 -149.5t9 -190t14 -154.5q167 119 193.5 93t-10.5 -108t-70 -108q-9 -8 -18.5 -14t-20.5 -10.5t-18 -6.5t-20.5 -6.5t-17.5 -5.5q8 -75 29 -167q0 -4 8.5 -27t12.5 -42.5t-2 -43.5q-14 -35 -56 -49 t-85 -1.5t-60 46.5q-5 10 -7 22t-1 24.5t2 21.5t3.5 19t2.5 11q-6 113 -16 158q-87 -6 -164 34.5t-125.5 106.5t-74 146t-17.5 153zM242 367q-2 -31 8 -70.5t31 -79t60 -66.5t87 -28q-8 87 -13 174.5t-10 191t-8 158.5q-75 -30 -109 -89.5t-46 -190.5z" />
<glyph unicode="&#xa3;" horiz-adv-x="1294" d="M72 -74.5q0 37.5 18 79t50.5 80.5t94 74.5t144.5 57.5q59 19 172 -8q0 6 4 22l-20 5q-18 -6 -38.5 -8.5t-47 4t-43.5 26.5q-37 47 -27 108t57 80q-37 48 -23 103.5t64 73.5q53 26 117 -19q6 -2 16 -2q0 5 1 18t1 19q-123 8 -198 23q-25 -15 -72 -8.5t-72 38.5 q-35 48 -14 109.5t70 75.5q12 4 23 6t20 2.5t18 -1t15 -3t13 -6t10.5 -6.5t9 -7.5t7.5 -7t6 -6.5l5 -6q14 -3 172 -19q10 58 42.5 122t79.5 120.5t112.5 95.5t133.5 43q28 3 60.5 -3.5t67.5 -22t61.5 -45t41.5 -68.5t7 -97t-41 -126q-20 -45 -68 -83t-107.5 -61.5t-114 -38 t-101.5 -20.5q0 -22 -4 -72q50 -15 90.5 -29t60.5 -20q188 -63 180 -105q-5 -30 -94 -36q-49 -3 -92 4q-71 14 -164 35l-2 -62q15 -6 52 -13.5t76.5 -13.5t47.5 -8q72 -17 114.5 -35.5t53.5 -33.5t5.5 -29.5t-28.5 -25t-50.5 -18t-57 -10.5t-51.5 -1q-4 0 -82 9.5t-111 10.5 q-6 -40 -10 -57q80 -43 209.5 -123t163.5 -96q95 5 125 -80q21 -55 -15 -102.5t-92 -49.5q-30 0 -57 16t-43 36q-42 20 -169.5 102.5t-176.5 112.5q-58 -146 -152 -207q-26 -19 -67.5 -31.5t-100 -15.5t-128 28t-130.5 97q-14 16 -21 44t-7 65.5zM263 -50q0 -10 7 -20 q17 -24 74 -36t86 10q26 20 66 129q-37 10 -62 4q-18 -4 -31.5 -7.5t-32 -9t-32.5 -10.5t-29 -12t-24 -14t-15.5 -15.5t-6.5 -18.5zM512 434q18 -5 40.5 -21t33.5 -36q6 57 14 80q-60 -31 -88 -23zM813 819q73 9 133.5 39.5t91.5 77.5q20 32 10.5 57.5t-47.5 22.5 q-58 -4 -112 -60.5t-76 -136.5z" />
<glyph unicode="&#xa4;" horiz-adv-x="968" d="M47 595q-14 115 20.5 228t112.5 183q-21 12 -45 24q-55 24 -56 77.5t42.5 85.5t95.5 5q53 -29 125 -90q179 77 354 25q41 75 103 122q23 18 48.5 21t45.5 -7t35 -28t20 -40t-3.5 -46t-31.5 -43q-49 -43 -61 -68q50 -50 76 -103.5t28 -117.5t-5 -115t-25 -133 q-9 -45 -64 -112q5 -6 17 -19.5t18.5 -21.5t16 -21t16.5 -26q16 -32 11 -62.5t-27.5 -48.5t-49 -25.5t-54.5 5.5t-44 45q-11 25 -37 55q-61 -40 -129 -63t-155 -23.5t-175 29.5q-41 -90 -45 -99q-16 -32 -43.5 -45t-53.5 -6t-48.5 24.5t-27.5 47t9 61.5q18 34 58 129 q-58 81 -72 196zM226.5 733.5q-17.5 -86.5 10.5 -163t91 -105.5q51 -23 112.5 -23t116 17.5t100.5 48.5q15 42 60 55q22 28 28 55q3 13 11.5 46.5t10.5 43t7 35t3.5 35t-3 29.5t-8 32.5t-16.5 29.5t-25 34q-37 43 -95 58t-116 6t-117 -35q-11 -11 -44.5 -27.5t-49.5 -30.5 q-59 -54 -76.5 -140.5z" />
<glyph unicode="&#xa5;" horiz-adv-x="1159" d="M31 1106q-19 67 19 116t122 35q75 -15 88 -90q27 -19 44.5 -32t40.5 -32.5t35.5 -31t44.5 -43.5t52 -52.5t73.5 -75.5t94.5 -97q16 16 116.5 115.5t170.5 166.5q0 70 29 101q21 24 57.5 24t69 -16.5t55 -46.5t18.5 -62q-1 -20 -23.5 -50t-43.5 -42q-31 -35 -83.5 -95.5 t-75 -86t-56.5 -63t-60 -63.5t-53 -52q-3 -8 -7 -17t-6.5 -16.5t-4.5 -17.5q145 -33 202 -37q93 -7 143.5 -21t56.5 -30t-11.5 -33t-53 -31t-74.5 -24t-71 -13q-114 -11 -219 8q-6 -52 -8 -61q114 -32 149 -35q84 -7 135.5 -19.5t65 -27t8.5 -31t-31 -31.5t-57 -27t-66 -19 t-61 -7q-62 0 -188 19q-34 -174 -76 -316q6 -72 -23 -104q-18 -19 -47.5 -30.5t-60.5 -12t-59 21t-40 64.5q-17 55 44 121q53 142 79 289q-11 3 -45 11t-47 11q-78 -38 -131 12q-41 44 -31.5 98.5t56.5 80.5q34 13 64 9.5t52 -14.5q69 -17 115 -26q6 57 6 59q-18 5 -55.5 16 t-48.5 13q-19 -6 -42.5 -8.5t-52.5 4.5t-46 26q-36 40 -22 99.5t65 79.5q34 9 65.5 1t46.5 -22q9 -2 38.5 -10.5t56.5 -15t42 -5.5q-73 74 -150 153t-103 105.5t-62.5 60t-60.5 50.5t-66 43q-33 5 -61.5 25.5t-36.5 54.5z" />
<glyph unicode="&#xa6;" horiz-adv-x="1077" d="M422 1471.5q-3 17.5 8 41.5q19 36 57 54.5t77.5 6t56.5 -57.5q10 -24 10.5 -41.5t-4.5 -24.5t-12 -14.5t-9 -12.5q-14 -124 -13 -283t19 -272q9 -61 -17 -118q-25 -56 -59 -35q-38 24 -71 145q-29 111 -36.5 263.5t9.5 297.5q1 2 -6 17.5t-10 33zM433 463.5 q-4 15.5 3 36.5q22 46 62 65t78 2.5t53 -65.5q5 -14 6.5 -26t-1 -21.5t-4 -14t-6.5 -12.5l-6 -8q-38 -355 5 -557q14 -69 -13 -117q-26 -46 -67 -18q-40 27 -78 120q-68 165 -16 570q1 3 -5.5 16.5t-10.5 29z" />
<glyph unicode="&#xa7;" horiz-adv-x="913" d="M86 924q2 39 15.5 89t44.5 109t75.5 106t115.5 76.5t157 24.5q19 -1 39 -5t36 -8.5t35 -12t31.5 -13t30 -15t24.5 -13.5t22 -13t17 -10q15 0 30.5 -3.5t36.5 -13t36.5 -33.5t19.5 -59q11 -78 -38.5 -112t-113.5 -17q-8 2 -16.5 6.5t-16.5 11.5t-14 13.5t-12.5 15 t-10 13.5t-8.5 13l-4 7q-38 36 -79 61.5t-58 10.5q18 -33 42.5 -81.5t62 -130.5t71 -166.5t64.5 -184t49 -188t18 -175t-24 -147.5q-2 -5 -12.5 -38t-21.5 -63t-37 -70t-58.5 -67.5t-87.5 -45.5t-123 -15q-20 -17 -39 -24t-49 -2t-66 28q-38 25 -51.5 72t5 93t65.5 66 q30 14 61 8.5t53.5 -18.5t36.5 -29q13 -6 34.5 6.5t21.5 20.5q6 87 -103 160q-78 56 -141.5 154.5t-100 206.5t-53.5 214t-12 187zM291 920q-5 -171 48 -325.5t177 -268.5q62 -58 76 -72q3 144 -68 333.5t-198 436.5q-32 -61 -35 -104z" />
<glyph unicode="&#xa8;" horiz-adv-x="806" d="M202 1199.5q-5 51.5 27 90.5q34 38 84 42.5t88 -29.5q37 -32 41.5 -81t-26.5 -87q-30 -37 -82 -43t-92 26q-35 30 -40 81.5zM515.5 1214.5q-3.5 51.5 29.5 88.5q31 35 82 39t88 -27q37 -32 40.5 -81t-28.5 -89q-30 -38 -81 -42t-93 30q-34 30 -37.5 81.5z" />
<glyph unicode="&#xa9;" horiz-adv-x="1181" d="M65.5 937.5q-29.5 145.5 12.5 287.5t145 235q103 90 249 113t287.5 -23t233.5 -149q92 -102 118 -242t-17.5 -275.5t-145.5 -228.5q-101 -91 -242.5 -119t-281 13t-234.5 141q-95 102 -124.5 247.5zM242.5 965q22.5 -97 87.5 -168q98 -107 247 -111t254 96 q108 98 115 246.5t-90 255.5q-101 108 -250.5 119.5t-259.5 -84.5q-73 -65 -99.5 -161t-4 -193zM334 1024q18 277 233 301q108 12 162 -27q27 4 59 -23.5t45 -64.5t-2 -71q-18 -30 -60 -44t-79.5 -1.5t-44.5 51.5q-39 34 -82.5 -14t-46.5 -115q-1 -34 28.5 -46.5t65 -3.5 t52.5 31q22 28 52.5 36t55.5 -4t43.5 -33t17.5 -51t-22 -58q-36 -44 -87 -69.5t-104 -30t-106 9.5t-93.5 43t-64.5 77.5t-22 106.5z" />
<glyph unicode="&#xaa;" horiz-adv-x="1005" d="M76.5 789.5q2.5 31.5 23.5 59.5t56 38q22 7 48 -2t29 -8q211 -22 410 -3q-22 16 -34 43.5t-5 55.5q-70 -48 -161 -55.5t-185 38.5q-104 54 -142 144t-11.5 181t102.5 159q63 55 130 77t118 16t96 -30l-11 27q-10 27 -8 35q21 52 66 68t86.5 -5.5t54.5 -68.5q6 -23 -1 -45 l-7 -21q9 -74 36.5 -238t27.5 -235q0 -2 8 -23.5t10 -41t-10 -50.5q170 27 173 -26q2 -37 -72 -89q-56 -38 -116 -57q-130 -38 -255 -47t-293 10q-3 -1 -13 -7t-19 -9.5t-25 -5t-31 5.5q-39 15 -58.5 46.5t-17 63zM274.5 1247q-13.5 -42 3.5 -81.5t62 -63.5q41 -20 76 -21 t58 15t40.5 36.5t27.5 47t15 43.5t6 28q4 18 -13.5 40t-25.5 26q-39 28 -70 38.5t-63.5 3.5t-64.5 -36q-38 -34 -51.5 -76z" />
<glyph unicode="&#xab;" horiz-adv-x="901" d="M39.5 622.5q5.5 184.5 261.5 354.5q13 38 35.5 54.5t64.5 21.5q58 6 93 -32.5t22 -100.5q-10 -50 -40 -72.5t-68 -13.5q-363 -250 18 -517q32 -10 58.5 -38t27.5 -64q1 -54 -51 -89.5t-103 -16.5q-34 13 -53.5 42.5t-19.5 61.5q-251 225 -245.5 409.5zM388 567 q4 56 22.5 102t55.5 96.5t73 88t84 80.5q5 31 29 61.5t57 34.5q53 6 95.5 -26t43.5 -84q1 -41 -31.5 -78t-64.5 -39q-24 -27 -56.5 -60t-52 -52.5t-41.5 -45t-31 -43t-14.5 -40.5t2.5 -43t25 -45t48.5 -52.5t76.5 -59.5q33 -2 65.5 -18t44.5 -47q23 -52 -18.5 -105.5 t-100.5 -48.5q-38 1 -63.5 26.5t-34.5 57.5q-80 58 -129.5 118t-69 113t-15.5 109z" />
<glyph unicode="&#xac;" horiz-adv-x="1339" d="M21 426q2 69 45 96q52 34 118 0q628 21 901 21q49 0 80 -4.5t59.5 -17.5t42 -40.5t13.5 -70.5q0 -10 -10.5 -79t-23.5 -159t-17 -139q16 -26 12.5 -66.5t-29.5 -68.5q-36 -40 -100.5 -32t-87.5 58q-12 36 -2 76.5t22 48.5q5 60 16 116.5t20.5 88.5t16 58t4 36t-15.5 10 q-429 0 -892 -20q-17 -11 -37.5 -18.5t-45.5 -9t-42 11.5q-49 35 -47 104z" />
<glyph unicode="&#xad;" d="M164.5 562.5q2.5 31.5 23.5 59t56 37.5q21 6 46.5 -2.5t28.5 -7.5q132 -17 349 -11t331 36q310 79 301 20q-5 -36 -115 -102q-91 -56 -161 -76q-126 -39 -332 -53t-370 6q-3 1 -16.5 -6.5t-28 -12t-39.5 2.5q-38 15 -57 46.5t-16.5 63z" />
<glyph unicode="&#xae;" horiz-adv-x="1284" d="M53 953q0 142 39 276.5t113 206.5q106 103 235.5 149.5t251 36t231.5 -66.5t185 -150q83 -106 99.5 -282.5t-35 -346.5t-150.5 -262q-75 -69 -187.5 -113.5t-228.5 -56.5t-227 19t-180 104q-70 74 -108 209t-38 277zM231 1090q-24 -141 3.5 -282t95.5 -214 q63 -69 172.5 -82t218.5 23.5t182 105.5q74 65 114.5 192.5t28.5 257.5t-77 199q-85 90 -195 128.5t-230 10t-218 -128.5q-71 -69 -95 -210zM379.5 950.5q7.5 34.5 30.5 44.5q7 32 2.5 74t-12.5 70t-9.5 56t10.5 32q9 6 37.5 26t47.5 32.5t52.5 29t59.5 21.5t61 3t64.5 -18 t62.5 -50.5t62 -86.5q6 -16 7 -38.5t-13.5 -52.5t-35 -58t-58.5 -55t-84 -44q28 -4 61.5 -8t47.5 -6.5t41 -10t65 -22.5q13 6 34.5 -13t28.5 -36q30 -79 -61 -113q-20 -8 -49 12.5t-35 32.5q-5 2 -85 17.5t-153 41.5q6 -94 7.5 -99t2.5 -23q2 -8 8.5 -22t10 -23t3 -19.5 t-8.5 -17.5q-22 -21 -48.5 -33.5t-55.5 -9t-46 29.5q-35 50 -4 101q-1 30 2 49.5t2 83.5q-32 3 -46 35.5t-6.5 67zM522 1163q5 -22 9 -37.5t5.5 -21t3.5 -15.5t3.5 -26t3.5 -49q88 36 141 70t43 57q-28 61 -100 68t-109 -46z" />
<glyph unicode="&#xaf;" horiz-adv-x="823" d="M89 1148.5q11 51.5 65 76.5q56 30 116 -21q35 -2 91.5 -7.5t79 -6t65.5 2t96 11.5q165 27 154 -24q-8 -38 -101 -103q-29 -20 -37 -22q-105 -31 -165 -33t-203 14q-18 -11 -37.5 -16t-45 1.5t-46.5 29.5q-43 46 -32 97.5z" />
<glyph unicode="&#xb0;" horiz-adv-x="862" d="M98.5 1039q-5.5 60 7.5 116q12 46 51.5 101.5t99.5 105.5t133.5 71t154.5 -3q283 -94 272 -383q-2 -65 -24 -116.5t-56.5 -84t-84 -55.5t-99 -34.5t-109.5 -17.5q-67 -7 -129.5 16.5t-105.5 67t-74 100t-36.5 116.5zM279 1112q-8 -82 38 -142.5t132 -56.5 q75 5 135.5 42.5t56.5 88.5q-7 81 -33.5 136.5t-85.5 76.5q-90 30 -162 -15t-81 -130z" />
<glyph unicode="&#xb1;" horiz-adv-x="1153" d="M191 320.5q2 31.5 23.5 59.5t57.5 38q21 6 46 -2.5t28 -7.5q264 -28 541 45q136 36 129 -21q-4 -43 -75 -112q-23 -22 -32 -27q-117 -59 -257 -74t-300 8q-5 1 -18.5 -6.5t-28 -12t-39.5 2.5q-38 15 -57.5 46.5t-17.5 63zM219 853q3 32 24 61t56 40q37 10 61 -6 q79 -10 162 -2q3 123 -6 187q0 4 -7 18t-10 28.5t5 41.5q16 40 46.5 59t61.5 15.5t58.5 -25t38.5 -56.5q6 -16 5.5 -30.5t-3.5 -22t-8.5 -17t-6.5 -11.5q13 -99 13 -185q110 0 145 6q213 34 201 -19q-8 -38 -118 -105q-48 -29 -65 -33q-104 -22 -165 -29q0 -34 -1 -82 t-1 -102q30 -36 10 -88q-20 -51 -64 -67.5t-84 1t-55 53.5q-18 50 10 97q0 104 2 172q-23 0 -73.5 -1t-71.5 -1q-31 -27 -88 -7q-38 15 -56.5 46.5t-15.5 63.5z" />
<glyph unicode="&#xb2;" horiz-adv-x="1214" d="M200.5 1401q-0.5 27 8.5 63q3 17 19 32.5t32 24t33.5 16.5t19.5 9q151 55 249.5 69.5t155.5 -0.5t120 -59q69 -43 67.5 -122t-78.5 -164q-34 -37 -71.5 -64t-89 -59.5t-93.5 -63.5q10 0 45 0.5t67 3t75 7.5q15 6 58.5 6t55.5 -10q39 -8 54.5 -44.5t7.5 -75.5t-37 -69 t-68 -27q-9 0 -50 13t-46 14q-56 -7 -110.5 -2t-149.5 -4q-14 -8 -36.5 -22t-34 -20t-29 -13.5t-28.5 -5.5t-26 8.5t-28.5 24t-28.5 44.5q-28 47 15 120t86 97q94 70 173.5 126t101.5 71.5t38.5 32t34.5 45.5q16 26 -33 35q-78 15 -203 -23q-37 -11 -71 -26q-3 -2 -24 -21.5 t-41 -34t-30 -12.5q-57 12 -83.5 32.5t-27 47.5z" />
<glyph unicode="&#xb3;" horiz-adv-x="866" d="M76 1389q7 16 25.5 29t38.5 21.5t22 10.5q115 83 217.5 114t175 18.5t131.5 -56.5q50 -37 64.5 -109t-15 -136.5t-94.5 -80.5q94 -32 132 -78t38 -129q0 -134 -109.5 -208.5t-318.5 -55.5q-15 0 -37 -8.5t-40 -5.5t-44 26q-38 34 -39.5 80.5t29.5 71.5q19 16 43.5 17 t42.5 -4.5t20 -4.5q50 -5 88.5 -6t81 5t64.5 27.5t18 57.5q-3 35 -32.5 49.5t-69 11.5t-81 -4t-69.5 2q-56 11 -78 43t-3 68.5t73 61.5q119 55 153 80q53 40 42 79q-46 24 -67 26q-62 4 -193 -89q-64 -64 -105 -64q-52 2 -88 48.5t-16 91.5z" />
<glyph unicode="&#xb4;" horiz-adv-x="966" d="M331 987q6 37 91 121q39 38 58 76t20.5 65t3.5 69.5t10 74.5q19 80 85 81t117 -54t32 -111q-6 -18 -17 -54t-18 -54.5t-22.5 -49t-33.5 -51t-49.5 -45t-72.5 -45.5q-51 -27 -122 -44q-89 -21 -82 21z" />
<glyph unicode="&#xb5;" horiz-adv-x="1251" d="M23.5 -304q-0.5 13 1 22t7.5 22.5t9 19t11 18.5t9 15q8 92 9 206t-1.5 195.5t3 175.5t21 166.5t55 148t102.5 138.5q52 52 88 -11q35 -64 29 -180q-4 -66 -23 -118q-26 -71 25 -176q23 -49 60 28q14 28 80 203q80 214 142 285q21 24 65.5 32t83.5 -4.5t46 -41.5 q24 -109 38 -194t18.5 -167.5t5.5 -117t-2 -127.5t-3 -113q0 -8 -5 -23q-4 -13 0 -14l5 2q20 10 39.5 25t31 26.5t31.5 33t31 32.5q45 46 82.5 72.5t61 30.5t36 -9t10.5 -40t-19 -68.5t-48 -88.5q-38 -57 -75 -94.5t-97 -83.5q-55 -43 -107.5 -52t-90 14t-57.5 78.5 t-13 133.5q22 243 8 434q-7 95 -20 86q-3 -1 -5 -6q-11 -22 -31 -90.5t-41 -136t-69 -158.5t-112 -164q-34 -38 -72.5 -24.5t-70.5 52.5t-52 89q10 -94 6.5 -180t-22.5 -225q13 -17 9.5 -63t-28.5 -62q-24 -15 -61 -23t-76 2.5t-53 44.5q-5 11 -5.5 24z" />
<glyph unicode="&#xb6;" horiz-adv-x="1013" d="M73 978.5q1 39.5 13 65.5q36 76 85.5 126t105 70t118 23.5t123.5 -14.5l-8 12t-8 13l-6.5 13t-5 15.5t-1.5 15.5t1.5 19t7.5 21q21 50 74.5 64t101.5 -25q63 -51 16 -142q3 -14 10 -38q18 47 74.5 61t104.5 -21q32 -25 28 -79q24 -4 46.5 -28t33.5 -52.5t-4.5 -55.5 t-60.5 -36q4 -56 14.5 -185t15.5 -196t12 -177t9 -176.5t3 -144.5t-4 -131.5t-14 -89.5q10 -19 15 -41t-1.5 -50.5t-29.5 -47.5q-47 -38 -102.5 -25t-75.5 65q-18 47 14 109q46 277 -12 1106q8 0 -9 3l-30 5q33 -225 41 -405.5t-0.5 -276t-21.5 -221.5t-15 -215 q10 -19 15 -41t-1.5 -50.5t-29.5 -47.5q-48 -38 -102.5 -24.5t-75.5 65.5q-18 46 14 108q9 123 25 284t24 267q-96 11 -178 42.5t-138 74.5t-99 94t-66.5 103.5t-35 102t-10.5 89zM238 963q-5 -13 1.5 -41.5t31 -69t64 -80t110.5 -74.5t159 -51q5 204 -51 418 q-137 33 -203 13t-112 -115z" />
<glyph unicode="&#xb7;" horiz-adv-x="2048" d="M875 104q0 66 47 111q49 47 120 43.5t115 -55.5q43 -50 41 -114t-51 -109q-50 -45 -116 -41.5t-111 51.5t-45 114z" />
<glyph unicode="&#xb8;" horiz-adv-x="997" d="M293 -90q-12 51 12 149.5t49 110.5q29 10 60.5 1.5t52.5 -35.5t10 -54q-10 -20 -20 -59.5t2 -59.5q21 -24 46 -21t58.5 16t64 28t62.5 15t53 -24q31 -40 27 -98t-39 -124.5t-80 -123t-94.5 -94t-83.5 -37.5q-23 -12 -96.5 32.5t-77.5 86.5q-11 58 27.5 95t101.5 22 q54 -11 72 -47q51 32 92.5 86.5t23.5 77.5q-10 12 -36 11.5t-58.5 -12t-69.5 -18.5t-68.5 -8t-56.5 20t-34 64z" />
<glyph unicode="&#xb9;" horiz-adv-x="937" d="M246 1316q-12 43 26 83q74 78 144 96q54 15 88 -25q45 -30 45 -86q0 -11 -10.5 -29.5t-10.5 -19.5q-5 -92 -5 -119.5t3 -106.5t4 -136q1 -4 3.5 -11.5t4.5 -16.5t1 -19q-7 -36 -39 -59.5t-67.5 -26.5t-66.5 22.5t-36 75.5q1 13 9.5 20t6.5 15q-3 29 -5 53t-3.5 45.5 t-2.5 36t-1 33v26.5t1 26t1 22.5t2 24.5t2 24q-10 -23 -44 -7q-39 19 -50 59z" />
<glyph unicode="&#xba;" horiz-adv-x="960" d="M43.5 840.5q2.5 31.5 23.5 59.5t56 38q21 6 46 -2.5t28 -7.5q334 -36 528 24q201 63 206 6q3 -37 -67 -97q-63 -53 -114 -66q-75 -19 -129.5 -30t-124 -19.5t-142 -8t-151.5 10.5q-5 1 -18.5 -7t-28 -12.5t-39.5 2.5q-38 15 -57 46.5t-16.5 63zM141.5 1152.5 q-8.5 42.5 5.5 98t38 106.5t65 120q34 59 117 84.5t175.5 6.5t149.5 -79q64 -67 74 -145t-18 -187q-9 -38 -28 -76t-57.5 -76.5t-88.5 -57.5t-127.5 -9.5t-167.5 57.5q-62 32 -95.5 73.5t-42 84zM318.5 1209.5q1.5 -36.5 33.5 -52.5q28 -13 58.5 -21.5t64 -10.5t59 13.5 t35.5 47.5q5 17 11.5 40t9 31.5t4.5 22t1.5 18.5t-3.5 14.5t-8.5 16t-14.5 17.5q-35 40 -90.5 42.5t-89.5 -34.5q-31 -32 -51.5 -70t-19 -74.5z" />
<glyph unicode="&#xbb;" horiz-adv-x="901" d="M53 170q-1 41 32 78t65 39q24 27 56.5 60t52 52.5t41.5 45t31 42.5t14.5 40t-2.5 43t-25 45t-48.5 52.5t-76.5 59.5q-33 2 -66 18.5t-45 47.5q-23 52 18.5 105t100.5 48q38 -1 63.5 -26.5t34.5 -57.5q80 -58 129.5 -118t69 -112.5t15.5 -108.5t-22.5 -102t-55 -96.5 t-72.5 -88t-84 -80.5q-5 -32 -29 -62.5t-57 -34.5q-53 -6 -96 26.5t-44 84.5zM385 170q10 50 40.5 72.5t68.5 13.5q362 249 -19 516q-32 10 -58.5 38t-27.5 64q-1 54 51 90t103 17q34 -13 53.5 -42.5t19.5 -61.5q251 -225 245.5 -409.5t-261.5 -354.5q-13 -38 -35.5 -54.5 t-64.5 -21.5q-58 -6 -93 32.5t-22 100.5z" />
<glyph unicode="&#xbc;" horiz-adv-x="937" d="M40.5 680q-11.5 39 5.5 73t48 50q13 8 24.5 11.5t22 2.5t16.5 -2t15.5 -5t11.5 -5q75 -8 176 1t212.5 24t166.5 18q29 0 100.5 -17t71.5 -36q0 -16 -21.5 -33.5t-55 -32t-51.5 -22t-31 -11.5q-333 -91 -566 -61q-2 1 -17 -6.5t-32 -13t-41 2.5q-44 23 -55.5 62zM90 231 q-6 36 30.5 69.5t100.5 57.5q137 99 183 126q47 27 151 77q1 0 13 7.5t19 12t22.5 13.5t26.5 14.5t27.5 13.5t28.5 12.5t27 9.5t26 6.5t21.5 0.5t17.5 -6q16 -10 29.5 -30t19.5 -49t-10 -60q-8 -16 -29.5 -24.5t-37.5 -6.5q-4 -12 -12 -39t-10 -35t-7.5 -28.5t-7.5 -35.5 t-6 -40t-8 -57q11 0 17.5 1.5t14.5 0.5q25 8 58 2q50 -20 66 -59t1 -74.5t-47 -51.5q-22 -6 -31 -6.5t-30.5 3.5t-28.5 5q-9 2 -12 1.5t-21 0.5q0 -29 2.5 -88.5t3.5 -93.5q0 -1 7 -24t6 -37q-3 -36 -34 -58.5t-68 -24t-69.5 22.5t-37.5 70q-1 12 6 27t6 22q-1 43 -1 106.5 t-1 96.5q-134 25 -256 59q-56 -1 -104.5 29.5t-61.5 60.5zM242.5 1436q2.5 53 54.5 80q40 21 89.5 62.5t62.5 51.5q57 38 111 18t73 -87q4 -20 1.5 -32t-8 -25t-5.5 -17q-2 -43 -2 -133t-6.5 -169t-26.5 -179q-1 -7 9 -34t-5 -46q-25 -51 -79.5 -59t-102.5 36 q-14 15 -20.5 30.5t-5 29.5t5 23.5t9 20.5l6.5 13q37 180 37 366q-31 -23 -65 -38q-52 -27 -93.5 4t-39 84zM393 287q70 -16 137 -29q6 34 16.5 77.5t10.5 45.5q-93 -44 -164 -94z" />
<glyph unicode="&#xbd;" horiz-adv-x="937" d="M89 428q-6 32 9 57q11 23 27 36.5t29 16t26.5 3.5t14.5 2q160 59 272 85.5t198.5 22.5t143.5 -43q67 -41 66 -120t-76 -164q-42 -46 -166 -106.5t-172 -96.5q89 3 270 26q79 26 123 -8q48 -38 42.5 -99.5t-52.5 -94.5q-17 -12 -40 -13.5t-38.5 2.5t-36.5 12.5t-22 8.5 q-57 -8 -142 -2.5t-182 -3.5q-12 -7 -35.5 -22t-35 -21.5t-30.5 -14.5t-31 -6.5t-28 7.5t-29.5 23t-27.5 44q-25 46 19.5 123t86.5 100q102 75 188 125.5t123.5 66t63.5 34.5t37 49q10 26 -44 25q-95 -2 -271 -64l-84 -33q-4 -2 -26 -29t-36 -30q-35 -12 -66 1.5t-46.5 41 t-21.5 59.5zM105 753.5q-2 53.5 34 86.5q14 13 28 19t27 5.5t21 -2.5t18.5 -6.5t12.5 -5.5q75 -8 176 1t212.5 24t166.5 18q29 0 100.5 -17t71.5 -36q0 -16 -22 -33.5t-55 -32t-51 -21.5t-32 -12q-309 -87 -545 -63q-75 -36 -125 -2q-36 24 -38 77.5zM285 1423q12 62 63 88 q29 14 68 49.5t67 49.5q53 23 91 2.5t59 -76.5q8 -31 5.5 -49t-10 -36.5t-7.5 -20.5q-2 -29 -3.5 -78t-3 -72.5t-6 -65.5t-12.5 -89.5t-21 -112.5q-2 -8 1.5 -27.5t2.5 -40.5t-14 -37q-27 -32 -71 -35.5t-79.5 16.5t-43.5 50q-7 31 -3 47t15.5 32.5t11.5 18.5q7 62 22 162 t19 152q-82 -60 -127 -18q-34 32 -24 91z" />
<glyph unicode="&#xbe;" horiz-adv-x="913" d="M61 225q-9 35 24.5 71.5t94.5 65.5q110 97 154 130t162 102q2 0 2 2q-145 -19 -279 -4q-1 1 -42 -8.5t-58 0.5q-27 18 -43 47t-10 64.5t43 62.5q40 31 108 4q34 -6 295 18.5t262 24.5q28 0 99 -17t71 -36q0 -16 -22 -33.5t-55 -32t-51 -21.5t-32 -12q21 -42 -10.5 -84.5 t-71.5 -44.5q-2 -11 -7 -34.5t-6 -30.5t-4 -25.5t-4.5 -29t-3 -29.5t-3 -39.5t-2.5 -48.5q9 1 15 2.5t7.5 2t10.5 -0.5q33 11 57 6q52 -15 72.5 -50.5t8.5 -71.5t-46 -58q-21 -17 -36 -18t-29.5 5.5t-22.5 6.5h-33q2 -29 9.5 -88.5t10.5 -92.5q0 -1 9.5 -24t9.5 -37 q0 -48 -47 -75t-98.5 -10t-63.5 77q-2 13 3.5 27.5t4.5 21.5q-4 48 -10 113t-8 90q-101 10 -260 37q-57 -7 -109 19.5t-66 55.5zM123 1421q4 27 19.5 43t34.5 25t22 12q51 51 89.5 78.5t83 40t93 7.5t115.5 -25q72 -20 120.5 -64.5t61.5 -95.5t-19 -105.5t-110 -91.5 q92 -37 148 -137.5t10 -192.5q-18 -35 -45 -58.5t-61.5 -35.5t-78.5 -17.5t-96 -5.5h-113q-35 1 -53 1q-1 0 -26.5 -6t-51 -4t-45.5 18q-38 30 -42.5 80t38.5 92q15 13 36 16t37 0t33.5 -8.5t20.5 -5.5q32 -2 75.5 -7t65.5 -7t47.5 0.5t41.5 14.5t28 36q11 22 8 30.5 t-24 18.5q-7 3 -19.5 9.5t-16.5 8t-13 6t-12.5 5.5t-11 3.5t-12.5 3t-12.5 1.5t-15.5 1t-17 0.5t-22 0.5q-54 0 -83 27.5t-22 67t50 71.5q33 25 93.5 56t88.5 50.5t14 34.5q-61 59 -131 53.5t-133 -65.5q-3 -3 -3 -18.5t-5.5 -34.5t-23.5 -33q-17 -13 -46 -15t-56.5 8 t-44 40t-9.5 73zM358 307q72 -11 140 -16q3 32 7.5 70.5t6.5 52.5q-91 -53 -154 -107z" />
<glyph unicode="&#xbf;" horiz-adv-x="1140" d="M49 -139.5q-6 64.5 6 125t43.5 129t67.5 125.5t87.5 124t93.5 115.5t94 108.5l13.5 15t11.5 13t13 15l2 2q-5 -1 -16 -5t-22 -6.5t-21 -3.5q-6 -2 -25.5 -10t-28.5 -9.5t-25.5 2t-33.5 15.5q-32 25 -41 67t11.5 80t64.5 50q34 6 43.5 3t25 -14t31.5 -14q15 -4 42 3 t51.5 14t60 2t68.5 -29q20 -18 22 -66t-21 -110t-67 -108q-219 -214 -322 -399.5t-36 -274.5q23 -30 50.5 -47t54.5 -24t63 -1t64.5 14.5t71.5 29.5t72.5 37t77.5 44q84 51 113 77q56 50 90 130q-6 22 -3 55t15 47q26 27 54 36.5t50.5 1.5t42.5 -24t29.5 -39.5t13 -45.5 t-8.5 -41q-4 -9 -15.5 -23t-11.5 -18q-15 -40 -31.5 -72.5t-37.5 -60t-36.5 -46t-43 -41t-42.5 -34t-50.5 -36t-51.5 -36.5q-35 -26 -102 -51.5t-153 -40.5t-169 -13t-155.5 37t-106.5 103q-31 58 -37 122.5zM454 973.5q4 58.5 38 93.5q32 31 92 22t90 -53q28 -40 23 -87 t-42 -79q-39 -33 -91 -28.5t-85 41.5q-29 32 -25 90.5z" />
<glyph unicode="&#xc0;" horiz-adv-x="1187" d="M-10.5 -96.5q2.5 13.5 4.5 19.5t12.5 21t13.5 21q20 55 54 144.5t61 164.5t55 162q-99 -15 -130 49q-25 49 6 108q34 63 99 71q42 6 87 -15q9 21 35 82t35 82l31.5 73.5t32.5 74.5t30.5 66t32 66.5t30.5 58t33.5 59.5t32 51t35.5 51q99 -109 201 -271t165 -301 q66 6 103 2t51.5 -16t12.5 -27.5t-15 -33t-31 -33t-35 -26.5t-28 -15q27 -75 49.5 -162.5t31.5 -131.5t27 -155.5t21 -128.5q19 -19 26 -49t-2 -61q-11 -36 -52 -55.5t-84.5 -13t-62.5 39.5q-9 16 -10 33.5t3.5 41.5t4.5 32q-19 126 -28.5 182t-37 171t-61.5 208l-438 -72 q-47 -144 -115.5 -330.5t-74.5 -203.5q11 -26 11 -45t-11 -42q-15 -32 -55.5 -41.5t-79.5 1.5t-54 34q-13 18 -19 32t-3.5 27.5zM279 1534q-6 43 15 75.5t54.5 43t77.5 -8.5t80 -71q134 -196 93 -224q-21 -15 -67 17l-12 10q-13 12 -54 24.5t-78.5 24t-70.5 40t-38 69.5z M459 664l303 41q-28 58 -92.5 162.5t-79.5 131.5q-16 -38 -59.5 -152t-71.5 -183z" />
<glyph unicode="&#xc1;" horiz-adv-x="1187" d="M45 -198.5q6 19.5 17.5 40t11.5 21.5q10 89 50.5 280.5t80.5 319.5q29 11 30 16q1 4 -15 6h-5q-28 7 -46.5 38.5t-18.5 62.5q0 98 92 98h30q161 358 365 627q181 -204 330 -533q15 1 20.5 -2.5t13.5 -1.5q45 14 69 -10.5t13 -64t-53 -62.5q-6 -6 -10 -8 q16 -44 29.5 -85.5t25.5 -90t19 -76t17 -84.5t13 -72t13.5 -83t11.5 -75l31 -92q-11 -29 -37 -51.5t-56 -32t-62 -2.5t-54 31q-12 19 -10.5 41t8 48t6.5 28q-53 346 -129 547l-445 -70q-50 -162 -93 -356t-56 -289q28 -66 14 -92q-48 -75 -114 -74.5t-105 63.5 q-8 20 -2 39.5zM469 700l311 41q-20 42 -42.5 84t-54 99t-46.5 84q-115 -168 -168 -308zM544 1310q-52 21 104 136q2 1 3 2q59 44 81 65.5t39.5 46.5t47.5 56q26 24 59.5 24.5t60 -17.5t47 -46t19.5 -61t-22 -62q-22 -26 -45 -45t-56 -33t-46.5 -19t-57.5 -16t-49 -12 q-152 -32 -185 -19z" />
<glyph unicode="&#xc2;" horiz-adv-x="1187" d="M56 -197q4 19 11 39t7 21q10 89 50.5 280.5t80.5 319.5q29 11 30 16q1 4 -15 6h-5q-28 7 -46.5 38.5t-18.5 62.5q0 98 92 98h30q161 358 365 627q181 -204 330 -533q15 1 20.5 -2.5t13.5 -1.5q45 14 69 -10.5t13 -64t-53 -62.5q-6 -6 -10 -8q16 -44 29.5 -85.5t25.5 -90 t19 -76t17 -84.5t13 -72t13.5 -83t11.5 -75q0 -1 8.5 -13.5t16.5 -32t6 -35.5q0 -39 -30 -66.5t-67 -34t-71 10t-41 55.5q-5 23 -0.5 54t4.5 32q-53 346 -129 547l-445 -70q-50 -162 -93 -356t-56 -289q31 -72 14 -103q-29 -49 -74.5 -63t-83.5 5t-51 58q-5 22 -1 41z M289 1329q20 60 80 68q92 145 286 215q43 -21 78 -47.5t57 -49t46 -59.5t34.5 -57t32.5 -64q26 -3 48 -23.5t30 -60.5q12 -62 -26 -101t-93 -28q-42 4 -64 38t-20 67q-3 5 -13 22.5t-12.5 22.5t-11 19.5t-12 19.5t-11.5 17t-13 18t-13.5 16t-16 17t-17 15.5t-19.5 16.5 q-21 -10 -40 -23t-31 -23.5t-25.5 -27t-18.5 -24t-15.5 -24.5t-12.5 -19q-4 -35 -28 -59.5t-75 -24.5q-59 -4 -89.5 41.5t-14.5 101.5zM469 700l311 41q-20 42 -42.5 84t-54 99t-46.5 84q-115 -168 -168 -308z" />
<glyph unicode="&#xc3;" horiz-adv-x="1224" d="M24 -107.5q-2 21.5 3.5 34t14 27t9.5 17.5q16 44 52.5 141.5t62 169.5t53.5 160q-27 3 -53 29q-34 36 -25.5 91.5t45.5 78.5q45 26 99 14q16 39 56 134t56.5 132.5t49 110t54 112t51.5 88.5t60 87q96 -110 198 -272.5t165 -298.5q56 5 87.5 0t41 -18.5t6.5 -30t-16 -35 t-26.5 -33.5t-24.5 -25l-11 -10q19 -51 35 -107t26 -94t22.5 -102.5t16.5 -88t15.5 -98.5t13.5 -88q0 -1 4.5 -11.5t9 -24t6 -31.5t-4.5 -33q-15 -39 -42 -58t-55 -18t-52.5 11t-39.5 26q-20 28 -19 46t10 39t9 24q-18 114 -29 179t-38.5 177t-61.5 205l-436 -72 q-45 -136 -113 -318t-78 -216q-4 -15 5.5 -40.5t-5.5 -45.5q-20 -35 -49.5 -49.5t-56.5 -9t-49.5 19.5t-34.5 32q-15 21 -17 42.5zM207 1365q0 34 20 62q18 26 49.5 37t61.5 6q79 57 174.5 85t136.5 8q18 -8 41 -21.5t41 -25t39.5 -23t39 -17t37 -5t36.5 9.5q226 128 242 68 q11 -38 -60 -125q-68 -81 -125 -107q-8 -4 -16 -6q-50 -12 -88 -13.5t-66 7.5t-48 20.5t-51 29.5t-59 29q-15 6 -29 8.5t-29.5 -1t-26.5 -6.5t-29.5 -13.5t-27.5 -16t-31 -20t-31 -20.5q-14 -30 -45 -46.5t-76 -4.5q-38 10 -59 38.5t-21 62.5zM489 672l302 39 q-28 58 -92.5 162.5t-80.5 132.5q-8 -19 -52.5 -137.5t-76.5 -196.5z" />
<glyph unicode="&#xc4;" horiz-adv-x="1183" d="M2 -105q4 36 25 62q12 98 50.5 275.5t86.5 332.5q-47 0 -74 32t-15 78t68 81q30 18 84 10q201 467 361 682q142 -162 332 -596q57 7 96.5 7.5t58.5 -5.5t26.5 -15.5t0 -23t-19 -27t-32 -29.5t-39 -28.5t-38.5 -25.5q82 -223 143 -637q56 -56 25 -123q-15 -36 -49 -54 t-70.5 -13t-60.5 30q-26 26 -29 67.5t12 65.5q-68 415 -145 616l-447 -69q-20 -65 -40 -139.5t-38.5 -153.5t-30 -132t-26.5 -126.5t-18 -85.5q18 -21 18 -54t-18 -63q-28 -45 -86.5 -49.5t-92.5 37.5q-22 37 -18 73zM291 1515.5q-3 50.5 28 88.5q30 39 82 42t91 -30 q36 -30 39.5 -80.5t-29.5 -87.5q-30 -38 -79 -42t-91 30q-38 29 -41 79.5zM420 778l313 43q-45 104 -143 316q-105 -182 -170 -359zM678 1460q-4 51 27 88q31 34 81.5 38.5t90.5 -25.5q36 -29 40 -78.5t-26 -87.5q-29 -41 -81.5 -46.5t-92.5 29.5q-35 31 -39 82z" />
<glyph unicode="&#xc5;" horiz-adv-x="1275" d="M88 -184q-20 57 27 116q16 110 54 290t85 329q-42 6 -56.5 58.5t11.5 90.5q17 27 48.5 38.5t59.5 6.5q50 116 82 181.5t76 131.5t95.5 112t125.5 92q77 -88 121.5 -142.5t99 -135t91.5 -157.5q76 6 121 3.5t56.5 -16t6.5 -29t-29 -36t-48.5 -37t-53.5 -32.5 q35 -98 65 -227.5t43.5 -206.5t32.5 -203q51 -44 27 -121q-14 -50 -64.5 -64t-89.5 13q-32 20 -41 64t2 71q-72 419 -149 627l-447 -70q-69 -229 -151 -637q20 -27 18.5 -70.5t-26.5 -70.5q-40 -44 -107 -33.5t-86 64.5zM379 1473q-3 82 67 139t156 49q76 -8 127 -59 t55 -125q4 -84 -54.5 -145.5t-143.5 -63.5q-81 -1 -143 66t-64 139zM508 754l311 41q-15 33 -35.5 68t-35 56.5t-42 61t-38.5 55.5q-92 -100 -160 -282zM535 1473q0 -21 18 -35.5t39 -14.5q20 0 33.5 10.5t13.5 28.5q0 51 -31 51q-73 0 -73 -40z" />
<glyph unicode="&#xc6;" horiz-adv-x="1857" d="M59 -74q-28 72 27 123q8 35 30 143.5t37.5 174t46.5 160t68 165.5q-21 9 -39 39q-22 35 -25.5 64.5t8.5 50t29 34t38 21.5q41 15 96 -4q34 69 73.5 128t77 102t85 82.5t86.5 65t93.5 54.5t92.5 46t98 44t98 45q21 10 48 0.5t45 -30.5t22.5 -48.5t-18.5 -54.5 q62 -2 159.5 0.5t152 2.5t120 -12.5t112.5 -39.5q7 -3 18 -8.5t36.5 -24.5t40 -39.5t14.5 -52.5t-25 -65q-27 -34 -55.5 -45t-50.5 -4t-42.5 26t-32.5 37t-21 35q-42 21 -118.5 23t-187.5 -5t-168 -6q-44 -209 -47 -225q61 0 144 6t148.5 5t146.5 -15q154 -25 147 -75 q-5 -39 -98 -78q-69 -29 -90 -23q-171 27 -406 2q-59 -442 -43 -639q64 6 230.5 28t304.5 31q31 0 64 -29.5t46.5 -68.5t-2.5 -78q-16 -32 -57.5 -43.5t-80.5 -4.5t-60 23q-91 -8 -238 -23t-182 -18q-4 -33 -15 -47q-82 -79 -163 -18q-20 14 -27 51q-3 1 -11 2.5t-11 2 t-9.5 2t-9.5 2.5t-8.5 3.5t-9 5t-7.5 6t-8 7.5q-31 30 -30 79t38 62q7 2 21 0t20.5 -3.5t10.5 5.5q-6 27 -2 128.5t8.5 164.5t13 180t12.5 176l-389 -35q-30 -50 -56.5 -107t-45.5 -106t-35.5 -106t-26.5 -97t-19.5 -91t-13 -75.5l-9 -63t-5.5 -40.5q24 -68 -20 -118 q-23 -26 -65 -27.5t-78 15t-46 40.5zM569 883l318 22l-4 -9q1 1 2 3q12 48 32 129t29 119q-34 13 -45 22q-207 -95 -332 -286z" />
<glyph unicode="&#xc7;" horiz-adv-x="1296" d="M82.5 685q-0.5 72 11.5 151q12 81 44.5 161t80.5 150t110.5 128t135.5 95t155 51t168 -4q340 -66 435 -379q22 -19 34.5 -53t2.5 -67t-42.5 -55.5t-68.5 -23.5t-66 21q-52 47 -34 113q-26 67 -50.5 110t-57.5 72.5t-69 47t-94 34.5q-76 19 -145.5 3.5t-130 -59 t-107.5 -105t-78.5 -134.5t-42.5 -147q-9 -60 -10 -112.5t7 -94.5t17.5 -76.5t29 -64.5t35 -51.5t41.5 -44t42.5 -35t44.5 -32.5t41 -30q150 -102 361 127q42 46 74.5 68.5t50.5 21t29 -15t12.5 -37.5t-0.5 -48.5t-8.5 -47t-14.5 -33.5q-55 -84 -137.5 -145.5t-184.5 -87.5 t-206 10q-15 -64 30.5 -69.5t114.5 22.5q28 8 42.5 12t40 9.5t42 6t35.5 -0.5t33.5 -8.5t25.5 -19.5q34 -37 39.5 -88t-16 -102t-61 -96t-100.5 -76t-130 -37q-38 -3 -104.5 16t-81.5 60q-1 3 -3.5 8t-6 20t-4 28.5t5 30t19 29t40.5 21.5t65 10q42 5 82 -41q38 -8 72 7.5 t47.5 40.5t-0.5 42q-7 -1 -38.5 -7t-60 -9.5t-68.5 -7t-73 1.5t-65 16t-54 36.5t-30 62.5q-4 20 -3.5 40t2 30.5t8 43l9.5 47.5q-40 36 -66.5 63t-61.5 69t-57 79.5t-44 91.5t-31 109.5t-9.5 127.5z" />
<glyph unicode="&#xc8;" horiz-adv-x="1185" d="M53.5 1195.5q4.5 34.5 42.5 70.5q13 11 54 23q8 3 2 5v-4v-5v-5v-5v-5q-8 20 -11.5 32t0 38t21.5 49q35 51 87.5 50t86.5 -46q23 -38 18 -75t-22 -52v16q136 13 204.5 17.5t209.5 2.5t296 -18q231 -20 219 -68q-10 -37 -147 -75q-97 -27 -133 -23q-264 25 -643 -16 q0 -19 -0.5 -61.5t-0.5 -79t1 -66.5q321 117 565 51q87 -24 140 -47t66.5 -40.5t8.5 -33.5t-34 -25.5t-61.5 -16t-73.5 -6t-70 4.5q-62 9 -118.5 10.5t-105.5 -3.5t-102 -17.5t-101 -29t-108 -40.5q1 -28 4.5 -118t5.5 -128.5t6 -113t8.5 -117t11.5 -92t15 -82.5 q166 29 505 120q28 7 42 11q77 34 113 19q43 -18 55 -73t-23 -97q-50 -56 -114 -29q-50 -12 -228 -54.5t-266 -66.5q10 -31 2 -65q-13 -60 -65 -78t-97 12q-28 17 -45 66q-45 -10 -77 16q-98 63 -35 152q15 15 57 32q-25 102 -38.5 319.5t-15 363t-1.5 372.5q-29 0 -53 19 q-31 25 -46.5 48t-11 57.5zM291.5 1593q28.5 45 84 53t109.5 -24q23 -17 34.5 -35t16.5 -30.5t33.5 -36.5t81.5 -54q69 -39 108 -69t46 -47t-2.5 -27.5t-35.5 -12.5t-56 0t-60.5 8t-52.5 13q-8 3 -24 7q-139 43 -181 68q-53 30 -96 95q-34 47 -5.5 92z" />
<glyph unicode="&#xc9;" horiz-adv-x="1185" d="M86 1182q3 27 20.5 51.5t45.5 36.5q-15 35 30 83t91 50q49 3 59 -58q4 -27 0 -63q11 1 94 9t107 10t100 5.5t125 1.5t126.5 -7.5t157.5 -16.5q143 -20 137 -66q-5 -37 -90 -73q-71 -31 -108 -27q-264 25 -643 -16q0 -19 -0.5 -61.5t-0.5 -79t1 -66.5q272 100 565 51 q82 -13 122.5 -37t36.5 -48.5t-28 -45t-68 -30.5t-87 -3q-62 9 -118.5 10.5t-105.5 -3.5t-102 -17.5t-101 -29t-108 -40.5q1 -28 4.5 -118t5.5 -128.5t6 -113t8.5 -117t11.5 -92t15 -82.5q166 29 505 120q28 7 42 11q77 34 113 19q43 -18 55 -73t-23 -97q-50 -56 -114 -29 q-50 -12 -228 -54.5t-266 -66.5q10 -29 -3 -59t-40 -48t-58 -24.5t-60.5 10.5t-43.5 56q-29 -7 -57.5 6t-44 39t-20.5 55t12.5 57t54.5 43q-25 102 -38.5 319.5t-15 363t-1.5 372.5q-28 0 -48 16.5t-26.5 42t-3.5 52.5zM501 1379q2 15 29.5 43.5t81.5 68.5q44 32 69.5 56 t31 32.5t17 17t34.5 19.5q65 29 136 1q57 -23 66 -63q7 -32 -26 -63q-43 -40 -84.5 -64t-68 -32.5t-101.5 -28.5q-16 -4 -36.5 -8t-49 -7t-51 -2.5t-36.5 8t-12 22.5z" />
<glyph unicode="&#xca;" horiz-adv-x="1202" d="M90 1017q-7 22 3.5 48t39.5 53q14 11 52 23q9 3 3 6v-4v-5v-4v-5v-7q-8 19 -11 31.5t0.5 38.5t21.5 49q35 51 87.5 50t86.5 -46q23 -38 18 -75t-22 -52v17q24 2 131 13.5t152 14t150 0.5t222 -14q231 -20 219 -68q-10 -37 -147 -75q-97 -27 -133 -23q-58 6 -119 7 t-102 0.5t-106 -6.5t-88 -8.5t-93.5 -11.5t-79.5 -10q0 -19 -0.5 -61.5t-0.5 -79.5t1 -68q77 26 161 36t149 9t187 -8q234 -14 227 -70q-5 -34 -96 -67q-78 -29 -143 -29q-105 1 -176 1.5t-142.5 -13.5t-158.5 -49q7 -151 21.5 -229t46.5 -176q208 35 473 106q76 33 112 18 q43 -18 55.5 -73t-22.5 -97q-50 -56 -115 -28q-61 -15 -199.5 -44.5t-219.5 -51.5q10 -31 2 -66q-13 -60 -65 -78t-97 12q-28 17 -45 66q-45 -10 -78 16q-98 63 -35 152q17 17 57 33q-69 248 -73 809q-31 0 -54 18q-22 18 -36 35.5t-21 39.5zM280 1357q-5 43 13 73 q8 18 33 31.5t45 17.5q32 7 57 23t84 60t131 89q159 -73 226 -117.5t130 -112.5q3 -4 20 -12.5t32 -21.5t18 -29q9 -61 -42 -111.5t-116 -32.5q-15 4 -25.5 21.5t-16.5 36.5t-7 20q-46 57 -88.5 88.5t-120.5 65.5q-49 -24 -101 -62.5t-87 -52.5q0 -1 -1 -13t-4 -20t-9 -12 q-65 -62 -142 6q-24 22 -29 65z" />
<glyph unicode="&#xcb;" horiz-adv-x="1222" d="M49 1152q4 29 27 60q27 31 69 31q4 32 5 37q10 30 47 43.5t73.5 3.5t46.5 -39q4 -9 2.5 -26.5t-0.5 -20.5q644 66 795 8q7 -3 17.5 -9.5t34.5 -26t37.5 -40t12 -50t-27.5 -56.5q-31 -29 -60.5 -36.5t-52 5t-37 26.5t-26.5 32q-35 12 -121 12.5t-196 -9t-200.5 -19.5 t-175.5 -21q0 -120 5 -205q151 53 341 79t330 3q47 -6 54.5 -50.5t-15 -87t-49.5 -42.5q-151 22 -326.5 -4.5t-332.5 -87.5q3 -91 -3 -232.5t-8.5 -216t9.5 -170.5q45 11 302.5 73t383.5 99q3 1 8 2.5t20 3.5t28 1t29 -8t26.5 -19.5t16.5 -37t3 -57.5q-5 -58 -51 -84.5 t-111 0.5q-96 -27 -331.5 -84.5t-264.5 -64.5l6 -21q-35 -32 -75 -38t-81 4t-43 10l5 -6q-11 -3 -47.5 6t-49.5 18q-25 26 -28.5 57t4.5 50.5t20 32.5q15 20 43 28q-10 89 -11.5 231t2.5 267t9 285.5t6 248.5q-5 1 -14.5 2t-13.5 2q-5 2 -12.5 6.5t-24 20.5t-25 34t-4.5 47z M312.5 1387.5q-3.5 50.5 29.5 87.5q32 37 81 40.5t89 -28.5q38 -29 41.5 -79.5t-27.5 -88.5q-30 -38 -81 -42t-93 30q-36 30 -39.5 80.5zM626.5 1399q-4.5 51 26.5 88q31 34 81.5 38t90.5 -26q35 -32 40 -80t-25 -90q-33 -38 -84 -42t-90 30q-35 31 -39.5 82z" />
<glyph unicode="&#xcc;" horiz-adv-x="632" d="M106 1464q-2 37 15.5 69t44.5 48t63.5 9t67.5 -42q19 -21 37 -66t43.5 -91t68.5 -76q106 -73 54 -107q-38 -24 -113 -17q-33 4 -49 13q-54 31 -78 46t-59.5 42t-51 48.5t-28.5 53.5t-15 70zM195 -27q-14 158 5 337t62.5 408.5t52.5 295.5q0 3 -3.5 17.5t-2 32.5t14.5 38 q33 50 87.5 53t86.5 -41q52 -65 2 -129q-8 -75 -42.5 -271.5t-57.5 -389.5t-17 -355q2 -16 7.5 -31t7 -21.5t-3 -18.5t-17.5 -31q-30 -48 -84.5 -50.5t-87.5 38.5q-49 62 -10 118z" />
<glyph unicode="&#xcd;" horiz-adv-x="684" d="M133 -51q0 17 5 28.5t5 18.5q-1 149 24.5 414.5t51 478.5t25.5 233q0 4 -9.5 28t-7.5 36q9 35 43.5 62.5t65.5 23.5q104 -3 104 -101q1 -12 -6.5 -29.5t-7.5 -19.5q0 -68 -47 -523.5t-53 -604.5q0 -4 7 -15.5t7 -21.5q-5 -42 -33.5 -72.5t-70.5 -31.5q-36 -5 -66.5 23.5 t-36.5 72.5zM262 1333q5 34 90 115q56 52 74 75t30.5 51t35.5 62q22 29 54.5 35.5t61.5 -7t53 -38t28.5 -57.5t-11.5 -66q-14 -26 -27.5 -45.5t-32 -35t-31 -25t-39.5 -20.5t-42.5 -16.5t-52.5 -17.5q-199 -68 -191 -10z" />
<glyph unicode="&#xce;" horiz-adv-x="796" d="M98 1329q20 60 80 68q92 144 287 215q43 -21 78 -47.5t57 -49t46 -59.5t34.5 -57t32.5 -64q26 -3 48 -23.5t30 -60.5q12 -62 -26 -101t-93 -28q-42 4 -64 38t-20 67q-3 5 -13 22.5t-12.5 22.5t-11 19.5t-12 19.5t-11.5 17t-13 18t-13.5 16t-16 17t-17 15.5t-19.5 16.5 q-21 -10 -40 -23t-31 -23t-26 -27.5t-18.5 -24t-16 -24.5t-12.5 -19q-4 -35 -27.5 -59.5t-74.5 -24.5q-59 -4 -90 41.5t-15 101.5zM267.5 426.5q5.5 214.5 21 396t37.5 340.5q0 3 -4 17.5t-2.5 32.5t14.5 38q33 50 87.5 53.5t86.5 -40.5q55 -68 2 -129q-22 -237 -37 -544.5 t-6 -551.5q2 -16 7.5 -31t7 -21.5t-3 -18.5t-17.5 -31q-30 -48 -84.5 -51t-87.5 38q-49 63 -10 119q-17 169 -11.5 383.5z" />
<glyph unicode="&#xcf;" horiz-adv-x="612" d="M86 1397q-4 51 27 88q31 34 81.5 38t90.5 -26q34 -30 39 -79.5t-25 -88.5q-29 -37 -81.5 -41.5t-92.5 27.5q-35 31 -39 82zM119 12q-14 159 7.5 364.5t70 478.5t55.5 321q0 3 -4 17.5t-2.5 32.5t14.5 38q33 50 87.5 53t86.5 -41q52 -65 2 -129q-7 -67 -46 -301t-64 -455 t-19 -383q2 -16 7.5 -31t7 -21.5t-3 -18.5t-17.5 -31q-30 -48 -84.5 -50.5t-87.5 38.5q-49 62 -10 118zM351.5 1461.5q-3.5 51.5 29.5 88.5q31 35 80.5 38.5t89.5 -27.5q36 -31 40 -79.5t-28 -88.5q-30 -39 -81 -43.5t-93 30.5q-34 30 -37.5 81.5z" />
<glyph unicode="&#xd1;" horiz-adv-x="1116" d="M42.5 417q-0.5 37 5 124t9.5 132t15.5 181t19.5 225q-31 37 -41.5 73t-2 64.5t23.5 50.5t37 40q15 15 33.5 13t33.5 -11t31.5 -26.5t28 -33t24 -32.5t19.5 -23q139 -207 600 -911q-6 119 -8 199.5t4 285.5t26 455q-20 22 -23 51t19 69q33 51 89 51t87 -44 q16 -22 19 -47.5t-3.5 -45t-19.5 -34.5q-19 -368 -22.5 -584.5t2.5 -365.5t6 -201q0 -8 5.5 -26.5t4.5 -37.5t-14 -41q-24 -36 -57.5 -46t-69.5 13t-62 76q-308 454 -612 928q-21 -216 -29 -342.5t-5 -262t20 -296.5q23 -24 26.5 -57t-20.5 -74q-36 -50 -91.5 -47.5 t-91.5 47.5q-40 52 11 125q-10 88 -16.5 148.5t-8.5 130.5t-2.5 107zM170.5 1424.5q-18.5 56.5 11.5 97.5q20 27 53 36.5t62 4.5q8 2 41.5 15t53.5 18.5t51 5t55 -14.5q7 -4 38 -25t47.5 -28.5t51.5 -8t72 16.5q220 104 227 40q4 -41 -75 -124q-66 -70 -116 -92 q-21 -9 -43.5 -12.5t-41.5 -3.5t-40.5 6t-35.5 11t-33 15t-26.5 14.5t-22.5 14.5l-15 10q-19 12 -38.5 13.5t-31.5 -2.5t-31.5 -13.5t-25.5 -11.5q-14 -29 -49 -44.5t-71 -6.5q-49 12 -67.5 68.5z" />
<glyph unicode="&#xd2;" horiz-adv-x="1280" d="M40.5 663q9.5 115 66 242t159.5 242q60 67 143 108t158 51t141.5 10.5t105.5 -6.5l40 -7q3 -1 12.5 -3t16.5 -3.5t18 -5t18.5 -7t17.5 -10t14.5 -14l10.5 -17.5t4.5 -22.5t-3.5 -28.5q97 -54 164 -157.5t94.5 -225t30.5 -249.5t-20 -240.5t-65 -188.5 q-46 -87 -130.5 -150t-188 -89.5t-212 -22t-214 53.5t-182.5 136q-67 76 -114.5 169t-71 206.5t-14 228.5zM244.5 418q33.5 -131 126.5 -234q61 -67 132 -102t136 -36t127 14t112 44.5t85 59t51 55.5q31 55 48 136t14.5 178.5t-25 194.5t-77.5 191.5t-136 161.5 q-30 8 -45.5 7.5t-41 -7t-28.5 -6.5q-271 -69 -288 -48q-7 9 18 34q-2 -1 -12 -5t-17 -7.5t-17 -11.5t-16 -17q-109 -158 -144.5 -314.5t-2 -287.5zM359.5 1609.5q16.5 53.5 62.5 67t117 -36.5q30 -23 44 -45t16.5 -35t27.5 -34.5t78 -46.5q29 -14 56.5 -34t46 -42.5 t10.5 -39.5t-50 -24.5t-137 2.5q-67 7 -113 20.5t-88 48t-63 91.5q-24 55 -7.5 108.5z" />
<glyph unicode="&#xd3;" horiz-adv-x="1347" d="M102.5 614q9.5 115 66 242t159.5 242q44 49 100 84t110.5 52t110.5 26t103 8t84 -4t58 -7l21 -4q3 -1 14.5 -3t19 -4t20.5 -6.5t20.5 -9.5t18 -13t13.5 -18t6.5 -24.5t-3.5 -31.5q97 -54 164 -157.5t94.5 -225t31 -249.5t-19.5 -240.5t-65 -188.5q-39 -72 -105.5 -128 t-146 -89t-172 -42.5t-181 6t-173.5 62t-150 119.5q-67 76 -114.5 169t-70.5 206.5t-13.5 228.5zM305.5 369q33.5 -131 126.5 -234q61 -67 132 -102t136 -36t127 14t112 44.5t85 59t51 55.5q31 55 48 136t14.5 178.5t-25 194.5t-77.5 191.5t-136 161.5q-30 8 -45.5 7.5 t-41 -7t-28.5 -6.5q-271 -69 -288 -48q-7 9 18 34q-2 -1 -12 -5t-17 -7.5t-16.5 -11.5t-15.5 -17q-109 -158 -145 -314.5t-2.5 -287.5zM516.5 1288.5q-8.5 13.5 17 45.5t87.5 79q46 35 65 53t24.5 26.5t15.5 33t26 53.5q15 28 36 45.5t43.5 22.5t46 3t44 -13.5t38 -27 t27 -38t11.5 -46t-9 -50.5q-12 -31 -31.5 -53.5t-47.5 -38.5t-55 -27t-69 -28t-75 -34q-15 -6 -43.5 -12.5t-62 -11t-57 0t-32 18z" />
<glyph unicode="&#xd4;" horiz-adv-x="1347" d="M102.5 614q9.5 115 66 242t159.5 242q44 49 100 84t110.5 52t110.5 26t103 8t84 -4t58 -7l21 -4q3 -1 14.5 -3t19 -4t20.5 -6.5t20.5 -9.5t18 -13t13.5 -18t6.5 -24.5t-3.5 -31.5q97 -54 164 -157.5t94.5 -225t31 -249.5t-19.5 -240.5t-65 -188.5q-39 -72 -105.5 -128 t-146 -89t-172 -42.5t-181 6t-173.5 62t-150 119.5q-67 76 -114.5 169t-70.5 206.5t-13.5 228.5zM305.5 369q33.5 -131 126.5 -234q61 -67 132 -102t136 -36t127 14t112 44.5t85 59t51 55.5q31 55 48 136t14.5 178.5t-25 194.5t-77.5 191.5t-136 161.5q-30 8 -45.5 7.5 t-41 -7t-28.5 -6.5q-271 -69 -288 -48q-7 9 18 34q-2 -1 -12 -5t-17 -7.5t-16.5 -11.5t-15.5 -17q-109 -158 -145 -314.5t-2.5 -287.5zM313 1321q15 74 76 82q44 80 107.5 137t173.5 111q270 -106 331 -176q65 -12 82 -74q16 -56 -13.5 -99t-90.5 -42q-87 0 -100 81 q-35 38 -201 107q-8 -6 -28.5 -20t-27.5 -19.5t-22.5 -17t-23 -19.5t-19 -21t-21 -26.5t-18.5 -30.5q0 -31 -26.5 -62.5t-67.5 -35.5q-58 -11 -92 25.5t-19 99.5z" />
<glyph unicode="&#xd5;" horiz-adv-x="1288" d="M47.5 646.5q9.5 115.5 66 242t158.5 241.5q60 67 143 108t158.5 51t142 10.5t106.5 -6.5l40 -7q33 -8 53 -20t25 -24t5 -23t-3 -18l-4 -7q106 -59 179.5 -166.5t104.5 -230.5t35.5 -252t-18.5 -241.5t-65 -188.5q-46 -86 -130.5 -149t-188.5 -89.5t-212.5 -22.5t-214 53 t-182.5 136q-67 76 -114.5 169t-70.5 206t-13.5 228.5zM144.5 1353q-16.5 54 17.5 99q19 27 49.5 36.5t58.5 4.5q81 55 176.5 83t135.5 9q16 -7 44 -21l49 -24.5t49.5 -22t50.5 -17t45 -5.5t40 8q340 166 340 96q0 -41 -111 -140q-105 -94 -173 -122q-10 -4 -17 -6 q-50 -12 -91.5 -13.5t-76.5 8.5t-60 21t-61.5 30t-62.5 30q-17 7 -35 7.5t-32 -2t-35 -12.5t-32 -17t-37 -23.5t-36 -22.5q-15 -32 -45.5 -49.5t-73.5 -1.5q-60 13 -76.5 67zM245.5 702q-33.5 -159 2.5 -295t129 -239q74 -82 155 -125t152.5 -46t137.5 21.5t116 72.5t82 112 q46 93 62.5 205t1.5 228.5t-76 230.5t-162 198q-31 8 -46.5 8t-41 -7t-27.5 -7q-39 -10 -106 -27q-143 -37 -170 -33q-31 6 -6 54q-52 -39 -60 -49q-110 -143 -143.5 -302z" />
<glyph unicode="&#xd6;" horiz-adv-x="1294" d="M71 813q38 195 158 356q40 54 151 106t238 72t238 -14q102 -37 102 -90q122 -78 197 -217t93.5 -290.5t-0.5 -301.5t-74 -264q-23 -48 -80 -98.5t-135 -94t-174 -64.5t-191.5 -15t-194.5 60t-176 155q-108 142 -149 323.5t-3 376.5zM243 610.5q5 -113.5 38 -216.5 t90 -175q62 -79 145.5 -111.5t161 -22.5t149.5 39.5t120.5 67t64.5 68.5q38 79 53.5 197t4 243.5t-68.5 240.5t-153 173q-57 32 -125 2q-144 -67 -236 -69q-64 -1 -59 37q1 12 10 28q-10 0 -31.5 -19t-29.5 -30q-72 -97 -105.5 -218t-28.5 -234.5zM419.5 1475 q-3.5 51 29.5 88q32 37 80.5 40.5t88.5 -28.5q38 -29 42 -79.5t-27 -88.5q-29 -37 -81.5 -41.5t-92.5 27.5q-36 31 -39.5 82zM798.5 1470q-4.5 51 26.5 89q34 38 84 42t88 -30q37 -32 41.5 -80t-26.5 -86q-31 -41 -82.5 -46t-91.5 30q-35 30 -39.5 81z" />
<glyph unicode="&#xd7;" horiz-adv-x="1153" d="M215 690q-23 59 13 109.5t100 44.5q16 -1 29 -12.5t24 -27t18 -20.5q174 -106 219 -141q86 91 119 131q2 1 12.5 22.5t28 43.5t37.5 28q54 17 103.5 -29t37.5 -102q-4 -18 -20.5 -34.5t-33 -28.5t-19.5 -17q-51 -48 -121 -135q70 -61 174 -127q3 -3 24.5 -13t39 -24 t24.5 -32q20 -51 -13.5 -100.5t-90.5 -49.5q-22 0 -39.5 9.5t-25.5 20.5t-16.5 24.5t-9.5 15.5q-119 71 -192 135q-107 -116 -170 -166q-51 -41 -92.5 -64.5t-67.5 -28.5t-38.5 6t-9 35.5t24.5 64t58 87.5q59 78 150 189q-51 38 -201 135q-1 0 -12 4t-18 7t-17.5 8.5 t-17.5 13.5t-11 18z" />
<glyph unicode="&#xd8;" horiz-adv-x="1280" d="M52.5 659q5.5 123 63.5 259t169 260q36 40 81 70t85 47t92.5 26.5t86 12.5t84.5 1t68 -4t56 -6q10 23 47 78q11 66 35 88q23 23 56.5 18.5t64 -20.5t47.5 -49t6 -68q-17 -53 -58 -74q-14 -27 -37 -90q93 -67 156 -174.5t88.5 -226t27.5 -240.5t-21 -227t-64 -178 q-45 -83 -126 -144.5t-178 -91.5t-206 -27.5t-207 42.5q-6 -11 -22 -40t-23 -44q-2 -4 -4.5 -22t-12 -34.5t-30.5 -31.5q-51 -28 -93 -17t-63.5 53.5t-5.5 90.5q6 22 25.5 32.5t19.5 12.5q30 47 51 98q-81 72 -141 166.5t-91.5 212.5t-26 241zM256.5 749 q-33.5 -158 2.5 -294.5t130 -239.5q53 125 186 453t179 440q-167 -82 -234 -85q-79 -4 -49 83q-28 -4 -72 -55q-109 -144 -142.5 -302zM547 98q164 -59 296 -14.5t189 166.5t70 254t-29 272t-141 258q-252 -640 -385 -936z" />
<glyph unicode="&#xd9;" horiz-adv-x="1159" d="M66.5 723q3.5 105 16 190.5t34.5 196.5q-13 29 -9 69.5t31 61.5q36 29 72.5 29.5t63 -18.5t44.5 -50q30 -47 -26 -123q-29 -166 -38 -284.5t5 -211.5t36 -156t66 -153q57 -71 128.5 -104.5t138 -30.5t127 25t102 57t57.5 72q31 68 39 199t-3 274.5t-36 296.5 q-13 9 -20 22.5t-9 22t-5 27.5q-6 54 24.5 85.5t71.5 34t79 -20t46 -63.5q6 -34 -10 -73q16 -90 30.5 -256.5t9.5 -371t-47 -288.5q-28 -56 -86.5 -105t-133.5 -81.5t-164 -43t-174 4t-167 67t-141 138.5q-59 87 -94.5 183.5t-48.5 184.5t-9.5 193zM287 1483q-6 43 10.5 83 t44.5 61t68.5 10t78.5 -62q23 -29 35 -58.5t16.5 -47.5t28 -45.5t70.5 -59.5q162 -108 89 -132q-49 -17 -151 5q-31 7 -45 14q-13 7 -37 19q-43 22 -62 32.5t-47.5 27.5t-40.5 30t-27 32.5t-21.5 41t-9.5 49.5z" />
<glyph unicode="&#xda;" horiz-adv-x="1169" d="M66 727q4 106 17 192.5t36 198.5q-22 85 12 127q36 44 105.5 33t95.5 -57q15 -34 0.5 -75t-37.5 -59q-30 -168 -39 -287.5t4.5 -213.5t35.5 -157.5t66 -154.5q57 -71 128.5 -104.5t138 -30.5t127 25t102 57t57.5 72q31 69 39 202.5t-3.5 280.5t-37.5 301q-1 3 -16 24 t-16 34q-6 54 24.5 85.5t71.5 34t79 -20t46 -63.5q2 -11 -5.5 -36t-6.5 -29q16 -77 31.5 -248t11 -380.5t-47.5 -295.5q-28 -56 -86.5 -105t-133.5 -81.5t-164 -43t-174 4t-167 67t-141 138.5q-60 87 -95.5 184.5t-48.5 186t-9 194.5zM580.5 1280.5q-13.5 34.5 27.5 89.5 q22 24 45.5 50.5t32.5 37t18 20.5t19 23.5t17 23t30 40.5q18 25 44.5 34.5t52 3.5t49.5 -21t37.5 -39t16 -49.5t-15.5 -53.5q-18 -34 -45 -54.5t-52.5 -28t-62 -29t-67.5 -56.5q-35 -34 -84 -30t-62.5 38.5z" />
<glyph unicode="&#xdb;" horiz-adv-x="1169" d="M66.5 723q3.5 105 16 190.5t34.5 196.5q-12 29 -5.5 66t33.5 59q36 29 69.5 31t57 -15t41.5 -49q13 -18 10.5 -43t-11 -45t-19.5 -35q-29 -166 -38 -284.5t5 -211.5t36 -156t66 -153q57 -71 128.5 -104.5t138 -30.5t127 25t102 57t57.5 72q31 68 39 199t-3 274.5 t-36 296.5q-13 9 -20 22.5t-9 22t-5 27.5q-6 54 24.5 85.5t71.5 34t79 -20t46 -63.5q6 -34 -10 -73q16 -90 30.5 -256.5t9.5 -371t-47 -288.5q-28 -56 -86.5 -105t-133.5 -81.5t-164 -43t-174 4t-167 67t-141 138.5q-59 87 -94.5 183.5t-48.5 184.5t-9.5 193zM274 1378 q18 78 84 86q60 64 106 102t146 103q118 -43 174.5 -84t85.5 -86q61 -8 80 -67q16 -56 -15.5 -102t-90.5 -42q-92 0 -101 84q-1 1 -5.5 8t-6 9t-6 8.5t-7.5 9.5t-9.5 9t-11.5 10t-13.5 10t-17 10.5t-19.5 10.5t-24 11q-7 -4 -26 -16t-24 -15t-19.5 -13t-20.5 -15.5 t-17 -15.5t-20 -20t-19 -23q0 -33 -22 -65t-62 -36q-55 -11 -93 28t-26 101z" />
<glyph unicode="&#xdc;" horiz-adv-x="1159" d="M67.5 714q3.5 103 16 188.5t35.5 195.5q-44 56 -2 116q23 35 56.5 47t65.5 1.5t54 -39.5q22 -39 18 -72.5t-24 -58.5q-56 -345 -41 -516t114 -302q55 -75 117.5 -115.5t118 -45.5t109 8.5t95.5 44t72 63.5t43 64q29 64 33.5 198.5t-3 226.5t-28.5 300q-3 29 -4 43 q-11 16 -17.5 37.5t-3 49.5t20.5 52q37 52 88.5 51.5t88.5 -45.5q15 -18 17.5 -43.5t-4 -45.5t-16.5 -38q19 -139 29.5 -241.5t16 -226t-7.5 -224.5t-44 -174q-31 -72 -91 -130t-134.5 -94t-162 -46t-171 7t-164 71t-139.5 141q-58 86 -93.5 180.5t-48.5 181.5t-9.5 190z M363.5 1283q-2.5 49 31.5 89q31 36 82 39.5t88 -29.5q35 -30 40 -79.5t-25 -88.5q-34 -41 -86.5 -45t-90.5 31q-37 34 -39.5 83zM677 1291.5q-4 52.5 30 90.5t83 41.5t89 -30.5q35 -31 39 -79.5t-27 -86.5q-31 -37 -81.5 -43t-90.5 26q-38 29 -42 81.5z" />
<glyph unicode="&#xdd;" horiz-adv-x="1153" d="M131 1083q-30 43 0.5 96.5t81.5 59.5q25 4 46.5 -7.5t40.5 -31.5t22 -22q44 -33 73 -57t64.5 -61.5t58 -64.5t85.5 -102t116 -137q20 43 42 85t37 67.5t48 83t53 91.5q-20 57 27 111q34 47 92.5 35t83.5 -60q6 -10 8 -21.5t0.5 -23t-3.5 -20.5t-8 -20t-8.5 -16.5t-9 -15 t-6.5 -10.5q-11 -22 -39.5 -77.5t-36.5 -70t-29 -56t-28.5 -56.5t-23 -47.5t-25 -54t-23 -51t-26.5 -60.5l5 2q21 12 25 7q62 -77 -4 -146q-23 -30 -84 -18q-9 -23 -74.5 -171t-105.5 -278q26 -66 -24 -123q-35 -43 -97 -29t-86 62q-30 53 29 127q39 125 76 223t80 200.5 t55 133.5q-43 53 -100.5 124.5t-78.5 98t-55.5 68t-48 55.5t-37.5 38t-42.5 38.5t-45.5 34.5q-60 -4 -100 67zM474 1253q6 37 91 121q25 24 40 38.5t28 31t18.5 23.5t12 23.5t8 23.5t7 32.5t9.5 40.5q19 79 87.5 79.5t122 -54t34.5 -109.5q-28 -81 -73.5 -120t-180.5 -107 q-51 -27 -122 -44q-89 -21 -82 21z" />
<glyph unicode="&#xdf;" horiz-adv-x="1126" d="M158.5 870q-24.5 387 40.5 490q49 80 153 127.5t219 45t193 -57.5q62 -43 63 -113t-40.5 -134t-105 -116.5t-122.5 -67.5q6 -4 41 9t82.5 32.5t106 30.5t111 8t97 -41.5t64.5 -111.5q71 -266 -26 -565q-71 -221 -201 -365q-112 -126 -206 -122q-99 4 -136 153 q-3 10 -5 20q-19 15 -33 46.5t-10 62.5q5 37 35.5 63.5t68.5 30t73 -13.5q17 -11 27.5 -22t14.5 -23.5t5 -21t1 -23.5t1 -23q3 -35 40 -5q55 44 110 162q100 217 79 444q-6 63 -22 124q-12 49 -42.5 67.5t-70.5 11t-86 -26.5t-93 -39.5t-88.5 -31.5t-74.5 0t-49 52 q-15 38 -5.5 77t36 71t61 65t69 59t60.5 52.5t35.5 45.5t-6.5 39q-17 18 -57.5 20.5t-84.5 -9.5t-85.5 -41.5t-59.5 -69.5q-38 -85 14.5 -520.5t116.5 -761.5q14 -13 24.5 -30.5t15.5 -43.5t-7 -51q-24 -54 -87 -72.5t-102 21.5q-36 38 -20 119q-108 587 -132.5 974z" />
<glyph unicode="&#xe0;" horiz-adv-x="1005" d="M32.5 380.5q-6.5 105.5 31.5 208.5t116 161q95 70 193.5 107.5t198.5 32t169 -68.5q-15 19 -14 54.5t23 60.5q27 32 57.5 39t57 -6t48.5 -43q22 -38 18 -70.5t-22 -58.5q-7 -147 16 -379t25 -322q47 -55 4 -121q-23 -35 -57.5 -46.5t-67.5 -1t-55 39.5q-19 27 -23.5 56.5 t0.5 52.5t19 59q-37 -55 -80.5 -91t-106 -58t-149.5 -10t-192 61q-94 45 -148.5 141.5t-61 202zM158 1280q-8 57 34.5 99.5t98.5 41.5t82 -55q19 -42 25.5 -92t21.5 -99.5t57 -109.5q101 -142 21 -140q-53 2 -140 52q-8 4 -14 8q-166 110 -186 295zM214 486q-20 -83 6 -161 t85 -114q61 -37 114 -49t90.5 -6t71.5 33.5t54 53t40.5 72t28.5 70t21 65.5q3 9 4 13q5 28 6 48.5t-8 42.5t-16 35.5t-19.5 28t-18 19.5t-11.5 10q-53 53 -120.5 60.5t-125.5 -18t-119 -73.5q-63 -47 -83 -130z" />
<glyph unicode="&#xe1;" horiz-adv-x="1005" d="M32.5 470.5q7.5 83.5 46.5 158t101 121.5q80 59 160 88.5t150 28.5t128.5 -17.5t112.5 -48.5q-39 67 -2 127q32 50 92 49t90 -47q19 -35 15.5 -69t-23.5 -62q0 -123 6 -238.5t12 -186t21 -216.5q25 -25 33 -56.5t-12 -74.5q-30 -55 -91 -60t-104 45q-6 8 -10.5 16.5 t-7.5 16t-3 17.5t-0.5 16.5t2 18t3 16t5 17t5.5 15.5t6 15.5t6 13.5q-194 -286 -543 -123q-74 36 -124 104.5t-66 150t-8.5 165zM211 483.5q-23 -85.5 1 -163t87 -105.5q47 -21 89.5 -29.5t75.5 -8.5t64 12t52 25t43 39t34.5 44.5t27.5 51t21.5 48.5t18.5 47l3 7.5t2.5 6.5 t2.5 7q13 37 -4 81.5t-36 67.5t-31 33q-53 53 -120.5 60.5t-125.5 -18t-119 -73.5q-63 -47 -86 -132.5zM435 1036.5q-22 23.5 54 124.5q35 44 52.5 87t18.5 71t6.5 59t19.5 52q25 36 81 38.5t98.5 -33t31.5 -92.5q-17 -91 -61.5 -153t-129.5 -123q-36 -26 -92.5 -40 t-78.5 9.5z" />
<glyph unicode="&#xe2;" horiz-adv-x="1042" d="M43 368q-2 74 19.5 147t69.5 136t114 103q115 69 226.5 84t192 -15.5t130.5 -93.5q-33 63 20 113q44 45 97 36.5t77 -57.5q17 -41 8 -72t-34 -53q-22 -110 -22 -212.5t8 -211t3 -192.5q10 -18 14 -37t-2.5 -43.5t-27.5 -44.5q-45 -43 -96 -36.5t-80 52.5q-41 63 16 140 q-46 -47 -104.5 -76.5t-133 -40t-166 17t-186.5 94.5q-67 49 -104 118.5t-39 143.5zM137 1085q7 33 28 53t48 25q69 107 127 159t121.5 56.5t132 -52.5t151.5 -179q69 -4 89 -78q18 -56 -17.5 -96.5t-89.5 -38.5q-36 1 -63.5 29.5t-34.5 60.5q-31 43 -50 68t-40 48t-34 31.5 t-29.5 10.5t-28 -5t-28.5 -26t-32.5 -42.5t-38.5 -61.5q-2 -31 -29.5 -60.5t-64.5 -32.5q-51 -5 -89 37t-28 94zM226 443q-22 -103 53 -175q75 -67 151 -92.5t134.5 -12.5t105.5 47.5t73.5 83t30.5 99.5q4 62 -13.5 109t-60.5 92q-71 72 -171.5 74t-184.5 -56 q-96 -66 -118 -169z" />
<glyph unicode="&#xe3;" horiz-adv-x="1032" d="M53.5 404.5q-2.5 102.5 37.5 200.5t116 157q101 74 213 103.5t202.5 12.5t139.5 -73q-41 66 -4 117q23 35 56 46.5t64.5 1t53.5 -39.5q44 -56 -2 -127q-3 -153 22.5 -390.5t28.5 -326.5q0 -2 8 -23t8.5 -38t-14.5 -45q-34 -53 -90.5 -55t-87.5 42q-18 24 -19 51.5t7 61 t8 47.5q-31 -44 -68.5 -78t-89 -58t-108 -29.5t-128 14t-147.5 65.5q-97 61 -150.5 161t-56 202.5zM227.5 1099q-20.5 55 10.5 99q21 28 54 37t62 4q12 4 40.5 17t48.5 20.5t46.5 7t47.5 -15.5q7 -5 19 -14t18.5 -13.5t17.5 -12.5t17.5 -11.5t15.5 -8t15.5 -6.5t14 -3 t14.5 0.5t13 4.5q193 102 221 55q19 -31 -44 -108q-58 -71 -140 -121q-51 -31 -195 72q-19 14 -36 15t-26.5 -5t-23.5 -16.5t-22 -14.5q-13 -26 -48 -42t-69 -7q-51 12 -71.5 67zM240.5 488q-19.5 -83 5 -162t84.5 -115q62 -38 116.5 -50.5t93 -6.5t72.5 33.5t55 55t41 74 t29 74t21 70.5q12 44 -6.5 90.5t-43.5 70.5l-24 25q-53 53 -120.5 60.5t-125.5 -18t-119 -73.5q-59 -45 -78.5 -128z" />
<glyph unicode="&#xe4;" horiz-adv-x="1128" d="M67.5 442q6.5 105 57.5 202.5t135 146.5q185 103 357 106t255 -102q9 65 9 114q-21 17 -20 53.5t16 53.5q42 48 95.5 42t80.5 -54q31 -60 2 -111q-2 -39 -15 -123q-18 -142 -21 -369.5t-13 -326.5q37 -60 -11 -121q-44 -48 -98.5 -43t-83.5 53q-18 36 -12 70.5t28 60.5 q-244 -240 -596 -18q-88 56 -130 158.5t-35.5 207.5zM247 364.5q16 -80.5 70 -122.5q79 -63 154.5 -81.5t131.5 -0.5t105 58t78.5 83t47.5 86q15 51 3.5 109t-32.5 104l-21 47q-46 59 -127 71t-156.5 -10t-142.5 -63q-68 -39 -97.5 -119.5t-13.5 -161zM254.5 1152 q1.5 52 36.5 85q36 34 87 31.5t87 -41.5q31 -33 29 -84t-37 -84q-36 -33 -87 -32t-87 40q-30 33 -28.5 85zM642.5 1203q2.5 51 37.5 85q35 31 85.5 29t86.5 -37q31 -33 30 -83t-36 -85q-35 -36 -87 -34.5t-87 40.5q-32 34 -29.5 85z" />
<glyph unicode="&#xe5;" horiz-adv-x="1005" d="M41.5 408q-2.5 103 37.5 201t116 157q100 73 214.5 101t204 10.5t131.5 -70.5q-20 23 -22 52t22 69q37 52 91.5 51.5t85.5 -45.5q19 -34 16 -67t-20 -60q-3 -155 23.5 -394.5t29.5 -322.5q0 -1 4.5 -23t4.5 -44.5t-9 -38.5q-26 -44 -83 -47t-93 34q-19 19 -21 46.5 t6 62.5t8 49q-31 -44 -68.5 -77t-89 -56.5t-108 -29t-128 13.5t-146.5 65q-97 60 -150.5 160t-56 203zM228 492.5q-20 -83.5 4.5 -162.5t84.5 -115q62 -38 116.5 -51t93.5 -6.5t73.5 34t55.5 55.5t41.5 73.5t29.5 74.5t21 70q4 15 5.5 28.5t2.5 24t-2 22t-4.5 18.5t-8.5 18 t-9.5 15.5t-12.5 15t-13 14t-16 15.5t-16 15q-49 47 -115.5 55t-130 -15.5t-121.5 -69.5q-59 -45 -79 -128.5zM246 1157q-3 82 67 139.5t156 49.5q76 -8 126 -57.5t56 -127.5q9 -92 -51.5 -150.5t-148.5 -58.5q-80 0 -141.5 67.5t-63.5 137.5zM399 1159q-1 -22 18 -36.5 t42 -14.5q19 0 32 10.5t13 28.5q0 51 -29 51q-74 0 -76 -39z" />
<glyph unicode="&#xe6;" horiz-adv-x="1503" d="M39.5 343.5q-7.5 103.5 28.5 203.5t112 158q261 201 486 61q18 45 49.5 67.5t61.5 21t55 -18t32 -41.5q-5 -6 2 -1q3 1 11 7q59 39 90 49q12 4 21 6t44.5 6.5t65 2.5t74.5 -13.5t82 -33.5t78.5 -65t72.5 -102q0 -2 18 -15t35 -33t17 -42q0 -71 -41.5 -120.5t-104.5 -26.5 q-4 1 -85.5 -11.5t-190.5 -35t-166 -41.5q0 -4 0.5 -16t1 -16.5t1 -14.5t1.5 -15t3 -13.5t4.5 -13.5t6 -10.5t8.5 -9.5q47 -44 85 -60t108 -24q126 -12 176 33q120 107 145 46q18 -42 -11 -122q-14 -37 -30 -55q-30 -36 -115.5 -63t-185.5 -15q-86 11 -149 35 q-5 -15 -22.5 -33.5t-39.5 -26.5q-30 -11 -67 11.5t-59 53.5t-19 44q-180 -244 -493 -49q-86 53 -137.5 150.5t-59 201zM224 438.5q-15 -83.5 10.5 -162t74.5 -116.5q213 -165 357 121q28 53 24.5 135.5t-41.5 134.5q-43 59 -106.5 76.5t-126 0t-119.5 -60.5 q-58 -45 -73 -128.5zM877 500q60 12 161 30t161 29t58 12q-39 51 -76.5 80.5t-70 36.5t-50.5 6t-42 -6q-56 -17 -92.5 -66.5t-48.5 -121.5z" />
<glyph unicode="&#xe7;" horiz-adv-x="997" d="M76 469q7 109 24 182.5t52 126t76 85.5t110 73q45 26 123 33t161 -7t159.5 -61.5t111.5 -120.5q1 -1 9 -12.5t14.5 -22t12.5 -26.5t5 -29q-2 -54 -64 -85t-102 3q-15 13 -20.5 34.5t-6.5 43t-4 27.5q-18 32 -60 56t-88.5 34t-92 8t-70.5 -18q-66 -44 -91 -72 q-69 -79 -87 -264q-2 -22 14 -63.5t43 -87t69 -84t87 -50.5q42 -11 71.5 -14t50 4.5t30 13.5t26.5 21q139 127 148 54q6 -48 -37 -136q-17 -35 -29 -47q-37 -35 -91.5 -55t-97.5 -19.5t-71 12.5q-3 -7 -10 -19.5t-9.5 -19t-1.5 -14.5t9 -14t45.5 7t80 29t89.5 15.5t73 -29.5 q43 -48 27 -107.5t-61.5 -112.5t-104.5 -90t-102 -40q-38 -3 -69.5 8t-49 29t-29.5 36.5t-16 31.5l-4 14q0 69 104 69q33 0 82 -30q2 1 11.5 5t17 7.5t19.5 9t20.5 10.5t18.5 11.5t16.5 13t11 14t4 15t-5.5 14.5q-11 -5 -29.5 -12t-67.5 -21t-90.5 -19t-83 5.5t-59.5 42.5 q-14 26 -16 54.5t3.5 48.5t17.5 55t17 55q-100 64 -174 183.5t-69 207.5z" />
<glyph unicode="&#xe8;" horiz-adv-x="897" d="M8 462.5q-3 31.5 23.5 56t79.5 24.5q14 91 58.5 170t117.5 123.5t155 25.5q158 -38 236.5 -96t114.5 -158q26 -26 51 -86t0 -98q-24 -37 -69 -54t-93 -3q-7 4 -208.5 5t-207.5 -10q-19 -233 170 -256q50 -5 93.5 6.5t58 21.5t39.5 30q139 107 154 39q9 -45 -33 -126 q-15 -30 -29 -46q-40 -42 -119 -78t-174 -23q-89 13 -157 55t-106 101.5t-54 128.5t-7 139q-40 13 -65.5 45t-28.5 63.5zM125 1339q1 34 23.5 60.5t55.5 36.5t67 9t61.5 -22.5t34.5 -58.5q7 -30 15 -77.5t13 -73t21 -56.5t43 -53q131 -116 85 -147q-32 -22 -115 4 q-71 22 -97 55q-24 30 -70.5 80.5t-71.5 80.5t-46 75t-19 87zM279 535q85 7 167 3t142 -8t59 -2q-8 23 -15.5 41t-18 32.5t-17 25t-20.5 20t-20.5 15t-25.5 13t-27 10.5t-33 11.5t-36 12.5q-59 21 -99.5 -30.5t-55.5 -143.5z" />
<glyph unicode="&#xe9;" horiz-adv-x="958" d="M23 445q-3 27 17 46t62 19q23 164 94.5 264t168.5 121q17 5 40.5 5.5t56.5 -5t69.5 -17t79 -34t84.5 -53t88 -76.5t87 -103q26 -26 49.5 -82t-1.5 -94q-50 -76 -138 -49q-7 3 -260 -5t-254 -20q-4 -53 11 -98t64 -82.5t128 -46.5q138 -15 199 33q139 107 154 39 q9 -45 -33 -126q-15 -30 -29 -46q-33 -35 -118 -62t-183 -14q-71 10 -130 39t-98 67t-67 84.5t-41.5 91.5t-16.5 89q-16 -1 -35.5 17t-32 44.5t-15.5 53.5zM279 535q45 4 108 4.5t120 -1t108 -3.5t81 -3t29 0q-78 104 -174 161t-137 48q-58 -17 -89.5 -67.5t-45.5 -138.5z M406.5 1042q10.5 29 44.5 74q43 57 59 99t21.5 100t13.5 90q19 80 85 81t116.5 -54t31.5 -111q-34 -95 -90 -180t-119 -115q-15 -7 -36.5 -15t-48.5 -15t-46.5 -5.5t-30.5 12t-0.5 39.5z" />
<glyph unicode="&#xea;" horiz-adv-x="972" d="M8 462.5q-3 31.5 23.5 56t79.5 24.5q10 65 51 131t97 114.5t125.5 72.5t131.5 9q152 -36 226 -100t112 -170q26 -26 51 -86t0 -98q-24 -37 -69 -54.5t-93 -3.5q-7 4 -239 9.5t-238 -5.5q-19 -233 170 -256q74 -8 139.5 8.5t92.5 37.5q141 107 154 38q9 -46 -33 -127 q-15 -29 -29 -45q-33 -35 -134.5 -68t-199.5 -20q-89 13 -157 55t-106 101.5t-54 128.5t-7 139q-40 13 -65.5 45t-28.5 63.5zM145 1018q13 63 76 78q36 67 82 116.5t102.5 74t114 16.5t121 -64.5t119.5 -159.5q61 -4 82 -78q18 -57 -16 -98t-87 -39q-36 0 -65.5 29.5 t-34.5 60.5q-31 63 -56 102t-48.5 55.5t-43 17t-42.5 -21.5t-43 -50t-50 -78q-2 -31 -29.5 -60t-64.5 -32q-52 -5 -90.5 37.5t-26.5 93.5zM279 535q87 6 183 1t172 -11.5t75 -4.5q-19 52 -35 82.5t-41 52t-50 33.5t-75 29q-63 22 -139.5 -38t-89.5 -144z" />
<glyph unicode="&#xeb;" horiz-adv-x="882" d="M32 462.5q-3 31.5 23.5 56t79.5 24.5q10 66 63 143t126 133.5t154.5 77t148.5 -26.5q92 -64 135.5 -143.5t83.5 -224.5q11 -39 -23.5 -87.5t-115.5 -47.5l-15 1q-15 0 -39 0.5t-55.5 1t-65.5 1l-68 1t-65 0t-55 -1.5t-38.5 -3t-14.5 -5q-19 -233 170 -256q104 -11 185 54 q4 3 5 4q139 107 154 39q9 -45 -33 -126q-15 -30 -29 -46q-40 -42 -118.5 -78t-173.5 -23q-89 13 -157 55t-106 101.5t-54 128.5t-7 139q-40 13 -66 45t-29 63.5zM225.5 1117q-4.5 50 28.5 89q34 38 84 41.5t90 -30.5q34 -30 38 -80.5t-26 -89.5q-31 -37 -82.5 -41t-91.5 28 q-36 33 -40.5 83zM303 535q85 7 167.5 3t142.5 -8t59 -2q-60 168 -115 209q-34 26 -92 -2t-105.5 -86.5t-56.5 -113.5zM539.5 1126q-4.5 52 25.5 91q32 37 82 40.5t90 -28.5q36 -31 40.5 -80t-25.5 -88q-30 -37 -82 -43t-92 26q-34 30 -38.5 82z" />
<glyph unicode="&#xec;" horiz-adv-x="544" d="M61 1286q8 49 69 93q67 49 120 35q51 -13 55 -89q2 -32 -3 -90t3 -102.5t41 -110.5q67 -126 4 -131q-43 -3 -105 39q-23 15 -32 28q-72 94 -116.5 185.5t-35.5 142.5zM209 734.5q3 47.5 31 72.5q38 34 91 24.5t79 -55.5q41 -67 -7 -123q23 -169 25 -290.5t-20 -270.5 q13 -24 10 -65t-31 -68q-35 -35 -91 -25t-83 60q-27 45 12 112q23 119 23 211.5t-27 348.5q-15 21 -12 68.5z" />
<glyph unicode="&#xed;" horiz-adv-x="600" d="M124.5 363q1.5 125 25.5 292q-46 54 -7 121q26 46 79.5 55.5t90.5 -24.5q26 -25 29 -70.5t-10 -66.5q-27 -259 -27 -351t23 -213q35 -60 8 -114q-23 -44 -79 -55.5t-91 22.5q-28 27 -31 68t10 65q-22 146 -20.5 271zM162 948q-2 13 10.5 37.5t38.5 58.5q44 58 60.5 99.5 t22.5 100.5t13 91q20 80 87 79q58 -1 107 -53q52 -55 40 -112q-20 -96 -83 -182t-128 -113q-13 -5 -25.5 -9.5t-34.5 -11.5t-38 -9t-34 -3t-26 6.5t-10 20.5z" />
<glyph unicode="&#xee;" horiz-adv-x="804" d="M41 1047q19 59 80 67q61 115 135 167.5t146.5 42.5t142 -76.5t123.5 -182.5q46 -6 65 -96q12 -61 -27.5 -99.5t-91.5 -29.5q-36 7 -61 40.5t-23 63.5q-50 136 -95.5 183t-90 12t-96.5 -152q-3 -30 -34.5 -57t-68.5 -27q-53 -2 -86 44t-18 100zM260 -2q-20 51 16 113 q23 119 23 210.5t-27 348.5q-15 21 -12 67.5t31 73.5q35 34 91 27.5t83 -50.5q14 -23 15 -49.5t-6 -45t-19 -34.5q23 -167 24.5 -291.5t-20.5 -271.5q13 -24 10.5 -65t-27.5 -68q-35 -35 -98.5 -25t-83.5 60z" />
<glyph unicode="&#xef;" horiz-adv-x="661" d="M83 982.5q-4 51.5 26 90.5q32 37 82 40.5t90 -28.5q36 -31 40 -79.5t-26 -87.5q-30 -37 -82 -43t-92 26q-34 30 -38 81.5zM220 32.5q5 28.5 20 53.5q23 119 23 211.5t-27 349.5q-9 17 -12.5 41t3 52t25.5 46q37 35 90.5 26t81.5 -54q39 -60 -6 -125q23 -166 24.5 -289 t-20.5 -272q13 -24 9 -66t-30 -65q-35 -35 -91 -26.5t-83 58.5q-12 31 -7 59.5zM333.5 1003q-4.5 51 26.5 89q34 38 84 42t88 -30q37 -32 41.5 -80t-26.5 -86q-31 -41 -82.5 -46t-91.5 30q-35 30 -39.5 81z" />
<glyph unicode="&#xf1;" horiz-adv-x="942" d="M59.5 1128.5q-6.5 56.5 34.5 94.5q43 41 121 22q12 1 56.5 11t82.5 17t79 3t59 -25q28 -32 61.5 -52.5t80 -27t95.5 18.5q159 67 169 16q7 -36 -53 -99q-61 -62 -120 -81q-85 -23 -180 -1t-127 65q-14 18 -39.5 20t-47 -4t-50.5 -17.5t-35 -13.5q-10 -16 -27 -27 t-43.5 -14t-56.5 15q-53 23 -59.5 79.5zM89 832q-3 33 20 69q21 33 58.5 45t74 1.5t57.5 -36.5q22 -34 18.5 -68.5t-24.5 -60.5q0 -34 -4 -92q68 73 156 104.5t161 25t125 -37.5t88 -71.5t55.5 -90.5t29.5 -102t10 -118.5t-3.5 -125.5t-10.5 -137q-3 -37 -5 -55 q10 -18 14 -41t-3.5 -50.5t-28.5 -47.5q-49 -40 -93.5 -34t-78.5 48q-17 20 -18 46t8.5 46.5t25.5 36.5q2 24 7.5 75.5t7.5 74t5 66t3 65t-1.5 57t-7 55t-13.5 46t-20.5 43.5t-30.5 34.5t-40 30.5q-27 14 -55 20.5t-65.5 -0.5t-73 -31.5t-76 -78.5t-76.5 -135q-4 -65 -3 -87 t9 -102t12 -145q40 -63 -2 -125q-21 -33 -58 -45t-72.5 -2t-57.5 37q-15 19 -17 44t4 46t17 39q-20 221 -20.5 322.5t14.5 385.5q-19 23 -22 56z" />
<glyph unicode="&#xf2;" horiz-adv-x="1091" d="M43 455q10 49 53.5 115.5t114 133.5t145.5 101q42 19 97 27t118 3.5t127.5 -29.5t123.5 -67t110 -115t82 -167q20 -62 8.5 -129.5t-48 -125.5t-90.5 -111t-120 -84.5t-136 -46.5t-139 3q-84 19 -172 72t-155 121.5t-102 149.5t-17 149zM227 424q-8 -48 7.5 -90t44.5 -72 t75.5 -57.5t86.5 -44t91 -33.5q59 -20 124 3.5t111.5 70t70 107t6.5 108.5q-18 53 -55.5 99.5t-82 77t-94.5 51.5t-94.5 21.5t-81.5 -12.5q-76 -34 -134.5 -90.5t-74.5 -138.5zM289 1231q-20 55 29.5 110t116 54t87.5 -80q8 -32 13.5 -90t21.5 -100.5t59 -100.5 q65 -93 42 -115.5t-79.5 -9.5t-82.5 37q-148 130 -207 295z" />
<glyph unicode="&#xf3;" horiz-adv-x="1032" d="M73 440.5q7 88.5 46.5 169.5t103.5 131q70 55 159 90t181 44t180 -22t148 -103q55 -65 75.5 -142t15 -144.5t-27.5 -166.5q-9 -39 -45.5 -90.5t-98 -105t-144 -87.5t-183.5 -38.5t-215 42.5q-72 30 -121 97.5t-65 152t-9 173zM243 454q-19 -89 9.5 -168.5t93.5 -111.5 q90 -36 181.5 -20t165 68t91.5 114q20 72 11.5 139.5t-20 107.5t-15.5 44q-53 55 -137.5 64.5t-163 -17t-135.5 -74.5q-62 -57 -81 -146zM425 930q-24 23 42 117q43 57 59 99t21.5 99.5t13.5 89.5q21 79 87 80t116 -53.5t31 -110.5q-60 -163 -207 -295q-27 -23 -83 -36 t-80 10z" />
<glyph unicode="&#xf4;" horiz-adv-x="1003" d="M54 310.5q-12 98.5 25.5 192t114 175t171.5 115.5q117 39 225 28t193 -72.5t112 -154.5q1 -3 9 -29t10.5 -35t8.5 -36.5t7 -42t2.5 -42.5t-2.5 -47.5t-10.5 -48t-18.5 -52.5t-29.5 -52t-40.5 -55q-29 -34 -76 -67t-118.5 -58t-148.5 -28t-171 32.5t-180 113.5 q-71 65 -83 163.5zM117 958q15 74 76 82q67 123 134 190t122 80t108 -13t93.5 -74.5t76.5 -118.5q27 -5 49.5 -23.5t30.5 -48.5q16 -56 -14 -99t-91 -42q-86 0 -100 84q-11 19 -24.5 49t-23 51.5t-23.5 43t-26.5 29.5t-31.5 3.5t-39.5 -28t-49 -71t-62.5 -120.5 q0 -31 -26 -65t-63 -40q-54 -8 -92 30.5t-24 100.5zM221.5 358.5q5.5 -54.5 42.5 -92.5q63 -63 149 -81t159.5 4t117.5 69q37 40 54.5 82t17 72t-9 57t-15.5 38.5t-10 14.5q-87 194 -317 111q-59 -23 -104.5 -69.5t-67.5 -98.5t-16.5 -106.5z" />
<glyph unicode="&#xf5;" horiz-adv-x="987" d="M49 291q-9 78 6.5 160t60 157.5t109.5 124.5q94 70 218 90.5t243.5 -21.5t185.5 -145q69 -108 69 -225t-62 -223q-21 -36 -55.5 -72t-94.5 -71t-131.5 -53t-172 -9t-208.5 53q-72 30 -115.5 93t-52.5 141zM181 968.5q0 34.5 18 65.5q42 56 114 41q102 52 197 45 q29 -2 63 -21.5t60.5 -33t42.5 -6.5q217 95 211 27q-4 -46 -92 -135q-49 -50 -70 -58q-27 -13 -62.5 -8t-60.5 15.5t-52.5 23t-39.5 14.5q-82 10 -123 -8q-13 -33 -42 -53.5t-75 -10.5q-39 7 -64 37.5t-25 65zM216.5 313q15.5 -69 78.5 -98q128 -59 239 -49.5t175 82.5 q31 35 45.5 77.5t14 77.5t-6.5 66t-12.5 47.5t-8.5 18.5q-86 89 -209 108t-206 -49q-64 -57 -94.5 -134.5t-15 -146.5z" />
<glyph unicode="&#xf6;" horiz-adv-x="1009" d="M65.5 439q7.5 88 45.5 169t100 133q89 76 226 107.5t263 6t183 -102.5q155 -206 59 -459q-11 -29 -32.5 -63.5t-57.5 -73t-79.5 -73t-101 -60.5t-120 -38.5t-139 -4.5t-154.5 40q-71 30 -119.5 96.5t-64.5 150.5t-8.5 172zM179 1137.5q-4 50.5 26 89.5q33 37 82.5 41 t91.5 -31q34 -30 38 -79.5t-26 -88.5q-33 -38 -82.5 -42t-91.5 30q-34 30 -38 80.5zM232.5 457q-18.5 -90 11 -170t94.5 -111q88 -38 177.5 -18t161.5 73t97 113q21 50 26.5 98t-0.5 79t-18 58t-19 36.5t-11 13.5q-53 55 -138.5 64.5t-164.5 -17t-136 -74.5 q-62 -55 -80.5 -145zM489 1149q-4 51 27 88q32 35 82 39t90 -27q36 -29 40 -78.5t-26 -87.5q-29 -41 -81.5 -46t-92.5 30q-35 31 -39 82z" />
<glyph unicode="&#xf7;" horiz-adv-x="1249" d="M132.5 576q3.5 69 41.5 94q19 12 36.5 14.5t26 -0.5t23 -11.5t19.5 -10.5q528 -21 735 -21q80 0 125 -9t53 -23t-2 -31t-36.5 -34t-54 -31t-51 -23t-30.5 -9q-59 0 -224 -5.5t-266.5 -6.5t-255.5 8q-38 -26 -96 2q-47 28 -43.5 97zM523 260q-4 50 30 88t84.5 41t87.5 -31 q34 -30 38.5 -79t-24.5 -89q-30 -37 -82.5 -42t-91.5 28q-38 34 -42 84zM543.5 836q-4.5 50 29.5 88t84.5 41t87.5 -31q35 -30 40.5 -79.5t-25.5 -88.5q-32 -40 -84 -44t-90 30t-42.5 84z" />
<glyph unicode="&#xf8;" horiz-adv-x="1095" d="M124 354.5q-2 102.5 37.5 204.5t114.5 162q105 83 223 114t228 15q25 41 37 63q-12 21 -3 45.5t21 32.5q62 39 117 14.5t66 -83.5q6 -35 -19 -73.5t-39 -45.5q-3 -4 -7 -11.5t-7 -11.5q45 -35 51 -41q38 -40 60 -84.5t30.5 -84.5t6 -93.5t-9.5 -94t-21 -103.5 q-9 -34 -38.5 -79t-82.5 -93.5t-118 -86t-152.5 -54.5t-178.5 -1q-15 -42 -82 -105q-78 -75 -113 -64q-49 16 42 222q-77 46 -119 140t-44 196.5zM308 318q13 -69 54 -115q133 257 256 467q-63 -4 -126 -30.5t-105 -64.5q-51 -45 -71.5 -116.5t-7.5 -140.5zM526 141 q102 1 194 57t109 124q12 50 16 67t10 52.5t3.5 51.5t-8.5 41t-20.5 45t-36.5 42q-144 -231 -267 -480z" />
<glyph unicode="&#xf9;" horiz-adv-x="944" d="M70 926q8 33 38 59.5t64.5 35.5t67.5 -7.5t45 -61.5q3 -15 0.5 -32.5t-7 -38.5t-4.5 -23q1 -84 -3 -201.5t-5 -189t3.5 -148.5t24.5 -125.5t56 -74.5q147 -105 223 43q37 72 76 267l8 40q11 54 13 139.5t8 143.5q1 4 -4.5 24.5t-6 38t10.5 41.5q30 46 81.5 51.5t91.5 -27 t40 -83.5q-1 -7 -10 -26t-9 -23q-4 -42 -6.5 -77t-5 -63t-3 -61t-1.5 -51.5t0.5 -56.5t1.5 -54t3 -66t4 -70t5.5 -88t6.5 -100q0 -1 10.5 -15t16 -30t-0.5 -41q-19 -47 -55.5 -65t-75 -5.5t-63.5 48.5q-13 16 -14 35t3.5 37t3.5 22q-28 -50 -68.5 -81.5t-82.5 -41.5 t-86 -10.5t-82.5 9t-69 19.5t-47.5 18l-18 9q-33 21 -58.5 54t-42.5 80t-29.5 95.5t-18.5 115.5t-9 123.5t-2 137t2.5 138t5.5 143.5q0 4 -15 28.5t-11 41.5zM190 1356q1 43 35 71t76.5 33.5t82.5 -15.5t50 -67q6 -29 13.5 -77t12.5 -72.5t21 -56t43 -54.5q131 -114 85 -146 q-32 -22 -117 5q-69 21 -95 53q-24 30 -70.5 81.5t-72 82t-46 75.5t-18.5 87z" />
<glyph unicode="&#xfa;" horiz-adv-x="944" d="M70 807q8 33 38 59.5t64.5 36t67.5 -7t45 -61.5q7 -16 4.5 -45.5t-15.5 -49.5q3 -276 35.5 -404t126.5 -192q105 -70 159 22q32 56 67 230q2 8 5 24q5 23 7 34q11 37 4 134.5t0 164.5q-35 49 0 104q30 45 84 46.5t94 -31t35 -74.5q-4 -42 -19 -49q-4 -42 -6.5 -77t-5 -63 t-3 -61t-1.5 -51.5t0.5 -56.5t1.5 -54t3 -66t4 -70t5.5 -88t6.5 -100q0 -1 10.5 -15t16 -30t-0.5 -41q-18 -46 -57.5 -62.5t-77.5 -4t-59 44.5q-9 14 -11 33t-1 38t1 23q-24 -67 -82 -95.5t-119 -21.5t-112 25.5t-72 38.5q-83 80 -129.5 152.5t-68 156.5t-23.5 188t4 246 q-13 10 -21.5 30t-4.5 40zM354.5 1005.5q10.5 28.5 44.5 73.5q44 58 60.5 101t22 100t14.5 90q19 80 87 80q58 0 108 -51q54 -54 38 -110q-1 -2 -2 -5q-17 -47 -34.5 -85t-43 -82t-59 -77t-72.5 -51q-15 -7 -36.5 -15t-48.5 -15t-47 -5t-31 12.5t-0.5 39z" />
<glyph unicode="&#xfb;" horiz-adv-x="944" d="M69 787q-1 9 1 20q8 33 38 59.5t64.5 36t67.5 -7t45 -61.5q6 -16 3.5 -46.5t-14.5 -48.5q3 -276 35.5 -404t126.5 -192q35 -23 62.5 -34.5t49 -13.5t38.5 10.5t29.5 29.5t24 51t19.5 68.5t19 87.5q14 70 -2.5 188.5t-50.5 229.5q-32 55 0 104q30 45 84 46.5t94 -31 t35 -74.5q-3 -31 -19 -49q37 -353 58 -695q15 -14 21.5 -22.5t10.5 -26.5t-6 -37q-18 -46 -58.5 -64t-79.5 -5t-56 47q-6 13 -7.5 29.5t0 32t0.5 20.5q-26 -46 -55.5 -75.5t-55.5 -43t-57 -13.5t-54 6t-53.5 22.5t-48 29t-44.5 33.5q-138 107 -194 282.5t-44 460.5 q-25 35 -27 50zM135 1085q8 41 30 62t48 24q56 131 121.5 198t134 67.5t138.5 -50.5t141 -153q60 -8 79 -70q15 -51 -19.5 -96.5t-86.5 -44.5q-36 1 -65.5 27t-32.5 55q-15 19 -40 52q-78 112 -114.5 100t-126.5 -193q0 -32 -26.5 -65.5t-63.5 -39.5q-53 -8 -91 30t-26 97z " />
<glyph unicode="&#xfc;" horiz-adv-x="927" d="M70 840q8 33 38.5 54.5t64.5 24.5t67 -18.5t45 -66.5q7 -16 4.5 -48.5t-15.5 -46.5q3 -276 35.5 -404t126.5 -192q98 -65 145 18q28 49 57 209q14 73 19 99q11 54 13 139.5t8 143.5q-27 61 0 104q30 45 82.5 49t92.5 -26t40 -72q0 -35 -21 -59q-4 -42 -6.5 -77t-5 -63 t-3 -61t-1.5 -51.5t0.5 -56.5t1.5 -54t3 -66t4 -70t5.5 -88t6.5 -100q0 -1 10.5 -15t16 -30t-0.5 -41q-18 -46 -58 -63.5t-78.5 -4.5t-57.5 46q-8 15 -9 34t1 37.5t1 22.5q-39 -69 -91 -99.5t-99 -25.5t-88 20t-66 34l-24 18q-262 167 -238 743q-37 49 -26 103zM225 1128.5 q-4 52.5 27 90.5q31 37 81.5 40.5t90.5 -28.5q35 -31 38 -81t-28 -87t-79.5 -42.5t-88.5 26.5q-37 29 -41 81.5zM537 1140.5q-4 49.5 26 88.5q31 37 81.5 40.5t90.5 -28.5q36 -30 40.5 -78.5t-25.5 -87.5q-33 -40 -84 -45t-91 31q-34 30 -38 79.5z" />
<glyph unicode="&#xfd;" horiz-adv-x="991" d="M53 721q-15 30 7.5 69t63 62t73.5 12q43 -18 60 -47.5t15 -58.5q12 -18 57.5 -88t70 -105t75.5 -95.5t107 -113.5q8 19 29.5 68t31.5 72t29.5 65t34.5 69t35 61t40 63q3 7 0.5 21t4.5 37.5t26 39.5q19 18 52 18.5t63.5 -12t53 -36.5t22.5 -50q-1 -43 -26 -76.5t-52 -42.5 q-17 -26 -32 -52t-32 -60.5t-26 -53.5t-28 -64.5t-23.5 -56t-26.5 -65.5t-23 -59l2 -2q53 -45 67.5 -81t-4.5 -55t-54.5 -27t-79.5 -3q-13 -34 -86.5 -181t-112.5 -272q27 -65 -35 -119q-29 -25 -67.5 -27t-68.5 17.5t-38 50.5q-25 78 29 117q51 141 128 309t91 203 q-68 63 -119 116.5t-91.5 107.5t-60.5 83t-58 91t-52 83q-1 1 -17 8.5t-31.5 22t-23.5 37.5zM331 987q6 37 91 121q39 38 58 76t20.5 65t3.5 69.5t10 74.5q19 80 85 81t117 -54t32 -111q-6 -18 -17 -54t-18 -54.5t-22.5 -49t-33.5 -51t-49.5 -45t-72.5 -45.5 q-51 -27 -122 -44q-89 -21 -82 21z" />
<glyph unicode="&#xff;" horiz-adv-x="985" d="M47 717q-18 62 25.5 113.5t113.5 33.5q55 -16 80 -92q16 -23 59 -91.5t69.5 -107t78 -100.5t109.5 -117q8 19 29.5 68t31.5 72t29.5 65t34.5 69t35 61t40 63q0 1 -1.5 26.5t6 52t30.5 37.5q39 16 80.5 12t72.5 -36t27 -78q-2 -19 -15 -39.5t-28 -37t-16 -17.5 q-44 -66 -82.5 -150.5t-57 -138.5t-53.5 -162q14 -25 18.5 -35t8.5 -27.5t-2 -32t-22 -30.5q-24 -30 -80 -26q-85 -239 -129 -363q22 -76 -45 -119q-38 -18 -77.5 -15t-70.5 34.5t-31 79.5q0 61 64 94q79 255 129 389q-68 63 -119.5 116.5t-92.5 107.5t-61 82.5t-58.5 91.5 t-51.5 83q-1 1 -18.5 7t-35 20t-24.5 37zM271.5 1094.5q-3.5 52.5 29.5 89.5q31 36 79.5 39t88.5 -29q38 -29 42 -78.5t-30 -89.5q-29 -37 -80.5 -41.5t-91.5 27.5q-34 30 -37.5 82.5zM583.5 1106q-4.5 51 26.5 88q31 35 82 39t90 -27q37 -31 42 -81t-27 -89 q-32 -40 -84 -43.5t-90 31.5q-35 31 -39.5 82z" />
<glyph unicode="&#x152;" horiz-adv-x="1808" d="M57.5 528.5q-0.5 145.5 43.5 291t130 276.5q31 47 96.5 83.5t142 56.5t154 30t140 7t92.5 -16q21 -5 29 -10q0 51 22.5 77.5t54 26t61 -10.5t48.5 -25q47 -44 43 -109q34 3 112 11.5t119.5 12t100.5 6t102.5 -2t77.5 -16.5q34 10 76.5 -3.5t62.5 -48.5q26 -44 8 -95.5 t-65 -70.5q-39 -14 -81.5 4t-61.5 48q-25 11 -64 15t-94.5 0t-95.5 -8t-109.5 -13.5t-93.5 -12.5q14 -32 27 -133q115 30 208.5 32t210.5 -22q91 -20 142 -39.5t61 -35.5t-2 -30.5t-41 -25.5t-64 -19.5t-63 -13t-45 -6.5q-39 -3 -113.5 2t-147 2.5t-138.5 -24.5 q7 -96 10 -146.5t2 -140t-12 -160.5q14 -119 28 -170q59 16 177.5 33t224.5 55q23 28 66.5 40t84.5 -11q41 -27 50 -83.5t-17 -86.5q-32 -35 -76.5 -41.5t-70.5 8.5q-59 -16 -219 -44t-290 -48l-130 -20q-2 3 -6.5 8t-6.5 8q-68 -43 -143 -66.5t-163.5 -27t-185 37 t-183.5 124.5q-111 112 -168 253.5t-57.5 287zM239 533q5 -108 41.5 -205t102.5 -174q56 -68 121 -104t124 -39t116 12.5t100 46t71.5 65.5t34.5 68q2 8 7.5 28t7.5 31q26 159 16 358.5t-47 340.5q-32 42 -86 83q-7 5 -15.5 7.5t-15.5 4t-17 2t-16 0t-16 -2t-14.5 -2.5 t-13.5 -3.5t-11 -2.5q-238 -101 -249 -37q-4 22 24 61q-35 4 -69.5 -22.5t-55.5 -55.5q-75 -113 -110 -232.5t-30 -227.5z" />
<glyph unicode="&#x153;" horiz-adv-x="1542" d="M51.5 528q21.5 108 91.5 170q84 71 203 103t237 11.5t187 -97.5q4 -4 16.5 -17.5t20.5 -21.5q75 138 203 151q55 8 109 0.5t105.5 -31.5t106.5 -77t111 -135l9 -7q9 -7 17 -16t13 -20q20 -33 23.5 -68.5t-10.5 -66t-55.5 -48t-105.5 -12.5q-315 0 -424 -31q0 -58 -8 -86 q24 -46 87.5 -70.5t129.5 -15.5q141 22 209 80q111 81 137.5 56.5t9.5 -90.5t-47 -99q-28 -30 -118 -68.5t-187 -54.5q-61 -10 -158.5 21.5t-154.5 85.5q-193 -209 -502 -94q-95 35 -162.5 129.5t-91 202.5t-2 216zM213 456.5q-10 -65.5 7 -128t57.5 -116.5t93.5 -77 q116 -49 218 -1.5t124 134.5q-47 4 -68 25q-14 15 -17.5 45.5t8 61.5t36.5 44q26 13 45 13q-5 34 -21.5 66.5t-29.5 48.5t-15 16q-61 54 -137.5 64t-140.5 -15t-109 -72q-41 -43 -51 -108.5zM909 475q30 4 67.5 7t73 4.5t72 3t66.5 2.5t53.5 1.5t36.5 1t12 1.5 q-65 94 -129 138.5t-110 35.5q-67 -13 -92.5 -50t-49.5 -145z" />
<glyph unicode="&#x178;" horiz-adv-x="1046" d="M31 1208q-18 62 25.5 114t113.5 34q56 -15 76 -86q28 -19 53 -38t55.5 -49t50.5 -50t61 -67.5t62.5 -73t80 -96t89.5 -108.5q120 272 224 463q-10 108 47 144q25 16 58 15.5t61 -14t46 -41.5t15 -63q-4 -35 -21 -63.5t-41 -42.5q-55 -104 -103.5 -218t-71 -175 t-62.5 -179q64 -83 -2 -149q-11 -14 -40 -14t-58 10q-51 -98 -256 -520q7 -33 -4.5 -68.5t-47.5 -58.5q-38 -18 -77.5 -15t-70 34t-30.5 79q0 55 64 88q57 121 161 341t119 253q-42 53 -104 131t-88 111t-67 83.5t-61.5 72.5t-50 52.5t-53.5 50.5t-53 40q-81 0 -100 73z M349 1415q-4 53 30 90q32 35 82 39.5t88 -26.5q36 -32 38.5 -82t-28.5 -86q-31 -37 -79.5 -43t-88.5 26q-38 29 -42 82zM660 1430q-3 48 28 86q31 37 82.5 40.5t89.5 -28.5q37 -31 41.5 -82t-27.5 -88q-34 -38 -85.5 -41t-88.5 31t-40 82z" />
<glyph unicode="&#x2c6;" horiz-adv-x="1003" d="M117 958q15 74 76 82q21 41 34 64.5t36.5 58.5t47 58.5t59 50t79.5 47.5q200 -77 278 -215q27 -5 49.5 -23.5t30.5 -48.5q16 -56 -14 -99t-91 -42q-86 0 -100 84q0 1 -7 12t-9 14.5t-9.5 15t-13 17t-14.5 16.5t-18 18t-20.5 16t-25 17t-28.5 15q-11 -9 -20.5 -17.5 t-19 -19t-15.5 -17t-14.5 -19.5t-12.5 -18t-13.5 -21.5t-12 -21t-13.5 -25t-14 -25.5q0 -32 -25.5 -67.5t-63.5 -41.5q-55 -8 -92.5 32.5t-23.5 102.5z" />
<glyph unicode="&#x2dc;" horiz-adv-x="1155" d="M77.5 1258q-17.5 53 16.5 98q33 54 109 41q81 57 176 84.5t135 7.5q15 -7 43.5 -21t49.5 -24.5t49.5 -21.5t50.5 -16.5t45.5 -6t40.5 7.5q275 126 283 63q5 -39 -84 -124q-86 -81 -148 -105l-13 -4q-50 -12 -91.5 -13.5t-76.5 8t-59.5 20.5t-62 30t-62.5 29 q-15 6 -29 8.5t-30 -1.5t-27 -6.5t-30.5 -13.5t-27.5 -16t-32 -20.5t-31 -20.5q-16 -30 -46 -46.5t-72 -4.5q-59 15 -76.5 68z" />
<glyph unicode="&#x2000;" horiz-adv-x="839" />
<glyph unicode="&#x2001;" horiz-adv-x="1679" />
<glyph unicode="&#x2002;" horiz-adv-x="839" />
<glyph unicode="&#x2003;" horiz-adv-x="1679" />
<glyph unicode="&#x2004;" horiz-adv-x="559" />
<glyph unicode="&#x2005;" horiz-adv-x="419" />
<glyph unicode="&#x2006;" horiz-adv-x="279" />
<glyph unicode="&#x2007;" horiz-adv-x="279" />
<glyph unicode="&#x2008;" horiz-adv-x="209" />
<glyph unicode="&#x2009;" horiz-adv-x="335" />
<glyph unicode="&#x200a;" horiz-adv-x="93" />
<glyph unicode="&#x2010;" d="M164.5 562.5q2.5 31.5 23.5 59t56 37.5q21 6 46.5 -2.5t28.5 -7.5q132 -17 349 -11t331 36q310 79 301 20q-5 -36 -115 -102q-91 -56 -161 -76q-126 -39 -332 -53t-370 6q-3 1 -16.5 -6.5t-28 -12t-39.5 2.5q-38 15 -57 46.5t-16.5 63z" />
<glyph unicode="&#x2011;" d="M164.5 562.5q2.5 31.5 23.5 59t56 37.5q21 6 46.5 -2.5t28.5 -7.5q132 -17 349 -11t331 36q310 79 301 20q-5 -36 -115 -102q-91 -56 -161 -76q-126 -39 -332 -53t-370 6q-3 1 -16.5 -6.5t-28 -12t-39.5 2.5q-38 15 -57 46.5t-16.5 63z" />
<glyph unicode="&#x2012;" d="M164.5 562.5q2.5 31.5 23.5 59t56 37.5q21 6 46.5 -2.5t28.5 -7.5q132 -17 349 -11t331 36q310 79 301 20q-5 -36 -115 -102q-91 -56 -161 -76q-126 -39 -332 -53t-370 6q-3 1 -16.5 -6.5t-28 -12t-39.5 2.5q-38 15 -57 46.5t-16.5 63z" />
<glyph unicode="&#x2013;" horiz-adv-x="1056" d="M59 440.5q6 55.5 41 79.5q45 25 83 20t65 -28q111 -5 302 -9.5t259 -6.5q87 -2 135.5 -12.5t56.5 -24.5t-3 -31t-40 -33t-58.5 -29.5t-54.5 -21.5t-32 -8q-66 0 -179.5 -6.5t-184 -8.5t-209.5 7q-25 -15 -76.5 -13t-77.5 31q-33 39 -27 94.5z" />
<glyph unicode="&#x2014;" horiz-adv-x="2478" d="M174 743.5q6 55.5 41 79.5q45 25 82.5 20t64.5 -28q127 -4 951.5 -10.5t908.5 -9.5q79 -2 123.5 -12.5t52 -24.5t-2 -31t-36 -33t-53.5 -29.5t-50 -21.5t-30 -8q-26 0 -509.5 -5.5t-802.5 -6.5t-560 8q-25 -15 -76 -13t-77 31q-33 39 -27 94.5z" />
<glyph unicode="&#x2018;" horiz-adv-x="479" d="M96 1025.5q-5 87.5 26 160t85 119.5q34 30 100 53q92 32 95 -16q1 -39 -54 -121q-20 -29 -21.5 -52.5t9.5 -44.5t24.5 -43t23.5 -58.5t7 -80.5q-4 -64 -51.5 -100.5t-104 -30.5t-85.5 51q-49 76 -54 163.5z" />
<glyph unicode="&#x2019;" horiz-adv-x="528" d="M91 864q11 40 50 101q30 46 37 82.5t-1.5 59.5t-13 58t2.5 78q9 53 41.5 74.5t71.5 12.5t78 -36t63 -65q21 -33 30 -64t8.5 -57.5t-13.5 -54.5t-29.5 -51t-48 -52.5t-60.5 -53t-74 -58.5q-23 -19 -52 -31.5t-52.5 -12t-36 15t-1.5 54.5z" />
<glyph unicode="&#x201a;" horiz-adv-x="567" d="M120.5 -171q7.5 44 49.5 116q22 38 27.5 67t-1.5 51t-17.5 42t-20 50t-8.5 64q0 54 28 81.5t67.5 27t82 -19t71.5 -50.5q37 -40 51.5 -80.5t11.5 -78t-28 -82.5t-57 -86t-84 -99q-19 -21 -50.5 -40t-61 -24t-49 6t-12 55z" />
<glyph unicode="&#x201c;" horiz-adv-x="753" d="M55.5 989q-2.5 64 20 121.5t50 101.5t62.5 84q24 26 94 50q94 33 110 -2q17 -37 -77 -148q-23 -28 -24.5 -57.5t12.5 -57t30.5 -54.5t27 -59.5t4.5 -62.5q-11 -57 -38.5 -89t-61.5 -37t-69 4t-63.5 32t-42.5 51q-32 59 -34.5 123zM383 968.5q-13 48.5 7.5 103t56.5 104.5 t102 122q35 41 89 57q59 17 66 -27q8 -45 -51 -146q-19 -31 -21 -55.5t8 -43t22.5 -36.5t23.5 -46t10 -61q0 -71 -46.5 -103t-106.5 -20.5t-101 53.5q-46 50 -59 98.5z" />
<glyph unicode="&#x201d;" horiz-adv-x="753" d="M69.5 812q7.5 44 49.5 116q27 46 29 81.5t-10.5 57t-26.5 58.5t-13 77q0 54 28 81.5t67.5 27t82.5 -19t72 -50.5q37 -40 51.5 -80.5t11.5 -78t-28 -82.5t-57 -86t-84 -99q-19 -21 -50.5 -40t-61 -24t-49 6t-12 55zM350 789q-3 42 90 147q28 31 29 71t-13.5 73t-26 78 t-5.5 81q11 56 40 90t65 40t72.5 -4.5t65 -40.5t38.5 -69q37 -131 9.5 -219t-149.5 -202q-47 -37 -122 -60q-90 -27 -93 15z" />
<glyph unicode="&#x201e;" horiz-adv-x="876" d="M151.5 -202q7.5 44 49.5 116q27 46 29 81.5t-10.5 57t-26.5 58.5t-13 77q0 54 28 81.5t67.5 27t82.5 -19t72 -50.5q37 -40 51.5 -80.5t11.5 -78t-28 -82.5t-57 -86t-84 -99q-19 -21 -50.5 -40t-61 -24t-49 6t-12 55zM432 -225q-3 42 90 147q28 31 29 71t-13.5 73t-26 78 t-5.5 81q13 70 54.5 104t86.5 30t85.5 -36t53.5 -81q37 -130 9.5 -219t-148.5 -203q-47 -37 -122 -60q-90 -27 -93 15z" />
<glyph unicode="&#x2022;" horiz-adv-x="1449" d="M220 772q7 137 81 259.5t188 189.5q95 56 184.5 78.5t164 12t135 -37.5t114.5 -72q111 -91 153 -226.5t5 -274.5t-145 -238q-48 -44 -128.5 -77.5t-177 -47.5t-191.5 -6t-180 52.5t-134 121.5q-76 129 -69 266z" />
<glyph unicode="&#x2026;" horiz-adv-x="1234" d="M89 73.5q-4 50.5 26 90.5q30 36 81.5 38.5t90.5 -30.5q37 -33 41.5 -81t-27.5 -87q-32 -40 -82.5 -43.5t-91.5 31.5q-34 31 -38 81.5zM494.5 105q-4.5 51 29.5 88t84.5 39.5t87.5 -31.5q35 -31 39.5 -79.5t-24.5 -86.5q-31 -37 -83 -42.5t-91 27.5q-38 34 -42.5 85z M867 44q-4 50 28 89t89.5 40t92.5 -30q33 -29 33.5 -79.5t-29.5 -88.5q-31 -37 -82.5 -41.5t-91.5 27.5q-36 33 -40 83z" />
<glyph unicode="&#x202f;" horiz-adv-x="335" />
<glyph unicode="&#x2039;" horiz-adv-x="604" d="M100 531.5q1 8.5 10.5 34t18.5 40t33 52.5q65 104 114 192q3 51 40.5 87t78.5 34q17 -1 38.5 -10.5t43 -27t33.5 -48.5t6 -68q-3 -23 -37.5 -50.5t-66.5 -37.5q-20 -36 -40.5 -69.5t-33.5 -50.5t-24 -37.5t-16.5 -27.5t-7.5 -24t-1.5 -23.5t7 -29.5t13 -38.5t21 -53.5 t26.5 -72q39 -15 59 -58.5t5 -82.5q-23 -58 -87.5 -80.5t-105.5 12.5q-48 40 -37 125q-22 71 -54 166q-16 46 -22 64t-10.5 46t-3.5 36.5z" />
<glyph unicode="&#x203a;" horiz-adv-x="604" d="M78 211q3 24 33 50t59 34q20 35 41 71t32.5 53t22.5 40t15.5 30.5t6 26.5t-0.5 27t-8.5 32.5t-14 41.5t-22 56t-27.5 75q-35 24 -49.5 61t0.5 76q23 57 85 69.5t103 -24.5q48 -40 37 -125q22 -71 54 -166q16 -46 22 -64t10.5 -46t3.5 -36.5t-10.5 -34t-18.5 -40 t-33 -52.5q-65 -104 -114 -192q-4 -50 -42 -80t-81 -28q-18 1 -36.5 8.5t-36.5 23.5t-27.5 45.5t-3.5 67.5z" />
<glyph unicode="&#x205f;" horiz-adv-x="419" />
<glyph unicode="&#x2122;" horiz-adv-x="1941" d="M35.5 1287.5q-14.5 59.5 23.5 98.5q10 10 24 16t32 6.5t28.5 0t30.5 -4t21 -3.5q26 2 79 7.5t76.5 5.5t110.5 -1q0 29 10 51q22 47 79 59.5t95 -22.5q32 -32 29 -78q66 2 159.5 16.5t124.5 16.5q10 61 56 84q43 22 73.5 -2t73.5 -96q2 -2 8.5 -13.5t7.5 -13.5t7 -13 t6 -12.5t4.5 -12.5t2 -13t-0.5 -14q76 -194 121 -387q28 141 64.5 242.5t111.5 240.5q41 93 90 100q42 8 105 -37q29 -31 69.5 -197.5t85 -390t62.5 -292.5l9.5 -19t9 -20.5t8 -26t1 -25t-5.5 -26.5q-20 -47 -80.5 -60t-95.5 21q-61 53 -31 125q-35 133 -56.5 278t-32 253.5 t-15.5 134.5q-19 -40 -35.5 -79t-31.5 -87t-24.5 -77t-24.5 -90t-20 -83t-22 -99.5t-22 -97.5q-2 -8 -6 -47t-10 -72t-13 -38q-39 -27 -95.5 -1.5t-70.5 70.5q-127 430 -174 600q-28 -123 -109 -602q12 -21 10.5 -51.5t-30.5 -60.5q-39 -42 -95.5 -34.5t-80.5 54.5 q-41 72 18 127q18 104 42 260t40.5 247.5t36.5 166.5q-16 -2 -66.5 -10t-89 -12.5t-79.5 -6.5q1 -70 12 -280t8 -334q19 -18 23.5 -52t-9.5 -67q-22 -48 -82.5 -60.5t-95.5 23.5q-8 8 -13 17.5t-6.5 21.5t-2.5 21.5t0.5 22.5t2 19.5t3 18t2.5 12.5q-2 140 -14 349t-13 288 q-50 -1 -90.5 -3t-60.5 -4.5t-55.5 -7.5t-55.5 -7q-20 -14 -51.5 -19t-65.5 6q-50 22 -64.5 81.5z" />
<glyph unicode="&#x25fc;" horiz-adv-x="921" d="M0 0v922h922v-922h-922z" />
<glyph unicode="&#xfb01;" horiz-adv-x="1015" d="M48.5 706.5q-2.5 65.5 45.5 90.5q7 3 13.5 5.5t12.5 3.5t13.5 1t12 -0.5t12 -2t11 -2.5t11 -4t9.5 -4t9.5 -4.5t8.5 -3.5q37 0 102 -10q-5 60 -19 134.5t-26 130t-22 117.5t-7 110t18 93t53.5 80t99.5 60q38 13 78.5 3t80.5 -35t71.5 -51.5t51.5 -47.5l19 -20 q38 51 73 67q35 15 92 15q50 0 99.5 -44t78.5 -105t29 -112q0 -17 -2 -35t-12 -48.5t-27 -55t-50.5 -48.5t-78.5 -36q-12 -3 -39.5 3t-52.5 22q24 -92 50.5 -312.5t41.5 -394.5l15 -174q14 -15 21.5 -33.5t4 -43.5t-21.5 -48q-37 -51 -97.5 -49t-91.5 45q-15 19 -16 44.5 t6.5 46.5t20.5 38q-3 128 -10.5 213.5t-19.5 172.5t-18 145q-54 -21 -71 -21q-35 -2 -63 -4.5t-42 -3.5t-30 0q7 -140 2 -306t-19 -239q11 -20 11.5 -49.5t-15.5 -60.5q-28 -46 -86 -54t-94 31q-17 19 -18.5 50t4 51.5t12.5 37.5q20 51 28.5 225t0.5 324q-20 2 -58 6.5 t-53 5.5q-24 -15 -53.5 -17t-61.5 15q-45 27 -47.5 92.5zM385 1187q1 -38 13.5 -89.5t30 -99.5t34.5 -113t22 -121q85 -6 144 -6h71q-2 16 -4 43.5t-4 44.5q-6 56 -43 155t-37 199q-4 6 -10.5 15.5t-25 33t-35 40t-36 27t-32.5 3.5q-46 -24 -67.5 -59t-20.5 -73zM834 1174 q7 -18 24.5 -32t30.5 -14q11 0 21.5 20.5t9.5 39.5q-1 20 -18.5 37.5t-29.5 17.5q-18 0 -31 -25t-7 -44z" />
<glyph unicode="&#xfb02;" horiz-adv-x="927" d="M30.5 668q-7.5 64 37.5 94q20 12 43.5 13.5t35.5 -2t33 -11.5q25 2 105 -2q-9 50 -23.5 117.5t-25.5 116t-21.5 108t-14.5 103t-1 90.5t15.5 81t38 64.5t64.5 50.5q56 1 98.5 2.5t79 -11t66 -32.5t59.5 -62.5t60 -101t68 -147.5q26 -4 37.5 -6.5t29 -9t31.5 -17.5 q36 -31 41 -80t-27 -88q-32 -40 -84.5 -44t-89.5 30q-11 8 -18 22q-19 3 -37 12q-26 17 -37.5 48t-11.5 59q-20 52 -37 90.5t-29 65t-24 43.5t-19.5 26.5t-18 14.5t-16 6t-18.5 2t-21 2q-32 -29 -34.5 -89.5t13 -121t43 -165t40.5 -175.5q81 0 143 6q50 4 68 4 q37 20 75.5 12.5t63.5 -41.5q34 -46 4 -120q-27 -259 -27 -351t23 -213q39 -67 12 -112q-27 -50 -83 -59t-91 26q-25 23 -29 65t9 66q-22 149 -20.5 272.5t24.5 290.5q-19 -2 -72.5 -8.5t-75.5 -7.5q20 -136 29.5 -303t1.5 -240q12 -20 15 -49t-9 -61q-23 -50 -81.5 -63 t-96.5 24q-18 18 -22.5 48.5t-1 51.5t9.5 39q15 57 8.5 230t-27.5 319q-23 0 -60 1t-50 1q-58 -40 -115 -12q-48 24 -55.5 88z" />
</font>
</defs>
</svg>
