<?xml version="1.0" standalone="no"?>
<!DOCTYPE svg PUBLIC "-//W3C//DTD SVG 1.1//EN" "http://www.w3.org/Graphics/SVG/1.1/DTD/svg11.dtd" >
<svg xmlns="http://www.w3.org/2000/svg">
<metadata></metadata>
<defs>
<font id="soupboneregular" horiz-adv-x="1236" >
<font-face units-per-em="2048" ascent="1638" descent="-410" />
<missing-glyph horiz-adv-x="624" />
<glyph horiz-adv-x="2048" />
<glyph horiz-adv-x="2048" />
<glyph unicode="&#xd;" horiz-adv-x="2048" />
<glyph unicode=" "  horiz-adv-x="624" />
<glyph unicode="&#x09;" horiz-adv-x="624" />
<glyph unicode="&#xa0;" horiz-adv-x="624" />
<glyph unicode="!" horiz-adv-x="593" d="M104.5 -42.5q-2.5 36.5 20.5 67.5q23 28 61.5 29.5t67.5 -23.5q26 -22 28.5 -59.5t-20.5 -65.5q-24 -28 -61 -31t-68 23q-26 23 -28.5 59.5zM231 378v5q5 112 18 269.5t21.5 256.5t13.5 224t-5 174q-14 12 -20 37t7 47q28 38 73.5 42t72.5 -38q4 -6 6.5 -12t3 -12.5 t1 -10.5t-1.5 -10.5t-2.5 -9.5t-4 -10l-4.5 -9t-5.5 -9.5t-5.5 -8.5q18 -157 -6.5 -479.5t-60.5 -446.5q-71 -241 -95 -212q-17 20 -6 213z" />
<glyph unicode="&#x22;" horiz-adv-x="747" d="M131 1294q0 34 24 53t53.5 19t56 -18.5t30.5 -51.5q20 -186 -49 -360q-17 -40 -52 -50q-32 -9 -41 19q-4 16 3 41q15 52 13 103.5t-11 83.5t-18.5 77t-8.5 84zM440.5 1191.5q-0.5 36.5 1 67.5t4.5 66q5 43 51 53.5t86 -15t29 -67.5q-30 -107 -45 -176t-26 -164 q-3 -29 -24.5 -46t-42.5 -5t-23 56q-2 36 -5 89.5t-4 79t-1.5 62z" />
<glyph unicode="#" horiz-adv-x="1460" d="M187 308.5q-12 30.5 3 62t52 47.5q20 5 32.5 0t25 -14t15.5 -9q13 0 89.5 -8.5t115.5 -9.5q0 51 3 144t3 134q-42 1 -114 12t-76 11q-2 0 -15.5 -5.5t-26.5 -7.5t-36 5q-52 19 -52 71t56 78q20 6 33 2.5t26 -11t15 -7.5q12 0 84 -11t106 -12q0 68 4.5 146t4.5 80 q0 3 -6.5 15.5t-9.5 25.5t3 36q13 32 47 41.5t65.5 -4t39.5 -41.5q4 -13 -0.5 -29t-10.5 -29t-6 -15q0 -16 -3 -97t-3 -137q50 0 113.5 -2t124.5 -2q0 58 2 131t2 76t-6 16.5t-9 26t3 35.5q13 33 46.5 42.5t65 -4.5t39.5 -42q4 -13 0 -29t-10 -29t-6 -16q0 -14 -4 -81.5 t-4 -115.5q74 0 170 13q206 28 202 -13q-3 -28 -88 -69q-65 -31 -116 -39q-104 -17 -170 -17q0 -42 1 -139t1 -145q31 0 53.5 2t49.5 6t44 6q178 20 168 -22q-6 -30 -89 -71q-48 -24 -81 -30q-89 -18 -147 -18v-133q0 -11 -4 -32.5t-11.5 -45.5t-17 -45t-20.5 -28t-22.5 1 t-23.5 46t-22 104q-6 44 -6 133q-64 0 -127 4t-111 4q0 -36 -1 -99.5t-1 -89.5q0 -11 -4.5 -33.5t-12.5 -47t-18.5 -46.5t-22 -29t-23 1.5t-23 48t-19.5 108.5q-4 8 -1 92t3 97q-34 1 -81 6.5t-82 10.5t-40 5q-3 0 -17.5 -5t-28 -7t-36.5 4q-34 12 -46 42.5zM645 377 q51 0 112 -9.5t122 -9.5q0 51 -2.5 149t-2.5 138h-225q0 -42 -2 -131.5t-2 -136.5z" />
<glyph unicode="$" horiz-adv-x="1032" d="M47 678q16 88 45 151.5t71 102t83.5 59.5t97.5 37q0 7 -1 18t-1 17q0 3 -7.5 16.5t-11 27t2.5 36.5q12 33 42.5 45.5t62.5 -1.5t48 -50q6 -23 6 -31t-6.5 -22t-7.5 -21q-1 -5 -3 -15.5t-3 -15.5q19 -2 62.5 -0.5t60.5 -1.5q-17 24 0 55q15 33 46.5 45.5t63 -0.5t47.5 -49 q3 -9 3 -19.5t-1.5 -17.5t-7.5 -17.5t-8.5 -14t-9.5 -13.5q58 -28 94 -68t59 -104q0 -1 24 -30.5t20 -51.5q-6 -36 -40.5 -55t-64.5 -2q-22 12 -28 42t-1 48q-46 58 -63 72q-2 -41 -7 -81t-14.5 -103.5t-15.5 -114.5q192 11 240 -145q10 -63 -3 -126t-49 -122.5 t-103.5 -109.5t-160.5 -81q-3 -18 -6.5 -44t-7 -42t-10.5 -35q-22 -56 -40 -80t-28.5 -20t-18 22.5t-10 39.5t-2.5 40q0 10 4 40.5t5 50.5q-103 -21 -156 -23q0 -1 -6.5 -42t-16.5 -64q-9 -23 -14.5 -35.5t-16 -35t-17 -32t-15.5 -21t-15 -7t-11.5 16t-8 41.5t-2.5 75 q0 26 16 106q-10 2 -40.5 7t-47 9.5t-34 17.5t-21.5 34q-8 44 18 81t68 37q20 0 42.5 -13.5t29.5 -22.5q20 146 37 321q-48 -3 -93.5 12.5t-82 48.5t-54 92.5t-6.5 135.5zM160 649q0 -55 28 -85t111 -52q6 66 23 196.5t18 198.5q-41 -16 -70 -39.5t-58.5 -78t-51.5 -140.5z M352 29q99 17 154 32q4 36 18 154.5t23 187.5q-97 -24 -146 -26q-18 -172 -49 -348zM414 516q78 4 143 19q8 65 20.5 144t18.5 128.5t8 101.5q-37 6 -143 6q-1 -57 -7 -110t-19 -136t-21 -153zM631 106q113 56 154 131.5t20 145.5q0 39 -38.5 48t-90.5 -1q-8 -63 -24 -172.5 t-21 -151.5z" />
<glyph unicode="%" horiz-adv-x="1048" d="M106.5 607q-26.5 73 2.5 136q31 63 105 82t136 -12q66 -33 93 -104t-5 -138q-22 -42 -64 -65.5t-87 -22.5t-90 19q-64 32 -90.5 105zM131 37q3 23 18.5 39t33 24t18.5 9q443 655 577 782q2 2 7 19.5t14 33t24 19.5q48 16 83.5 -9.5t35.5 -66.5q0 -24 -15 -41.5t-34.5 -27 t-20.5 -11.5q-24 -23 -69.5 -80.5t-111.5 -148t-122 -168.5t-140.5 -197t-127.5 -178q-2 -4 -6 -26t-15.5 -40t-35.5 -24q-47 -14 -82.5 22t-30.5 70zM219 690q-8 -18 2.5 -45t28.5 -33q53 -21 76 11q12 21 1.5 46t-30.5 33q-17 9 -44 7t-34 -19zM577 114.5 q-23 68.5 7 131.5q32 65 106 94t137 0q64 -32 86 -101.5t-8 -132.5q-32 -65 -105 -93t-136 1q-64 32 -87 100.5zM691.5 153q6.5 -21 25.5 -28q17 -9 44.5 4t33.5 31q8 18 2.5 38.5t-23.5 30.5q-20 11 -46 -2t-34 -34q-9 -19 -2.5 -40z" />
<glyph unicode="&#x26;" horiz-adv-x="1169" d="M45 599q-8 66 14 115.5t63 95.5t76 72t68 44q45 25 100.5 35t114 -4t105 -52t72 -119t16.5 -194q-10 -79 -17 -105q76 15 107 21.5t83 21.5t114 39q3 1 15.5 16t32 25t42.5 4q34 -8 51.5 -33.5t16.5 -54t-17 -49.5q-15 -18 -36.5 -23t-40.5 -2.5t-21 1.5 q-12 -4 -52 -17.5t-49.5 -16.5t-41 -13t-43.5 -13.5t-39 -10.5t-46.5 -11t-46 -9t-55.5 -10q-10 -40 -27.5 -125t-32 -138t-32.5 -93l1 -8q1 -8 1 -11t0.5 -12t-0.5 -14.5t-2.5 -14.5t-4.5 -16t-8 -15.5t-12 -15.5q-17 -19 -48.5 -25t-60 10.5t-34.5 55.5q-4 23 2 39.5 t15 23.5t17.5 12.5t8.5 8.5q25 59 88 334q-130 -14 -237.5 18.5t-162.5 102.5q-49 64 -57 130zM173.5 624q2.5 -36 31.5 -69q92 -108 323 -74q17 57 25 107q11 71 -4.5 128t-49.5 85t-81 35t-99 -21q-19 -10 -41 -26t-49 -44t-42.5 -56.5t-13 -64.5z" />
<glyph unicode="'" horiz-adv-x="311" d="M59 1307q-1 34 15 55.5t40 24.5t48.5 -4t43 -27.5t21.5 -46.5q15 -143 -47 -361q-14 -44 -52 -64q-35 -18 -46 8q-10 22 6 69q20 49 18 100.5t-12.5 83.5t-22.5 78t-12 84z" />
<glyph unicode="(" horiz-adv-x="501" d="M67 686q9 141 60.5 271t140.5 210q4 2 17 32t37 36q48 11 81 -19.5t33 -72.5q0 -20 -10 -33.5t-22 -18.5t-25 -9t-14 -5q-45 -38 -84.5 -115.5t-62.5 -190t-21 -236t50 -267t142 -268.5q39 -17 37 -57q-3 -48 -37 -74t-92 -8q-68 20 -51 119q-61 60 -107 173.5 t-63.5 252.5t-8.5 280z" />
<glyph unicode=")" horiz-adv-x="501" d="M57 -12q4 19 15.5 32t22 18t22.5 8.5t14 4.5q45 38 84.5 115.5t63 190t22 236t-48 265.5t-137.5 266q-12 6 -23.5 21.5t-17.5 38t8 45.5q17 29 53.5 34t73.5 -18q30 -18 37.5 -45.5t1.5 -46.5q78 -76 127.5 -234.5t57 -334t-44.5 -350.5t-163 -273q-3 -2 -12 -22 t-26.5 -33.5t-47.5 -11.5q-51 1 -72 27.5t-10 66.5z" />
<glyph unicode="*" horiz-adv-x="1204" d="M66 593.5q8 38.5 51 63.5q29 10 53.5 3t40.5 -21q63 -8 170 -8q-97 97 -123 119q-58 12 -68 51q-13 58 21 87t68 21q18 -4 29.5 -10.5t18 -20t8 -18t5.5 -22.5q123 -115 149 -142q-3 125 -16 222q-11 12 -15 34.5t5 46.5q17 35 64.5 38t68.5 -27q7 -9 10.5 -18.5t4.5 -16 t-1.5 -15t-4 -12t-6 -12t-5.5 -10.5q0 -29 9.5 -101.5t12.5 -113.5q13 13 51 51.5t53.5 55t39.5 43.5t39 48q1 21 2.5 30t11 21.5t27.5 18.5q50 17 83 -13.5t29 -64.5q-2 -24 -12.5 -39t-22 -20.5t-30.5 -10.5q-51 -71 -166 -196q35 1 70 -1t57.5 -2t48.5 5q155 33 150 -3 q-4 -25 -73 -65q-43 -24 -75 -32q-25 -6 -40.5 -9.5t-33 -6.5t-24.5 -4.5t-25 -2.5t-24.5 -1t-33.5 -0.5t-42 -0.5q138 -138 235 -225q62 -16 64 -68q3 -51 -24 -70.5t-62 -15.5q-12 1 -21.5 5.5t-15 10t-10.5 14.5t-7 14.5t-5 15t-3 10.5q-116 92 -204 174q2 -82 20 -279 q34 -38 14 -86q-17 -37 -62 -41.5t-69 25.5q-11 13 -13.5 33.5t1.5 36t10 26.5q-32 217 -35 297q-87 -94 -141 -158q0 -1 -1 -6t-1.5 -8.5t-2 -9.5t-3.5 -10.5t-5.5 -10.5t-8 -10.5t-11 -8.5t-14.5 -7q-50 -16 -80 15t-26 65q1 7 2.5 14t4 12t6 10t6.5 8t8.5 6.5t8 5t8.5 4 t8 3t7 2.5l6 2q53 81 158 201q-111 0 -225 8q-14 -15 -44.5 -18.5t-52.5 14.5q-38 43 -30 81.5z" />
<glyph unicode="+" horiz-adv-x="1071" d="M96 556.5q6 52.5 60 70.5q20 6 38 -2t23 -4q74 -13 219 -13q0 24 0.5 77.5t1 87.5t-1.5 76t-6 69q0 2 -7 13t-10 23t5 37q15 37 46 48.5t60 -4.5t39 -50q5 -23 3.5 -33t-8.5 -20.5t-7 -11.5q10 -95 10 -314q14 0 264 -20q65 -5 101.5 -13t44 -16.5t-0.5 -18t-28 -18 t-44 -15.5t-42.5 -11.5t-28.5 -6.5q-39 -6 -79 -9t-65.5 -3t-64.5 1t-55 1q0 -169 15 -338q0 -2 7 -13.5t10.5 -24.5t-3.5 -38q-25 -57 -77.5 -51t-70.5 60q-7 23 3 44.5t10 24.5q-23 152 -23 340q-24 0 -103.5 3t-105.5 3q-2 0 -14.5 -5.5t-25.5 -7.5t-38 5 q-57 25 -51 77.5z" />
<glyph unicode="," horiz-adv-x="512" d="M90 -259q-1 22 37 62q41 42 62 88.5t25 81.5t13 80.5t27 79.5q18 35 48.5 42.5t55.5 -7.5t40 -45t5 -62q-51 -151 -196 -305q-22 -25 -70 -33q-47 -8 -47 18z" />
<glyph unicode="-" d="M138.5 528.5q-12.5 32.5 2.5 62.5t49 40q21 6 45 -4t27 -9q135 -17 351 -11t333 36q193 50 183 12q-7 -26 -95 -74q-47 -26 -80 -36q-125 -37 -325.5 -51t-362.5 6q-3 1 -15 -7t-26 -13t-37 1q-37 15 -49.5 47.5z" />
<glyph unicode="." horiz-adv-x="501" d="M125 34.5q-3 36.5 20 67.5q24 28 61.5 30.5t65.5 -23.5q26 -22 29.5 -59t-18.5 -66q-22 -28 -60 -31.5t-69 22.5q-26 23 -29 59.5z" />
<glyph unicode="/" horiz-adv-x="935" d="M-109 -178q8 16 20 24t21.5 9.5t10.5 3.5q94 120 408 581.5t356 511.5q2 2 6.5 12.5t15 23.5t29.5 22q58 25 90.5 -17.5t5.5 -91.5q-7 -13 -17 -21.5t-16.5 -11t-14.5 -3.5l-9 -1q-19 -24 -165.5 -245t-321.5 -472.5t-271 -363.5q-3 -4 -6.5 -19t-13.5 -28.5t-31 -22.5 q-55 -24 -89.5 18t-7.5 91z" />
<glyph unicode="0" horiz-adv-x="1208" d="M51.5 403.5q-31.5 167.5 24 327.5t186.5 305q42 46 115 80.5t151 50.5t156 15t131 -21q14 -3 29.5 -9.5t31 -23.5t11.5 -38q-2 -4 -2 -9q104 -57 174.5 -153.5t99 -205t30 -221t-26.5 -210.5t-77 -164q-18 -26 -55.5 -59t-94.5 -69t-122.5 -64t-144 -39t-155 0t-158 59 t-150.5 133q-122 148 -153.5 315.5zM187.5 386.5q29.5 -122.5 111.5 -214.5q76 -87 167.5 -125t172.5 -29.5t155.5 40.5t125 75t73.5 84q47 90 67 185t12 198.5t-66.5 207.5t-165.5 191q-22 13 -58.5 14t-60 -3t-37.5 -9q-215 -91 -204 -47q7 27 79 82q12 9 21 15q2 1 41 18 q-92 -20 -181 -59t-112 -70q-101 -139 -135.5 -285t-5 -268.5z" />
<glyph unicode="1" horiz-adv-x="575" d="M97.5 851.5q-24.5 14.5 0.5 104.5q13 45 33 80.5t59.5 89t55.5 76.5q36 55 82 37q45 -7 61 -57q7 -21 -1.5 -43t-6.5 -27q0 -94 36.5 -499.5t57.5 -592.5q0 -1 8 -14.5t9.5 -25.5t-5.5 -39q-15 -37 -45.5 -48t-59.5 5.5t-40 50.5q-7 23 2.5 44.5t9.5 24.5 q-44 212 -88 998q-7 -11 -22.5 -37t-28.5 -44t-31 -36q-62 -62 -86.5 -47.5z" />
<glyph unicode="2" horiz-adv-x="1245" d="M51 801q0 21 24.5 43t28.5 28q75 100 211.5 177.5t272 111t253.5 29.5t163 -51q35 -75 -8.5 -192t-106.5 -210.5t-207 -287.5q-29 -39 -43 -58q-95 -127 -170 -278q55 20 95.5 34.5t85.5 28.5t68.5 21.5t77 21.5t75.5 19.5t99.5 25t116.5 29.5q4 1 15 11.5t25.5 16.5 t31.5 1q22 -6 41 -25.5t24.5 -45.5t-16.5 -54q-18 -21 -35.5 -25t-34.5 0t-24 2q-388 -101 -631 -184q-27 -24 -56.5 -43t-66.5 -33.5t-73.5 -8t-63.5 37.5q-14 17 -15.5 32.5t7.5 28.5t20 23t26.5 22t21.5 19q56 73 108.5 172.5t97.5 162.5q34 48 75 104t73 99t67.5 91 t61.5 85t51 75.5t40 68.5t25 58t9.5 49.5t-10.5 37.5q-11 8 -43.5 9t-81.5 -6.5t-106.5 -21.5t-121 -38.5t-122.5 -55t-113.5 -73.5t-91.5 -92q-1 -2 -7 -16.5t-15.5 -28.5t-22.5 -19q-34 -14 -69.5 10.5t-35.5 61.5z" />
<glyph unicode="3" horiz-adv-x="1138" d="M17 952.5q2 23.5 18 48.5q10 16 23.5 23t26.5 8t15 2q67 50 149.5 96.5t179.5 84.5t189 58.5t181.5 14t154.5 -44.5q58 -34 67.5 -89.5t-20 -115.5t-82.5 -124t-113 -116.5t-118 -90.5q61 16 90.5 21.5t67 2.5t78.5 -20q73 -31 122.5 -97t57.5 -140.5t-31 -145.5 q-49 -82 -169.5 -183.5t-241 -179.5t-256.5 -155q-7 -4 -16.5 -18t-25 -19.5t-47.5 -1.5q-28 3 -44.5 39t1.5 71q11 21 28.5 29t28.5 5.5t17 0.5q132 60 328.5 211.5t249.5 224.5q45 65 49.5 112.5t-20 77t-78.5 58.5q-61 33 -197 -4t-188 -102q-33 -25 -60 -22.5t-45 19 t-27 41.5q-11 33 11.5 67.5t51.5 55.5t58 33q123 65 251 188q142 137 151 219q4 44 -37 62q-95 41 -296 -27.5t-364 -181.5q-4 -3 -13.5 -24.5t-28.5 -35t-52 -7.5q-40 8 -58.5 28t-16.5 43.5z" />
<glyph unicode="4" horiz-adv-x="1228" d="M39 500q-7 27 21 49.5t83 48.5q79 48 154.5 99t122.5 83.5t120 89t94 73t99.5 81t85.5 70.5q4 3 20.5 16.5t31 24.5t37 27t39 23.5t36 13t27.5 -2.5q19 -10 32.5 -37t1.5 -59q-5 -14 -35 -25.5t-30 -21.5q-23 -119 -39 -459q34 1 65 4t46 2q2 0 19.5 7.5t33 10.5t35.5 -4 q15 -8 27.5 -24.5t18 -36t-4 -40t-35.5 -34.5q-23 -10 -32 -8.5t-25.5 7t-30.5 3.5q-10 1 -42.5 -3t-74.5 -5q0 -29 -4 -83.5t-0.5 -127.5t20.5 -223q0 -2 5.5 -14.5t9 -24t5 -29t-6.5 -28.5q-10 -20 -35 -33.5t-56 -7.5t-49 39q-11 24 -9.5 32.5t9 24.5t7.5 31 q-14 151 -17 231t0 131t2 80q-60 -4 -174 -11.5t-165 -11t-150.5 -6.5t-132.5 2q-48 -7 -99 12.5t-61 43.5zM262 553q117 6 295 19.5t264 17.5q4 59 5 130t5 123.5t19 123.5q-264 -235 -588 -414z" />
<glyph unicode="5" horiz-adv-x="1038" d="M82 983.5q8 43.5 47 56.5q43 12 54.5 8.5t23 -11t26.5 -5.5q5 60 25 90q14 19 35.5 31.5t49 6.5t46.5 -40q8 -7 6 -19.5t-5.5 -19.5t-11.5 -20t-11 -21q64 8 92.5 11t113 6.5t213.5 3.5q1 0 34 12t54 2q21 -11 36 -34.5t10 -53t-39 -47.5q-24 -10 -33 -8.5t-24 7t-27 3.5 q-66 0 -153.5 0.5t-112 0.5t-68.5 -2t-70 -5.5t-69 -11.5q-10 -34 -48.5 -118t-58.5 -161t-12 -156q6 -51 25 -53q23 -2 111 70l54 45q71 58 178.5 84.5t191.5 22t120 -26.5q50 -27 63.5 -124t-19 -223.5t-102.5 -226.5q-56 -78 -178 -151t-231 -110.5t-162 -37.5 q-30 0 -60.5 24t-43.5 52q1 5 -10.5 13.5t-21.5 24.5t-5 38q29 106 121 47q10 -6 10 -19.5t-4 -26t-1 -23.5t19 -13q41 -3 124 23t186 88.5t163 142.5q33 46 59 107.5t37.5 115.5t13 101t-13.5 63q-14 19 -62.5 22.5t-107.5 -7.5t-123 -39.5t-104 -67.5q-48 -46 -101 -72.5 t-102 -28.5t-86.5 34t-50.5 110q-8 24 -4.5 65t9.5 73.5t19 78.5t24.5 79.5t25.5 76.5t22 69q-9 0 -21 -6.5t-19.5 -7.5t-26.5 10q-47 35 -39 78.5z" />
<glyph unicode="6" horiz-adv-x="870" d="M135 -20q-210 210 41 700q58 119 132.5 234t191.5 270q1 1 6 17.5t15 34.5t24 24q26 9 53 8.5t45 -24t12 -62.5q-3 -26 -25.5 -40t-27.5 -22q-35 -55 -107.5 -165t-120.5 -185t-89 -143q-54 -92 -85 -182.5t-30 -208.5q31 40 88.5 83.5t127.5 80t149.5 54t144.5 3.5 q63 -19 105.5 -82.5t53 -143.5t-26 -172t-120.5 -161q-81 -55 -158 -73t-146.5 -0.5t-130 55.5t-122.5 100zM233 63q1 -3 3 -12t4.5 -14.5t7.5 -9.5q36 -32 65.5 -53.5t68.5 -39t75 -20t78.5 12t85.5 48.5q57 46 81 108.5t17.5 114t-25.5 90t-41 44.5q-96 22 -199 -24 t-163 -136q-2 -1 -1 -13.5t1.5 -26t-2.5 -23.5q-11 -15 -16 -20.5t-16.5 -14.5t-23.5 -11z" />
<glyph unicode="7" horiz-adv-x="1179" d="M27.5 972.5q-6.5 30.5 7.5 55.5t35 35q15 8 33.5 8t34.5 -4l16 -4q55 -18 120.5 -21.5t145.5 7.5t144 23.5t167.5 35.5t163.5 35q108 60 137 12q2 -2 4.5 -6.5t6 -18.5t2 -29t-13.5 -38t-36 -45q-89 -140 -176 -340q27 2 71 5t85 7q176 19 158 -16q-15 -28 -123 -72 l-29 -10q-34 -3 -94 -17t-117 -22q-144 -358 -190 -561q-11 -3 -12 -15t-4 -29.5t-19 -31.5q-37 -28 -80 -13t-51 56q-5 23 20.5 53.5t26.5 34.5q32 81 84.5 249.5t83.5 252.5q-20 -1 -58 -3t-65.5 -2t-67.5 5q-13 2 -30 -2.5t-26.5 -6t-27.5 6.5q-33 20 -30.5 70t38.5 63 q7 5 21.5 2.5t22 -4.5t19.5 -7t13 -5q32 -7 69.5 -7t87.5 3.5t81 3.5q66 175 155 340q-27 -6 -101 -21.5t-104 -21.5t-92 -17.5t-99.5 -15t-90 -8t-99.5 -3t-95 6.5q-12 1 -25.5 -5t-22 -7.5t-34.5 10.5q-34 18 -40.5 48.5z" />
<glyph unicode="8" horiz-adv-x="927" d="M63.5 427q10.5 107 65.5 163q9 8 20 19.5t18.5 18.5t16.5 11q-76 46 -94 92q-16 37 -20.5 74.5t0 68.5t18 63.5t27.5 55t34.5 47.5t33.5 38t30 29t18 17q58 58 185.5 85.5t216.5 -3.5q99 -40 78 -100q64 -35 91.5 -84t16.5 -122t-67 -167q-21 -44 -99 -84 q79 -38 135.5 -121.5t69 -182t-36.5 -195.5q-31 -59 -88.5 -107t-130.5 -74.5t-150 -31t-154 25.5t-136 94q-52 56 -80.5 159.5t-18 210.5zM169.5 422q-10.5 -48 2.5 -97.5t34 -92.5t56 -95q48 -72 139.5 -89t183.5 31.5t138 149.5q22 46 17.5 93t-22.5 87t-46 74.5 t-51.5 56.5t-40.5 31q-45 24 -93 23.5t-95.5 -8.5t-76.5 -2q-5 -2 -17.5 -8.5t-17.5 -9.5t-16 -9t-17.5 -11.5t-15.5 -14t-16 -17.5q-35 -44 -45.5 -92zM183 877q-16 -56 12 -107q40 -68 114 -90q48 16 82 17.5t78 -15.5q61 12 112 41t78 68q26 40 40 84t6.5 87.5 t-43.5 63.5q-18 11 -43.5 16.5t-44 5t-42 -2t-26.5 -1.5q-190 -77 -214 -55q-18 17 91 92l10 6q-33 -11 -90 -43q-36 -21 -70 -66t-50 -101z" />
<glyph unicode="9" horiz-adv-x="995" d="M65.5 577q-14.5 122 36 237.5t148.5 195.5q82 67 194.5 92.5t212.5 6.5t156 -73q251 -253 -4 -880q-100 -244 -326 -437q-1 -1 -10 -17.5t-24 -32.5t-31 -19q-45 -7 -78.5 19t-13.5 79q6 20 15.5 27t23.5 8.5t20 5.5q127 103 194.5 194.5t129.5 225.5q20 42 27 63t14 53 t16 64q-90 -92 -202 -124.5t-217 -5t-183 107.5q-84 88 -98.5 210zM185 603.5q9 -91.5 79 -167.5q34 -38 90.5 -56.5t127 -12.5t153.5 58.5t156 149.5q36 54 30.5 125.5t-29 131t-53.5 94.5q-65 82 -190 81t-217 -81q-76 -68 -116 -149.5t-31 -173z" />
<glyph unicode=":" horiz-adv-x="501" d="M133.5 822q-1.5 38 22.5 65q22 26 60.5 28.5t66.5 -20.5q26 -23 29 -60.5t-19 -66.5q-22 -28 -60.5 -32t-68.5 22q-29 26 -30.5 64zM200.5 152.5q-2.5 38.5 22.5 66.5q23 27 59.5 28.5t67.5 -22.5q27 -23 29.5 -58.5t-21.5 -66.5q-22 -29 -61 -31.5t-68 23.5 q-26 22 -28.5 60.5z" />
<glyph unicode=";" horiz-adv-x="512" d="M95 -305q-50 -10 40 119q42 60 62.5 113.5t36 114t32.5 101.5q12 26 32.5 33.5t41.5 -1.5t39.5 -25t29 -38t7.5 -40q-12 -68 -72 -158.5t-125 -142.5q-86 -68 -124 -76zM157.5 706.5q-1.5 35.5 22.5 63.5q30 29 68.5 26t68.5 -28q26 -23 29.5 -60.5t-18.5 -66.5 q-22 -27 -67 -27.5t-75 29.5q-27 28 -28.5 63.5z" />
<glyph unicode="&#x3c;" horiz-adv-x="747" d="M123 580q21 39 46 74t54 65.5t50.5 52t55 47.5t47.5 36t48 33t37 25q2 1 12 18t25 31.5t30 16.5q37 7 71.5 -24t12.5 -81q-10 -22 -36.5 -29.5t-34.5 -17.5q-77 -50 -142 -105t-143 -147q37 -84 108 -171t138 -144q2 -2 17.5 -10t30.5 -21t19 -28q11 -41 -15.5 -76.5 t-82.5 -15.5q-23 9 -33 31t-22 30q-170 122 -293 410z" />
<glyph unicode="=" d="M162 731q4 47 31 66q27 13 43 10.5t33 -13t20 -10.5q589 -23 737 -20q227 9 206 -23q-18 -28 -167 -67q-32 -8 -37 -8q-60 0 -223 -5.5t-263.5 -6.5t-254.5 8q-13 2 -33 -3t-32.5 -7t-31.5 7q-32 25 -28 72zM172 356q-6 30 6.5 53.5t30.5 34.5q30 19 63 -8l-1 1 q-2 4 -5 7q171 -18 376 -12t337 31q229 44 206 6q-20 -30 -168 -92q-24 -10 -30 -12q-127 -35 -321 -49.5t-359 1.5q-3 1 -21 -6.5t-35 -10.5t-40 7q-33 19 -39 49z" />
<glyph unicode="&#x3e;" horiz-adv-x="768" d="M123 199q8 23 23 32t28.5 10t15.5 3q12 11 74 60t100.5 82.5t85 85t66.5 93.5q-41 49 -79.5 87.5t-77 69t-63.5 48t-65 43.5q-1 1 -16 4.5t-29.5 13.5t-21.5 29q-20 56 12.5 86.5t75.5 20.5q15 -4 27 -17.5t20 -29.5t12 -19q3 -2 26 -17t30.5 -20t31.5 -22t36 -27 t35.5 -29.5t38.5 -34.5t36.5 -37.5t38 -44t35 -48t34.5 -54.5q-19 -42 -45.5 -83t-48.5 -71t-60 -67.5t-56.5 -55.5t-62 -52.5t-52 -40.5t-49.5 -37q-12 -9 -19.5 -25t-16.5 -26.5t-30 -14.5q-54 -11 -78.5 29t-11.5 76z" />
<glyph unicode="?" horiz-adv-x="1009" d="M58 942.5q2 11.5 4 18.5t8.5 17.5t10.5 16t10.5 13.5t8.5 10q84 196 289 309q63 35 126.5 54.5t127.5 23t120.5 -22t94.5 -79.5q35 -49 53.5 -100t22.5 -95.5t-8 -94.5t-28.5 -89.5t-50 -87.5t-61.5 -82t-73.5 -80.5t-75 -74t-77.5 -72t-71 -66.5q-44 -39 -55 -76 q18 8 34 14t32 10.5t26 7t26.5 5.5t22.5 3.5t25.5 3t24.5 3.5q27 16 59 -8t33 -68q2 -34 -10 -47t-64 -26q-6 -2 -24.5 8.5t-51.5 3.5q-42 -14 -88.5 -35t-67 -29.5t-47 -8t-55.5 17.5q-46 28 -32 89.5t55.5 125.5t87.5 104q79 64 129.5 108t106.5 98.5t86 95.5t54.5 90.5 t26 94t-13 95t-49.5 102.5q-87 127 -314 0q-33 -19 -63 -42.5t-57 -54t-43 -50t-42 -55.5t-32 -44q-2 -19 0 -31.5t-2 -28t-17 -32.5q-24 -34 -51.5 -37.5t-47.5 13.5t-30 43q-5 7 -3 18.5zM373 80q24 28 63.5 33.5t71.5 -17.5q31 -25 31 -70t-23 -71q-22 -28 -66.5 -28 t-70.5 28q-57 60 -6 125z" />
<glyph unicode="@" horiz-adv-x="1454" d="M109 463q4 79 31.5 151.5t70 127t96.5 101.5t110.5 79t113.5 55.5t103.5 35.5t82.5 15q138 11 255 -23t197 -103t128.5 -164t60.5 -208q6 -53 -3.5 -109.5t-30 -104t-48.5 -92.5t-59.5 -74.5t-63.5 -50.5t-60.5 -21.5t-50.5 14.5q-28 23 -41.5 38t-21.5 36 q-24 -42 -51.5 -72.5t-70 -55t-93 -30t-123 10t-158.5 55.5q-104 50 -144.5 162t-9 227.5t119.5 179.5q78 59 162 82t173 1.5t164 -91.5q2 14 2 41q0 2 -6.5 19t-7.5 31t10 38q18 34 47.5 40t53 -6.5t36.5 -31.5q13 -26 10.5 -40t-12.5 -30.5t-10 -21.5q-3 -78 -9.5 -153 t-10 -111.5t-3 -75.5t8.5 -74q18 -81 69 -58q48 22 89 112q50 107 42 208q-7 77 -48 151t-105.5 131t-158 88.5t-195.5 22.5q-53 -5 -118 -24.5t-138.5 -60t-134 -94t-101.5 -133t-43 -169.5q-6 -240 133 -379.5t418 -154.5q104 -4 191 8.5t161 50t109 98.5q5 10 5 25 t5.5 27t24.5 22q47 28 81.5 0t36.5 -65q3 -23 -15 -39.5t-38.5 -26t-21.5 -12.5q-29 -69 -120.5 -118.5t-204 -69.5t-222.5 -13q-333 21 -498.5 202t-150.5 474zM441.5 294q21.5 -71 80.5 -108q61 -37 116 -50t94 -8t74.5 28t56.5 46.5t40.5 59t27 54t15.5 42.5 q0 18 -2 59.5t-2 51.5q-52 62 -65 82q-54 53 -117 69t-120 -1t-112 -60q-62 -46 -85 -120t-1.5 -145z" />
<glyph unicode="A" horiz-adv-x="1091" d="M15 -68q10 15 10 17q7 133 47 286.5t114 376.5q-21 -8 -38 -8q-23 0 -42 14q-21 18 -21 48q0 6 1 12q5 38 31 55q20 14 50 14q23 0 52 -8q210 491 346 670q18 -21 37 -46t39.5 -60t35.5 -60.5t38 -72t34 -68t35.5 -75t30.5 -67t31 -70t26 -59.5q29 5 64 9 q64 14 96.5 15.5t35.5 -6t-9.5 -20.5t-32.5 -27t-38.5 -28t-22.5 -20q-7 -11 -30 -17.5t-24 -7.5q18 -46 33.5 -94.5t29.5 -106t23 -94t22 -105.5t16.5 -90t16 -97.5t13.5 -80.5q0 -1 4.5 -10t8.5 -21t6 -28q0 -4 1 -7q0 -12 -4 -22q-11 -28 -30.5 -42t-39.5 -13t-38 8 t-29 19q-17 24 -14 39.5t13 32.5t9 20q-69 438 -157 665l-490 -75q-55 -171 -102 -382.5t-56 -297.5q-2 -13 1.5 -31t4.5 -28t-8 -27q-21 -29 -62 -29h-7q-46 2 -62 29q-12 23 -12 37q0 15 13 34zM354 752l400 53q-72 168 -185 403q-77 -139 -215 -456z" />
<glyph unicode="B" horiz-adv-x="962" d="M7 1220q4 24 32 48q9 7 24 10t32 4t22 2q1 10 5 23.5t5 18t-2 9.5q-2 10 -6 22.5t-5 18t-1 14t4 16.5t12 19q23 32 56 32q1 -1 3 -1q34 -2 58 -31q17 -20 17 -41q0 -22 -20 -44l-3 -3q-1 -3 -6 -11t-7 -17q79 23 165 35q86 14 174 14h3q86 0 150 -27q65 -27 84 -82 q11 -37 11 -75q0 -34 -9 -68q-18 -72 -66.5 -141.5t-108 -126t-122.5 -95.5q58 4 98 5h34h62q56 -2 93.5 -9.5t79.5 -24.5t66.5 -42.5t38.5 -65.5q13 -36 13 -81v-13q0 -9 -1 -29q-1 -53 -5.5 -84.5t-39 -95t-98.5 -119.5t-194.5 -138.5t-316.5 -172.5q-3 -2 -19.5 -18 t-30.5 -26q-12 -8 -30 -8q-5 1 -10 1q-25 2 -51 26q-18 26 -18 49q0 30 32 54q-118 516 -118 913q0 153 18 289q-1 -1 -6.5 -5t-6.5 -4.5t-5.5 -2.5t-6.5 -2h-6.5t-8.5 2t-9.5 5t-12.5 7q-20 9 -33 26q-10 13 -10 30q0 5 1 11zM210 924q-1 -21 0 -43q0 -77 7 -164 q124 38 241.5 123t183.5 182q51 74 51 132q0 18 -5 34q-10 40 -64 58q-33 11 -84 11q-34 0 -74 -5q-104 -12 -235 -60q-19 -172 -21 -268zM221 606q22 -211 41 -329.5t57 -282.5q144 63 245.5 120.5t159.5 103.5t92 98t45.5 91.5t17.5 96.5q1 7 1 13q0 60 -66 93 q-74 36 -188 36q-5 0 -9 1q-109 0 -210 -11q-105 -11 -186 -30z" />
<glyph unicode="C" horiz-adv-x="1251" d="M79 482v11q0 104 17 230q22 137 82.5 256.5t150.5 202.5q91 82 205 116q56 16 115 16q62 0 129 -18q159 -42 257.5 -133.5t148.5 -249.5q30 -14 35 -44q1 -9 1 -17q0 -19 -8 -33q-13 -32 -54 -46q-15 -5 -28 -5q-24 0 -43 16q-10 9 -18 23.5t-11 33.5t9 36 q-38 98 -78 153.5t-87.5 83.5t-131.5 53q-49 14 -95 14q-33 0 -64 -7q-75 -17 -137.5 -63t-111 -113t-80.5 -143t-46 -153q-20 -102 -19 -189q1 -19 1 -39q6 -104 25.5 -182t59.5 -140t83.5 -102t96.5 -68q45 -20 92 -20q11 0 23 2q60 6 119 33t101.5 56t64.5 53 q146 159 177 159q2 0 4 -2q8 -6 8 -22q0 -27 -24 -87q-38 -92 -61 -117q-28 -28 -59.5 -54.5t-74.5 -58t-89.5 -53t-96.5 -35.5q-43 -12 -88 -13q-8 1 -16 1q-54 2 -104 24q-57 24 -108 60t-101 90.5t-85 124t-60 160.5t-26 199z" />
<glyph unicode="D" horiz-adv-x="1183" d="M-8 1132q0 27 20 50q21 29 94 41q0 9 -10.5 22t-15 24.5t5.5 41.5q12 28 38 42q15 8 32 8q12 -1 26 -5q32 -10 56 -49q10 -14 10 -58q39 18 83.5 34.5t129.5 32.5q78 15 150 16h13q78 -2 173 -35.5t172 -102.5q73 -65 109 -145q36 -78 35 -158v-5q-1 -82 -20.5 -164.5 t-61 -164t-83.5 -147t-90 -125.5q-101 -127 -306 -251t-362 -169q-6 -2 -24 -13q-18 -10 -32 -17q-11 -5 -26 -5h-8q-20 2 -39 20q-28 27 -31 44.5t11.5 40.5t17.5 38q33 191 49 371q15 169 15 313v17q-1 150 -5 226t-12 175q-15 -11 -32 -11q-24 0 -54 21q-28 14 -28 47z M190 -8q151 51 319.5 150t248.5 208q56 80 97.5 151t78 159.5t46.5 162.5q3 23 3 47q-1 51 -15 101q-22 74 -81 129q-41 38 -90 63t-94 36t-97 11q-5 0 -10 1q-48 0 -84 -5q-40 -5 -87.5 -17t-75.5 -21.5t-63 -22t-44 -15.5q0 -3 2 -78q2 -76 4 -140q1 -39 1 -96v-84 q-1 -116 -6.5 -224t-19 -247t-33.5 -269z" />
<glyph unicode="E" horiz-adv-x="1009" d="M13 1135q-3 6 -3 13q0 9 6 20q10 19 33 46q20 30 54 30q5 0 10 -1q-5 36 6 51q19 28 55 30h3q33 0 54 -24q14 -14 14 -47q0 -8 -1 -16q62 6 164 23.5t168 27.5q46 7 105 7q27 1 57 -1q96 -4 186 -32q19 3 40 -12.5t27 -37.5q3 -9 3 -18q0 -20 -14 -44q-20 -34 -46 -36 q-24 -2 -45.5 11t-30.5 34q-68 15 -138 17q-18 1 -35 0q-51 0 -99 -6q-64 -8 -118.5 -17.5t-118.5 -21.5t-107 -17q0 -186 6 -272q138 54 216 68q40 7 97 7q53 0 121 -6q58 -5 91 -14t38.5 -20t-2 -23t-27 -23t-40 -20t-37.5 -14.5t-23 -5.5q-163 0 -221 -11.5t-209 -74.5 q7 -211 27.5 -406.5t52.5 -292.5q64 17 176.5 47.5t199 53t197.5 49.5q6 1 11 1q28 0 50 -39q14 -26 15 -47q0 -18 -10 -34q-33 -49 -74 -49q-23 0 -49 16q-79 -21 -233 -56t-238 -57q5 -37 2 -49q-7 -26 -33 -40q-21 -11 -45 -11q-6 1 -12 1q-30 4 -47 24q-11 8 -15 39 q-21 -7 -44 -5t-33 9q-17 18 -21 40t0 36.5t10 23.5q20 25 60 25q-53 179 -68 698q-23 24 -32.5 42.5t-5 36t11.5 28t24 30.5q-2 102 -2 275q-24 -5 -40.5 -5t-25.5 5q-21 12 -31 19.5t-17 21.5z" />
<glyph unicode="F" horiz-adv-x="964" d="M24 1270q-2 11 -2 21q0 29 19 48q20 23 54 23q10 0 22 -2l-2 26q-2 14 -8.5 29t-5 24.5t13.5 28.5q21 35 61 38h7q35 0 55 -27q21 -26 21 -50q0 -22 -17 -43l-2 -16q27 4 110 16.5t123.5 16.5t108.5 7h26q54 0 102 -9q60 -11 119 -33q21 2 49.5 -5.5t36.5 -27.5 q5 -18 5 -42t-17.5 -44t-46.5 -18q-32 2 -57 35q-34 15 -71 25t-85.5 11.5t-76.5 3.5h-10q-28 0 -79 -7q-61 -8 -75.5 -9.5t-84.5 -13.5t-71 -12l30 -400q36 1 60 3.5t46 6.5t90.5 14.5t164.5 22.5q49 6 79 6q6 -1 12 -1q32 -2 41.5 -9.5t3.5 -19t-22 -25t-35 -25.5t-36 -20 t-25 -10q-53 -11 -90.5 -18.5t-71 -14t-53 -10.5t-41 -7t-29.5 -4.5t-24.5 -2.5t-20 -1t-22 -0.5t-24.5 -0.5l67 -809q6 -14 14.5 -26.5t12 -18t3 -15.5t-6.5 -26q-13 -38 -52 -48q-11 -3 -21 -3q-26 0 -46 18q-32 28 -32 57q0 17 11 33q-37 545 -65 823q-16 -8 -35 0 q-45 9 -55 49q-2 8 -1 15q0 31 31 57q21 18 50 14q-1 21 -12 157t-17 212q-32 -20 -57 -16q-36 6 -44 49z" />
<glyph unicode="G" horiz-adv-x="1155" d="M40 524q3 76 19.5 156t53 159.5t81 152t103.5 135t122.5 108t136.5 71.5q68 23 135 23h11q56 -1 99.5 -17.5t75 -42.5t60.5 -74t50 -96t49 -126q16 -41 16 -61v-6q-5 -37 -61 -58q-30 -11 -52 -1.5t-34 29t-11 44t15 43.5q-1 2 -9 23.5t-14 36t-18.5 40.5t-23.5 44.5 t-28.5 40.5t-34.5 35.5t-39.5 22.5t-45.5 8q-88 -3 -176 -58.5t-156 -144.5t-118.5 -193.5t-69.5 -213.5q-10 -58 -10 -110q0 -46 8 -88q78 -370 311 -433q30 -7 62 -7q29 0 59 6q64 11 129 44t118.5 73t89 83.5t40.5 75.5q0 18 1 54q1 5 1 9q0 33 -10 71q-11 42 -35 52 q-63 28 -119 28q-108 0 -184 -108q-6 -27 -32.5 -45t-59.5 -12q-30 5 -53 43q-17 28 -17 55q0 11 2 21q6 25 35.5 44t54.5 17q6 4 36 24.5t50 31.5t55.5 29.5t66.5 24.5t69 9h12q31 0 63 -10q38 -13 74 -39q68 -47 100 -127q21 -52 21 -110q0 -30 -6 -62 q-16 -93 -90.5 -178.5t-171 -140t-204.5 -79.5q-59 -13 -110 -13q-42 0 -79 9q-51 12 -97 36.5t-81 57.5t-64 69t-51 79t-38.5 78.5t-28.5 75.5t-18.5 64t-12.5 50l-5 25q-18 57 -18 121q0 11 1 22z" />
<glyph unicode="H" horiz-adv-x="927" d="M-18 647q-1 6 -1 12q0 30 23 54q23 23 48 23q12 0 24 -5q8 90 22.5 204t23.5 190t9 110q0 9 -7.5 24t-9 24.5t10.5 33.5q21 35 61 37q3 0 5 1q35 0 57 -28q14 -18 17.5 -34.5t1.5 -25t-8.5 -21t-6.5 -13.5q0 -33 -23.5 -211t-27.5 -299q57 1 264 3q148 2 221 1h47 q0 168 5 395.5t5 235.5q0 9 -7 22.5t-8 21.5t11 32q21 36 61 38h5q35 0 57 -28q20 -25 20 -50q0 -22 -16 -42q0 -121 -13 -662t-22 -729q0 -13 5 -31t3 -30.5t-16 -28.5q-24 -26 -56 -26q-5 0 -11 1q-38 5 -56 39q-13 23 -13 42q0 26 24 46q7 52 10.5 145t6 252t5.5 246 q-19 0 -233 -1t-301 -5q0 -10 -1 -20q0 -208 40 -678q5 -12 11.5 -22t10 -14.5t3.5 -14.5t-5 -27q-10 -38 -47 -50q-13 -5 -26 -5q-22 0 -42 14q-35 24 -35 57q0 15 7 31q-31 267 -31 531q0 90 4 180q-5 -2 -12 -6t-10.5 -5t-9.5 -1.5t-14 2.5t-19 10q-35 17 -41 55z" />
<glyph unicode="I" horiz-adv-x="434" d="M59 -4q-7 68 -7 146q0 101 12 218q21 206 70 481.5t56 323.5q1 3 -3.5 15t-3.5 28t12 33q23 35 61 37h5q35 0 56 -29q21 -24 21 -47q0 -24 -23 -47q-7 -71 -46 -304t-65 -461q-21 -185 -21 -328q0 -33 1 -64q2 -15 9 -29.5t6 -24t-15 -28.5q-21 -36 -60 -38h-6 q-35 0 -57 28q-19 25 -19 48q0 22 17 42z" />
<glyph unicode="J" horiz-adv-x="907" d="M-4 133q-2 23 -2 46q0 32 4 65q9 55 25 90q10 21 57 59q43 34 63 34q11 0 15 -11q1 -4 1 -10q0 -28 -30 -93q-7 -15 -14 -57q-5 -29 -5 -56q0 -11 1 -22q3 -51 13.5 -96.5t31.5 -88.5t52 -72.5t74 -48.5q41 -19 93 -19q4 0 8 1q57 1 129 19q51 14 89.5 69t58 126 t28.5 131.5t10 107.5v44q0 113 -8 244q-10 157 -42.5 335.5t-82.5 269.5l-12 12t-12 12.5t-9.5 12.5t-7 15t-1.5 17.5t3 22.5q13 38 51 55q16 7 34 7q24 0 51 -13q33 -19 33 -60q0 -19 -7 -42q131 -313 131 -782q0 -77 -4 -158q-3 -99 -18 -181t-34 -135t-47.5 -95.5 t-49 -63.5t-49.5 -37t-38.5 -19t-26.5 -7q-1 -1 -1.5 -1h-1.5q-87 -19 -160 -19q-37 0 -71 5q-99 15 -167.5 71.5t-106.5 136t-48 179.5z" />
<glyph unicode="K" horiz-adv-x="1062" d="M70 1450q0 3 -1 7q0 7 2 15q3 12 11 23q20 33 67 37q7 1 13 1q38 0 59 -24q13 -15 15.5 -32t-1.5 -28t-9 -21l-5 -9q-4 -144 -5.5 -391t-4.5 -338q150 31 344.5 159.5t341.5 266.5q32 41 70 41h8q37 -5 58 -41q11 -19 11 -38q0 -16 -8 -31q-23 -44 -67 -44q-5 0 -11 1 q-129 -121 -329.5 -252t-321.5 -166q60 -36 159 -107t181.5 -132.5t183 -123.5t175.5 -90q2 0 15 -1.5t19 -3.5t16 -6.5t17 -13.5t12 -22q6 -15 6 -29q0 -21 -13 -41q-22 -33 -60 -36q-24 -1 -48 15.5t-30 29.5q-93 36 -234 125t-293.5 195t-205.5 138q0 -39 0.5 -117 t0.5 -179t-1 -248q11 -14 15 -36t-5 -46q-17 -34 -58 -41q-8 -1 -16 -1q-30 0 -51 21q-22 24 -22 50q0 20 12 42q-4 127 -4 298q0 122 2 266q5 348 10 543q1 54 1 107q0 138 -9 267q0 1 -4 9t-5 15t-3 17z" />
<glyph unicode="L" horiz-adv-x="1142" d="M44 -30q4 32 24 50q12 160 16 270q3 96 4 156l-1 21q0 65 13 247q13 189 43 500q0 1 -2.5 22.5t-2.5 41t5 27.5q19 28 47 38q12 4 24 4q18 0 34 -8q30 -14 49 -51q5 -10 0 -28.5t-13 -34.5t-8 -17q-37 -320 -53 -517q-15 -180 -14 -256q-1 -7 -1 -13q1 -54 2 -124v-49 q0 -101 -7 -229q163 3 396 38.5t388 76.5q2 2 10 9t13.5 10.5t15 7.5t21 3t24.5 -5q37 -12 53 -55q7 -18 7 -34q0 -21 -13 -38q-5 -7 -11 -12t-11.5 -8.5t-12 -5.5t-11 -3.5t-11.5 -1t-10.5 0.5t-10 2t-8.5 2.5t-8 2.5l-6 2q-193 -41 -422 -75t-385 -41q-4 -46 -66 -56 q-8 -1 -16 -1q-25 0 -40 13q-19 17 -36 54q-10 23 -10 47q0 9 1 17z" />
<glyph unicode="M" horiz-adv-x="1529" d="M-13 -19q4 21 12.5 32t18.5 18q25 135 48.5 341t39.5 360.5t43.5 307t63.5 226.5q-11 18 -3 46.5t32 35.5q25 7 43.5 -6t36.5 -40t28 -36q84 -122 144 -241t95 -228t58.5 -202t52 -208.5t58.5 -202.5q23 126 61 381t73 445.5t77 312.5q0 1 3.5 18.5t7.5 31t15.5 30 t28.5 24.5q3 2 6.5 1.5t7.5 -1.5q8 -3 17 -10t10 -8q33 -8 79 -128t93 -304.5t86.5 -360.5t76.5 -348.5t48 -216.5q1 -3 7 -13.5t9 -17.5q3 -8 7 -18q4 -9 4 -18q0 -11 -5 -23q-13 -35 -57 -45q-13 -3 -24 -4q-27 0 -46 18q-19 17 -24.5 38.5t-2.5 36t9 24.5 q-39 150 -96.5 437t-101.5 495t-64 243q-39 -139 -108.5 -567.5t-106.5 -570.5q-2 -6 3.5 -36.5t3 -59.5t-23.5 -40q-15 -8 -31 -8q-18 0 -36 10q-35 18 -51 52q-34 68 -70.5 182t-70 235.5t-72.5 248.5t-92.5 254.5t-114.5 221.5q-35 -100 -86.5 -552t-71.5 -564 q1 -2 5.5 -15.5t5 -18t0.5 -15.5t-5.5 -20.5t-15.5 -20.5q-23 -25 -54 -25q-7 -1 -15 1q-40 6 -58 41q-12 18 -12 35q0 5 1 9z" />
<glyph unicode="N" horiz-adv-x="1101" d="M62 399v20q0 69 6 176q6 123 9.5 176t15.5 206.5t16 204.5q-52 50 -52 91q0 22 15 42q14 19 32 23t32 -3t24 -20q19 0 36.5 1t30.5 -12t13 -40q0 -39 -9 -74q166 -249 390 -591.5t280 -424.5q-1 14 -7 134q-6 121 -8 206q0 18 -1 42q1 86 5 242q6 198 21 439 q-20 26 -20 52q0 21 12 42q18 34 62 35h3q42 0 64 -29q8 -11 10 -27q0 -6 1 -11q0 -11 -2 -17q-3 -10 -10 -27t-7 -18q-18 -375 -22 -594q-1 -81 -2 -152q0 -123 4 -217q6 -150 6 -202q0 -1 6 -27.5t2 -36.5q-22 -53 -64 -53q-19 0 -41 10q-12 5 -19 14.5t-13.5 23.5 t-10.5 20q-331 491 -661 997q-13 -146 -19 -231q-8 -85 -14 -229q-4 -82 -3 -159q0 -59 2 -117q5 -130 22 -251q20 -30 20 -57q0 -16 -8 -31q-16 -29 -51 -37q-8 -2 -16 -2q-25 0 -46 20q-25 26 -25 54q0 19 11 38q-10 99 -14.5 203.5t-5.5 177.5z" />
<glyph unicode="O" horiz-adv-x="1198" d="M31 688q10 110 64 233t151 236q35 40 78 70t81 47.5t89.5 27t85.5 12.5q20 2 46 2q18 0 39 -1q52 -2 73.5 -4.5t66.5 -7.5q32 -3 54 -25t18 -55q0 -6 -5 -11q102 -56 172.5 -159.5t100 -221.5t33.5 -242q1 -19 1 -38q0 -103 -19 -194q-22 -108 -62 -181 q-44 -82 -124 -142t-178 -84q-83 -21 -169 -20h-32q-103 4 -203 51t-173 130q-64 73 -109 161q-46 90 -68 198q-15 74 -14 149q0 34 3 69zM164 754q-17 -78 -16 -152q0 -80 20 -156q39 -142 137 -251q66 -73 140.5 -113t142.5 -46q20 -2 40 -1q48 -1 95 9q66 14 119.5 45.5 t93.5 68.5t61 75q44 78 60 194q9 62 9 127q0 57 -7 116q-14 127 -78.5 255t-171.5 214q-18 9 -39.5 10.5t-37 -1t-33.5 -7t-23 -4.5q-128 -33 -171 -33q-23 0 -23 9q0 15 97 75q17 10 23 14q-98 -16 -179.5 -55.5t-109.5 -77.5q-114 -149 -149 -315z" />
<glyph unicode="P" horiz-adv-x="931" d="M27 619.5q0 42.5 32 60.5q20 10 40 8.5t34 -10.5q3 125 3 277q0 76 -1 159q-22 -19 -43 -19q-13 0 -26 7q-38 19 -38 66q0 41 29 63q24 20 59 20q11 0 23 -2q3 43 3 62q0 11 -1 14q-14 11 -19.5 39.5t5.5 54.5q17 33 57 42q11 2 21 2q26 0 47 -17q18 -16 18 -49 q0 -24 -10 -58q1 -6 -0.5 -21.5t-1.5 -27.5q96 43 208 50q24 1 47 1q85 -1 161 -21q96 -26 162.5 -92t72.5 -159q1 -15 1 -29q0 -50 -15 -98q-20 -64 -70 -126t-126 -114.5t-192 -93t-259 -59.5q1 -35 1 -68q-1 -91 -5 -167q-4 -67 -3 -166q0 -54 1 -117q23 -26 23 -55 q0 -18 -9 -37q-18 -41 -66 -41q-1 0 -1 -1q-48 0 -70 40q-6 11 -8 23t0 24t5 20.5t7.5 18.5t5.5 12q-6 106 -6 217q1 35 1 70q2 106 1 170v45q-10 -5 -32 -0.5t-36 16.5q-30 24 -30 66.5zM254 670q266 46 408 152q130 98 130 198q0 9 -1 18q-13 102 -97 154q-75 46 -176 45 q-13 -1 -26 -1q-118 -6 -234 -65q0 -161 -2 -283t-2 -218z" />
<glyph unicode="Q" horiz-adv-x="1300" d="M32 508q-5 38 -5 77q0 94 25 189q35 136 120 246q66 81 183.5 143t241.5 80q40 6 78 6q80 0 152 -26q34 -12 56 -27.5t10 -32.5q133 -58 225.5 -180.5t127.5 -266.5q25 -101 25 -208q0 -45 -4 -90q-15 -155 -85 -277q-61 -119 -158 -182q49 -157 51 -162q49 -35 49 -76 q-2 -39 -42 -65q-22 -13 -41 -13q-17 0 -31 9q-32 21 -32 51q0 12 5 25q-12 30 -33 98t-26 82q-50 -27 -133 -42q-67 -11 -145 -11q-19 0 -38 1q-100 3 -205 48.5t-176 130.5q-80 96 -130.5 218.5t-64.5 254.5zM148 538q19 -246 171 -427q71 -83 184 -117q87 -27 165 -27 q24 0 48 3q99 10 167 48q-61 165 -96 246.5t-62 104.5q-54 4 -74 55q-5 13 -5 25q0 27 23 51q24 26 53 26q11 0 23 -4q10 -2 18.5 -7.5t14 -11.5t11 -15t8 -14t6 -14.5t4.5 -10.5q76 -99 174 -373q90 74 109 125q53 128 63 258q2 32 2 63q0 95 -23 183q-31 116 -108 215 t-193 163q-56 15 -101 15h-2q-46 -1 -84.5 -12t-63.5 -24.5t-42 -24.5t-20 -11q-42 -12 -38 13q4 30 53 74l20 17q-100 -31 -178.5 -82.5t-108.5 -86.5q-120 -156 -120 -365q0 -29 2 -58z" />
<glyph unicode="R" horiz-adv-x="1138" d="M7 1220q0 44 30 70q24 20 52 21q8 0 15 -2q-2 41 12 59q10 14 24 13q4 0 8 -1q19 -5 37 -20t26 -33q129 19 241 21h32q96 0 190 -13q110 -15 180.5 -64.5t85.5 -131.5q4 -21 3 -42q1 -31 -7 -63q-14 -54 -57 -112t-111.5 -110t-177.5 -102t-248 -87q491 -231 725 -390 q1 -1 36 -8t46 -26q10 -17 10 -36q0 -16 -7 -33q-16 -38 -52 -44q-16 -2 -29 3.5t-19 11t-14.5 17.5t-9.5 13q-2 2 -161.5 89.5t-348.5 192t-244 134.5q9 -66 13 -129t4 -103.5t-1 -138.5t-1 -164q13 -12 18 -39t-6 -53q-17 -34 -58 -43q-11 -2 -20 -2q-28 0 -49 19 q-17 18 -17 48q0 24 11 56q2 76 6.5 170.5t5.5 135.5v20q0 37 -2 93q-4 72 -14 165q-17 -5 -34 -5l-62 17q-29 16 -29 53q0 7 1 15q7 50 44 69q19 10 37.5 10t36.5 -10q-22 285 -39 443q-27 -18 -52 -18q-13 0 -26 5q-34 15 -34 59zM219 1233q13 -131 19 -210t10 -156 t10 -152q277 71 434 180q139 97 139 188q0 12 -2 23q-9 39 -34 67.5t-57.5 45t-81.5 25.5q-50 10 -96 12q-19 1 -41 1q-31 -1 -69 -3q-64 -4 -112.5 -8.5t-118.5 -12.5z" />
<glyph unicode="S" horiz-adv-x="968" d="M1 704q-7 32 -7 66q0 45 12 96q24 93 64 164.5t90 114.5t106 69q58 26 118 32q28 3 54 2q32 0 64 -4q58 -6 114 -25q116 -42 160 -74.5t84 -114.5l6 -5l9 -7.5t9 -8.5t9 -12t6.5 -13.5t5 -17.5t0.5 -20q-1 -36 -31 -54q-16 -9 -34 -10q-15 0 -31 7q-25 12 -32 38.5 t-1 51.5q-28 42 -77 79t-113 56q-71 20 -137 20h-17q-74 -3 -135.5 -30.5t-111 -96.5t-79.5 -178q-7 -25 -7 -50q-1 -61 39 -119q56 -82 149 -109q21 -7 45 -6q16 1 34 3q44 8 98 16q54 10 109 22q53 12 107 12h4q56 0 104.5 -12.5t89 -53t64.5 -106.5q22 -68 23 -132 q-1 -32 -7 -64q-18 -94 -79.5 -176t-146 -145t-185.5 -106q-24 -8 -45 -8q-21 -1 -40 7q-38 14 -61 37.5t-32 49.5q-6 5 -16.5 15.5t-13 12.5t-8.5 9.5t-6.5 10t-3 10t-2.5 14.5v19q0 42 31 64q23 16 48 15q10 0 20 -2q16 -3 27.5 -16.5t15 -26.5t7 -30.5t3.5 -18.5 q7 -42 20 -52q14 -11 39 -3q313 174 313 380q0 52 -20 105q-17 47 -55 69q-34 20 -77 20h-9q-48 -2 -103.5 -11.5t-110.5 -24.5q-55 -16 -108 -20q-19 -2 -37 -1q-31 0 -57 5q-54 15 -106.5 50.5t-97.5 92t-61 129.5z" />
<glyph unicode="T" horiz-adv-x="1187" d="M-136 1154q-2 10 -3 19q0 28 20 50q16 17 47 17q25 0 60 -11q177 10 312 10q84 0 153 -4q-8 15 -8 31q0 20 12 41q17 33 57 41q10 2 19 3q28 0 49 -20q17 -18 17 -49q0 -17 -5 -37q370 -4 465 -12q18 14 45.5 17.5t54.5 -11.5q31 -20 35 -62q1 -5 1 -11q0 -34 -24 -54 q-15 -14 -39 -14q-26 0 -63 16q-212 12 -479 12q0 -765 -10 -1013q17 -9 22 -38.5t-6 -54.5q-15 -34 -56 -42q-10 -2 -20 -3q-28 0 -49 19q-17 17 -17 48q0 25 11 60q-2 153 -2 284q1 34 1 64q0 156 1.5 384t1.5 292q-249 0 -467 -16q-12 -13 -40 -19t-54 5q-34 17 -42 58z " />
<glyph unicode="U" horiz-adv-x="1060" d="M34 612q-2 34 -1 68q-1 84 9 164q14 114 46 241q-10 13 -9 43t17 50q24 30 64 31h2q38 0 61 -31q9 -13 9 -31q0 -29 -25 -70q-50 -184 -50 -356q0 -55 5 -108q21 -221 112 -363q58 -89 136 -130q69 -36 136 -36h18q74 6 143 34.5t115.5 71.5t60.5 84q37 112 43 242 q2 46 2 87q0 74 -6 130q-10 87 -40 266q-7 41 -10 62q-16 10 -27.5 38t-4.5 52q11 35 50 50q17 6 32 6q21 0 39 -11q23 -13 28 -48t0 -50q18 -76 32.5 -189t22.5 -243q3 -56 3 -111q1 -73 -5 -143q-10 -124 -43 -197q-30 -67 -88 -121.5t-130 -88t-156 -42.5q-30 -3 -60 -3 q-53 0 -103 10q-80 16 -155.5 67.5t-128.5 134.5q-66 100 -102 211t-42 229z" />
<glyph unicode="V" horiz-adv-x="1185" d="M14 1223q4 37 38 61q21 14 42 14q14 0 27 -6q10 -4 17.5 -11.5t11.5 -15t7 -19t4 -17.5t2 -16t1 -11q109 -173 324.5 -544.5t218.5 -376.5q13 43 42.5 147t51 172.5t56.5 167t80 195.5t101 194q-8 16 -0.5 46t27.5 46q21 17 47 17q10 0 22 -2q40 -10 56 -45q4 -6 4 -13 q0 -2 -1 -6q-2 -12 -3.5 -19.5t-8 -17.5t-10 -15.5t-9.5 -12.5t-7 -9q-75 -146 -135 -295.5t-86 -231t-72 -243.5t-61 -213q22 -26 33.5 -45.5t11.5 -46.5t-23 -49q-16 -14 -37 -14t-47 14q-8 -11 -17.5 -16.5t-14.5 -6.5t-25 -4q-5 -1 -9 -1q-23 0 -43 22q-19 20 -20 48 q0 8 2 17q2 15 18 35t19 31q-340 554 -592 1014q-17 7 -31 31q-12 20 -13 42q0 5 1 9z" />
<glyph unicode="W" horiz-adv-x="1546" d="M43 1308q-2 9 -2 18q0 19 8 36q17 32 58 40q10 2 20 3q28 0 47 -19q17 -16 16 -47q0 -25 -10 -59q0 -3 2.5 -40.5t5.5 -74t9.5 -99t16.5 -125t24 -140t35 -158t46.5 -165t60 -174t75.5 -173.5q17 59 55 227.5t67.5 312.5t26.5 146q-8 11 -12.5 33.5t0.5 49t22 38.5 q22 18 52 18h10q36 -4 51 -34q1 -1 3 -27.5t3 -28.5q123 -193 264 -389t203 -305q18 62 82 553.5t88 589.5q-8 14 -0.5 44t27.5 46q21 16 47 16q10 -1 22 -3q40 -10 56 -44q4 -10 4 -19q0 -7 -2 -13q-2 -8 -4.5 -14.5t-8 -14.5t-8 -12t-8.5 -11l-6 -8q-30 -162 -66.5 -449.5 t-68.5 -493.5t-68 -286q13 -36 13 -61q0 -33 -23 -45q-23 -13 -42 -8.5t-46 30.5q-147 235 -291.5 442t-198.5 289q-11 -60 -28 -153.5t-23.5 -128.5t-20 -97.5t-25 -103t-29.5 -99t-42 -128.5q0 -2 -2 -18t-5 -28.5t-16 -25.5t-34 -16q-7 -1 -14 -1q-25 -1 -37 15 q-16 20 -18 47t-5 29q-87 156 -153.5 337t-100.5 327.5t-55 284.5t-26 215q-4 55 -4 89q0 13 1 23q-13 12 -18 40z" />
<glyph unicode="X" horiz-adv-x="1116" d="M23 1139q-1 6 -1 12q0 30 30 50q23 15 47 15q13 0 26 -4q12 -3 21 -11.5t14.5 -20t8 -20t5 -21t2.5 -13.5q29 -53 132 -174.5t229 -251.5q54 68 189.5 256.5t213.5 288.5q1 6 3 15t15.5 27t34.5 24q10 3 20 3q23 0 47 -18q34 -26 34 -65q0 -30 -15.5 -45.5t-50.5 -26.5 q-92 -111 -240 -314t-167 -227q53 -59 118 -159t129 -208.5t93 -150.5q1 -2 13 -6t26 -15t22 -30q13 -22 -0.5 -50.5t-43.5 -45.5t-60 -8q-26 10 -41 34t-13 41q-27 38 -139 231t-176 267q-63 -84 -185 -264.5t-171 -245.5q-1 -1 -4 -16t-13.5 -30.5t-30.5 -24.5 q-25 -12 -45 -12q-26 1 -46 21q-25 27 -24 59q0 12 3 24q4 19 16.5 33.5t21.5 19l33 16.5q40 54 166 239t191 267q-132 142 -247.5 279t-137.5 174q-48 17 -53 82z" />
<glyph unicode="Y" horiz-adv-x="1011" d="M-6 1272q-6 14 -6 28q0 21 12 42q20 36 55 40q33 6 58.5 -11t25.5 -44q45 -33 82.5 -66t85 -85.5t81.5 -92t112 -132.5t135 -160q148 330 246 505q-9 16 -5 47t23 48q22 20 51 20q8 0 17 -2q40 -7 57 -39q7 -16 7 -33q0 -14 -5 -29q-12 -33 -29 -36q-29 -55 -57.5 -114.5 t-49.5 -103.5t-48.5 -106.5t-41 -94t-41.5 -97t-36 -84.5q-1 -3 6 -6.5t16.5 -8t12.5 -8.5q22 -26 22 -52t-24 -52q-16 -14 -37.5 -12t-42.5 14q-16 -51 -84 -228t-111 -317q11 -13 8.5 -46.5t-22.5 -53.5q-22 -20 -50 -20q-11 0 -23 3q-42 10 -60 45q-12 30 -1 61t29 38 q120 373 220 626q-266 332 -321 394q-95 109 -185 174q-17 -5 -44.5 9.5t-37.5 39.5z" />
<glyph unicode="Z" horiz-adv-x="1024" d="M-76 1002q-4 12 -3 24q0 24 16 47q12 14 33.5 18.5t37 2t27.5 -6.5q94 27 406 107t452 131q25 25 65 27h9q32 0 41 -17q8 -8 8 -19q0 -6 -2 -12q-6 -19 -17 -31.5t-26.5 -30.5t-20.5 -28q-17 -37 -106.5 -172.5t-191.5 -289t-218.5 -363t-183.5 -381.5q207 58 311 79.5 t275 37.5q11 14 37 20t51 -1q37 -14 51 -55q5 -15 5 -28q0 -23 -15 -41q-18 -23 -50.5 -26.5t-52.5 12.5q-62 -7 -123.5 -16t-103.5 -16t-112 -22.5t-99.5 -22.5t-119 -29t-120.5 -29q-10 -3 -30.5 -19t-22.5 -16q-12 -5 -24 -5q-13 1 -27 7q-26 12 -35 43q-6 22 2.5 37 t28.5 28t22 15q67 183 175.5 386t197 338.5t193 288.5t133.5 200q-105 -40 -362 -104.5t-369 -100.5q-12 -14 -39.5 -21t-55.5 2q-35 14 -47 52z" />
<glyph unicode="[" horiz-adv-x="567" d="M87 403q-5 272 26 559.5t82 483.5q73 26 98 28q47 2 108 -30q52 23 101 -19q29 -26 16 -79t-51 -62q-24 -7 -42.5 1.5t-28.5 22.5l-11 13q-7 2 -20.5 10t-23.5 13.5t-24 4.5t-28 -12q-54 -247 -80 -636t10 -570q8 -5 35 -8q3 0 18 6.5t29 10t31 -0.5q35 -12 43 -54.5 t-17 -70.5q-6 -6 -14 -10.5t-17 -6t-17 -2t-18 1t-15.5 2.5t-14.5 3t-10 2q-27 1 -49 -1t-29 -3t-14 2t-19 14q-49 115 -54 387z" />
<glyph unicode="\" horiz-adv-x="935" d="M41 1028q-15 44 18 87t80 22q22 -9 32.5 -20.5t16.5 -29.5l5 -18q51 -62 366 -521t395 -568q20 -2 41 -23t25 -53q7 -36 -21 -64.5t-67 -23.5q-19 1 -32 12t-17.5 22t-9 27t-5.5 19q-75 86 -202.5 264t-229 330t-207.5 313.5t-110 167.5q-19 -2 -44.5 15t-33.5 42z" />
<glyph unicode="]" horiz-adv-x="468" d="M34.5 1368q-7.5 44 20.5 70q31 29 101 6q23 20 78.5 21t111.5 -19q48 -185 56 -487.5t-21.5 -574t-81.5 -390.5q-20 -17 -44 -19t-58 5q-11 -7 -27.5 -12.5t-38.5 -5.5t-37 11q-31 22 -36 61t22 66q29 27 104 2q14 -2 17.5 -2t11 4t10.5 5q27 111 46.5 341.5t17.5 488 t-33 398.5q-35 31 -78 -12q-10 -15 -41.5 -22.5t-58.5 4.5q-34 17 -41.5 61z" />
<glyph unicode="^" horiz-adv-x="845" d="M100 1229q1 26 25 49t41 27q16 19 41.5 53.5t43 54.5t62.5 54t111 71q57 -25 95.5 -49.5t61 -50.5t34.5 -46.5t28.5 -53t30.5 -54.5q19 -2 38.5 -22t20.5 -56q3 -40 -30 -64.5t-68 -15.5q-26 8 -37.5 33t-11.5 49q-19 25 -35.5 57t-27 52.5t-35.5 44.5t-64 43 q-61 -52 -83.5 -74.5t-45 -56t-31.5 -45.5q9 -17 -10 -47t-45 -37q-38 -11 -74 16.5t-35 67.5z" />
<glyph unicode="_" d="M111 -158.5q-9 40.5 18 68.5q20 20 55.5 20.5t46.5 -14.5q208 -25 738 12q255 20 228 -14q-24 -30 -210 -81q-9 -2 -12 -3q-121 -34 -342 -43.5t-383 10.5q-13 -15 -41.5 -20t-54.5 6q-34 18 -43 58.5z" />
<glyph unicode="`" horiz-adv-x="634" d="M127 1284q-4 32 10.5 60.5t39.5 42.5t57.5 5t60.5 -46q24 -31 31.5 -71t5.5 -72.5t13.5 -78.5t53.5 -90q96 -119 38 -112t-113 51q-86 67 -137 147t-60 164z" />
<glyph unicode="a" horiz-adv-x="923" d="M20 386q-1 13 0 26q0 86 30 168q35 96 106 149q67 49 136 80q68 31 142 43q25 4 51 3l97 -14q74 -22 135 -79q0 30 -8 43q-15 13 -20.5 41.5t5.5 54.5q18 33 58 42q10 2 19 2q27 0 48 -19q21 -22 23 -58.5t-15 -44.5v-11q0 -152 26 -382q27 -238 30 -344q13 -10 18 -38 q2 -10 2 -20q0 -17 -6 -34q-17 -37 -62 -45q-10 -2 -19 -2q-32 0 -54 22q-19 23 -19 53q0 5 1 11q4 37 22 55q0 56 -12 154q-20 -38 -38.5 -67t-47 -62t-58 -54.5t-71.5 -36.5q-43 -16 -89 -17h-5q-44 0 -102 14q-61 15 -130 47q-86 41 -136.5 131.5t-56.5 188.5zM150 498 q-10 -42 -10 -83q0 -51 14 -100q28 -90 94 -131q96 -59 177 -59q187 0 290 317q3 8 4 11v129q-50 60 -78 88q-59 58 -133 68q-19 2 -39 3q-53 0 -102 -20q-66 -27 -131 -80q-64 -49 -86 -143z" />
<glyph unicode="b" horiz-adv-x="786" d="M-6 1239q10 37 54 46q11 2 22 2q29 0 49 -19q18 -16 19 -53q0 -22 -7 -50q14 -164 35 -420q63 29 153 33q20 1 39 1q69 0 132 -12q81 -16 145.5 -49t83.5 -73q28 -54 28 -121q0 -34 -7 -70q-20 -110 -103 -212q-145 -177 -399 -277q-1 -1 -12.5 -7t-20.5 -10t-24 -8 q-12 -3 -22 -2h-5q-12 1 -25 8.5t-23 22.5q-10 14 -11 29t3 32t4 23q-23 202 -54.5 624t-35.5 466q-25 23 -25 56q0 19 7 40zM172 616q6 -64 11.5 -142t14 -163t25.5 -233q7 3 33 15t38.5 18t39 19.5t42.5 24t40.5 27.5t42 33t37.5 38t36 46q27 38 41 59.5t30 51.5t21 52 q4 17 4 34v12q-2 24 -14 47q-46 85 -178 103q-30 4 -59 4q-102 0 -205 -46z" />
<glyph unicode="c" horiz-adv-x="825" d="M25 455q-2 28 -2 55q0 254 215 381q40 24 103 31q25 3 52 3q39 -1 83 -7q72 -10 148 -51t130 -107l12 -10q13 -8 22 -22q7 -11 7 -24v-6q-11 -79 -68 -79q-22 0 -51 12q-12 4 -19 20.5t-10.5 34t-5.5 19.5q-26 37 -77.5 62t-103.5 33q-46 8 -86 8h-10q-44 -1 -61 -11 q-94 -57 -132 -136q-30 -63 -30 -156q0 -25 2 -52q3 -40 20 -88t47 -97.5t80 -88t111 -50.5q28 -5 51 -5q29 0 52 8q41 14 90 54q88 74 117 74q16 0 15 -21q-1 -41 -47 -111q-15 -24 -24 -30q-55 -42 -127 -70q-53 -21 -100 -21q-17 0 -33 3q-80 10 -149 56t-114.5 110.5 t-73 136.5t-33.5 142z" />
<glyph unicode="d" horiz-adv-x="962" d="M30 412q-1 14 -1 28q0 72 25 140q30 82 93 131q80 59 179 91q76 25 157 26q25 0 51 -3q108 -10 185 -75q24 242 29 467q-15 11 -20.5 39.5t5.5 54.5q17 33 57 41q10 2 19 3q28 0 49 -20q20 -22 21 -57.5t-13 -44.5q-2 -33 -12.5 -191t-11.5 -213q-2 -55 -2 -191v-12 q0 -129 10 -257q10 -134 29 -303q15 -12 19 -44q1 -6 0 -12q0 -25 -13 -45q-20 -27 -56 -31q-4 0 -9 -1q-30 0 -52 22q-19 19 -19 54t13 46q-6 97 -19 213q-26 -44 -61 -82.5t-87.5 -72t-110.5 -48.5q-32 -8 -70 -8q-30 0 -64 5q-76 12 -153 57q-74 45 -117.5 126t-49.5 167 zM148 484q-5 -28 -6 -55q0 -54 21 -104q31 -76 93 -110q58 -33 114 -41q20 -3 39 -2q33 0 60 8q43 14 82 42.5t66 61.5t49.5 71t34 64t18.5 46v127q-54 45 -62 53q-56 43 -120 57q-34 8 -67 8q-28 0 -54 -6q-58 -12 -105.5 -34.5t-85.5 -53.5q-61 -50 -77 -132z" />
<glyph unicode="e" horiz-adv-x="903" d="M2 406q-3 11 -3 22q0 18 7 36q12 29 39 36q16 4 33 3t24 -5q20 159 85.5 253t158.5 115q16 4 38 4q2 0 4 1q21 0 50 -5q32 -5 66.5 -15.5t76 -31.5t82 -49t84 -71.5t82.5 -96.5l14 -14t20.5 -23.5t15.5 -27.5q4 -9 4 -18q-1 -7 -3 -15q-6 -18 -24 -35q-21 -17 -45 -16 t-45 18q-13 -2 -164.5 -17t-264.5 -30q-112 -15 -112 -25q0 -11 14 -65q7 -28 24 -71t38.5 -71.5t59.5 -54t85 -33.5q31 -4 59 -4q96 0 140 52q82 93 111 93q13 0 15 -19v-8q0 -43 -36 -120q-14 -31 -24 -41q-25 -27 -107 -53q-57 -18 -117 -17q-26 0 -53 3q-68 9 -125 44 t-92.5 80t-61 98.5t-36.5 96.5t-13 76q-26 -27 -41 -28t-32 10q-23 9 -31 39zM223 508q30 6 74.5 12t91 10.5t96.5 8.5t93 7t78 5q34 1 54 3q19 1 19 3q-1 71 -181 162q-77 39 -143 39q-14 0 -28 -2q-33 -4 -57.5 -19.5t-39.5 -35.5t-26.5 -55t-17.5 -63t-13 -75z" />
<glyph unicode="f" horiz-adv-x="757" d="M34 670q-1 7 -1 13q0 34 26 52q10 7 21.5 9.5t23 0.5t18 -3.5t18 -6t12.5 -4.5h20q19 0 50 -1q52 -1 75 -1q-11 66 -32 155.5t-37 152.5t-27 135q-8 54 -8 95q0 15 1 29q4 50 30 95t77 71q35 2 59 2q4 1 9 1q19 0 40 -2q26 -2 43.5 -6.5t38 -14t35 -22.5t32 -33.5 t32 -44.5t33 -59t36 -74t39.5 -91q22 -12 34 -35q8 -14 8 -31q0 -10 -3 -22q-8 -33 -46 -48q-17 -7 -33 -7q-20 0 -37 10q-33 17 -33 84q-32 81 -58.5 135.5t-44.5 82.5t-38 42t-32 16.5t-33.5 4.5t-35.5 6q-42 -29 -46 -96v-21q0 -57 16 -117q19 -71 50 -188.5t44 -200.5 q103 0 172 6q56 5 92 5q67 0 67 -17q0 -3 -1 -5q-10 -26 -106 -63l-44 -14q-32 -4 -59 -8.5t-37.5 -6.5t-27 -3.5t-40.5 -1.5q23 -143 34 -329q5 -92 5 -153q0 -65 -6 -98q11 -15 15 -40.5t-7 -53.5q-19 -33 -58 -42q-11 -2 -20 -2q-27 0 -47 17q-17 17 -17 48q0 25 11 59 q10 40 10 134q0 51 -3 117q-8 190 -30 339q-32 0 -81.5 1t-65.5 1q-33 -23 -62 -23q-17 0 -32 8q-33 18 -38 62z" />
<glyph unicode="g" horiz-adv-x="796" d="M34 465q4 70 27 132.5t58 100.5q75 77 159 114q78 35 149 35h11q77 -3 140 -42q0 22 8 41q17 34 57 42q10 3 20 3q27 0 48 -19q7 -6 11 -13.5t5.5 -16.5t1.5 -17t-1.5 -18.5t-3 -16t-4.5 -15t-3 -11.5q3 -38 3 -90q0 -69 -6 -162q-4 -74 -4 -131q0 -69 7 -111 q16 -124 20 -214q1 -23 1 -45q0 -67 -9 -129q-12 -82 -43 -138.5t-87.5 -97.5t-139.5 -62q-43 -11 -85 -11q-40 0 -78 11q-76 21 -120 84q-34 48 -34 113q0 18 3 37q5 36 16 71.5t24.5 57.5t27 31.5t23.5 -5.5t14 -54q2 -16 2 -37q0 -32 -4 -77v-12q0 -60 48 -94 q31 -21 72 -21q29 0 64 11q132 40 170 163q19 59 19 154q0 101 -21 240q-27 -44 -78.5 -75.5t-113.5 -44.5q-27 -6 -56 -6q-37 0 -78 10q-71 17 -131 67q-59 51 -87 125q-23 63 -23 123q0 10 1 20zM150 408q14 -69 65 -113q63 -53 124 -53q17 0 34 4q78 19 137 79.5 t72 123.5q4 31 13 73t9 59q1 6 1 17q0 23 -1 70q-55 55 -131 62q-15 1 -29 1q-60 0 -115 -23q-68 -30 -124 -83q-33 -32 -51 -91q-9 -33 -9 -69q0 -28 5 -57z" />
<glyph unicode="h" horiz-adv-x="800" d="M24 29q6 28 19 39q5 148 5 298q0 84 -2 170q-4 238 -6 338q0 12 -1 27q0 101 16 291q-17 13 -23.5 42t5.5 56q19 36 71 40q5 0 10 1q45 0 62 -31q16 -37 11.5 -61.5t-17.5 -34.5q-7 -64 -11 -124.5t-5.5 -112.5t-1.5 -91.5t2 -82t3 -64t4 -56t3 -40.5q61 75 135 107 q53 23 106 24q19 0 39 -4q72 -12 134 -64q55 -47 92 -96.5t56 -105.5q18 -56 26 -104q4 -27 4 -60q0 -26 -3 -56q-6 -68 -14.5 -119.5t-25.5 -134.5q9 -16 2.5 -50.5t-29.5 -51.5q-20 -15 -48 -16h-3q-26 0 -48 16q-23 18 -28 51q-1 6 -1 12q0 43 46 76q34 187 36 249v10 q0 116 -64 205q-28 38 -70 79q-33 30 -76 38q-13 2 -27 3q-29 1 -61 -11q-46 -16 -92.5 -60.5t-83.5 -110.5v-113.5t-10 -282.5q8 -9 14.5 -25.5t4 -43.5t-24.5 -47q-21 -18 -48 -18q-10 1 -22 3q-40 10 -55 43q-7 17 -7 36q0 9 2 18z" />
<glyph unicode="i" horiz-adv-x="401" d="M99 354q2 126 26 299q-18 16 -23 40t11 57q21 32 59 40q9 2 17 1q27 0 47 -19q22 -25 21.5 -58t-13.5 -48q-27 -270 -27 -363t23 -219q13 -19 19 -41.5t-3 -46.5q-20 -36 -60 -43q-9 -2 -18 -2q-29 0 -49 20q-21 25 -21 56t13 49q-22 140 -22 258v20zM135 1040v5 q0 35 23 61q22 26 60 28h8q34 0 59 -20q26 -24 29 -60q0 -4 1 -8q0 -31 -20 -57q-23 -28 -61 -32q-5 -1 -10 -1q-32 0 -58 23q-29 23 -31 61z" />
<glyph unicode="j" horiz-adv-x="790" d="M12 -110q-4 22 -4 46q0 35 8 76q15 73 63 146q30 47 47 47q7 0 11 -6q7 -10 7 -36q0 -45 -21 -140q-7 -32 -7 -60q0 -30 8 -56q14 -51 46 -81t75.5 -48.5t83.5 -24.5q27 -4 51 -4q12 0 23 1q97 8 150 144q51 130 51 331v19q-3 214 -61 446q-15 13 -20.5 41.5t5.5 54.5 q18 33 59 42q11 2 20 2q27 0 46 -19q12 -12 13 -32t-2 -39.5t-2 -24.5q52 -214 60 -410q2 -42 2 -82q0 -146 -24 -261q-31 -148 -106 -237.5t-184 -93.5q-11 -1 -22 -1q-23 0 -48 3q-37 4 -81 14.5t-83 30t-75 49t-58 70t-31 93.5zM430 1006v8q0 34 21 59q23 26 62 29h8 q34 0 59 -21q26 -25 29 -61v-8q0 -30 -19 -56q-25 -28 -63 -32q-5 -1 -10 -1q-32 0 -58 23q-26 22 -29 60z" />
<glyph unicode="k" horiz-adv-x="903" d="M33 520q-3 12 -3 22q0 12 4 22q7 18 24 27.5t31 14t30 6.5q0 170 14.5 371t16.5 295q-17 13 -23.5 36.5t10.5 57.5q17 24 45 33q15 5 29 5q12 0 24 -4q26 -8 41 -26q18 -27 12 -55.5t-24 -42.5v-10q0 -62 -10 -260q-12 -216 -12 -379q77 19 138.5 44.5t141 66.5t109.5 55 q4 25 22.5 44.5t53.5 20.5q43 0 69 -37q19 -26 18 -52q0 -11 -3 -21q-9 -28 -38.5 -40.5t-52.5 -8.5q-223 -137 -432 -187q68 -36 143.5 -85.5t125.5 -87t138 -104.5t130 -98q1 -1 20.5 -5t37.5 -16t24 -34q4 -14 4 -27q0 -27 -17 -47q-24 -29 -60 -28h-7q-28 1 -48.5 20 t-23.5 39q-84 56 -174.5 127.5t-165 126.5t-155.5 98q0 -82 -5.5 -176.5t-5.5 -177.5q0 -2 8 -22t9.5 -36t-10.5 -40q-24 -36 -70 -37h-3q-44 0 -67 31q-11 21 -8 38.5t12 38.5t9 23q0 112 2 216.5t2 193.5q-3 1 -14.5 1t-18.5 2t-16.5 8.5t-17 21.5t-13.5 38z" />
<glyph unicode="l" horiz-adv-x="348" d="M83 1254.5q0 20.5 13 39.5q16 24 44 34q15 5 31 5q11 1 23 -3q26 -8 42 -27q16 -27 10 -56t-23 -43q11 -108 21 -277.5t15 -422.5q2 -72 2 -139q0 -167 -11 -299q22 -28 22 -54q0 -23 -18 -45q-25 -31 -65 -31h-8q-45 4 -66 37q-14 28 -6 56.5t26 40.5q5 157 5 323 q0 157 -4 321q-10 337 -27 484q-11 9 -18.5 22.5t-7.5 34z" />
<glyph unicode="m" horiz-adv-x="946" d="M48 815q-2 8 -1 17q0 18 8 34q19 30 55 33h6q32 0 54 -27q16 -20 16 -41t-16 -43q4 -40 4 -61q9 14 18.5 24.5t17 17.5t15.5 12t13.5 7.5t13 3.5t10.5 1h9.5h7.5q25 -1 51 -10t54.5 -34t48.5 -63q21 -40 31 -104q6 -39 6 -83q0 -30 -3 -63q19 186 76.5 273t136.5 90h3 q36 1 75 -21q40 -22 76 -78q38 -56 58 -136q15 -60 15 -147q0 -30 -2 -63q-7 -129 -49 -284q12 -13 5 -41t-34 -49q-23 -14 -45 -14q-14 0 -28 5q-36 14 -43 49q-6 26 4.5 50t29.5 32q39 128 49 235q5 49 5 88q0 47 -7 82q-12 63 -35 107t-44.5 61t-36.5 17 q-12 0 -22.5 -5.5t-28.5 -33t-35.5 -76t-41.5 -145t-48 -229.5q0 -61 -35 -84q-30 -19 -55 -19q-35 0 -60 39q-11 29 -2 53.5t25 36.5q11 97 11 171q0 60 -7 104q-16 100 -42 139t-59 39q-21 0 -49.5 -46t-44.5 -99q0 -22 2 -86q2 -53 2 -126v-29q0 -92 -6 -230 q20 -36 21 -62q0 -18 -11 -31q-27 -36 -71 -36t-66 30q-12 14 -12 34q0 27 22 65q0 68 3.5 296.5t3.5 313.5q0 20 -2.5 55t-1.5 45q-12 12 -18 39z" />
<glyph unicode="n" horiz-adv-x="851" d="M60 827q-1 5 -1 10q0 23 15 48q16 24 44 33q15 5 29 5q13 1 25 -3q26 -8 41 -27q18 -27 12 -55.5t-24 -42.5q-2 -84 -13 -207q47 78 113 127q67 49 131 63q46 10 87 11q18 0 35 -2q58 -6 99 -31q94 -56 135 -152q37 -86 37 -185q0 -12 -1 -24q-5 -112 -15 -248 q-4 -47 -6 -71q16 -18 16 -51q0 -31 -24 -60q-32 -26 -61 -26q-4 1 -8 1q-32 4 -58 35q-18 27 -8.5 55.5t28.5 39.5q22 232 22 302q0 169 -72 246q-23 24 -52 41q-26 15 -60 17h-8q-31 0 -68 -14q-42 -16 -84 -50t-88 -99.5t-85 -154.5q-3 -50 -3 -69v-7q1 -13 9 -78.5 t12 -142.5q8 -8 14 -21.5t4.5 -34.5t-14.5 -40q-15 -24 -43 -33q-15 -5 -30 -5q-12 -1 -24 3q-26 8 -42 27q-16 27 -10.5 55.5t22.5 44.5q-21 231 -22 333v14q0 107 14 382q-16 14 -20 41z" />
<glyph unicode="o" horiz-adv-x="886" d="M24 448q7 82 43 157t95 122q110 87 234 115q63 14 120 14q56 0 106 -13q102 -27 166 -95q35 -38 55.5 -81t28.5 -79q5 -23 4 -54q0 -16 -1 -34q-4 -52 -10.5 -87t-20.5 -98q-8 -36 -42.5 -83t-92.5 -96t-135 -80q-78 -30 -172 -34q-7 0 -14 -1q-88 0 -187 40 q-66 27 -110.5 88.5t-58.5 139.5q-10 53 -10 107q0 25 2 52zM146 474q-7 -35 -7 -69q0 -59 21 -115q33 -86 104 -120q64 -26 130 -26q30 0 62 6q98 18 175.5 74.5t93.5 121.5q3 11 7 31q24 99 24 144v9q-5 63 -60 127q-54 63 -144 73q-24 3 -47 2q-65 0 -128 -21 q-85 -29 -146 -80q-67 -59 -85 -157z" />
<glyph unicode="p" horiz-adv-x="866" d="M21 -372q8 28 28 40q27 212 38 354q9 111 9 267q0 42 -1 88q-3 214 -29 465q-15 15 -19 43.5t8 54.5q20 33 67 36h8q42 0 63 -28q17 -28 11.5 -55.5t-22.5 -44.5q6 -49 13.5 -121t9.5 -90q34 45 86.5 84.5t116.5 66.5q57 24 121 24h17q73 -4 136 -46q98 -63 138 -177 q24 -67 24 -134q0 -47 -12 -93q-28 -114 -115 -178q-78 -60 -161 -86q-52 -17 -106 -17q-33 0 -68 6q-90 16 -165 83q-4 -150 -53 -508q10 -10 16 -23t4.5 -34t-16.5 -41q-26 -30 -64 -30h-8q-44 4 -67 36q-11 19 -11 38q0 10 3 20zM226 370q4 -26 9.5 -43t14 -29t14.5 -17 t10 -7q54 -54 119 -68q29 -7 56 -7q35 0 69 11q59 18 117 62q63 47 79 122q7 29 7 58q0 44 -15 88q-26 71 -81 119q-48 42 -102 42q-12 0 -24 -3q-67 -11 -125.5 -56.5t-99.5 -106t-47 -107.5q-2 -18 -2 -33q0 -14 1 -25z" />
<glyph unicode="q" horiz-adv-x="870" d="M21 536q5 71 39.5 137t93.5 109q129 96 256 104q11 1 22 1q115 0 207 -80q8 -7 28.5 -12.5t38.5 -9t35 -13.5t17 -24.5t-15 -42.5q31 -32 76 -97q27 -39 27 -58q0 -17 -21 -17h-2q-33 0 -92 38q-4 -27 -8.5 -81t-7 -94t-2.5 -46q-2 -52 -9 -150.5t-10 -157.5v-35 q0 -49 4 -115q7 -91 27 -179q61 90 133 166q17 17 42.5 34t48 25.5t35.5 5.5q6 -2 6 -12q0 -9 -4 -23q-11 -31 -50 -87q-22 -31 -54.5 -82.5t-56.5 -88t-51 -73.5t-50 -56q-21 -16 -38 -16h-4q-17 1 -28 6.5t-17.5 17.5t-9.5 21.5t-7.5 29.5t-7.5 32q-24 96 -32 193 q-8 82 -8 132v16q2 51 11 157.5t11 134.5q-38 -47 -100 -74q-60 -27 -138 -27q-4 0 -8 1q-84 1 -164 42q-57 27 -97.5 83t-55.5 125q-11 52 -11 105q0 17 1 35zM138 547q-6 -26 -6 -51q0 -47 20 -91q30 -67 92 -112q36 -26 87 -30q10 -1 20 -1q41 0 81 13q51 16 93.5 59.5 t60.5 105.5q31 104 31 158v12q-4 54 -60 107q-44 46 -101 53q-13 2 -27 2q-44 0 -89 -18q-59 -25 -119 -76q-67 -56 -83 -131z" />
<glyph unicode="r" horiz-adv-x="770" d="M34 16q6 28 23 45q-17 231 -17 369q0 7 -1 14q-1 130 9 224q10 99 11 137q-17 15 -23 39l-2 12q0 20 13 45q16 24 43 33q15 5 29 5q12 1 24 -3q26 -8 41 -27q13 -17 13.5 -39t-7 -38t-16.5 -27q-9 -31 -12 -137q87 78 176 112q76 29 138 29q11 0 21 -1q70 -6 124 -44 q59 -36 84 -88q18 -38 19 -77q0 -14 -3 -28q24 -27 23 -53q0 -21 -15 -43q-24 -36 -69.5 -36t-67.5 30q-13 17 -13.5 38.5t6.5 37t17 26.5q2 9 2 18q0 47 -51 81q-32 17 -77 17t-91.5 -15t-93.5 -48t-80 -79q-4 -6 -16 -20.5t-15 -19.5t-10.5 -22.5t-8.5 -36t-3 -52.5 q-1 -19 -2 -40q0 -18 1 -38q2 -44 5.5 -107t9.5 -146q10 -9 17 -21t7 -32.5t-12 -40.5q-16 -24 -44 -33q-15 -5 -30 -5q-12 -1 -24 3q-26 8 -41 27q-12 20 -12 41q0 7 1 14z" />
<glyph unicode="s" horiz-adv-x="831" d="M35 510q-2 22 -2 44q1 60 17 114q22 72 64 121.5t98 86t111 55t107 23.5q24 2 46 2q100 0 168 -44q83 -54 85 -136q18 -16 24 -40q1 -6 1 -13q0 -20 -13 -45q-24 -36 -69.5 -36t-69.5 30q-18 27 -12 55.5t24 42.5q0 75 -115 75q-29 0 -67 -5q-58 -9 -106.5 -29.5 t-89.5 -55.5q-42 -35 -64 -91q-21 -52 -20 -117v-12q3 -86 37 -129q19 -25 47 -25q20 0 45 14q73 40 151 53q49 8 87 8q23 0 41 -2q50 -8 71 -24q31 -22 52 -44q21 -24 36 -58q14 -31 14 -67q-1 -3 -1 -7q-2 -40 -23 -97t-64 -124q-57 -90 -155 -159t-168 -69 q-47 0 -71.5 16.5t-27.5 43.5q-24 13 -37 37t-2 57q13 41 56 53q15 4 28 4q26 0 47 -16q29 -18 29 -56q0 -10 -2 -20q57 13 119 57.5t100 106.5q61 102 61 166q0 50 -36 78q-12 12 -52 13h-5q-39 1 -101 -15q-66 -16 -137 -51q-24 -12 -48 -12q-18 1 -36 7 q-43 16 -79.5 50.5t-62 85t-30.5 100.5z" />
<glyph unicode="t" horiz-adv-x="819" d="M13 855q0 34 32 56q26 17 54 16t44 -14q103 16 191 19q2 19 7.5 65t12.5 108t11 95q-17 13 -22.5 35.5t11.5 54.5q25 38 64 38h1q38 0 60 -32q13 -17 13.5 -37.5t-6 -35t-15.5 -23.5q-9 -52 -27 -262q108 8 148 8h8q36 -1 117 -16q1 0 16.5 4.5t35 4t34.5 -12.5 q31 -24 33 -62q0 -1 1 -3q0 -36 -36 -62q-20 -15 -40 -13.5t-34 10t-22 19.5q-59 18 -103 20h-21q-46 0 -132 -6q1 -9 5 -366q2 -140 1 -230q0 -140 -4 -159q15 -12 15 -48q0 -1 1 -2q0 -35 -23 -63q-26 -26 -59 -26q-7 0 -13 1q-40 6 -59 41q-8 17 -8 36q-1 13 3 27 q10 35 30 46v61q0 143 -4 353q-4 256 -4 323q-104 -4 -191 -18q-1 0 -7 -5t-9.5 -7l-10.5 -6t-13 -4.5t-14 -0.5t-16.5 3.5t-17.5 9.5q-38 24 -38 60z" />
<glyph unicode="u" horiz-adv-x="854" d="M39 819q9 33 41 51q21 12 42 12q12 0 25 -4q35 -10 48 -53q5 -14 1 -43.5t-14 -42.5q3 -283 40.5 -418.5t135.5 -203.5q49 -33 89 -33q53 0 88 58q39 63 79 256q3 14 8 42q3 15 5 23q11 54 12.5 140t7.5 145q-10 21 -13 31t-2.5 27.5t11.5 33.5q17 25 41 34q15 6 29 6 q7 0 15 -2q22 -5 39.5 -18.5t25.5 -30.5q5 -10 1.5 -40t-14.5 -41q-17 -196 -16 -283v-5q0 -86 15 -324q3 -50 5 -77q0 -1 10 -11q11 -12 18 -28q4 -9 4 -18q0 -8 -3 -16q-15 -34 -41 -47q-15 -8 -31 -8q-12 1 -23 5q-28 10 -46 35q-11 19 -10.5 31.5t6 28t4.5 18.5 q-3 36 -8 113q-71 -206 -205 -206q-75 0 -170 64q-140 93 -188 261q-38 132 -38 339q0 56 3 117q-14 15 -22 39q-6 17 -6 30q0 7 1 13z" />
<glyph unicode="v" horiz-adv-x="858" d="M0 821q-1 6 -1 12q-1 37 37 69q24 20 53 20q23 0 48 -13q21 -12 30.5 -36.5t8.5 -44t-6 -31.5q122 -247 210.5 -385t190.5 -240q10 34 51.5 183.5t76 267.5t65.5 219q-5 21 -5 38q0 32 17 52q18 17 47 22q7 1 14 1q23 1 43 -11q28 -16 35 -53q2 -8 2 -16q-1 -17 -11 -37 q-16 -28 -34 -39q-174 -590 -213 -713q-11 -33 -17 -49q-8 -17 -18 -29q-8 -10 -18 -9q-4 1 -6 1q-14 4 -32.5 16.5t-47.5 40.5q-139 142 -235.5 285t-229.5 412l-13 8q-13 9 -26 24.5t-16 34.5z" />
<glyph unicode="w" horiz-adv-x="1054" d="M21 718q-3 11 -3 22q0 17 7 34q17 38 71 42q6 1 12 0q44 0 60 -30q9 -16 9.5 -33t-4.5 -28t-11 -22t-6 -13q4 -33 11 -99.5t11 -95t15 -85t25 -99.5t39 -107.5t60 -137.5q57 146 72 238t17 280q-8 8 -14.5 20t-11.5 37t9 51q16 38 36.5 55.5t40.5 15.5t40.5 -13 t37.5 -29.5t31 -35.5t21 -29l8 -13q83 -124 130.5 -222t107.5 -261q52 140 64 252q6 55 6 106q0 52 -7 98q-15 14 -22.5 43.5t4.5 57.5q19 37 71 41h10q45 0 62 -31q13 -32 13 -53q-1 -5 -1 -9q-4 -23 -18 -34v-87.5t-3 -113t-12 -109.5t-30.5 -132t-54.5 -126 q-48 -92 -89 -92q-40 0 -75 84q-54 136 -80.5 198t-69 146.5t-92.5 159.5q-1 -79 -4 -128.5t-12.5 -126.5t-33 -153t-60.5 -155q-20 -43 -46 -61q-20 -14 -39 -14q-5 0 -11 1q-24 5 -44 21t-32 39q-57 102 -98 218.5t-59.5 219.5t-25.5 157t-10 99q-15 12 -22 42z" />
<glyph unicode="x" horiz-adv-x="1011" d="M53 721q-2 12 -2 23q0 34 23 58q28 29 63 29h6q57 -5 68 -88q5 -4 72.5 -60t119 -102t86.5 -85q34 49 68 93t56 70t63 73t65 75q-4 23 8.5 44t34.5 32q13 6 26 6q22 0 46 -18q37 -28 37 -62q0 -41 -21 -61q-20 -20 -45 -21q-18 -21 -67 -74.5t-65 -72.5t-49 -63t-66 -95 q5 -4 28.5 -24.5t34 -29.5t34.5 -31t39 -36t38 -36.5t40 -41t36.5 -41t35.5 -43.5q25 0 50 -15.5t30 -49.5q1 -10 1 -20q0 -36 -20 -60q-22 -27 -53 -28q-5 0 -10 1q-25 2 -41 10.5t-23.5 24t-9.5 23.5t-4 26q-23 35 -51.5 68.5t-66 68.5t-56 51.5t-62.5 52.5l-44 36 q-30 -43 -123.5 -151.5t-151.5 -205.5q6 -16 -9 -43.5t-40 -36.5q-12 -4 -23 -4q-23 0 -45 16q-32 24 -34 62q-1 35 18 55.5t37 22.5q57 91 108 160.5t76.5 98.5t90.5 101q-49 41 -144.5 134.5t-142.5 130.5q-16 -2 -41 14t-29 39z" />
<glyph unicode="y" horiz-adv-x="909" d="M20 731q-5 10 -5 21q0 26 29 56q31 31 62 31q9 0 19 -3q25 -8 41.5 -37.5t13.5 -46.5q13 -19 63 -97t77.5 -117t86 -106.5t125.5 -126.5q8 17 46 106.5t54 123t48.5 95t64.5 107.5q1 1 2.5 18t7 36.5t17.5 29.5q18 14 40 14q20 0 44 -11q49 -25 49 -64 q-1 -35 -18.5 -54.5t-38.5 -23.5q-32 -47 -64.5 -110.5t-49 -101t-53.5 -128.5t-46 -113q18 -12 20 -14q32 -26 43.5 -47t4.5 -32.5t-24 -17.5t-41 -5.5t-48 6.5q-15 -47 -95.5 -206.5t-121.5 -295.5q12 -11 8.5 -39t-31.5 -53q-24 -20 -53 -20q-10 0 -21 3q-42 9 -51 43 q-6 18 -6 33q0 36 33 58q53 148 132 319.5t97 218.5q-60 55 -109.5 107t-80.5 87.5t-64.5 82.5t-48.5 70.5t-46.5 75t-45.5 73.5q-1 1 -15 5.5t-29 16.5t-22 33z" />
<glyph unicode="z" horiz-adv-x="860" d="M-1 654q2 24 15 36q26 22 57 24t40 -7q178 50 373 79t249 41q27 23 63 29q9 1 16 1q23 0 32 -13q16 -20 18 -38v-6q0 -14 -8 -26q-10 -14 -22 -26t-28.5 -27.5t-25.5 -28.5q-46 -65 -116.5 -162.5t-106.5 -149t-92.5 -141.5t-114.5 -196q102 22 206 32.5t144 22.5 q9 14 35.5 25.5t50.5 5.5q25 -6 42.5 -34.5t17 -57t-18.5 -47.5q-26 -21 -57 -21q-23 0 -49 11q-50 -12 -172.5 -26.5t-263.5 -47.5q-17 -4 -32 -18t-24 -24q-8 -10 -25 -10h-4q-20 1 -48 21q-17 15 -17 34q-1 13 7 28q18 37 42 45q3 3 17 25.5t18 27.5q202 384 414 651 q-39 -8 -117.5 -17.5t-165.5 -26t-192 -48.5q-28 -42 -78 -42q-7 0 -15 1q-20 0 -36 16.5t-23 38.5q-5 17 -5 35v11z" />
<glyph unicode="{" horiz-adv-x="567" d="M2 813q-17 40 6 75.5t66 43.5q17 4 34 -2t25.5 -12t34.5 -27q11 -2 15 2.5t7 21.5q102 567 199 637q-5 24 24.5 54t63.5 30q58 0 80.5 -34.5t15.5 -77.5q-3 -32 -31.5 -48t-56.5 -12q-50 -39 -93 -231.5t-61 -421t3.5 -451.5t87.5 -311q23 7 53 -3t41 -34q22 -44 0 -85 t-70 -50q-32 -8 -61 20t-31 48q-68 39 -112 165.5t-57.5 286.5t-0.5 328q0 10 -20.5 21t-44.5 18q-13 -11 -35.5 -11.5t-46 14.5t-35.5 46z" />
<glyph unicode="|" horiz-adv-x="401" d="M89.5 -127q4.5 30 19.5 45q-3 150 14.5 479.5t37.5 633.5t21 329q-14 11 -16 40.5t12 53.5q22 32 65 31.5t66 -31.5q13 -16 14 -37t-6 -35.5t-16 -25.5q-1 -86 -35 -694t-39 -748q16 -14 19 -43.5t-17 -56.5q-23 -31 -65 -30t-64 32q-15 27 -10.5 57z" />
<glyph unicode="}" horiz-adv-x="579" d="M-39.5 1486.5q6.5 36.5 49.5 63.5q17 12 36.5 13.5t37 -4.5t31.5 -14t26 -16t15 -9q77 -29 141.5 -253t95.5 -499q26 7 68.5 2.5t64.5 -20.5q35 -26 34 -75t-32 -75q-14 -12 -35.5 -13t-38 5t-28.5 14q-17 4 -21 0.5t-4 -37.5q14 -199 -40.5 -403t-114.5 -262 q-7 -27 -38 -54t-63 -24q-61 3 -79.5 35t-6.5 76q5 23 18 34.5t25 14.5t13 4q72 70 104.5 265t24 412.5t-51.5 424.5t-108 301q-17 -9 -48 -4t-52 28q-30 33 -23.5 69.5z" />
<glyph unicode="~" horiz-adv-x="1159" d="M45 1309.5q-8 42.5 16 74.5q13 22 51 23.5t50 -8.5q115 61 266 55q39 -1 81.5 -19.5t73 -38t66 -32t64.5 -4.5q24 7 43.5 13.5t32.5 11.5t29.5 12.5t24 11t27.5 14t31 15.5q58 29 97.5 45t57.5 18.5t25.5 -1.5t0 -17.5t-18 -27.5t-29 -33t-32.5 -32.5t-28.5 -27 t-17.5 -16.5q-83 -86 -229 -101q-55 -6 -107 8t-111 41.5t-89 36.5q-32 10 -58 12t-47 -4t-36 -13.5t-37.5 -21t-38.5 -20.5q-18 -28 -54 -41t-61 2q-35 22 -43 64.5z" />
<glyph unicode="&#xa1;" horiz-adv-x="632" d="M203 -252q4 12 15.5 26t12.5 17q25 83 48.5 259.5t45 406.5t23.5 252q1 6 4 27q22 189 44 189q25 0 50 -229q15 -126 -18.5 -446.5t-77.5 -474.5q0 -1 5.5 -18.5t5.5 -39t-13 -36.5q-30 -40 -75 -33t-68 61q-6 27 -2 39zM332 1055q-12 37 3.5 71t47.5 45q36 15 71 0 t46 -49q12 -37 -3 -71.5t-48 -44.5q-35 -12 -70 2.5t-47 46.5z" />
<glyph unicode="&#xa2;" horiz-adv-x="847" d="M45 387q7 90 24.5 156t42.5 108.5t65.5 72t82 45.5t102.5 30q-2 32 -7.5 110.5t-6.5 108.5q0 3 -9 20.5t-13.5 33t2.5 38.5q11 23 37.5 37t58 7t49.5 -42q11 -25 8.5 -41t-10.5 -33t-8 -18q3 -62 8.5 -124t7.5 -97q81 -24 160 -64.5t121 -91.5q73 -16 69 -80 q-1 -53 -34.5 -71t-73.5 -3q-32 12 -49 72q-49 53 -93.5 78t-101.5 41q3 -52 7 -177t10 -215t18 -184l16 4t17 4.5t14 5.5t17 9t16 12q108 86 105 33q-2 -39 -46 -105q-11 -17 -18 -24q-16 -14 -35 -22t-43 -13.5t-31 -7.5q12 -83 33 -195q15 -15 22.5 -41t-1.5 -55 q-21 -44 -68 -49.5t-80 47.5q-5 8 -7.5 15.5t-3.5 13.5t-0.5 13t1 11t3 10t3.5 8l4 8l4 5q-7 80 -22 193q-85 -14 -159.5 20.5t-120.5 97t-70 139t-17 146.5zM150 369q-2 -30 6 -67.5t27.5 -77t48 -71.5t73 -49t96.5 -10q-11 99 -17 197.5t-10.5 214.5t-8.5 182 q-72 -21 -113 -52.5t-66.5 -94.5t-35.5 -172z" />
<glyph unicode="&#xa3;" horiz-adv-x="1212" d="M40.5 -115.5q-5.5 31.5 5 74t38.5 84t90.5 81t151.5 62.5q72 22 186 -16q7 29 18 86q-17 4 -57 10q-75 -25 -104 10q-27 35 -18.5 76.5t44.5 55.5q31 9 53.5 1t32.5 -20q18 -2 68 -12q2 8 4 33.5t4 33.5q-6 2 -26 6.5t-27 6.5q-12 -7 -29 -11.5t-39.5 -1t-36.5 20.5 q-27 36 -17 75t46 54q27 8 52.5 0.5t37.5 -19.5q9 -2 29.5 -6.5t27.5 -5.5q1 12 4.5 49t4.5 56q-44 2 -130 10.5t-108 15.5q-12 -9 -31.5 -12t-43 4t-38.5 25q-27 35 -13 81t54 58q35 12 103 -39q17 -4 213 -20q4 53 32 117t72 122t108 99t132 45q30 3 65 -5.5t68.5 -32.5 t54.5 -59.5t17.5 -93.5t-37.5 -129q-27 -58 -108.5 -102.5t-154 -62.5t-130.5 -23q-1 -23 -4.5 -54.5t-4.5 -46.5q24 -7 47 -11t38.5 -6t39.5 -1t32.5 2t36.5 4t34 4q160 19 142 -13q-15 -28 -133 -75l-22 -8q-30 -9 -38 -11.5t-36.5 -8.5t-46 -6.5t-46.5 0.5t-58 7 q-2 -9 -5 -47t-5 -47q113 -11 151 -8q228 20 216 -13q-8 -26 -129 -63q-65 -20 -95 -22q-94 -7 -159 -4q-2 -8 -27 -125q85 -44 226 -131.5t175 -102.5q27 4 58.5 -8t44.5 -51q15 -40 -11 -76.5t-67 -38.5q-25 0 -47.5 16.5t-34.5 34.5q-43 18 -179 106.5t-202 125.5 q-59 -164 -151 -226q-23 -17 -61 -28t-91.5 -13t-117 26.5t-118.5 88.5q-15 17 -20.5 48.5zM179 -38q-9 -23 5 -50q21 -29 93.5 -45t111.5 12q37 30 84 172q-74 24 -108 15q-39 -10 -74.5 -24.5t-69 -35.5t-42.5 -44zM713 784q107 6 181.5 33.5t113.5 102.5q10 19 12 41.5 t-4.5 42.5t-26.5 32.5t-51 10.5q-74 -5 -143 -83.5t-82 -179.5z" />
<glyph unicode="&#xa4;" horiz-adv-x="1146" d="M94 248q-1 10 3 20t10.5 19t15.5 17t19.5 15t20.5 13t19.5 10.5t16.5 8t13 5.5l5 2q-15 18 -20 29q-36 72 -55.5 158t-19 158.5t18.5 115.5q21 58 80 101q-4 2 -11.5 6.5t-26 17.5t-32.5 26t-24 31t-8 35q6 38 34.5 62t67.5 24q4 -1 11 -4t25.5 -14t33.5 -26t30 -42 t21 -59q96 30 208.5 26t199.5 -40q61 -24 122 -91q3 2 7.5 6.5t18 15.5t27.5 20.5t32.5 20t35 16t34 5t30.5 -9.5q33 -22 46 -54.5t3 -68.5q-5 -18 -24.5 -31.5t-38.5 -19.5t-47 -9t-35 -3h-17q37 -80 45 -165t-18 -162.5t-86 -123.5q-22 -18 -54 -35l9 -10 q9 -11 18.5 -24.5t19.5 -32t12.5 -34.5t-3.5 -32q-17 -35 -51.5 -49.5t-71.5 -1.5q-14 5 -25 20t-16 33.5t-8 35.5t-5 29l-1 13q-73 -22 -148.5 -15.5t-134.5 25.5t-111 50q-1 -6 -12 -26.5t-28 -47t-42 -44t-49 -13.5q-39 8 -64 34t-26 64zM238 689.5q0 -33.5 4 -73 t18.5 -87t38.5 -87.5q26 -45 87 -77.5t133 -43.5t152 6.5t138 65.5q60 51 69 145t-35.5 186t-127.5 134q-73 37 -165 42.5t-179 -30t-131 -108.5q1 0 -0.5 -19.5t-1.5 -53z" />
<glyph unicode="&#xa5;" horiz-adv-x="1077" d="M49 1110q-13 50 15 87t90 26q60 -11 65 -76q46 -33 75 -62t50 -57.5t84.5 -101t155.5 -166.5q46 45 152 184t177 207q-6 63 21 90q15 16 42 16t51 -12t40.5 -34t13.5 -46q-1 -14 -21 -38.5t-34 -30.5q-68 -77 -136.5 -172.5t-119.5 -166t-92 -108.5q-24 -69 -29 -104 q116 -24 201 -31q74 -6 117 -14.5t53 -17t3 -17.5t-30 -16.5t-50.5 -14t-53.5 -11t-43 -5.5q-68 -5 -102 -3t-111 15q-11 -48 -12 -59q71 -17 155 -29q76 -10 115.5 -22t42 -23t-13 -21t-44 -17.5t-57.5 -12t-49 -4.5q-108 0 -176 10q-51 -255 -94 -406q9 -60 -15 -84 q-19 -20 -49.5 -29t-61.5 4.5t-44 55.5q-8 25 7.5 52.5t33.5 41.5q66 181 100 385q-20 5 -69.5 17t-61.5 16q-12 -8 -27.5 -13t-38 -3t-38.5 18q-30 31 -24 74t40 55q17 13 38 10.5t34 -7.5t20 -11q4 -1 145 -35q2 7 15 64q-131 37 -150 39q-12 -5 -30 -8t-43 1t-41 19 q-28 34 -16.5 77t46.5 52q9 3 17 4.5t15 1t13 -1t11 -3l9 -4.5t7.5 -5t5.5 -5l5 -5l3 -3q67 -14 170 -49q2 11 6 34.5t5 31.5q-107 107 -180.5 189.5t-96 112.5t-52.5 58t-81 60q-26 2 -48.5 16t-29.5 41z" />
<glyph unicode="&#xa6;" horiz-adv-x="995" d="M388.5 1227.5q4.5 66.5 19.5 187.5q1 2 -7.5 16t-12 29t6.5 37q14 26 40.5 39.5t54 6t40.5 -39.5q9 -30 7.5 -40t-11 -20t-10.5 -13q-17 -158 4 -564q0 -21 -1.5 -45.5t-7 -51.5t-14.5 -34t-26.5 23t-40.5 104q-30 97 -38 198t-3.5 167.5zM400 451.5q-4 13.5 3 33.5 q25 52 71.5 56t64.5 -49q5 -25 4 -33.5t-8.5 -19.5t-8.5 -13q-3 -25 -4.5 -54t-2.5 -54.5t-1.5 -60t-0.5 -57.5t1 -62t1.5 -57.5t2.5 -60t2.5 -55t3 -55.5t2.5 -49q0 -18 -2 -42t-8 -49t-15.5 -32.5t-27 21t-39.5 98.5q-32 104 -36 260.5t16 294.5q1 2 -6.5 14t-11.5 25.5z " />
<glyph unicode="&#xa7;" horiz-adv-x="831" d="M55 922q2 30 11 67t26.5 82t48 86t69.5 74.5t96 52t124 14.5q37 -2 77 -15t65.5 -26t55 -29.5t34.5 -19.5q88 0 98 -82q8 -57 -28 -81.5t-83 -14.5q-9 2 -17.5 7.5t-14.5 11.5t-12 14.5t-9.5 14t-7 12.5t-4.5 8q-25 26 -70 49t-81.5 27.5t-47.5 -21.5q11 -19 29 -53.5 t49.5 -97.5t62 -134.5t63.5 -155.5t56.5 -169t39 -166t13 -156.5t-23.5 -130.5q-2 -5 -11 -36t-19.5 -59.5t-35 -66t-55.5 -63t-83.5 -42t-117.5 -11.5q-18 -15 -32 -22t-39 -3.5t-56 23.5q-29 19 -39.5 55t4 71t50.5 50q34 15 71 0.5t45 -33.5q24 -17 65.5 6t43.5 41 q3 54 -23.5 98.5t-91.5 87.5q-99 70 -171.5 210.5t-101.5 279.5t-22 246zM199 920q-5 -178 50 -338.5t185 -278.5q89 -79 119 -127q15 82 -1 187.5t-62 229.5t-97.5 236.5t-126.5 255.5q-21 -24 -43 -79t-24 -86z" />
<glyph unicode="&#xa8;" horiz-adv-x="724" d="M172.5 1203.5q-2.5 38.5 20.5 66.5q25 26 61.5 28.5t67.5 -20.5q26 -22 28.5 -59.5t-20.5 -65.5q-22 -28 -60 -31t-69 21q-26 22 -28.5 60.5zM483.5 1215.5q-2.5 38.5 22.5 66.5q24 27 61.5 30t67.5 -22q28 -25 29.5 -60.5t-23.5 -66.5q-22 -28 -60 -31t-69 23 q-26 22 -28.5 60.5z" />
<glyph unicode="&#xa9;" horiz-adv-x="1150" d="M87 443.5q-25 134.5 17 265t140 219.5q98 85 232 109.5t264.5 -16.5t217.5 -138q87 -96 111.5 -228t-17 -259.5t-137.5 -215.5q-95 -86 -228.5 -112.5t-265 12t-220.5 133.5q-89 96 -114 230.5zM201.5 458q22.5 -102 93.5 -179q107 -117 268.5 -121.5t276.5 104.5 q118 105 125 266.5t-99 278.5q-107 117 -268 123.5t-279 -99.5q-79 -70 -109.5 -170.5t-8 -202.5zM309 498q-13 209 148 290q200 99 342 -77q0 -1 17.5 -17t17.5 -30q-8 -42 -34 -58.5t-65 -1.5q-10 4 -15 17t-6 27l-1 14q-37 52 -93 62t-110 -17q-59 -27 -79.5 -78.5 t-14.5 -134.5q6 -69 73.5 -97t122.5 11q75 49 90 32.5t4 -54t-24 -50.5q-51 -51 -116.5 -59.5t-119.5 18.5t-93.5 82t-43.5 121z" />
<glyph unicode="&#xaa;" horiz-adv-x="923" d="M135.5 1275q24.5 81 91.5 142q97 86 189 87t186 -72q-1 7 -4 21.5t-4 21.5q-13 10 -18.5 33.5t2.5 45.5q14 33 55 40.5t65 -21.5q28 -35 2 -86q9 -73 36.5 -234.5t27.5 -232.5q0 -2 5 -17.5t6 -30t-7 -40.5q-15 -37 -51.5 -40t-60.5 23.5t-7 61.5q0 22 -2 53t-2 39 q-18 -51 -80 -85.5t-139 -36.5t-154 36q-93 49 -127 130t-9.5 162zM138.5 786.5q-12.5 32.5 2.5 62t49 38.5q22 7 45.5 -2t26.5 -8q48 -5 123.5 -16t112.5 -14.5t94.5 -0.5t116.5 18q189 49 183 13q-4 -26 -93 -75q-49 -27 -84 -38q-106 -31 -193 -31t-216 20q-26 3 -40 5 q-3 0 -15.5 -8.5t-25.5 -12.5t-37 2q-37 15 -49.5 47.5zM243.5 1253q-15.5 -52 5.5 -100.5t77 -77.5q42 -21 79 -24.5t63 7t47.5 30.5t35 42t23.5 47.5t14 41t6 26.5q4 20 -9.5 44t-26.5 37t-17 15q-47 33 -84 45.5t-75.5 3.5t-76.5 -44q-46 -41 -61.5 -93z" />
<glyph unicode="&#xab;" horiz-adv-x="692" d="M37 494q59 106 122.5 190.5t98.5 114.5q10 32 27.5 46t50.5 17q41 5 65.5 -24t14.5 -72q-7 -39 -32.5 -55t-53.5 -2q-45 -38 -162 -228q10 -23 32.5 -79.5t36 -87.5t36 -74t44.5 -74q22 -2 46 -22.5t28 -49.5q5 -41 -31.5 -72.5t-76.5 -19.5q-28 8 -43.5 40t-12.5 58 q-116 121 -190 394zM279 434q22 40 55.5 103t49.5 91.5t42 69t55 76.5q0 22 17.5 48.5t44.5 29.5q40 5 71.5 -18t32.5 -64q3 -49 -25.5 -68.5t-58.5 -15.5q-47 -81 -157 -264q3 -14 10.5 -48t10.5 -46t12 -36.5t19.5 -38.5t28 -32.5t41.5 -36.5q26 2 55 -9.5t38 -37.5 q17 -39 -14 -76t-75 -34q-31 1 -50 23t-21 46q-50 35 -85 89t-51 98.5t-39 125.5q-5 17 -7 25z" />
<glyph unicode="&#xac;" horiz-adv-x="1662" d="M44 612q5 35 28 54q12 11 36.5 12.5t45.5 -8.5q260 0 665.5 -31t665.5 -31q71 0 65 -71q-4 -40 -10 -107t-9.5 -102.5t-6 -91.5t-2.5 -113q12 -18 6 -47t-19 -37q-32 -20 -70.5 -16t-58.5 32q-9 12 -4.5 36t15.5 32q0 127 22 352q-224 3 -611.5 32.5t-647.5 29.5 q-20 -15 -53 -10.5t-44 22.5q-18 28 -13 63z" />
<glyph unicode="&#xad;" d="M138.5 528.5q-12.5 32.5 2.5 62.5t49 40q21 6 45 -4t27 -9q135 -17 351 -11t333 36q193 50 183 12q-7 -26 -95 -74q-47 -26 -80 -36q-125 -37 -325.5 -51t-362.5 6q-3 1 -15 -7t-26 -13t-37 1q-37 15 -49.5 47.5z" />
<glyph unicode="&#xae;" horiz-adv-x="1202" d="M20 952.5q0 135.5 37 264t107 196.5q101 97 224.5 141.5t238.5 35t219.5 -62t175.5 -141.5q79 -101 94.5 -269t-33.5 -330t-143 -250q-72 -66 -178.5 -109t-216 -55t-215 16t-170.5 98q-67 71 -103.5 200.5t-36.5 265zM142 1099q-26 -150 3 -299.5t101 -226.5 q67 -75 185 -90t235.5 23t195.5 112q79 69 121 205t29 275t-82 213q-68 72 -153 112.5t-175.5 47t-184.5 -30.5t-173 -117q-76 -74 -102 -224zM236 1220.5q2 19.5 12 32.5q14 20 40 22.5t38 -7.5q6 2 44 18.5t69.5 27.5t79.5 25.5t87.5 15.5t79.5 -6t70 -36t45 -76 q6 -20 7.5 -43.5t-10 -61t-38.5 -72t-87.5 -71.5t-146.5 -63q17 -6 105 -27.5t194 -56.5q27 3 52 -15q17 -19 21 -45t-13 -47.5t-56 -21.5q-8 0 -16 3.5t-11 6t-12 11.5l-8 9q-10 3 -149.5 43t-186.5 56q2 -33 5 -64q3 -34 1 -114q-1 -16 -1 -25q8 -6 14 -17.5t4.5 -30 t-14.5 -36.5q-17 -21 -59 -20t-54 24q-19 37 6 74q1 24 1.5 43t1 28t1 18.5t1 11.5t0.5 8.5v8.5t-1 13t-2 21t-3.5 33t-4.5 48q-30 3 -42.5 19t-8.5 35.5t18.5 37.5t32.5 25q-2 40 -5 71t-7 64t-6 49q-20 -10 -45 -4q-24 3 -34.5 20.5t-8.5 37zM406 1206q3 -14 6 -41 t8.5 -78t9.5 -90q73 20 127 40t83 39t46.5 34.5t21 33t3.5 26.5t-4 24q-11 39 -37.5 58t-56 20t-69.5 -10t-66.5 -22.5t-59.5 -27.5z" />
<glyph unicode="&#xaf;" horiz-adv-x="741" d="M59.5 1141q8.5 37 46.5 55q28 11 52 2.5t37 -24.5q32 -2 81.5 -5.5t68.5 -4.5t54 -1.5t67.5 2.5t78.5 9q139 19 125 -13q-12 -27 -110 -73q-9 -4 -11 -5q-106 -30 -164.5 -31t-206.5 17q-10 -10 -25 -16t-35 -2.5t-36 20.5q-31 33 -22.5 70z" />
<glyph unicode="&#xb0;" horiz-adv-x="780" d="M74 1022q12 42 47.5 92.5t90 97t121 66t140.5 -1.5q263 -86 252 -354q-2 -74 -31.5 -127t-81 -83t-106.5 -45t-125 -22q-101 -10 -182.5 50t-115 151.5t-9.5 175.5zM188 995q-25 -84 36 -162.5t165 -74.5q86 6 155.5 54.5t65.5 109.5q-8 92 -39.5 153.5t-99.5 85.5 q-54 16 -100.5 6t-84.5 -40t-62.5 -64t-35.5 -68z" />
<glyph unicode="&#xb1;" horiz-adv-x="1071" d="M158.5 72q10.5 34 44.5 43q21 6 43.5 -4t25.5 -9q264 -28 545 45q189 48 183 12q-4 -26 -91 -74q-50 -27 -86 -38q-150 -45 -274.5 -63t-269.5 0q-3 1 -32 -11.5t-46 -7.5q-27 8 -40 40.5t-2.5 66.5zM181.5 560.5q-10.5 31.5 6 61t50.5 40.5q16 4 29.5 0.5t18 -7.5 t11.5 0q43 -4 62.5 -4t63.5 4t56 4q0 24 0.5 60t1 55.5t-1.5 47.5t-6 55q0 3 -7 14.5t-10.5 23t3.5 35.5q25 58 77 54t70 -58q5 -23 3 -33.5t-9.5 -21t-7.5 -12.5q12 -86 12 -222q15 1 81.5 2t100.5 7q199 36 183 2q-14 -29 -142 -85q-27 -12 -34 -14q-99 -21 -191 -32 q0 -160 10 -275q0 -2 7.5 -13t10.5 -23.5t-5 -37.5q-15 -37 -46.5 -47.5t-60.5 6t-39 50.5q-7 23 3 44t10 23q-6 42 -9 81.5t-3 61.5t0.5 61t0.5 56q-23 0 -86 -1t-90 -1q-2 0 -14 -5.5t-24.5 -7.5t-37.5 5q-37 15 -47.5 46.5z" />
<glyph unicode="&#xb2;" horiz-adv-x="1132" d="M104 1436q3 14 16.5 26t27 17.5t28.5 11t17 6.5q217 78 352.5 84.5t214.5 -51.5q57 -36 53 -102t-70 -138q-38 -41 -85.5 -72t-110 -71.5t-125.5 -97.5q54 5 135 4.5t150 9.5q60 20 94 -2q25 -17 33.5 -56t-8.5 -71t-54 -29q-11 0 -52 13.5t-44 13.5q-59 -8 -146 -2.5 t-186 -3.5q-15 -8 -36 -22t-32 -21t-27 -12.5t-27.5 -1.5t-25.5 17.5t-28 39.5q-23 39 6 86.5t82 87.5q52 39 153 98t174.5 106.5t94.5 81.5q51 78 -51 88q-103 10 -277 -45q-52 -16 -94 -34q-4 -3 -19.5 -20.5t-31 -31.5t-23.5 -12q-61 13 -75.5 37.5t-2.5 67.5z" />
<glyph unicode="&#xb3;" horiz-adv-x="784" d="M45.5 1342q-1.5 26 17.5 55q8 10 31.5 17.5t24.5 8.5q109 79 205.5 113.5t166 25.5t111.5 -57q44 -50 45 -110t-46 -115.5t-134 -87.5q113 -7 165.5 -48t76.5 -134q31 -122 -67 -181q-57 -35 -219 -70q-114 -25 -155 -36q-3 -1 -16 -14.5t-21 -14.5q-28 -12 -56.5 5.5 t-39.5 48.5q-9 23 5.5 50.5t39.5 41.5q10 4 27 1.5t20 -1.5q28 7 62 14.5t61.5 12t58.5 10.5t54 11t47 12.5t37.5 15.5t26.5 20.5t13 26.5t-3 34q-11 37 -46 54.5t-76 17.5t-85 1t-74 5q-41 8 -59.5 39t-6.5 66.5t50 54.5q35 18 73.5 35.5t62 27t46.5 20.5t33.5 19 t16.5 19.5t1 25t-18 31.5q-15 20 -34 28.5t-52 5t-85 -31t-124 -78.5q-2 -1 -8.5 -19.5t-14.5 -23.5q-24 -19 -59 -20.5t-62 22.5q-16 20 -17.5 46z" />
<glyph unicode="&#xb4;" horiz-adv-x="884" d="M350 1000q-56 -3 33 85q41 40 61 80t22 67.5t5.5 72.5t11.5 79q15 64 71 59q48 -3 83 -46q33 -40 20 -78q-6 -18 -16 -50.5t-16.5 -51.5t-20.5 -47t-31 -48t-46 -43t-68 -43q-69 -33 -109 -36z" />
<glyph unicode="&#xb5;" horiz-adv-x="946" d="M96 -129q-96 642 38 800q63 75 161 28q59 -29 91 -79l7 -12q7 -15 24.5 -47.5t24 -49t16.5 -49.5t14 -73.5t5 -95.5q18 93 46 158t58 95t61.5 41t57 5t45.5 -23q22 -18 37 -33.5t36 -40t33 -52t21.5 -62.5t8 -79t-12.5 -93q-11 -47 -45.5 -140t-42.5 -161 q-4 -38 10.5 -58t45.5 -32q96 -37 95 -71q-1 -29 -77 -32q-29 -1 -63 2q-114 12 -111 166q1 54 17 108t41 116.5t36 105.5q10 36 10.5 68.5t-4 56t-17.5 49t-24 41.5t-30 39q-25 29 -63 -6q-74 -67 -115 -295l-5 -29q10 -17 19.5 -37t10.5 -55.5t-24 -54.5 q-34 -27 -59.5 -20.5t-43 29t-28.5 57t-15.5 62.5t-4.5 46q4 56 1.5 103.5t-3 68.5t-9 47t-14.5 39t-19.5 45t-25.5 65q-11 28 -40 54q-56 49 -80 -40q-40 -153 30 -677q16 -26 22 -42t2.5 -35t-22.5 -38q-19 -22 -57 -20.5t-62 30.5q-22 30 -8 107z" />
<glyph unicode="&#xb6;" horiz-adv-x="931" d="M40 968q1 38 13 62q44 94 111.5 142t151 52t186.5 -20q-6 18 -21 56q-10 14 -16 36.5t0 49.5q14 36 54.5 45t74.5 -19q19 -15 23 -39.5t-3 -44t-18 -28.5q2 -6 5 -19.5t7.5 -32.5t7.5 -32q5 -2 22.5 -8t27.5 -9q-8 11 -7 31t9 31q22 31 58.5 35t72.5 -23q20 -17 22.5 -44 t-14.5 -42q15 7 32 3.5t29 -17.5q19 -22 15 -55t-27 -54q-11 -9 -23.5 -11t-23.5 7q6 -133 20 -335.5t22 -328t7 -249.5t-18 -181q-20 -72 -57 -139q-45 -82 -49 1q-3 43 7 128q17 163 -6 584q-21 -27 -57 -15q-4 -89 -20.5 -267.5t-18.5 -313.5q8 -10 14 -27t3.5 -41 t-21.5 -39q-35 -27 -74.5 -20t-56.5 43q-8 27 -1 52.5t17 37.5q9 130 26 300t25 290q-95 8 -177 36t-138 67.5t-99.5 87.5t-68 97t-37 95.5t-11.5 84.5zM147.5 949q3.5 -18 8 -42t21.5 -53t37 -58.5t55 -59t76 -54t100 -44t126 -28.5q0 48 3 98.5t-10.5 157t-45.5 226.5 q-165 38 -240 15t-128 -132q-6 -8 -2.5 -26zM635 1063q10 -41 18 -80t13 -66.5t8.5 -63.5t5.5 -52.5t3 -52.5t1 -45v-49v-46q28 0 45 -14q-7 113 -19.5 277.5t-13.5 172.5q-12 5 -34 11t-27 8z" />
<glyph unicode="&#xb7;" horiz-adv-x="974" d="M387.5 34.5q-2.5 36.5 20.5 67.5q24 28 61.5 30.5t65.5 -23.5q26 -22 29 -59t-19 -66q-22 -28 -60 -31.5t-69 22.5q-26 23 -28.5 59.5z" />
<glyph unicode="&#xb8;" horiz-adv-x="915" d="M262 -84q-11 44 6 130.5t39 96.5q26 13 58 -5.5t22 -45.5q-5 -13 -11.5 -36.5t-11 -59t8.5 -51.5q21 -24 46 -21t59 15.5t65 27.5t63 14.5t53 -24.5q28 -37 22.5 -89t-38.5 -111.5t-74.5 -110t-87 -84t-75.5 -33.5q-18 -9 -76.5 26.5t-61.5 67.5q-8 40 20 66t72 16 q34 -7 49 -26t11 -33q59 21 122 106t38 119q-10 11 -35.5 10t-57.5 -13.5t-68.5 -20.5t-68 -10.5t-56 17.5t-32.5 62z" />
<glyph unicode="&#xb9;" horiz-adv-x="856" d="M187.5 1345q4.5 18 19.5 33q28 28 43.5 41.5t40 28.5t53.5 25q42 14 67 -14t25 -68q1 -10 -6.5 -29t-7.5 -21q0 -64 3.5 -111t14 -127.5t15.5 -127.5q0 -2 6 -14.5t6 -24.5q-4 -34 -33 -49.5t-61 -9t-45 27.5q-2 45 6 68q-11 55 -18 93.5t-10 70.5t-4 47.5t-1 49.5v50 q-16 -16 -34 -20.5t-33.5 1t-27.5 18t-17.5 28.5t-1 34z" />
<glyph unicode="&#xba;" horiz-adv-x="878" d="M39 849q-11 33 1.5 66.5t45.5 42.5q39 10 70 -12q51 -5 127 -16.5t115.5 -16t98 -1.5t117.5 18q192 50 185 13q-5 -27 -91 -74q-49 -27 -85 -38q-27 -8 -50.5 -14t-50 -9t-43 -5.5t-47 -2t-43.5 0.5t-50.5 4t-50 5.5t-61 8t-65.5 8.5q-12 -15 -36.5 -21t-47.5 1 q-28 9 -39 42zM111.5 1233q8.5 62 35.5 120t68 107q41 48 114.5 74.5t153 12.5t123.5 -77q25 -33 40.5 -76t20 -103t-11.5 -128q-8 -34 -25 -67.5t-52 -67.5t-80 -51t-115 -7.5t-152 52.5q-69 36 -98.5 92.5t-21 118.5zM233.5 1192.5q6.5 -45.5 45.5 -64.5q32 -15 70 -23 t77.5 -7.5t70.5 21t42 59.5q18 67 11.5 111t-16.5 65.5t-14 21.5q-35 37 -66 52.5t-58 8t-46.5 -21.5t-44.5 -41q-37 -38 -57.5 -87t-14 -94.5z" />
<glyph unicode="&#xbb;" horiz-adv-x="692" d="M27 129q7 38 33 51t53 4q46 38 161 228q-10 24 -32.5 79t-36 87.5t-35.5 75t-43 73.5q-25 2 -52 24t-24 50q2 42 38 68.5t77 11.5q58 -20 49 -86q114 -122 188 -394q-59 -107 -122 -192.5t-97 -114.5q-18 -63 -78 -69q-40 -5 -64.5 27.5t-14.5 76.5zM281 102 q-4 50 24.5 69t59.5 15q4 7 155 267q-3 13 -8.5 41.5t-8.5 39.5t-9.5 32.5t-13.5 33.5t-18.5 29t-27.5 31.5t-37 29.5q-23 -4 -53 8.5t-39 38.5q-15 39 15 75.5t73 33.5q31 -1 50.5 -23.5t21.5 -44.5q31 -22 56 -50t40.5 -52t31.5 -65.5t23.5 -66t22.5 -76.5q5 -18 8 -28 q-29 -51 -69.5 -128t-67.5 -121.5t-64 -90.5q0 -22 -20 -50.5t-47 -31.5q-38 -3 -67.5 20.5t-30.5 63.5z" />
<glyph unicode="&#xbc;" horiz-adv-x="856" d="M31 236q-7 27 21 51t81 49q108 95 153 127.5t167 103.5q5 3 34 26t54 41.5t54.5 31t45.5 4.5q19 -10 33 -37.5t2 -59.5q-5 -14 -35.5 -25.5t-30.5 -21.5q-2 -9 -7 -33.5t-5.5 -29.5t-4 -24t-4 -27t-3 -26.5t-3.5 -36t-2 -41.5t-3 -56q21 1 33 3.5t12.5 3.5t6.5 2t15 -1 q40 8 49 6q37 -9 51 -33.5t5.5 -50t-31.5 -41.5q-16 -13 -28.5 -13t-24 6.5t-17.5 6.5q-1 2 -14.5 0.5t-52.5 -2.5q1 -30 4 -60t9 -76.5t9 -78.5q1 -2 6 -12.5t9 -22t4 -20.5q0 -35 -33.5 -53t-70.5 -5t-44 56q-2 11 3.5 25.5t4.5 21.5q-5 51 -10.5 121t-9.5 106 q-157 16 -287 39q-48 -7 -91.5 13t-53.5 43zM56 732q4 42 40 59q12 7 23.5 8.5t18 0.5t17 -5t11.5 -4q101 -11 317 15.5t246 27.5q12 0 25.5 -1t28 -4.5t25.5 -8t14.5 -12t-2.5 -16.5t-28 -22.5t-59 -28.5q-106 -44 -257.5 -60.5t-295.5 1.5q-2 1 -15.5 -8t-28.5 -14.5 t-38 2.5q-46 28 -42 70zM227 285q122 -17 236 -27q13 117 26 211q-104 -57 -149.5 -89.5t-112.5 -94.5zM246 1290q19 73 43 108.5t102 106.5q45 36 74.5 5t21.5 -83q-1 -5 -3 -13t-3 -13t0 -8q2 -15 7.5 -60.5t6 -53t5 -50.5t4 -52.5t2.5 -59t1 -70.5t-1 -86q0 -8 14 -29 t6 -45q-11 -37 -50 -49t-79 14q-16 11 -21 26.5t-3 26t7 23.5t5 14q1 97 0.5 131.5t-3 92.5t-3.5 100q-18 -40 -55 -51t-63 11t-15 64z" />
<glyph unicode="&#xbd;" horiz-adv-x="856" d="M61.5 414.5q-5.5 30.5 4.5 56.5q11 24 28 33t34 10h17q158 57 261 83t187 25t138 -38q56 -36 52 -102t-68 -138q-39 -41 -86 -72t-110.5 -72t-127.5 -98q54 5 131.5 5t153.5 10l9 3q9 3 15 4.5t17 3t19.5 1t19 -4t18.5 -9.5q36 -29 31 -74.5t-41 -71.5q-15 -11 -35 -10.5 t-35 6.5t-30 13.5t-17 7.5q-60 -8 -147 -2.5t-187 -3.5q-14 -8 -35 -22t-33.5 -22.5t-29.5 -15t-29.5 -3.5t-27 16.5t-27.5 39.5q-21 37 19.5 101.5t74.5 79.5q133 99 234 157.5t135 77.5t55 51q51 78 -58 75q-114 -2 -311 -75l-69 -28q-4 -2 -24 -28.5t-33 -29.5 q-34 -11 -60.5 9.5t-32 51zM64.5 706.5q-0.5 38.5 25.5 61.5q13 11 26.5 14.5t21.5 1t19 -7.5t13 -6q101 -11 317 15.5t246 27.5q139 0 139 -22q0 -23 -52 -43.5t-83 -26.5q-323 -88 -544 -59q-10 -7 -24.5 -13t-37.5 -8.5t-41 10.5q-25 17 -25.5 55.5zM283 1306.5 q-9 22.5 6 51.5q14 26 29 43.5t38.5 39.5t38.5 38q21 23 43.5 34.5t51.5 3.5t53 -44q6 -8 -8.5 -50t-14.5 -43q-2 -38 -2.5 -119.5t-7.5 -147t-27 -165.5q-1 -7 3 -24t4 -35t-11 -33q-31 -35 -81 -25t-60 46q-6 26 -0.5 40t16.5 28t11 16q28 247 32 319q-18 -20 -43.5 -21.5 t-43.5 12t-27 36z" />
<glyph unicode="&#xbe;" horiz-adv-x="831" d="M35.5 688.5q4.5 25.5 30.5 44.5q9 7 19.5 10t21 1.5t17.5 -3.5t16 -6t10 -4q76 -8 178.5 1t216 24t170.5 18q137 0 137 -22q0 -23 -52 -43.5t-83 -26.5q-329 -88 -553 -59q-2 1 -20.5 -6t-35.5 -10.5t-34 3.5q-20 12 -31.5 32.5t-7 46zM63 317q-4 27 28 46.5t89 35.5 q125 73 175 97t180 73q6 3 29 15.5t44 23.5t50 22.5t46 12.5t33 -6q19 -11 27.5 -38.5t-8.5 -61.5q-7 -13 -39 -19t-33 -16q-4 -10 -13 -32t-11.5 -27.5t-9 -22.5t-8.5 -26t-7.5 -26t-9.5 -34.5t-10 -41t-13 -54.5q34 -4 47.5 -1t22.5 -1q2 0 21 -0.5t28 -4.5 q50 -28 47 -69.5t-43 -57.5q-25 -9 -33 -8.5t-19.5 10t-17.5 11.5l-10 2.5t-3.5 0t-15.5 1t-38 4.5q-4 -28 -6.5 -58t-4.5 -78t-4 -79q0 -1 5.5 -23.5t3.5 -31.5q-5 -26 -29 -39.5t-50 -12.5t-47 20.5t-20 51.5q0 13 8 26.5t9 18.5q3 57 9.5 133t8.5 97q-190 54 -276 86 q-48 3 -87.5 30t-44.5 51zM96 1323q6 22 15 30.5t24.5 12.5t24.5 10q194 141 333 171q160 34 165 -113q1 -24 -3 -54q-7 -59 -35.5 -89t-97.5 -70q117 2 194.5 -56t71.5 -149q-2 -59 -37.5 -100.5t-102.5 -65.5t-148 -35.5t-191 -15.5q-2 0 -14.5 -10.5t-28.5 -18.5t-30 -4 q-42 11 -54 50t15 79q8 13 24 17.5t31 4.5t16 1q402 22 404 83q1 47 -21.5 73.5t-56.5 30.5t-74.5 3.5t-76.5 -6t-62 1.5q-43 9 -71 33t-25 53t45 47q22 8 51.5 21.5t72.5 36t72.5 49.5t32.5 51q8 65 -38 64q-61 -2 -264 -143l-19 -13q-1 -1 -4 -16t-12.5 -31.5t-26.5 -22.5 q-42 -15 -78.5 11.5t-20.5 78.5zM264 330q108 -35 228 -68q1 2 61 205q-111 -37 -161 -61.5t-128 -75.5z" />
<glyph unicode="&#xbf;" horiz-adv-x="1021" d="M13.5 -69q1.5 42 19.5 94.5t34.5 91.5t52.5 94.5t59.5 88.5t70 89.5t68.5 82t71 80.5q35 39 51 58q16 15 23 22.5t12 15.5t2 12.5t-14 7.5q-15 3 -52 -7t-53 -12q-8 -2 -21.5 -8.5t-22 -10t-21.5 -1.5t-27 12q-23 18 -29.5 48.5t8 58t46.5 36.5q31 8 53.5 -8t32.5 -18 q14 -3 39.5 4t49 15t56.5 4t64 -27q13 -11 15 -38t-6 -61t-28 -72.5t-49 -68.5q-225 -219 -326 -409.5t-42 -299.5q49 -77 198.5 -63t302.5 104q74 45 122.5 95.5t88.5 144.5q-13 14 -9.5 45t17.5 43q41 31 80.5 11t50.5 -66q6 -22 -5 -43t-29 -29q-25 -62 -51 -107 t-62 -81.5t-62 -57t-79 -58.5q-5 -3 -7.5 -5t-6.5 -5t-7 -5q-32 -24 -94.5 -48.5t-143 -39.5t-158 -15t-145.5 32t-100 95q-22 43 -30.5 90t-7 89zM409 929.5q4 44.5 31 71.5q25 23 69 15.5t66 -39.5q22 -31 19 -66.5t-31 -58.5q-27 -22 -69 -20.5t-66 28.5q-23 25 -19 69.5 z" />
<glyph unicode="&#xc0;" horiz-adv-x="1105" d="M-29 -143q-37 52 17 98q125 335 186 520q-48 -12 -76 10q-26 23 -19.5 65t32.5 58q35 24 102 6q23 55 83 198t83.5 196.5t64 131t76.5 124.5q85 -94 187.5 -259.5t158.5 -297.5q37 7 48 8t16 2q132 24 137.5 4t-37.5 -52t-69 -40q-19 -7 -56 -25q30 -77 53 -164.5 t33 -139.5t26.5 -155t22.5 -135q16 -16 23.5 -38.5t-0.5 -51.5q-13 -34 -60 -42t-67 16q-37 39 -10 92q-16 111 -29.5 186.5t-42.5 191.5t-66 214l-481 -80q-48 -146 -118 -337.5t-78 -215.5q21 -54 -9 -92q-24 -28 -69.5 -25t-61.5 29zM248 1538q-4 31 11.5 60t40 43t54 2 t49.5 -54q5 -11 26 -70t44 -85q54 -62 71 -94t12 -39t-38.5 7.5t-49.5 23.5t-52 31q-4 2 -6 3.5t-5 3t-4.5 2.5t-3.5 2q-13 7 -38 19.5t-35 18.5t-27 19t-24 25.5t-14.5 33.5t-10.5 48zM348 627l400 53q-32 73 -112.5 201.5t-109.5 185.5q-16 -29 -42 -95t-64.5 -166.5 t-71.5 -178.5z" />
<glyph unicode="&#xc1;" horiz-adv-x="1105" d="M31 -178q-4 11 1 37.5t21 38.5q8 47 26.5 206t42.5 289t62 228q-18 5 -30 20q-23 29 -27 62q-3 27 22 24q4 -1 9 -2q8 -2 16.5 1t44.5 -3q60 139 151 294t171 245q92 -120 156.5 -227.5t148.5 -301.5q2 0 19 1t32 1q40 0 57 -31t5.5 -65t-41.5 -43q-22 -3 -31 0 q20 -66 52 -166t48 -152t31.5 -111.5t19.5 -96.5q12 -16 16.5 -39t-5.5 -49q-19 -36 -68 -36t-68 36q-8 26 -3.5 48t14.5 38q-3 20 -8 44.5t-14.5 58.5t-18 63t-24 78.5t-26.5 83t-31.5 97.5t-33.5 103l-463 2q-28 -73 -53 -184t-36.5 -186.5t-29 -205.5t-20.5 -149 q23 -47 -6 -76q-18 -18 -40 -22.5t-39.5 2.5t-31 19t-18.5 26zM350 721h373q-14 42 -29 79t-31 69t-27 53t-29 47.5t-24 36t-25 34.5t-21 27q-28 -58 -92.5 -167t-94.5 -179zM500 1346q-26 12 63 77q61 45 83 66t40.5 47t48.5 57q24 22 55 17.5t50.5 -27.5t27 -52.5 t-15.5 -57.5q-21 -25 -42.5 -42.5t-51 -29.5t-43 -17t-53.5 -13.5t-46 -10.5q-99 -22 -116 -14z" />
<glyph unicode="&#xc2;" horiz-adv-x="1105" d="M27 -178.5q4 23.5 16 39.5q10 92 53 289t94 364q-9 -3 -30 0q-30 9 -41.5 43t5 65t56.5 31q15 0 32 -1t19 -1q156 363 347 611q80 -89 164 -234t145 -285q36 6 44.5 3t16.5 -1q33 10 31 -20q-3 -32 -27 -63q-13 -16 -30 -21q20 -53 37 -108.5t28 -96t22.5 -100t17 -89 t16 -96t14.5 -90.5q16 -12 21 -38t1 -37q-5 -14 -18.5 -26t-31 -19t-39.5 -2.5t-40 22.5q-29 29 -6 76q-51 347 -139 577l-488 -75q-55 -170 -101 -378.5t-58 -301.5q10 -16 14 -38.5t-4 -47.5q-19 -36 -67.5 -36t-67.5 36q-10 25 -6 48.5zM256 1319q8 26 29 38.5t41 10.5 q84 146 264 209q25 -12 47.5 -27t38.5 -27.5t34 -33.5t27 -32t24.5 -37t20.5 -35t21 -40t20 -38q20 2 39.5 -13t26.5 -49q9 -43 -19 -71.5t-65 -20.5q-27 6 -44.5 33.5t-12.5 46.5q-31 59 -47.5 86t-46.5 61t-72 66q-40 -16 -73.5 -42t-48.5 -44t-34.5 -47.5t-22.5 -32.5 q0 -22 -22 -42.5t-49 -20.5q-37 -2 -61.5 31t-14.5 71zM362 664l402 53q-30 71 -93 183.5t-89 166.5q-40 -53 -65.5 -90t-74 -128.5t-80.5 -184.5z" />
<glyph unicode="&#xc3;" horiz-adv-x="1155" d="M56 -9.5q-1 16.5 4 26.5t12 20.5t8 13.5q34 95 75 252t76 264q-1 0 -8 -3t-9 -3.5t-8.5 -2t-9.5 -1t-8.5 1.5t-10 3t-10 6t-11.5 10q-68 75 14 122q40 25 100 7q26 61 79 189t73 173t56.5 111.5t72.5 113.5q78 -88 168.5 -250t154.5 -311q34 8 53 6t21 -2q47 6 65 -3.5 t9.5 -26.5t-20.5 -31.5t-25 -24.5q-20 -16 -59 -33q30 -79 102.5 -251t105.5 -277l2 -3q2 -3 3.5 -6.5t4 -9.5l5 -12t4 -13t2 -14t0 -15t-3.5 -15q-14 -37 -43 -49t-54 -4t-40 24q-17 24 -13.5 40t13 33t8.5 20q-29 89 -107 263.5t-114 270.5l-426 -10q-37 -112 -71 -225 t-61 -210.5t-32 -113.5q-4 -14 6 -38t-4 -42q-19 -33 -49 -39.5t-53.5 5.5t-34.5 30q-11 17 -12 33.5zM152.5 1308q-11.5 38 11.5 70q14 24 43.5 30t46.5 -3q73 55 163.5 85t129.5 11q15 -7 47 -22t54 -25.5t54 -22.5t55.5 -16.5t49 -4t43.5 10.5q173 93 171 44 q-1 -33 -65 -96q-54 -53 -86 -60q-48 -12 -87 -13.5t-72.5 8t-57 20t-59 28.5t-59.5 28q-15 6 -31 8t-28.5 2.5t-30.5 -5.5t-27.5 -9t-30.5 -14.5t-29 -16.5t-32.5 -20t-32.5 -20q-10 -24 -32 -39t-56 -6q-41 10 -52.5 48zM408 719h340q-44 99 -185 375q-16 -30 -36 -79.5 t-53 -134t-66 -161.5z" />
<glyph unicode="&#xc4;" horiz-adv-x="972" d="M-28.5 -99.5q5.5 30.5 22.5 44.5q13 102 55 296t94 355q-27 -4 -45 0q-21 8 -34.5 29.5t-6.5 51t43 52.5q30 20 84 2q212 496 344 668q52 -58 117 -174.5t103 -199t92 -206.5q53 8 80 6.5t41 -6t11 -15t-11.5 -21t-26 -23.5t-31.5 -22.5t-29 -18.5q40 -102 73 -240 t44.5 -208.5t34.5 -217.5q49 -43 25 -96q-17 -40 -61 -48t-70 21q-19 24 -18.5 56t13.5 49q-68 432 -157 657l-490 -76q-23 -70 -45 -151.5t-42 -166.5t-32.5 -141t-29 -132.5t-17.5 -83.5q45 -45 11 -91q-24 -37 -64.5 -39.5t-64.5 29.5q-18 30 -12.5 60.5zM273.5 1431.5 q-2.5 37.5 21.5 65.5q23 29 60.5 31t68.5 -23q26 -22 28.5 -59.5t-22.5 -65.5q-22 -28 -59 -31t-68 23q-27 22 -29.5 59.5zM313 741l404 56q-55 127 -185 405q-136 -217 -219 -461zM585.5 1443q-2.5 38 20.5 66q23 26 60.5 29t68.5 -20q26 -22 28.5 -58.5t-20.5 -64.5 q-22 -31 -61 -35t-68 22q-26 23 -28.5 61z" />
<glyph unicode="&#xc5;" horiz-adv-x="1193" d="M55 -174q-10 26 0.5 51t26.5 41q13 100 56 297.5t93 359.5q-6 0 -34 7q-21 8 -31 43.5t6 54.5q16 23 37 30.5t33 6t32 -7.5q51 122 82 187.5t72.5 132t88 109t112.5 83.5q69 -77 112 -130t97 -135t90 -161q43 4 72.5 4.5t42.5 -5t17.5 -12t-2 -16.5t-16.5 -19t-25 -19.5 t-28 -18.5t-26 -15q39 -102 71.5 -241t44.5 -213t33 -213q20 -12 28.5 -36t-1.5 -61q-10 -36 -43 -44t-66 12q-25 15 -28.5 52t6.5 54q-80 451 -164 664l-488 -76q-52 -162 -96 -356.5t-65 -317.5q21 -18 22 -53.5t-20 -59.5q-29 -33 -79 -26.5t-63 47.5zM373 1411 q-3 66 61.5 114.5t128.5 43.5q59 -3 105 -47t49 -109q7 -75 -49.5 -128t-116.5 -48q-60 3 -118 60t-60 114zM401 717l402 53q-24 58 -52.5 106.5t-78 117.5t-62.5 89q-44 -36 -103 -131t-106 -235zM467 1413q0 -27 28.5 -54.5t59.5 -27.5q32 0 55 19.5t23 50.5 q0 33 -16.5 57.5t-45.5 24.5q-36 0 -69.5 -20.5t-34.5 -49.5z" />
<glyph unicode="&#xc6;" horiz-adv-x="1806" d="M25 1.5q5 14.5 17.5 27t12.5 14.5q4 19 30 148t41 190t51 162t79 172q-16 -8 -39 0.5t-33 29.5q-18 41 -2.5 78.5t45.5 48.5q31 8 57 2.5t44 -18.5q32 71 75.5 134.5t86.5 110.5t97.5 91t98.5 73t99.5 58.5t90.5 45.5t83 36.5t65 28.5q28 0 47.5 -44t1.5 -87q72 -4 232 1 t268 -3t168 -44q3 -1 8 -3t18 -9.5t24 -15.5t22 -21t15.5 -26.5t1 -31.5t-17.5 -36q-28 -35 -56.5 -37.5t-49 18.5t-32.5 40t-17 32q-40 24 -152 26.5t-259 -5t-204 -4.5q-3 -15 -18 -81t-25 -115.5t-14 -88.5q59 -3 139.5 3.5t143 14.5t141 6.5t143.5 -18.5 q76 -20 103.5 -40.5t12.5 -34.5t-43.5 -24.5t-58.5 -15.5t-38 -2q-77 13 -199.5 10.5t-212.5 -8.5t-131 -12q-69 -508 -45 -702q62 6 240.5 30t324.5 33q42 0 75.5 -41t4.5 -90q-17 -33 -43 -43.5t-51.5 -1.5t-42 18.5t-27.5 18.5q-91 -7 -236.5 -22t-219.5 -21 q0 -43 -9 -57q-62 -59 -122 -13q-14 10 -19 56q-54 -8 -78 22q-15 23 -10 55.5t16 40.5q8 8 19.5 11t20.5 3.5t15.5 3.5t6.5 11q-5 65 0.5 178.5t18 271t16.5 230.5l-441 -39q-29 -46 -54 -95.5t-44.5 -100t-35.5 -95.5t-28.5 -95.5t-21 -85.5t-16 -81t-11 -65.5t-8 -55.5 t-4.5 -37q-2 -19 -0.5 -31.5t-0.5 -26.5t-11 -25q-27 -29 -76.5 -18.5t-60.5 38.5q-7 30 -2 44.5zM451 848l393 26q3 6 8 11q12 52 36.5 147t35.5 144q-21 -3 -43.5 5t-34.5 25q-256 -114 -395 -358z" />
<glyph unicode="&#xc7;" horiz-adv-x="1214" d="M63 831q18 116 77 226.5t145 192.5t201.5 121.5t234.5 14.5q162 -31 265.5 -121t150.5 -247q18 -10 28.5 -38.5t1.5 -55.5q-12 -37 -54 -51t-71 10q-24 21 -28 50t6 40q-28 76 -54.5 124t-62.5 81t-75.5 51.5t-102.5 36.5q-96 27 -191.5 -5t-166.5 -102.5t-120.5 -165.5 t-64.5 -194q-10 -71 -10.5 -134.5t8.5 -115.5t22 -96t35.5 -82t42.5 -66.5t48.5 -56.5t49 -45.5t48.5 -38.5q181 -124 401 131q56 64 92.5 97t50.5 35t16.5 -12.5t-6 -41.5t-19.5 -55t-21.5 -50t-15.5 -30q-45 -79 -130 -139.5t-189.5 -81.5t-207.5 26q-3 -24 -10 -54 t-6.5 -47t10.5 -40q10 -22 47 -14.5t80 27t89 23t73 -25.5q28 -37 22.5 -88.5t-38.5 -111t-75 -109.5t-87.5 -83.5t-75.5 -33.5q-1 0 -16 -0.5t-25.5 0t-28.5 1.5t-31 4.5t-26.5 9.5t-21 16t-9.5 24q-6 42 21.5 75t68.5 32q42 -3 72 -47q38 13 86 58.5t74.5 95t7.5 69.5 q-14 13 -41 12.5t-58.5 -12.5t-66.5 -19.5t-65 -10t-53.5 16t-32.5 60.5q-2 23 -2.5 36.5t4 42.5t8 46t9.5 47.5t9 46.5q-318 279 -246 741z" />
<glyph unicode="&#xc8;" horiz-adv-x="1103" d="M55 1241q26 21 66 8v25l-5 12q-4 12 -5 18t-2 18t3 24t13 24q24 36 62.5 36t62.5 -32q17 -27 12 -54t-22 -42v-29q156 14 228 19t214.5 3t296.5 -18q153 -13 142 -43q-9 -26 -120 -51q-57 -13 -77 -10q-276 27 -678 -21q0 -17 -1 -80t-0.5 -111t3.5 -87q336 135 586 68 q144 -40 138 -74q-4 -24 -75 -32q-41 -5 -74 1q-156 23 -280.5 1t-290.5 -91q1 -27 4 -111t4.5 -121t5.5 -110t7.5 -114.5t9.5 -95t13.5 -90.5t16.5 -65q55 9 106.5 19t118.5 26.5t101.5 25t127.5 33t124 32.5q56 34 90 20q30 -12 39 -51.5t-16 -69.5q-20 -24 -49 -26.5 t-42 10.5q-526 -128 -536 -131q22 -39 12 -82q-9 -42 -46 -54.5t-69 9.5q-27 14 -41 80q-45 -25 -79 0q-71 48 -29 106q20 20 70 31q-29 96 -44 331t-16.5 386t-1.5 395q-41 -9 -65 8q-79 63 -13 127zM262 1518q-10 30 12 60t57.5 37t74.5 -18q23 -17 34.5 -35t17 -30.5 t34 -36.5t83.5 -55t77 -52.5t14.5 -29.5t-28.5 -9.5t-46.5 2t-44.5 9.5q-40 13 -88.5 24t-72.5 17t-51 19.5t-43.5 36.5t-29.5 61z" />
<glyph unicode="&#xc9;" horiz-adv-x="1103" d="M31.5 1179q-5.5 41 23.5 62q29 20 66 8v25l-5 12q-4 12 -5 18t-2 18t3 24t13 24q24 36 62.5 36t62.5 -32q17 -27 12 -54t-22 -42v-29q57 5 124.5 16.5t115 21t119.5 18t139.5 8t174.5 -9.5q156 -14 142 -44q-12 -27 -122 -51q-55 -12 -75 -10q-114 11 -223.5 -1.5 t-223.5 -37.5t-165 -31q0 -8 -1 -110.5t-0.5 -181.5t3.5 -117q51 21 88 34.5t79 25.5t64.5 18t85 21.5t101.5 25.5q144 37 137 1q-5 -26 -79 -72q-39 -23 -69 -34q-48 -17 -117 -40t-132 -46t-154 -61q7 -171 10.5 -244t16.5 -171t34 -161q36 6 219.5 26.5t317.5 55.5 q57 34 90 21q30 -12 39 -51.5t-16 -69.5q-20 -24 -49 -26.5t-42 10.5q-82 -20 -246.5 -38t-248.5 -40q22 -39 12 -82q-9 -42 -46 -54.5t-69 9.5q-27 14 -41 80q-45 -25 -79 0q-32 22 -40 51t11 55q5 7 11.5 12.5t15.5 8.5t15 4.5t15.5 3t12.5 2.5q-29 96 -44 331t-16.5 386 t-1.5 395q-41 -9 -65 8q-31 24 -36.5 65zM472 1343q2 7 8.5 15.5t22 22t38.5 30.5q62 46 83 64.5t40.5 44t48.5 55.5q24 22 54.5 17t50 -27.5t27 -52.5t-15.5 -58q-17 -21 -37.5 -37t-37 -26t-41 -18.5t-38 -12t-42 -10t-39.5 -9.5q-11 -2 -19 -4t-22.5 -4.5t-24 -3.5 t-22 -2t-19 1t-12 5t-3.5 10z" />
<glyph unicode="&#xca;" horiz-adv-x="1120" d="M119 1065.5q-2 42.5 28 58.5q24 14 78 -4q143 14 308 4t395 -53q150 -27 138 -56q-11 -26 -128 -42q-55 -7 -74 -4q-62 12 -118 19.5t-94 11t-89.5 4t-75 0t-80.5 -3t-79 -3.5q0 -3 -11 -115t-12 -163q144 44 232 53t254 -12q143 -23 138 -56q-4 -26 -77 -42 q-45 -10 -80 -7q-78 8 -128 10t-103.5 -7t-87.5 -18.5t-116 -35.5q-25 -8 -38 -12q-4 -75 -3.5 -135t2.5 -99.5t9 -84t12.5 -70t18.5 -76.5q106 7 294.5 58t285.5 67q52 31 90 12q29 -14 34 -54t-22 -67q-25 -23 -50.5 -22.5t-39.5 14.5q-89 -14 -274 -63.5t-265 -63.5 q18 -44 6 -82q-13 -42 -50.5 -51t-67.5 16q-26 16 -35 82q-45 -22 -78 7q-68 55 -21 110q17 14 74 25q-58 278 -6 868q-44 -5 -63 14q-29 26 -31 68.5zM264 1343q3 21 26.5 40.5t37.5 17.5q147 134 188 164q75 55 130 40q51 -13 142 -105q23 -23 136 -144q15 -4 34.5 -23 t20.5 -43q2 -40 -20.5 -65.5t-61.5 -22.5q-18 1 -40.5 26.5t-22.5 39.5q-18 22 -49 60q-91 110 -122 134q-43 34 -86 11q-33 -17 -121 -106l-12 -12l-43 -44q0 -18 -12.5 -39.5t-32.5 -24.5q-38 -5 -68 25.5t-24 70.5z" />
<glyph unicode="&#xcb;" horiz-adv-x="1140" d="M19 1149q3 21 20 43q21 26 72 16q1 10 0.5 15.5t0 12.5t3.5 13q12 30 53.5 32.5t56.5 -26.5q5 -2 4.5 -22.5t-0.5 -24.5q415 40 605 45q3 3 9 8t22.5 14.5t32 11.5t34 -8t31.5 -36q17 -35 12.5 -57t-24.5 -32.5t-43 -13t-42.5 1t-23.5 11.5q-33 -4 -273 -30.5t-342 -39.5 q0 -21 -6.5 -163.5t-3.5 -192.5q143 -18 338.5 10t357.5 84q35 13 39 -27t-21 -74q-10 -14 -22 -18q-200 -71 -355.5 -91.5t-336.5 -10.5q5 -136 1 -238t0 -199t22 -157q85 23 338.5 83t379.5 97q4 1 11 2.5t23.5 1t29 -7t21.5 -27t6 -53.5q-3 -43 -40 -60.5t-87 7.5 q-88 -23 -322.5 -81t-316.5 -79l10 -32q-19 -18 -45 -22t-45 0.5t-37 11t-19 6.5l-2 4q-23 -8 -49.5 -5t-36.5 11q-18 18 -20 39.5t4 34t14 22.5q10 14 26 20.5t28 4.5q-13 89 -15 237.5t2 282.5t9.5 303t5.5 260q-8 1 -27 3t-25 3q-3 2 -8.5 5t-16 14t-15.5 23.5t-2 33.5z M282.5 1388.5q-2.5 37.5 22.5 65.5q23 28 59.5 30.5t67.5 -22.5q27 -22 29.5 -59.5t-21.5 -65.5q-22 -28 -60 -31t-69 23q-26 22 -28.5 59.5zM596 1400q-3 38 20 66q23 26 60.5 29t68.5 -20q26 -23 29 -59.5t-20 -67.5q-24 -28 -61.5 -31.5t-67.5 22.5q-26 23 -29 61z" />
<glyph unicode="&#xcc;" horiz-adv-x="550" d="M55 1436q-2 36 20 64t53.5 29.5t64.5 -32.5q16 -18 31.5 -51t27 -62.5t36.5 -64.5t60 -59q73 -50 23 -66q-38 -11 -85 1q-9 2 -14 5q-113 66 -145 93q-68 58 -72 143zM160 142.5q4 102.5 12 184t25 183t31.5 178t31 168.5t25.5 154q1 3 -3.5 15t-4 27.5t11.5 32.5 q23 35 61.5 37.5t61.5 -28.5q42 -51 -2 -95q-7 -70 -30.5 -209t-44 -259.5t-35 -278.5t-9.5 -287q2 -15 9 -29.5t5.5 -24t-14.5 -28.5q-21 -35 -60 -37.5t-63 27.5q-37 48 -2 90q-10 77 -6 179.5z" />
<glyph unicode="&#xcd;" horiz-adv-x="602" d="M101 -36.5q1 19.5 12 32.5q-1 149 24 414.5t50.5 478.5t25.5 233q-9 14 -9 40.5t11 39.5q29 32 76 30.5t59 -34.5q6 -17 1 -41.5t-17 -34.5q0 -68 -47.5 -524t-53.5 -604q8 -6 10.5 -28t-3.5 -34q-21 -40 -61.5 -39.5t-67.5 35.5q-11 16 -10 35.5zM258 1355q-1 19 53 70 q58 54 76 77t31 52t37 64q16 21 39.5 26t44.5 -5.5t38.5 -28.5t21 -43t-8.5 -49q-24 -45 -54.5 -72.5t-54.5 -38t-84 -30.5q-9 -3 -14 -5q-3 -1 -14 -5q-110 -37 -111 -12z" />
<glyph unicode="&#xce;" horiz-adv-x="714" d="M66 1319q8 26 28.5 38.5t40.5 10.5q52 76 95 119.5t90.5 62.5t94.5 -0.5t102.5 -77.5t119.5 -161q19 2 36.5 -15t24.5 -51q9 -43 -19 -71.5t-65 -20.5q-27 6 -44.5 33.5t-12.5 46.5q-43 77 -79.5 120.5t-68 59.5t-64 2.5t-63 -45.5t-69.5 -90q0 -22 -22.5 -42.5 t-49.5 -20.5q-37 -2 -61 31t-14 71zM237 417q5 216 20 399t38 343q-15 21 -16 34.5t16 45.5q23 35 63.5 35t63.5 -31q42 -50 -2 -94q-23 -223 -38.5 -542.5t-6.5 -571.5q15 -25 14 -45t-22 -49q-23 -34 -56 -31.5t-59 33.5q-37 48 -2 90q-18 168 -13 384z" />
<glyph unicode="&#xcf;" horiz-adv-x="518" d="M92.5 1398q-2.5 38 20.5 66q23 26 60.5 29t68.5 -20q26 -22 28.5 -59.5t-20.5 -65.5q-22 -28 -60 -31.5t-69 20.5q-26 23 -28.5 61zM127 2q-16 158 5 364t70 481.5t56 323.5q-15 28 -16 40t16 44q24 34 63.5 33t63.5 -33q42 -50 -2 -94q-7 -71 -46 -304t-65 -460.5 t-20 -392.5q2 -15 9 -29.5t5.5 -24t-14.5 -28.5q-21 -35 -60 -37.5t-63 27.5q-37 48 -2 90zM356.5 1463.5q-2.5 38.5 22.5 66.5q23 26 60.5 28.5t68.5 -22.5q27 -23 28.5 -58.5t-22.5 -66.5q-22 -29 -60 -31.5t-69 23.5q-26 22 -28.5 60.5z" />
<glyph unicode="&#xd1;" horiz-adv-x="989" d="M-12.5 1280.5q1.5 29.5 26.5 52.5q9 9 18.5 14.5t17 8t15.5 1.5t13.5 -2.5t12.5 -6t10 -7t9 -8t7 -6.5q4 -6 4 -12q14 8 25 9.5t25.5 -12t27.5 -46.5q4 -13 -15 -76q160 -237 389.5 -589t280.5 -427q0 7 -7 134t-7.5 208t6.5 279.5t26 439.5q-18 12 -23 35.5t13 56.5 q24 36 62.5 36t62.5 -32q17 -30 12 -55.5t-22 -40.5q-19 -374 -22.5 -592.5t2.5 -368t6 -202.5q0 -7 5.5 -22.5t5.5 -31.5t-11 -34q-17 -28 -53.5 -33t-61.5 18q-9 8 -12.5 27t-8.5 29q-216 319 -661 1003q-26 -266 -35 -397t-7 -282t21 -326q18 -15 24 -41.5t-13 -59.5 q-26 -36 -66.5 -33.5t-66.5 35.5q-13 16 -11 35.5t10 35t19 25.5q-23 189 -27 336t4.5 286t32.5 426q2 24 3.5 37.5t3 35.5t3.5 41q-1 4 -2 11.5t-2.5 11t-5.5 3.5q-28 2 -46.5 22.5t-17 50zM216 1401.5q-14 39.5 9 71.5q16 22 45 28t45 -2q109 39 197 27q30 -4 65.5 -26 t63 -37.5t47.5 -8.5q243 89 232 43q-8 -33 -119 -106q-62 -41 -94 -54q-22 -8 -62 7t-81.5 36.5t-53.5 24.5q-62 12 -93.5 10.5t-64.5 -16.5q-5 -21 -32 -36t-54 -9q-36 8 -50 47.5z" />
<glyph unicode="&#xd2;" horiz-adv-x="1234" d="M45 691q9 111 63.5 233t153.5 233q57 64 136 102t150 47.5t134.5 10t101.5 -6.5l37 -7q22 -5 49 -27t23 -53q0 -7 -4 -11q102 -56 172.5 -159.5t99.5 -221.5t33 -242t-18 -232t-62 -181q-44 -82 -124 -141.5t-178 -84t-200.5 -20t-202.5 51t-173 129.5q-64 73 -110 162 t-68 198t-13 220zM181 753.5q-35 -165.5 4 -308t137 -250.5q65 -73 141.5 -110t146 -38.5t137 15t121.5 48.5t91.5 64t54.5 59q32 58 49.5 143t15 188t-26.5 205t-82.5 201.5t-144.5 168.5q-18 9 -39.5 10.5t-37 -1t-33.5 -7t-23 -4.5q-208 -53 -207 -28q0 13 81 64 q12 7 18 11q112 50 213 31q27 -5 27 -9q0 -2 -11 0q-145 23 -291.5 -27t-191.5 -110q-114 -150 -149 -315.5zM344 1591.5q12 40.5 45.5 50.5t85.5 -26q31 -24 45.5 -46.5t17.5 -36t29 -35.5t80 -48q52 -25 64 -51q11 -22 -28 -28q-31 -5 -93 1q-45 4 -77.5 11t-66 22 t-57.5 41.5t-39 64.5q-18 40 -6 80.5z" />
<glyph unicode="&#xd3;" horiz-adv-x="1265" d="M71.5 611q9.5 111 64 233t153.5 233q57 64 136 102t150 47.5t134.5 10t100.5 -6.5l38 -7q22 -5 49 -27t23 -53q0 -5 -5 -10q102 -56 172.5 -159.5t100 -221.5t33.5 -242.5t-18 -232.5t-62 -181q-44 -82 -124 -141.5t-178 -84t-201 -20t-203 51t-173 129.5 q-64 73 -110 162t-68 198t-12.5 220zM207 673.5q-35 -165.5 4 -308t137 -250.5q56 -63 121 -99t125 -44.5t121 -1t112.5 29t95.5 49t73.5 55t43.5 50.5q32 58 50 143t15 188t-26.5 204.5t-82 201t-144.5 168.5q-18 9 -39.5 10.5t-37 -1t-33.5 -7t-23 -4.5q-210 -54 -208 -28 q1 14 82 64q12 7 17 11q112 50 214 31q27 -5 27 -9q0 -2 -11 0q-145 23 -292 -27t-192 -110q-114 -150 -149 -315.5zM528 1299q5 22 62 65q45 34 66.5 59.5t25 41t12.5 46t27 62.5q15 28 38.5 42t46.5 13t46 -10.5t37 -29t19.5 -42.5t-5.5 -51q-8 -19 -18.5 -35.5t-20 -29 t-28 -27t-28.5 -22.5t-35.5 -22t-36 -19.5t-43 -21.5t-44.5 -22q-35 -15 -83 -16q-43 -2 -38 19z" />
<glyph unicode="&#xd4;" horiz-adv-x="1265" d="M71.5 611q9.5 111 64 233t153.5 233q57 64 136 102t150 47.5t134.5 10t100.5 -6.5l38 -7q22 -5 49 -27t23 -53q0 -5 -5 -10q102 -56 172.5 -159.5t100 -221.5t33.5 -242.5t-18 -232.5t-62 -181q-44 -82 -124 -141.5t-178 -84t-201 -20t-203 51t-173 129.5 q-64 73 -110 162t-68 198t-12.5 220zM207 673.5q-35 -165.5 4 -308t137 -250.5q56 -63 121 -99t125 -44.5t121 -1t112.5 29t95.5 49t73.5 55t43.5 50.5q32 58 50 143t15 188t-26.5 204.5t-82 201t-144.5 168.5q-18 9 -39.5 10.5t-37 -1t-33.5 -7t-23 -4.5q-210 -54 -208 -28 q1 14 82 64q12 7 17 11q-177 -12 -254 -115q-114 -150 -149 -315.5zM283 1313q7 34 25.5 48.5t37.5 12.5q44 82 103 137t159 105q279 -103 316 -172q21 2 41.5 -11.5t27.5 -39.5q11 -40 -10 -72t-65 -31q-36 0 -52 19t-18 45q-37 48 -236 129q-16 -12 -55.5 -40.5t-53 -40.5 t-36.5 -39.5t-41 -62.5q6 -19 -11.5 -47.5t-49.5 -31.5q-40 -8 -66 20t-16 72z" />
<glyph unicode="&#xd5;" horiz-adv-x="1206" d="M16.5 643.5q9.5 111.5 64 233.5t152.5 233q57 64 136 102t151 47.5t135.5 9.5t101.5 -7l38 -7q57 -3 75 -47q11 -28 -3 -39q-3 -2 -7 -2q102 -57 172.5 -160.5t99.5 -222t33 -242.5t-18 -232t-62 -181q-44 -81 -124 -140t-178 -84.5t-200.5 -21t-202.5 50.5t-173 129 q-64 73 -110 162.5t-68 198t-12.5 220zM128.5 1332q-11.5 39 12.5 71q14 23 43 28.5t45 -4.5q74 54 164.5 85t128.5 14q15 -6 47.5 -21.5t54 -26t54 -22.5t56 -16.5t49 -4t44.5 10.5q286 154 279 105q-5 -33 -116 -124q-105 -87 -144 -96q-47 -12 -86.5 -13t-72.5 8.5 t-57 20.5t-58.5 29.5t-59.5 28.5q-20 8 -41.5 8.5t-36.5 -1t-42 -14t-37.5 -18t-44.5 -26t-42 -25.5q-7 -25 -30 -40.5t-56 -4.5q-42 9 -53.5 48zM153.5 706q-34.5 -166 4 -308t135.5 -251q78 -87 169 -124.5t170 -30t152.5 39t123.5 72.5t77 82q45 70 62 185.5t2.5 244 t-79.5 259.5t-171 217q-18 9 -40.5 10.5t-38 -1t-33 -7t-21.5 -4.5q-208 -52 -209 -23q0 15 78 68q14 10 20 14q-88 -21 -158 -57t-94 -70q-115 -150 -149.5 -316z" />
<glyph unicode="&#xd6;" horiz-adv-x="1212" d="M40 807.5q37 188.5 153 343.5q38 51 142.5 100t224.5 67.5t224 -13.5q40 -14 61.5 -29.5t21.5 -26.5t-5 -20q124 -72 200 -206t94.5 -283t-0.5 -296.5t-73 -259.5q-22 -45 -75.5 -93t-127 -89t-164 -60.5t-181 -14t-183.5 57t-166 146.5q-104 137 -143.5 312.5t-2.5 364z M151.5 609q5.5 -118 40 -225.5t93.5 -182.5q67 -85 157.5 -120t174 -24.5t161 42.5t129.5 73t70 74q40 82 56 206.5t3.5 255.5t-72.5 251.5t-161 181.5q-17 10 -42 13t-42 1.5t-40 -5t-24 -3.5q-209 -68 -227 -39q-11 16 49 52q31 18 70 34q12 5 61 20q-104 -11 -194 -52 t-123 -81q-75 -102 -110 -228t-29.5 -244zM405.5 1443q-2.5 38 22.5 66q23 28 59.5 31t67.5 -22q27 -22 29.5 -59.5t-21.5 -65.5q-22 -28 -60 -31.5t-69 20.5q-26 23 -28.5 61zM719 1455.5q-3 38.5 20 66.5q23 26 60.5 28.5t68.5 -20.5q26 -23 29 -59t-20 -64 q-23 -31 -61.5 -34.5t-67.5 22.5q-26 22 -29 60.5z" />
<glyph unicode="&#xd7;" horiz-adv-x="1071" d="M125 750q-17 43 9 79.5t73 32.5q18 -1 36.5 -27t20.5 -28q150 -88 295 -205q28 28 112.5 121t108.5 123q2 1 6.5 16.5t16 31.5t33.5 21q39 12 68 -6t30 -67q2 -23 -10 -37.5t-26.5 -23t-16.5 -11.5q-28 -27 -111.5 -121.5t-112.5 -130.5q214 -182 283 -227q4 -3 22 -8 t33.5 -15.5t20.5 -29.5q18 -53 -6 -81t-70 -28q-25 0 -41.5 14.5t-24 32.5t-8.5 19q-43 26 -135 98.5t-158 130.5q-48 -54 -141 -151t-145 -142q-48 -43 -75 -54.5t-32.5 1t0 37t14 45.5t15.5 35q18 36 139 171.5t125 141.5q-140 113 -287 207q-2 1 -12 3.5t-18.5 5.5 t-18 10t-12.5 16z" />
<glyph unicode="&#xd8;" horiz-adv-x="1198" d="M28.5 691q9.5 111 64 233t153.5 233q51 57 123 94t135.5 51t134.5 16.5t109.5 -1t70.5 -8.5q9 19 17.5 44.5t13.5 32.5q1 2 3 18t7.5 33.5t16.5 26.5q36 29 89.5 -1.5t37.5 -82.5q-12 -42 -50 -57q-10 -14 -53 -127q94 -61 158.5 -164.5t91 -219t29 -236t-19.5 -225 t-62 -175.5q-44 -81 -124.5 -140t-176 -85.5t-203 -19.5t-201.5 51q-11 -24 -31 -61t-26 -50q-2 -4 -3 -19.5t-8.5 -30.5t-25.5 -28q-52 -34 -93.5 2t-23.5 90q7 23 26 32t19 11q33 54 60 119q-45 35 -68 64q-64 73 -110 162t-68 198t-12.5 220zM164 753.5 q-35 -165.5 4 -308t137 -250.5q4 -4 9 -9.5t12.5 -12.5t11.5 -11q65 151 209 506t196 479q-13 -1 -25.5 -3t-24 -4t-15.5 -3q-205 -52 -205 -24q0 17 84 73q13 8 18 12q-90 -19 -162.5 -56.5t-99.5 -72.5q-114 -150 -149 -315.5zM444 84q94 -41 182 -39t166 36.5t130.5 75 t74.5 76.5q38 68 54.5 174t8 226t-59.5 245.5t-140 215.5q-10 -26 -87.5 -220t-116 -289t-102.5 -247t-110 -254z" />
<glyph unicode="&#xd9;" horiz-adv-x="1077" d="M35.5 730.5q4.5 104.5 17 187.5t35.5 194q-12 20 -10 50.5t24 47.5q26 21 50.5 22.5t42 -11t30.5 -35.5q11 -27 1.5 -54.5t-23.5 -37.5q-31 -172 -40 -295t6 -220t37.5 -162t67.5 -159q62 -77 141 -114t152 -33.5t139.5 28t113 63.5t63.5 79q32 70 40 206t-3 287t-37 307 q-29 15 -33 56q-4 39 18 62.5t51.5 25.5t57 -14t33.5 -46q6 -29 -13 -65q16 -77 32.5 -243t13 -371t-45.5 -289q-32 -64 -103 -117t-164.5 -79.5t-191.5 -24t-194 53.5t-162 148q-58 86 -92 181t-46.5 181t-8 190.5zM250 1530q-6 43 15.5 79t56 37.5t75.5 -47.5 q23 -30 36 -60.5t18 -49t30 -46.5t74 -61q109 -73 42 -80q-45 -5 -106 15q-8 2 -12 4q-19 10 -56.5 29t-51 26.5t-38.5 22.5t-34.5 25.5t-22.5 27.5t-18 35.5t-8 42.5z" />
<glyph unicode="&#xda;" horiz-adv-x="1087" d="M35.5 730.5q4.5 104.5 17 187.5t35.5 194q3 17 1.5 36.5t1 38.5t11.5 23q79 51 123 -24q8 -11 5.5 -26.5t-7.5 -26t-12 -23t-8 -16.5q-31 -172 -40 -295t6 -220t37.5 -162t67.5 -159q62 -77 141 -114t152 -33.5t139.5 28t113 63.5t63.5 79q32 70 40 206t-3 287t-37 307 q-1 3 -16.5 24t-16.5 32q-4 39 18 62.5t51.5 25.5t57 -14t33.5 -46q2 -11 -6 -36t-7 -29q16 -77 32.5 -243t13 -371t-45.5 -289q-32 -64 -103 -117t-164.5 -79.5t-191.5 -24t-194 53.5t-162 148q-58 86 -92 181t-46.5 181t-8 190.5zM553.5 1296q-8.5 21 15.5 54q26 29 54 60 t34 37.5t20.5 24.5t23 29.5t32.5 44.5q19 28 50.5 29.5t55 -17t35.5 -46t-8 -58.5q-18 -34 -44.5 -53t-52 -26t-61 -28t-65.5 -55q-21 -21 -51 -19t-38.5 23z" />
<glyph unicode="&#xdb;" horiz-adv-x="1087" d="M35.5 730.5q4.5 104.5 17 187.5t35.5 194q-12 20 -10 50.5t24 47.5q26 21 50.5 22.5t42 -11t30.5 -35.5q11 -27 1.5 -54.5t-23.5 -37.5q-31 -172 -40 -295t6 -220t37.5 -162t67.5 -159q62 -77 141 -114t152 -33.5t139.5 28t113 63.5t63.5 79q32 70 40 206t-3 287t-37 307 q-29 15 -33 56q-4 39 18 62.5t51.5 25.5t57 -14t33.5 -46q6 -29 -13 -65q16 -77 32.5 -243t13 -371t-45.5 -289q-32 -64 -103 -117t-164.5 -79.5t-191.5 -24t-194 53.5t-162 148q-58 86 -92 181t-46.5 181t-8 190.5zM244 1372q7 34 26 49t39 13q63 66 106 102t136 98 q113 -40 163.5 -79t76.5 -85q20 2 40.5 -10.5t28.5 -38.5q11 -40 -11 -72.5t-65 -29.5q-38 0 -54.5 18.5t-16.5 44.5q-3 4 -14.5 20.5t-19 24.5t-23.5 22.5t-40 27.5t-57 26q-9 -6 -32.5 -20.5t-29.5 -18.5t-22.5 -15.5t-23.5 -17.5t-19.5 -18t-23 -24.5t-23.5 -28.5 q6 -21 -9.5 -49t-47.5 -31q-39 -8 -66 20.5t-18 71.5z" />
<glyph unicode="&#xdc;" horiz-adv-x="1077" d="M37 634.5q-2 123.5 11 227.5t42 244q-18 16 -22 38t14 54q24 37 63.5 37.5t61.5 -31.5q17 -31 12 -56t-22 -42q-58 -361 -42 -536.5t119 -313.5q61 -82 129 -126t129.5 -49t119.5 10t104.5 49t79 70.5t47.5 70.5q16 36 25.5 85t10.5 121.5t0.5 125.5t-8.5 153.5 t-12.5 146t-15.5 160.5q-24 16 -26.5 48.5t22.5 60.5q28 29 63.5 32t61.5 -26q12 -15 12 -36t-7 -37t-16 -28q20 -143 30.5 -241t17 -224t-6 -225.5t-43.5 -171.5q-29 -67 -85.5 -121.5t-126 -88t-151.5 -43t-160.5 6.5t-154.5 66.5t-131 132.5q-71 105 -107 219t-38 237.5z M333.5 1284.5q-2.5 38.5 22.5 67.5q23 26 61 28.5t66 -22.5q26 -22 29.5 -59t-18.5 -66q-24 -28 -61.5 -31t-70.5 21q-26 23 -28.5 61.5zM646 1295.5q-2 38.5 24 66.5q22 29 60 31t67 -23q26 -23 28.5 -59.5t-20.5 -65.5q-23 -28 -60.5 -31t-68.5 21q-28 22 -30 60.5z" />
<glyph unicode="&#xdd;" horiz-adv-x="1071" d="M96 1098q-21 31 2 68t60 42q20 4 37 -7t30.5 -28.5t16.5 -19.5q46 -33 75.5 -58t66 -64t62 -70t92 -111t128.5 -152q25 56 50 105.5t41 78.5t53 93.5t60 105.5q-21 48 19 95q24 32 65.5 22.5t59.5 -43.5q6 -11 6.5 -23t-4.5 -24.5t-9 -20t-12 -19.5l-8 -11 q-73 -141 -101 -195.5t-62.5 -127t-69.5 -154.5q-1 -3 5.5 -6.5t16 -8t12.5 -8.5q45 -54 -2 -104q-25 -28 -79 2q-17 -53 -84.5 -204t-110.5 -290q7 -12 10 -26.5t-2.5 -35t-21.5 -38.5q-26 -32 -70.5 -20t-62.5 48q-21 42 28 99q42 131 80 232t82 205t57 138 q-49 60 -108.5 135t-83 105t-58.5 72.5t-49.5 57.5t-39.5 39.5t-44.5 39.5t-50.5 37q-18 -5 -41 6t-41 43zM493 1267q-56 -3 33 85q27 26 42.5 42t29.5 33.5t19.5 24.5t12.5 25.5t8.5 25t8 34t10.5 42.5q15 64 75 59q50 -4 88 -48q35 -39 22 -77q-26 -74 -68.5 -109 t-171.5 -101q-69 -33 -109 -36z" />
<glyph unicode="&#xdf;" horiz-adv-x="1036" d="M122 581q-90 561 5 705q70 106 176.5 163t208.5 55.5t172 -54.5q65 -54 59 -105.5t-52.5 -104.5t-102 -94.5t-91 -76.5t-18.5 -49q6 -4 40.5 9.5t81.5 34.5t104.5 33.5t108.5 11t94.5 -37.5t62.5 -108q69 -258 -24 -551q-69 -216 -193 -356q-107 -121 -196 -114 q-97 7 -128 173q-22 7 -34 33.5t-7 54.5q7 41 49.5 58.5t79.5 -1.5q48 -23 35 -88q6 -77 49 -73q49 4 116 106q95 144 133 339q38 194 -5 357q-13 49 -43.5 67.5t-71 11t-86.5 -26t-93 -38.5t-88.5 -31.5t-74.5 0t-49 52.5q-21 53 0.5 112t64.5 107.5t88 90.5t72.5 71.5 t16.5 40.5q-16 16 -50 19t-76.5 -6.5t-84.5 -28t-77.5 -50t-51.5 -67.5q-26 -58 -31.5 -159t3 -204.5t31 -246.5t43 -243.5t49.5 -240t40 -194.5q19 -6 33.5 -43t-0.5 -72q-21 -37 -64.5 -46t-73.5 21q-18 19 -18 53.5t8 45.5q-103 457 -140 685z" />
<glyph unicode="&#xe0;" horiz-adv-x="923" d="M25 387.5q-4 95.5 32.5 189.5t108.5 148q88 65 180.5 90.5t191.5 3t183 -99.5q1 8 4 47t4 47q-38 34 -2 88q24 37 63.5 37.5t61.5 -31.5q17 -31 12 -56t-22 -42q-8 -161 2 -451t10 -331q18 -14 22 -37t-14 -56q-24 -37 -65.5 -37.5t-63.5 31.5q-17 28 -13.5 57t19.5 46 q-3 47 -10 127q-56 -66 -91 -92q-158 -117 -425 8q-87 41 -135.5 129.5t-52.5 184zM151 496.5q-24 -91.5 3.5 -177t93.5 -126.5q69 -42 128.5 -58t102 -12t80 29t60.5 51.5t44.5 71t31 71.5t22.5 68q32 109 -74 215q-61 61 -131 79.5t-136.5 0t-129.5 -67.5 q-71 -53 -95 -144.5zM213 1325q-4 32 14 59.5t45 39.5t55.5 5.5t43.5 -36.5q16 -36 24 -75.5t11 -67.5t20 -71.5t51 -91.5q60 -85 18 -92q-32 -4 -78 28q-15 11 -24 21q-23 30 -61 75t-58 70t-38.5 62t-22.5 74z" />
<glyph unicode="&#xe1;" horiz-adv-x="960" d="M49 467q7 77 43 146t94 112q67 50 136 81t142.5 43.5t147 -9t136.5 -78.5q0 19 4 47q-16 18 -20.5 43t11.5 59q22 37 65 37t66 -37q13 -17 11.5 -37.5t-8.5 -37t-17 -27.5q0 -129 6 -246.5t13 -195t22 -224.5q21 -16 29.5 -41.5t-6.5 -60.5q-22 -40 -66.5 -44t-77.5 34 q-14 16 -11 38t10.5 37.5t17.5 26.5q-13 123 -15 137q-183 -362 -549 -190q-69 33 -115 96.5t-61 138.5t-8 152zM170.5 490.5q-24.5 -96.5 4.5 -184.5t99 -120q52 -23 99 -33t83.5 -9.5t70 13.5t57.5 28.5t47.5 43t38 49.5t30.5 55.5t24 53.5t20 52q4 11 6 16q6 26 7 48 t-9 47.5t-19.5 43.5t-23.5 36.5t-21 26.5t-12 13q-59 59 -133.5 68t-140 -18t-132.5 -79q-71 -54 -95.5 -150.5zM468 1066q-10 18 34 77q37 45 54 83t18.5 61.5t7 59.5t20.5 70q19 41 59.5 41.5t70.5 -32.5t22 -76q-6 -35 -15.5 -62t-30.5 -55t-33.5 -42.5t-49 -51 l-52.5 -52.5q-23 -22 -59 -30.5t-46 9.5z" />
<glyph unicode="&#xe2;" horiz-adv-x="1071" d="M97.5 445q6.5 79 40.5 150.5t87 119.5q83 71 176.5 106t197 20.5t187.5 -89.5q0 13 5 43q-16 15 -20 36.5t13 53.5q24 37 63.5 37.5t61.5 -31.5q17 -30 12 -55.5t-22 -40.5q-2 -77 -0.5 -146.5t8.5 -147t11 -119t16 -138t16 -127.5q10 -8 17.5 -21t7 -33.5t-13.5 -39.5 q-26 -36 -66.5 -38t-63.5 29q-18 27 -14 55t19 46q-10 56 -13 112q-21 -38 -39.5 -66.5t-47 -61.5t-58 -54t-71.5 -36t-88.5 -15.5t-107 14.5t-128.5 47q-69 33 -115.5 96t-61.5 139t-8.5 155zM188 1116q6 27 24.5 41t41.5 14q48 121 246 234q36 -19 66.5 -41t48.5 -36 t42.5 -44t31.5 -39t33 -47.5t30 -44.5q58 5 73 -55q12 -41 -12 -70.5t-63 -26.5q-30 0 -50 24.5t-20 47.5q-6 9 -21 32.5t-20 31t-17.5 25.5t-19.5 25.5t-19.5 21.5t-23.5 22.5t-26.5 19.5t-32.5 21q-32 -17 -57.5 -37.5t-43.5 -43.5t-27.5 -37t-20.5 -36.5t-13 -25.5 q2 -24 -15 -45.5t-53 -24.5q-42 -7 -66 24t-16 70zM223.5 482.5q-21.5 -92.5 3.5 -179.5t90 -129q93 -57 170 -61.5t121.5 17.5t86 90t55 104t36.5 111q1 3 2 5q5 18 6.5 36t0 33t-5.5 30t-9.5 27t-12.5 24t-13.5 20.5t-14 17.5t-12 13.5l-10.5 10.5l-6 5q-59 60 -135 71.5 t-144.5 -15.5t-126.5 -80q-60 -58 -81.5 -150.5z" />
<glyph unicode="&#xe3;" horiz-adv-x="974" d="M58.5 426.5q0.5 110.5 40 214.5t110.5 158q85 63 182.5 81.5t196.5 -12t182 -108.5q5 45 6 53q-39 44 -6 92q25 37 64 37.5t61 -31.5q13 -17 14 -37.5t-6 -35t-16 -25.5q-5 -159 15.5 -375t23.5 -297q0 -2 8 -18.5t10 -31.5t-10 -38q-24 -37 -65 -39.5t-64 29.5 q-32 42 2 107q0 29 -2 45t-2 24q-18 -42 -46 -80t-65.5 -74t-86 -57.5t-103.5 -29t-121.5 9.5t-136.5 59q-90 56 -138 162.5t-47.5 217zM152 1051.5q-14 38.5 8 70.5q17 23 46.5 29t45.5 -2q40 14 101 23.5t96 1.5q18 -2 54 -24t69.5 -39t52.5 -9q220 96 217 48 q-3 -30 -85 -96q-77 -60 -114 -67q-30 -7 -112.5 29t-86.5 37q-61 14 -92 12.5t-63 -18.5q-6 -20 -34.5 -34.5t-53.5 -8.5q-35 9 -49 47.5zM179.5 424.5q-0.5 -81.5 26 -156t75.5 -104.5q353 -216 495 289q8 35 3 67.5t-18.5 59.5t-28.5 47t-26 31l-12 12q-61 61 -133.5 85 t-143 9.5t-132.5 -62.5q-50 -38 -77.5 -117t-28 -160.5z" />
<glyph unicode="&#xe4;" horiz-adv-x="923" d="M0 383.5q-6 97.5 29.5 192.5t107.5 149q68 50 136 81t142 43.5t147 -9t136 -78.5q0 19 4 51q-17 14 -21.5 37.5t13.5 54.5q24 37 63.5 37.5t61.5 -31.5q17 -31 12 -56t-22 -42q-2 -149 23 -382.5t26 -338.5q18 -14 22 -36.5t-14 -55.5q-24 -37 -65 -39.5t-64 29.5 q-18 27 -14 55.5t20 46.5q4 108 2 156q-33 -60 -62 -100t-77.5 -80.5t-102.5 -54.5t-134.5 -3t-175.5 56q-87 41 -137 130.5t-56 187zM124 494q-22 -94 7.5 -181.5t95.5 -128.5q68 -42 128.5 -56t103.5 -6t81 37.5t62 62t45.5 80t31.5 79t21 72.5q8 34 3.5 65.5t-17.5 59 t-27 48t-25 32.5l-11 12q-59 59 -133.5 68t-140 -18t-132.5 -79q-71 -53 -93 -147zM147.5 1139q-2.5 38 20.5 67q23 28 60.5 30t68.5 -24q26 -22 28.5 -59t-20.5 -66q-24 -28 -61 -31t-68 23q-26 22 -28.5 60zM458.5 1151q-2.5 38 20.5 66q25 26 61.5 28.5t67.5 -20.5 q26 -22 28.5 -58.5t-20.5 -64.5q-22 -31 -61 -34.5t-68 22.5q-26 23 -28.5 61z" />
<glyph unicode="&#xe5;" horiz-adv-x="923" d="M8 484.5q9 95.5 56.5 181.5t123.5 131q98 54 193.5 74t194.5 -7.5t172 -111.5q1 4 4.5 22t7.5 29q-9 11 -13.5 25t-0.5 33t20 34q30 34 66 30.5t57 -38.5q12 -20 8.5 -39.5t-11.5 -33.5t-20 -23q-23 -157 -26.5 -402.5t-10.5 -329.5q0 -1 3.5 -8.5t5.5 -16t3.5 -19.5 t-2 -22.5t-12.5 -21.5q-31 -33 -70 -30.5t-57 36.5q-14 16 -12 38.5t8 38t15 28.5q13 79 8 131q-29 -47 -67.5 -86t-93 -68t-114.5 -36t-135 18t-151 86q-83 66 -121 164t-29 193.5zM131.5 378q16.5 -91 77.5 -140q63 -50 121 -72t101.5 -20.5t84.5 24.5t69 51.5t55.5 73.5 t42.5 77t32 74q18 58 6 108t-35 84l-24 34q-39 49 -90 72t-105.5 19.5t-107 -21.5t-105.5 -50q-72 -43 -105.5 -133t-17 -181zM309 1186q-3 65 62 113.5t129 43.5q59 -3 104 -46t49 -109q7 -75 -49.5 -128t-118.5 -48q-59 3 -116.5 60.5t-59.5 113.5zM401 1190 q0 -27 30 -55.5t61 -28.5q32 0 53.5 19.5t21.5 50.5q0 34 -15 57.5t-44 23.5q-37 0 -71.5 -19t-35.5 -48z" />
<glyph unicode="&#xe6;" horiz-adv-x="1472" d="M56.5 345q-7.5 96 25.5 189t104 146q136 103 276.5 105.5t262.5 -107.5q-22 11 -37 34q-13 21 -6 42q15 37 44 47t55.5 -7t35.5 -51q4 -24 4 -28q31 33 71.5 64t72.5 42q7 2 18.5 5t41 6.5t59 2t69 -12t74.5 -31t72.5 -59.5t66.5 -93q0 -1 17 -11.5t33 -28.5t16 -38 q0 -30 -24.5 -54.5t-54.5 -25.5t-57 31q-2 2 -88.5 -31.5t-200.5 -76.5t-165 -58q1 -10 3 -33t3.5 -36t5 -30.5t10.5 -30t17 -21.5q52 -49 92 -66.5t117 -26.5q150 -15 202 41q119 117 119 54q-1 -42 -42 -115q-10 -19 -17 -27q-28 -31 -106 -54.5t-169 -12.5 q-132 17 -198 61q8 -17 12 -28t6 -28.5t-7.5 -32t-29.5 -26.5q-43 -26 -78.5 11t-17.5 75q-2 15 -12 136q-22 -44 -45.5 -77.5t-57 -68t-73.5 -51.5t-89.5 -21.5t-112.5 16t-134 64.5q-80 50 -128 140.5t-55.5 186.5zM179 355.5q6 -66.5 32.5 -127.5t67.5 -93 q244 -189 403 131q31 59 27 152t-47 151q-48 65 -119.5 86.5t-142.5 3t-134 -66.5q-49 -38 -71 -104t-16 -132.5zM829 461q66 14 175.5 46.5t186.5 59t75 27.5q-42 55 -82 86.5t-74.5 38.5t-55.5 6.5t-47 -6.5q-5 -1 -8 -2q-74 -22 -120 -91t-50 -165z" />
<glyph unicode="&#xe7;" horiz-adv-x="841" d="M26 427q0 50 5 88.5t17 74t24.5 60.5t32.5 51t36.5 43t40.5 40q35 33 107.5 51.5t152.5 18t159 -33t122 -93.5q45 -6 49 -65q3 -39 -35 -67t-71 -11q-23 11 -32 37.5t-5 50.5q-34 43 -110 60.5t-149 6.5t-106 -41q-5 -5 -24 -22.5t-24 -23.5t-20 -23t-19.5 -28.5t-14 -33 t-11.5 -42.5t-5.5 -50.5t-1.5 -65t6 -77.5q6 -60 20 -89q34 -71 133 -106q74 -21 137.5 -13t94.5 30q107 77 116 33q6 -32 -33 -88q-21 -30 -40 -42q-40 -27 -122.5 -43.5t-133.5 0.5q-1 -11 -1.5 -21t-1 -14t-0.5 -9v-6t1.5 -3.5t3 -3.5t5 -4.5l7.5 -7.5q28 -30 55 -34 t48 7t51.5 12.5t64.5 -16.5q47 -27 50 -75t-25 -92t-71 -79t-81 -41q-79 -13 -106.5 1t-42.5 59q-8 23 13.5 42t45.5 23q25 4 84 -20q45 3 74 44q22 31 6 43q-1 0 -2 1q-14 5 -32 4.5t-35 -7.5t-38.5 -9t-43.5 1t-50 22.5t-57 55.5q-16 19 -21.5 37t-4.5 31t4.5 40t4.5 50 q-98 34 -140.5 104.5t-53.5 169.5q-7 58 -7 108z" />
<glyph unicode="&#xe8;" horiz-adv-x="845" d="M-41.5 432q10.5 25 41.5 33q10 2 37 2q18 164 85 265t159 120q15 7 46.5 4.5t67.5 -7.5t83 -25.5t93 -48t97.5 -76t95.5 -109.5q1 -1 9 -12.5t13.5 -19.5t13 -22.5t10.5 -25.5t1.5 -24t-8.5 -23q-20 -24 -45.5 -31.5t-52.5 6.5q-4 2 -141.5 -10.5t-274 -30.5t-135.5 -28 q2 -31 7.5 -60.5t21.5 -68.5t39.5 -68.5t65 -53t95.5 -30.5q22 -3 42 -3t37 2.5t30 5t26.5 8.5t21 9.5t19 11.5t14.5 10.5t13 10.5q169 134 163 77q-5 -44 -89 -158q-10 -13 -15 -19q-29 -31 -106.5 -54.5t-167.5 -11.5q-70 9 -128 42t-93 75t-59.5 91.5t-34.5 90t-11 72.5 q-1 0 -11.5 -4.5t-16 -5t-15 0t-17.5 9t-16 23.5q-21 36 -10.5 61zM94 1337q1 42 42 65.5t85.5 12t52.5 -56.5q7 -30 16.5 -82.5t16 -78t24.5 -59t46 -57.5q85 -76 46 -90q-29 -10 -87 16q-29 13 -41 27q-24 29 -68 75.5t-69.5 75t-45.5 70.5t-18 82zM141 485 q37 11 105 20.5t138.5 15t135.5 10t106 7t40 3.5q-88 117 -179 166t-170 41q-68 -10 -113 -79.5t-63 -183.5z" />
<glyph unicode="&#xe9;" horiz-adv-x="845" d="M-44 443.5q6 25.5 32 45.5q11 5 19 4.5t20 -3.5t14 -3q18 162 82 253.5t158 111.5q15 7 45.5 4t66 -8.5t81 -27t90.5 -50t95.5 -77.5t94.5 -111q2 -3 10.5 -13.5t16 -20t15.5 -23.5t8 -25.5t-5 -24.5q-16 -28 -47.5 -40t-46.5 11q-5 5 -282.5 -21.5t-277.5 -39.5 q1 -37 7 -72t22 -74t40.5 -69t66.5 -52.5t96 -29.5q143 -17 217 43q94 72 94 17q1 -38 -32 -90q-6 -9 -11 -15q-29 -31 -106.5 -54.5t-167.5 -11.5q-72 10 -129.5 40.5t-93.5 71t-59 91.5t-32 99.5t-8 97.5q-60 -16 -82 18q-17 23 -11 48.5zM150 485q29 5 73.5 11t91.5 11 t96.5 10t93.5 9t78.5 7t54.5 5t19 3q-44 59 -98.5 105t-101.5 70t-84.5 35t-57.5 7q-137 -38 -165 -273zM355 1030q1 19 28 55q45 59 62 102.5t23.5 103.5t14.5 93q15 64 71 59q48 -3 83 -46q33 -40 20 -78q-31 -86 -75.5 -153.5t-122.5 -129.5q-25 -19 -65 -26 q-42 -7 -39 20z" />
<glyph unicode="&#xea;" horiz-adv-x="890" d="M17.5 423.5q10.5 25.5 41.5 33.5q9 2 37 2q18 164 85 265t159 120q14 7 45.5 4.5t67.5 -7t83 -25t93 -48t97.5 -76t96.5 -110.5q1 -1 17 -13.5t22 -23.5q39 -69 -14 -99q-20 -16 -47.5 -12.5t-42.5 25.5q-2 7 -270.5 -25.5t-268.5 -52.5q0 -33 5 -66.5t19.5 -74t38 -72.5 t64.5 -56.5t94 -31.5q55 -6 100.5 4t63.5 21.5t39 29.5q174 136 165 74q-7 -45 -89 -156q-9 -12 -14 -18q-29 -31 -107.5 -54.5t-167.5 -11.5q-70 9 -128 42t-93.5 75t-60.5 91.5t-35 90t-11 72.5q-1 0 -10.5 -5t-15 -5.5t-15 0t-18 9t-16.5 23.5q-20 36 -9.5 61.5z M115 1010q6 28 24.5 42.5t40.5 14.5q47 118 248 231q93 -38 148 -96.5t104 -152.5q57 4 72 -56q12 -42 -12.5 -71.5t-63.5 -26.5q-29 0 -49.5 25t-20.5 47q-42 82 -76.5 121t-103.5 79q-40 -21 -71.5 -50.5t-44.5 -48t-29 -49.5t-17 -32q0 -21 -20 -43.5t-47 -25.5 q-36 -3 -63.5 27t-18.5 65zM209 477q29 5 74 11t92.5 11t98 9.5t95 8.5t79.5 7t55.5 5t19.5 3q-88 117 -178.5 167t-167.5 40q-136 -20 -168 -262z" />
<glyph unicode="&#xeb;" horiz-adv-x="899" d="M41 438q-3 95 34 181.5t93 142t115.5 89.5t107.5 40q12 4 33 2.5t45 -3.5t54.5 -13.5t61.5 -26t65 -42t66 -61.5t64.5 -84t59.5 -110q1 -3 12 -20t17 -29.5t9.5 -33t-8.5 -30.5q-18 -27 -51.5 -34.5t-48.5 16.5q-3 5 -306 10t-306 -10q4 -35 12 -67t29 -72t52 -69.5 t84 -52.5t122 -28q135 -7 207 35q181 118 170 63q-8 -41 -98 -141q-14 -15 -21 -22q-27 -24 -105.5 -37.5t-175.5 -7.5q-88 7 -159 41.5t-112.5 81t-69.5 104t-39 103t-13 85.5zM170 537q22 7 55.5 11.5t70.5 5.5t79 0.5t83 -3t80 -5t72 -5.5t58 -5.5t39 -3.5t14 0 q-40 79 -80 130.5t-80 75t-72 31t-73 7.5q-39 -3 -77 -17t-75 -40.5t-62.5 -73.5t-31.5 -108zM188.5 1073.5q-2.5 36.5 20.5 67.5q23 26 61.5 28.5t67.5 -22.5q26 -22 28.5 -59.5t-20.5 -65.5t-60.5 -31t-68.5 21q-26 25 -28.5 61.5zM499.5 1084.5q-2.5 38.5 20.5 66.5 q25 28 61.5 30.5t67.5 -22.5q26 -23 28.5 -60t-20.5 -65q-22 -28 -60 -31t-69 21q-26 22 -28.5 60.5z" />
<glyph unicode="&#xec;" horiz-adv-x="524" d="M80 1245q6 27 29 53.5t51 40.5t57 0t45 -61q12 -36 12 -75t-4.5 -68t3.5 -74.5t34 -97.5q41 -77 -2 -75q-32 2 -68 32q-8 7 -12 12q-166 218 -145 313zM226.5 726q-0.5 33 21.5 58q26 24 65 16.5t58 -40.5q13 -20 12.5 -40.5t-7.5 -33.5t-18 -22q24 -172 26 -299 t-22 -277q8 -13 12 -30.5t-0.5 -39.5t-19.5 -36q-26 -25 -66.5 -17.5t-60.5 43.5q-20 35 17 88q23 126 23 219t-27 361q-13 17 -13.5 50z" />
<glyph unicode="&#xed;" horiz-adv-x="641" d="M192.5 366.5q1.5 129.5 26.5 299.5q-18 14 -23 37.5t11 56.5q19 33 58 40.5t65 -16.5q22 -26 21 -58t-13 -50q-27 -268 -27 -361t23 -219q33 -47 14 -88q-15 -34 -57 -42.5t-68 16.5q-15 14 -19.5 36t-0.5 39.5t12 30.5q-24 149 -22.5 278.5zM268 1021q2 3 4 5 q46 60 63.5 103t24.5 104.5t15 93.5q16 64 73 58q47 -5 82 -48q32 -40 19 -77q-31 -86 -84 -165.5t-117 -117.5q-39 -22 -77 -24q-55 -3 -3 68z" />
<glyph unicode="&#xee;" horiz-adv-x="845" d="M78 1036q8 26 28.5 38.5t40.5 10.5q83 145 265 209q25 -12 47.5 -27t38.5 -27.5t34 -33.5t27 -32t24.5 -37t20.5 -35t21 -40t20 -38q21 2 40 -13t26 -48q9 -43 -19 -72t-65 -21q-27 6 -45 33.5t-13 46.5q-31 59 -47.5 86t-46.5 61t-72 66q-40 -16 -73 -42t-48 -44 t-34.5 -47t-22.5 -33q0 -22 -22 -42.5t-49 -20.5q-37 -2 -61.5 31t-14.5 71zM274 12q-19 31 21 88q23 126 23 218t-27 362q-13 17 -13.5 49t21.5 59q26 25 66.5 20.5t60.5 -36.5q14 -21 12 -42.5t-10 -37t-18 -24.5q24 -172 26 -299t-22 -277q8 -13 12.5 -30.5t1 -39.5 t-17.5 -36q-26 -25 -71 -17.5t-65 43.5z" />
<glyph unicode="&#xef;" horiz-adv-x="579" d="M88.5 1041.5q-2.5 38.5 20.5 66.5q25 28 61.5 30.5t67.5 -22.5q26 -23 28.5 -60t-20.5 -65q-22 -28 -60 -31t-69 21q-26 22 -28.5 60.5zM143 60q0 31 13 49q10 80 29 273t36 314q-11 11 -17.5 24.5t-7 34t12.5 40.5q21 33 58.5 40.5t64.5 -18.5q22 -25 21.5 -57 t-13.5 -49q-21 -208 -40.5 -368.5t-25.5 -225.5q13 -17 19.5 -39.5t-2.5 -48.5q-20 -36 -60.5 -43t-66.5 18q-21 25 -21 56zM303.5 1004.5q-2.5 38.5 20.5 66.5q23 26 60.5 28.5t68.5 -20.5q26 -23 28.5 -59t-20.5 -64q-23 -31 -61.5 -34.5t-67.5 22.5q-26 22 -28.5 60.5z " />
<glyph unicode="&#xf1;" horiz-adv-x="860" d="M60 827q-4 27 14 58q16 24 43.5 33t54 1.5t41.5 -26.5q18 -27 12 -55.5t-24 -42.5q-2 -84 -13 -207q47 78 113 127t130.5 63.5t122.5 8.5t99 -31q94 -56 135 -152.5t36 -208.5t-15 -248q-4 -47 -6 -71q15 -17 16 -49t-24 -62q-37 -30 -69.5 -25.5t-57.5 35.5 q-18 27 -8.5 55.5t28.5 39.5q22 232 22 297q1 173 -72 251q-23 24 -52 41q-27 15 -60.5 17t-75.5 -13.5t-84 -50t-88 -100t-85 -154.5q-4 -63 -3 -76t9 -78.5t12 -142.5q8 -8 14 -21.5t4.5 -34.5t-14.5 -40q-16 -24 -43.5 -33t-54 -1.5t-41.5 26.5q-16 27 -10.5 55.5 t22.5 44.5q-21 231 -22 333t14 396q-16 14 -20 41zM131 1055.5q-14 38.5 8 70.5q17 23 46.5 29t45.5 -2q105 37 197 25q30 -4 67 -27.5t64.5 -39t44.5 -5.5q197 113 197 63q0 -33 -72 -103q-69 -69 -106 -75q-30 -7 -112.5 29t-86.5 37q-61 14 -92.5 12.5t-63.5 -18.5 q-6 -20 -34.5 -34.5t-53.5 -8.5q-35 9 -49 47.5z" />
<glyph unicode="&#xf2;" horiz-adv-x="948" d="M34.5 525.5q0.5 72.5 18.5 115.5q23 63 93 107.5t158 62t185 11.5t173 -38q86 -34 147.5 -120.5t83 -184t-1.5 -195.5t-94 -153q-73 -55 -153.5 -80.5t-150.5 -23t-135.5 20t-116 47t-85 59t-47.5 55.5q-36 72 -55.5 158t-19 158.5zM150 511.5q0 -33.5 4 -73t18.5 -87 t38.5 -87.5q26 -45 87 -77.5t133 -43.5t152 6.5t138 65.5q60 51 69 145t-35.5 186t-127.5 134q-73 37 -165 42.5t-179 -30t-131 -108.5q1 0 -0.5 -19.5t-1.5 -53zM256 1241q-15 42 24 84t83.5 41t66.5 -59q8 -33 14.5 -93t23.5 -104t62 -104q54 -71 8 -76q-33 -3 -73 21 q-6 4 -10 7q-143 127 -199 283z" />
<glyph unicode="&#xf3;" horiz-adv-x="913" d="M40 439q7 82 44 156.5t96 121.5q85 68 212 98t244.5 9t168.5 -93q44 -58 63 -179.5t-6 -248.5q-8 -36 -42.5 -84t-92.5 -97t-135 -80t-171.5 -34.5t-201.5 39.5q-66 27 -111 89.5t-60 141.5t-8 161zM152.5 460q-19.5 -101 14 -190.5t105.5 -124.5q98 -38 198.5 -20 t181.5 76.5t100 126.5q22 80 11.5 155t-24 118t-18.5 48q-59 60 -152 71.5t-179.5 -16.5t-147.5 -81q-70 -62 -89.5 -163zM390 940q2 20 28 55q45 59 62 102.5t23.5 103.5t14.5 93q22 58 66 59.5t83 -40.5t25 -84q-56 -155 -198 -283q-21 -18 -62 -26q-45 -8 -42 20z" />
<glyph unicode="&#xf4;" horiz-adv-x="921" d="M20 389.5q14 98.5 67 191.5t134 140q96 56 227 64t242.5 -35t151.5 -123q110 -214 -21 -432q-21 -37 -63 -77.5t-109.5 -78t-143.5 -56t-172 -2.5t-188 74q-76 48 -107.5 142t-17.5 192.5zM86 901q7 34 26 49t38 13q3 5 18.5 34t19 36t18 32t22 33.5t22.5 29t27.5 31 t30.5 26t37.5 27.5t41.5 23q185 -68 260 -209q21 2 42 -11.5t28 -39.5q11 -40 -10.5 -72t-65.5 -31q-36 0 -52 19t-18 45l-21 31.5t-33.5 46.5t-49 44.5t-76.5 43.5q-59 -45 -88 -86t-74 -127q5 -17 -14.5 -46.5t-46.5 -33.5q-37 -5 -64.5 22.5t-17.5 69.5zM133 284 q18 -94 84 -141q87 -57 186.5 -52t187.5 48.5t128 102.5q32 50 46.5 101.5t13 88t-9 68t-15 45.5t-9.5 16q-48 69 -138 96.5t-181 15t-160 -54.5q-79 -49 -115 -144.5t-18 -189.5z" />
<glyph unicode="&#xf5;" horiz-adv-x="905" d="M41 433q7 82 44 156.5t97 119.5q68 51 152.5 86t173 48t169.5 -16t130 -102q66 -98 77 -204t-20 -224q-8 -36 -42.5 -83.5t-92.5 -96.5t-135.5 -80t-171.5 -35t-201 39q-66 27 -111.5 90t-60.5 141.5t-8 160.5zM154.5 453.5q-19.5 -100.5 14 -189.5t105.5 -123 q70 -33 148.5 -27t147.5 34.5t119.5 76t64.5 97.5q22 80 11.5 155t-24 118t-18.5 48q-45 46 -110.5 63.5t-131.5 9t-129 -34.5t-108 -65q-70 -62 -89.5 -162.5zM157 942q-15 38 7 72q12 24 41.5 31t50.5 -1q96 51 195 46q30 -2 66 -20t64.5 -31.5t47.5 -6.5q208 76 200 33 q-6 -31 -105 -101q-52 -37 -69 -42q-35 -10 -116.5 25t-94.5 34q-56 -2 -85 -8t-60 -23q-5 -26 -26.5 -43.5t-57.5 -9.5q-43 7 -58 45z" />
<glyph unicode="&#xf6;" horiz-adv-x="927" d="M57.5 464.5q-4.5 87.5 23.5 167.5t85 128q82 70 212 90.5t248 -12t171 -105.5q143 -195 55 -430q-11 -29 -26.5 -59.5t-43 -68t-59.5 -68.5t-78.5 -56t-98 -36t-119 -3.5t-140.5 37.5q-67 27 -119.5 93.5t-79 150.5t-31 171.5zM147.5 1139q-2.5 38 20.5 67q23 28 60.5 30 t68.5 -24q26 -22 28.5 -59t-20.5 -66q-24 -28 -61 -31t-68 23q-26 22 -28.5 60zM161.5 448q9.5 -63 33.5 -124t63.5 -108.5t83.5 -68.5q70 -30 132 -25.5t115.5 38t91.5 78t60 94.5q24 56 29 109.5t-1.5 88t-21 65.5t-22.5 41.5t-12 14.5q-60 61 -153.5 82.5t-183.5 2.5 t-149 -70q-42 -37 -58.5 -96t-7 -122zM458.5 1151q-2.5 38 20.5 66q25 26 61.5 28.5t67.5 -20.5q26 -21 28 -58.5t-20 -64.5q-25 -31 -62.5 -34.5t-66.5 22.5q-26 23 -28.5 61z" />
<glyph unicode="&#xf7;" horiz-adv-x="1167" d="M86 446.5q2 48.5 29 67.5q22 14 41.5 13.5t29 -7t23.5 -20.5q523 -21 692 -17q227 9 206 -23q-18 -28 -167 -67q-32 -8 -37 -8q-64 0 -211.5 -6.5t-242 -8.5t-242.5 7q-18 -14 -43 -14.5t-47 12.5q-33 23 -31 71.5zM487.5 128.5q-2.5 37.5 20.5 68.5q23 26 61 28.5 t66 -22.5q26 -22 29 -59t-19 -66q-22 -28 -60 -31t-69 21q-26 23 -28.5 60.5zM508 703.5q-3 37.5 20 68.5q22 26 60.5 28.5t66.5 -22.5q26 -22 29.5 -59t-18.5 -66q-23 -28 -60.5 -31t-68.5 21q-26 23 -29 60.5z" />
<glyph unicode="&#xf8;" horiz-adv-x="1013" d="M91 344.5q-3 97.5 33.5 195.5t108.5 156q106 84 224 113t223 6q6 11 21 34t20 34q-10 65 18 84q31 23 78.5 5.5t54.5 -57.5q6 -31 -9 -60t-38 -32q-32 -45 -37 -53q43 -24 72 -53q58 -62 80 -135.5t14.5 -142t-36.5 -154.5q-11 -32 -40.5 -74t-80 -89t-115.5 -80 t-147 -48.5t-175 6.5q-11 -24 -25 -53.5t-35.5 -73.5t-39 -75t-35.5 -58t-25.5 -24t-7 29t17.5 100t50 190q-78 38 -122 125t-47 184.5zM221 452.5q-21 -89.5 3.5 -172.5t84.5 -126q128 249 303 546q-82 6 -166 -22.5t-141 -79.5q-63 -56 -84 -145.5zM416 113 q122 -14 239 50.5t144 149.5q39 108 35 175t-66 139q-17 20 -45 41q-147 -236 -307 -555z" />
<glyph unicode="&#xf9;" horiz-adv-x="899" d="M71 764q-7 17 1 39q27 47 70.5 50t80.5 -42q5 -13 3.5 -29t-5.5 -37t-4 -22q-20 -275 21 -416.5t149 -202.5q39 -23 71 -23.5t55 21.5t41 55t31 86.5t21.5 105.5t16.5 122q4 36 5 59t-0.5 37t-5.5 50.5t-6 80.5q-19 31 -22 46.5t10 46.5q20 35 57 42.5t68 -13t35 -58.5 q-1 -7 -8 -27t-6 -24q-1 -103 3 -170t8 -102.5t23 -147.5t33 -207q-1 -2 9.5 -11.5t20 -26t5.5 -34.5q-17 -54 -63 -60t-78 34q-12 13 -13 29t3.5 30.5t3.5 17.5q-4 20 -10 57t-9 52q-36 -153 -129.5 -197.5t-226.5 21.5q-138 65 -200.5 255t-29.5 458q1 4 -10.5 21 t-18.5 34zM160 1354q1 42 42 65t86 10.5t54 -57.5q6 -29 15 -82t15 -77.5t24 -58t46 -58.5q85 -75 46 -89q-29 -10 -87 15q-29 13 -41 27q-24 30 -67.5 77t-69 75.5t-45.5 70.5t-18 82z" />
<glyph unicode="&#xfa;" horiz-adv-x="862" d="M39 799q8 33 40.5 56.5t67.5 18t48 -48.5q3 -9 -0.5 -28.5t-8 -37.5t-4.5 -20q3 -283 40.5 -418.5t135.5 -203.5q115 -76 177 25q39 63 79 256q3 14 8 42q3 15 5 23q11 54 12.5 140t7.5 145q1 3 -5 21t-7.5 34t8.5 37q22 33 60 38t67 -18t29 -61q-1 -9 -10 -28t-9 -23 q-17 -202 -16.5 -288.5t15.5 -323.5q3 -50 5 -77q0 -1 10.5 -11.5t17.5 -27t1 -34.5q-14 -34 -40.5 -47t-54.5 -3.5t-46 35.5q-11 19 -10.5 31.5t6 28t4.5 18.5q-3 36 -8 113q-105 -317 -375 -142q-248 157 -223 717q0 3 -15 24.5t-12 37.5zM351 984q-37 2 11 77 q46 60 63 104t24 103.5t16 93.5q15 64 71 59q46 -5 81 -47q34 -41 20 -80q-18 -49 -31 -79.5t-36.5 -71.5t-56.5 -73.5t-75 -57.5q-50 -30 -87 -28z" />
<glyph unicode="&#xfb;" horiz-adv-x="862" d="M45 834q30 46 75.5 48t80.5 -46q7 -12 0 -48.5t-19 -48.5q1 -91 -4 -194t-7.5 -156t2 -108t24.5 -88.5t59 -59.5q69 -46 127.5 -50t98.5 26t71 87t48 123.5t26 143.5q4 45 8 127.5t12 157.5q-9 17 -13.5 29.5t-3 29t12.5 33.5q22 33 60 38t67 -18t29 -61q-4 -32 -19 -51 q-17 -202 -16.5 -288.5t15.5 -323.5q3 -50 5 -77q0 -1 10.5 -11.5t17.5 -27t1 -34.5q-14 -34 -40.5 -47t-54.5 -3.5t-46 35.5q-11 19 -10.5 31.5t6 28t4.5 18.5q-3 29 -8 111q-33 -99 -110.5 -150t-174.5 -45t-189 66q-29 18 -51.5 42.5t-37.5 59.5t-25.5 66t-15 81.5 t-7 84.5t-0.5 97t3.5 97t5.5 105q1 16 1.5 25t1 23t1.5 25q-49 55 -21 97zM104 1012q7 35 26 50t40 13q3 6 16 30.5t17 32t16 29t18.5 30.5t19.5 27.5t23 28t25 25t29.5 25.5t33 21.5t38.5 21.5q178 -63 262 -209q20 2 40.5 -11.5t28.5 -40.5q10 -37 -14 -69.5t-61 -30.5 q-27 1 -47.5 21t-22.5 41q-3 4 -22 32.5t-34 46.5t-49 44t-75 42q-13 -9 -25 -19t-20.5 -17.5t-19 -19.5t-16 -17.5t-15 -20t-12.5 -19t-13.5 -23t-12.5 -22.5t-14 -26t-14 -27q5 -19 -16 -47.5t-48 -31.5q-37 -5 -64 22t-18 68z" />
<glyph unicode="&#xfc;" horiz-adv-x="839" d="M40 798q0 16 7 31q11 23 37.5 37t58.5 7t50 -42q27 -47 -11 -92q3 -252 17 -337q21 -132 99 -211q44 -44 118 -87q168 -98 204 203q19 164 -2 445q-1 3 -6.5 16.5t-6.5 19t-2.5 16.5t1.5 20.5t10 19.5q22 33 60 38t67 -18t29 -61q-4 -30 -18 -51q1 -60 1.5 -102t2.5 -92 t3 -73t4.5 -86t4.5 -85.5t7 -116.5t9 -138q0 -1 10.5 -11.5t17.5 -27t1 -34.5q-14 -34 -40.5 -47t-54.5 -3.5t-46 35.5q-11 19 -10.5 31.5t6 28t4.5 18.5q-2 25 -2.5 48.5t-1.5 33.5q-25 -75 -57.5 -117t-73.5 -53t-85.5 -0.5t-101.5 41.5q-79 42 -135 102t-86.5 130 t-47.5 153t-17.5 169.5t2.5 180.5q-26 40 -26 61zM193.5 1131.5q-2.5 39.5 21.5 66.5q23 28 60.5 30.5t68.5 -22.5q26 -23 28.5 -60t-22.5 -65q-22 -28 -59 -31t-68 21q-27 21 -29.5 60.5zM506 1142.5q-3 37.5 20 65.5t60.5 31t68.5 -22q26 -22 29 -58.5t-20 -64.5 q-22 -31 -61 -34.5t-68 23.5q-26 22 -29 59.5z" />
<glyph unicode="&#xfd;" horiz-adv-x="909" d="M20 731q-17 35 25.5 76t79.5 29q34 -15 46.5 -40t8.5 -44q13 -19 63 -97t77.5 -117t86 -106.5t125.5 -126.5q8 17 46 106.5t54 123t48.5 95t64.5 107.5q3 6 0 17.5t3.5 32t23.5 34.5q22 16 51.5 12t55.5 -26t26 -47q-1 -35 -18.5 -54.5t-38.5 -23.5q-32 -47 -64.5 -110.5 t-49 -101t-53.5 -128.5t-46 -113q18 -12 20 -14q39 -32 47 -57.5t-10 -36.5t-46 -15.5t-60 5.5q-15 -47 -93.5 -202.5t-119.5 -291.5q12 -11 8.5 -39t-31.5 -53q-32 -27 -74 -17.5t-51 43.5q-19 60 27 91q53 148 132 319.5t97 218.5q-60 55 -109.5 107t-80.5 87.5 t-64.5 82.5t-48.5 70.5t-46.5 75t-45.5 73.5q-1 1 -15 5.5t-29 16.5t-22 33zM350 1000q-56 -3 33 85q41 40 61 80t22 67.5t5.5 72.5t11.5 79q15 64 71 59q48 -3 83 -46q33 -40 20 -78q-6 -18 -16 -50.5t-16.5 -51.5t-20.5 -47t-31 -48t-46 -43t-68 -43q-69 -33 -109 -36z " />
<glyph unicode="&#xff;" horiz-adv-x="903" d="M51 782q-13 45 19 83.5t84 25.5q18 -5 31 -19t18 -25t12 -32q26 -40 59 -111t60 -131t79.5 -134.5t118.5 -133.5q30 68 89 222t96 235q0 1 -1.5 16t-2.5 31t6 33t22 24q29 11 60.5 10t55 -23.5t20.5 -57.5q-2 -17 -14.5 -35.5t-25.5 -31.5t-14 -15q-31 -74 -63 -155.5 t-70.5 -183.5t-58.5 -153q34 -7 47.5 -40t-14.5 -66q-11 -13 -35.5 -15t-42.5 6q-22 -62 -60.5 -169t-81.5 -230q23 -58 -28 -90q-28 -13 -57 -11.5t-51.5 25t-22.5 58.5q0 46 57 73q93 295 139 418q-86 79 -147 162t-88 140.5t-61 131.5t-62 119q-1 1 -17 4t-32.5 13.5 t-22.5 31.5zM239.5 1096.5q-2.5 38.5 22.5 66.5q23 27 59.5 28.5t67.5 -22.5q28 -22 30.5 -59t-22.5 -66q-22 -28 -60 -30.5t-69 22.5q-26 22 -28.5 60.5zM553 1108q-3 38 20 66q23 26 60.5 28.5t68.5 -20.5q26 -23 29 -59.5t-20 -67.5q-24 -28 -61.5 -31t-67.5 23 q-26 23 -29 61z" />
<glyph unicode="&#x152;" horiz-adv-x="1726" d="M27 546q0 144 44 283.5t126 249.5q38 52 116.5 93.5t164.5 62.5t170.5 20.5t135.5 -26.5q15 -7 33 -23.5t29 -29.5l10 -13q6 0 22.5 1t22.5 1q-26 -6 -41 31.5t6 67.5q20 31 61 38.5t64 -12.5q28 -26 31 -64t-10 -55q46 4 152 16t162 16.5t126.5 1t112.5 -20.5 q12 16 55 7t57 -40q17 -34 3.5 -73t-42.5 -50q-38 -10 -69 5t-45 40q-25 14 -69 19t-107.5 1t-110 -8.5t-125 -14.5t-102.5 -13q0 -5 -1 -18t-1 -19q17 -25 23.5 -48t10.5 -59t7 -53q13 4 51 15t50.5 14.5t44.5 12t46.5 11t42.5 7t46.5 4.5h44t50 -3.5t50.5 -9.5 q58 -12 91 -25t39 -23.5t-0.5 -20.5t-26 -17.5t-40.5 -12.5t-40 -7.5t-28 -1.5q-101 12 -195 -3t-226 -61q0 -5 4 -58t5 -68t3.5 -62t2.5 -72t-0.5 -65t-4 -74t-8.5 -68q16 -136 39 -206q86 24 144.5 32t142.5 14t167 17q7 21 45 33.5t70 -6.5q31 -20 39 -61t-12 -64 q-18 -19 -42 -26.5t-43.5 -4.5t-35.5 12q-55 -8 -204 -20.5t-233 -34.5q-14 -35 -22 -41q-15 -11 -33 -12.5t-30.5 4t-24 11t-14.5 5.5l-3 2q-35 -13 -63 -3t-31 42q-49 -36 -104 -61.5t-125 -38.5t-139 -5.5t-147 45t-148 105.5q-107 107 -162 249.5t-55 286.5zM161 678 q-28 -177 14 -326.5t140 -251.5q77 -80 164 -111.5t159 -17.5t134 50t100.5 84t47.5 92q35 159 29 387.5t-46 386.5q-3 4 -13 18t-14 19t-13.5 16.5t-16.5 17.5t-18 13.5t-23 13.5q-18 9 -43 11.5t-41 1.5t-39.5 -4t-24.5 -3q-187 -78 -184 -29q2 28 54 73q11 10 20 16 q-87 -19 -157.5 -55t-96.5 -70q-104 -155 -132 -332z" />
<glyph unicode="&#x153;" horiz-adv-x="1472" d="M79 518q20 101 85 158q58 49 138.5 79t162 36t158.5 -18.5t125 -78.5q49 -55 65 -78q31 84 118 150t183 55q96 -12 145.5 -54t157.5 -200q62 -100 23 -137q-22 -22 -47.5 -28t-44.5 12q-2 3 -94.5 -9.5t-208 -32.5t-168.5 -34q4 -68 -9 -113q24 -59 99 -91t155 -21 q145 24 224 86q88 69 95 18q5 -35 -23 -87q-7 -12 -13 -19q-26 -28 -111 -63.5t-176 -49.5q-62 -11 -164 25.5t-145 95.5q-38 -45 -79.5 -76.5t-101 -55t-139 -19t-172.5 39.5q-88 33 -151 121t-85 188t-2 201zM185 466q-12 -73 6.5 -142.5t63 -130.5t103.5 -87 q106 -41 192.5 -18t142 84.5t55.5 128.5q-6 -7 -36 -3.5t-44 17.5q-16 13 -12 51.5t30 51.5q34 16 66 0q0 49 -21 98t-35 67.5t-22 26.5q-68 59 -153 70.5t-157 -15.5t-122 -79q-45 -47 -57 -120zM868 438q60 12 175.5 31t194.5 32t77 15q-24 35 -47.5 73.5t-34.5 57 t-27.5 37t-37.5 26t-54 11.5q-104 11 -158.5 -57.5t-87.5 -225.5z" />
<glyph unicode="&#x178;" horiz-adv-x="1175" d="M59 1217q-13 45 19 83t84 25q43 -11 57 -74q42 -27 77 -56t84.5 -82t79.5 -88t112.5 -134t134.5 -160q166 369 245 516q-15 99 31 119q40 23 89.5 1.5t45.5 -73.5q-3 -29 -17.5 -52.5t-33.5 -31.5q-126 -232 -268 -577q-1 -5 10 -19.5t20 -21.5q45 -58 -4 -107 q-7 -9 -25 -7t-34 8t-31 14l-274 -557q4 -14 5 -31.5t-9.5 -38t-30.5 -33.5q-28 -13 -57 -11.5t-51.5 25t-22.5 58.5q0 41 57 68l293 618q-42 53 -111 140t-94 118t-70.5 86.5t-65.5 76t-52 53t-57 52.5t-56 41q-63 -5 -80 52zM379 1418.5q-3 38.5 22 66.5q23 26 60.5 28.5 t68.5 -20.5q27 -24 29 -60.5t-22 -64.5q-22 -28 -59 -31t-68 21q-28 22 -31 60.5zM692.5 1429.5q-2.5 37.5 20.5 65.5t60.5 30.5t68.5 -22.5q26 -23 28.5 -59.5t-20.5 -67.5q-24 -28 -61.5 -30.5t-67.5 24.5q-26 22 -28.5 59.5z" />
<glyph unicode="&#x2c6;" horiz-adv-x="921" d="M86 950q7 34 26 49t38 13q3 5 18.5 34t19 36t18 32t22 33.5t22.5 29t27.5 31t30.5 26t37.5 27.5t41.5 23q185 -68 260 -209q21 2 42 -11.5t28 -39.5q11 -40 -10.5 -71.5t-65.5 -30.5q-36 0 -52 19t-18 44l-21 31.5t-33.5 46.5t-49 44.5t-76.5 43.5q-59 -45 -88 -86 t-74 -127q6 -19 -11.5 -48t-49.5 -32q-40 -8 -66 20t-16 72z" />
<glyph unicode="&#x2dc;" horiz-adv-x="1073" d="M46.5 1267q-11.5 38 12.5 70q14 24 43 30t45 -3q74 55 164.5 85t128.5 11q15 -6 47.5 -21.5t54 -26t54 -22.5t56 -16.5t49 -4t44.5 10.5q286 156 279 106q-5 -32 -116 -123q-106 -86 -144 -95q-48 -12 -87 -13.5t-72 8t-56.5 20t-59 28.5t-59.5 28q-13 5 -26.5 8t-27.5 2 t-25 -2t-27.5 -8t-25.5 -10t-27.5 -14t-26 -15.5t-29.5 -18t-29 -17.5q-7 -23 -30 -38.5t-56 -6.5q-42 10 -53.5 48z" />
<glyph unicode="&#x2000;" horiz-adv-x="824" />
<glyph unicode="&#x2001;" horiz-adv-x="1648" />
<glyph unicode="&#x2002;" horiz-adv-x="824" />
<glyph unicode="&#x2003;" horiz-adv-x="1648" />
<glyph unicode="&#x2004;" horiz-adv-x="549" />
<glyph unicode="&#x2005;" horiz-adv-x="412" />
<glyph unicode="&#x2006;" horiz-adv-x="274" />
<glyph unicode="&#x2007;" horiz-adv-x="274" />
<glyph unicode="&#x2008;" horiz-adv-x="206" />
<glyph unicode="&#x2009;" horiz-adv-x="329" />
<glyph unicode="&#x200a;" horiz-adv-x="91" />
<glyph unicode="&#x2010;" d="M138.5 528.5q-12.5 32.5 2.5 62.5t49 40q21 6 45 -4t27 -9q135 -17 351 -11t333 36q193 50 183 12q-7 -26 -95 -74q-47 -26 -80 -36q-125 -37 -325.5 -51t-362.5 6q-3 1 -15 -7t-26 -13t-37 1q-37 15 -49.5 47.5z" />
<glyph unicode="&#x2011;" d="M138.5 528.5q-12.5 32.5 2.5 62.5t49 40q21 6 45 -4t27 -9q135 -17 351 -11t333 36q193 50 183 12q-7 -26 -95 -74q-47 -26 -80 -36q-125 -37 -325.5 -51t-362.5 6q-3 1 -15 -7t-26 -13t-37 1q-37 15 -49.5 47.5z" />
<glyph unicode="&#x2012;" d="M138.5 528.5q-12.5 32.5 2.5 62.5t49 40q21 6 45 -4t27 -9q135 -17 351 -11t333 36q193 50 183 12q-7 -26 -95 -74q-47 -26 -80 -36q-125 -37 -325.5 -51t-362.5 6q-3 1 -15 -7t-26 -13t-37 1q-37 15 -49.5 47.5z" />
<glyph unicode="&#x2013;" horiz-adv-x="974" d="M26.5 435.5q3.5 40.5 28.5 58.5q38 20 69.5 13.5t49.5 -26.5q57 -2 149.5 -7.5t144.5 -8t142 -4t140 3.5q164 11 150 -21q-11 -27 -113 -66q-29 -11 -35 -11q-67 0 -181.5 -7t-186 -9t-212.5 7q-18 -15 -57.5 -15.5t-67.5 24.5q-24 28 -20.5 68.5z" />
<glyph unicode="&#x2014;" horiz-adv-x="2336" d="M90.5 738.5q3.5 40.5 28.5 58.5q38 20 69.5 13.5t49.5 -26.5q153 -6 943.5 -14.5t929.5 -5.5q227 9 206 -23q-17 -28 -166 -67q-32 -8 -37 -8q-26 0 -517.5 -5.5t-811.5 -6.5t-549 8q-19 -15 -58 -16t-67 24q-24 28 -20.5 68.5z" />
<glyph unicode="&#x2018;" horiz-adv-x="397" d="M68.5 1102q19.5 112 97.5 178q28 24 76 41q57 20 53 -15q-3 -23 -33 -69q-26 -33 -22.5 -68t18.5 -55.5t30 -67t11 -102.5q-3 -49 -39.5 -78.5t-79.5 -25.5t-65 39q-66 111 -46.5 223z" />
<glyph unicode="&#x2019;" horiz-adv-x="446" d="M84 910l22 38q25 39 34.5 71t6 53t-8 46.5t-8.5 51.5t5 67q8 55 47 62.5t82 -20t68 -67.5q15 -24 22.5 -46t11 -40.5t-3 -39.5t-12 -36t-24 -36.5t-31.5 -35t-41 -37t-46 -38t-54 -41.5q-35 -29 -64 -25q-39 5 -6 73z" />
<glyph unicode="&#x201a;" horiz-adv-x="485" d="M130 -230q-11 21 32 101q28 49 31 87t-9 61t-26 62t-13 81q0 42 22 62t53.5 17t65 -19.5t56.5 -41.5q28 -31 41.5 -60.5t10.5 -61t-12 -58t-36 -64t-50.5 -66t-66.5 -75.5q-22 -24 -55 -35t-44 10z" />
<glyph unicode="&#x201c;" horiz-adv-x="671" d="M67.5 1000q-1.5 59 20 112t47 93t58.5 77q18 20 69 36q64 19 61 -14q-3 -26 -49 -81q-25 -29 -27 -60t10.5 -60t28.5 -57.5t26 -62.5t3 -65q-10 -56 -40.5 -81.5t-65 -21.5t-66 24t-45.5 48q-29 54 -30.5 113zM339 980.5q-11 43.5 11 93.5t54 92.5t94 111.5q26 30 60 34 q32 4 29 -29q-2 -30 -34 -85q-26 -38 -23 -72t17 -52.5t30 -55t15 -78.5q0 -56 -37 -79.5t-84.5 -13t-79.5 43.5q-41 46 -52 89.5z" />
<glyph unicode="&#x201d;" horiz-adv-x="671" d="M89 835q-11 21 32 101q28 49 31 87t-9 61t-26 62t-13 81q0 42 22 62t53.5 17t65 -19.5t56.5 -41.5q28 -31 41.5 -60.5t10.5 -61t-12 -58t-36 -64t-50.5 -66t-66.5 -75.5q-22 -24 -55 -35t-44 10zM346 830q4 28 55 85q29 33 31.5 74.5t-11.5 77t-24.5 82.5t-3.5 84 q10 55 42.5 82t68 24t67 -28t41.5 -64q35 -122 9.5 -203.5t-138.5 -187.5q-35 -29 -89 -43q-52 -13 -48 17z" />
<glyph unicode="&#x201e;" horiz-adv-x="770" d="M130 -210q-11 21 32 101q28 49 31 87t-9 61t-26 62t-13 81q0 42 22 62t53.5 17t65 -19t56.5 -41q28 -31 41.5 -60.5t10.5 -61t-12 -58t-36 -64t-50.5 -66t-66.5 -75.5q-22 -24 -55 -35.5t-44 9.5zM387 -214q3 26 55 85q29 33 31.5 74.5t-11.5 76.5t-24.5 82t-3.5 84 q10 55 42.5 82t68 24t67 -27.5t41.5 -63.5q35 -122 9.5 -203.5t-138.5 -187.5q-35 -29 -89 -43q-52 -13 -48 17z" />
<glyph unicode="&#x2022;" horiz-adv-x="1368" d="M189 772q7 129 77 244t178 178q89 53 173.5 74.5t155 12t127.5 -35t108 -67.5q104 -85 143 -212.5t4 -257.5t-137 -223q-45 -41 -121 -73.5t-167 -45.5t-180.5 -6.5t-169.5 48t-126 114.5q-72 121 -65 250z" />
<glyph unicode="&#x2026;" horiz-adv-x="1153" d="M57.5 74.5q-2.5 37.5 20.5 68.5q22 27 60.5 28.5t66.5 -24.5q26 -22 29 -58.5t-19 -65.5q-24 -28 -61 -31.5t-68 22.5q-26 23 -28.5 60.5zM467 103.5q-3 37.5 20 68.5q22 26 60.5 28.5t66.5 -22.5q26 -23 29.5 -59.5t-18.5 -65.5q-23 -28 -60.5 -31t-68.5 21 q-26 23 -29 60.5zM837.5 45.5q-2.5 36.5 20.5 67.5q22 25 65.5 27t71.5 -21q25 -23 24 -58.5t-24 -66.5q-23 -28 -60.5 -31t-68.5 21q-26 25 -28.5 61.5z" />
<glyph unicode="&#x202f;" horiz-adv-x="329" />
<glyph unicode="&#x2039;" horiz-adv-x="522" d="M97.5 504q-2.5 16 3 58t13.5 62t31.5 72.5t45.5 91.5t65 117q1 41 28 71t58 28q33 -2 66.5 -33.5t25.5 -85.5q-3 -24 -33.5 -47.5t-58.5 -16.5q-44 -79 -65.5 -120.5t-38 -90t-19.5 -73t4.5 -69.5t19.5 -80t38 -105q18 -48 28 -76q32 -4 51 -39t7 -66q-17 -43 -61 -62 t-79 1q-45 25 -30 109q-16 54 -37 121.5t-31.5 95t-19.5 74.5t-11.5 63z" />
<glyph unicode="&#x203a;" horiz-adv-x="522" d="M45 109q3 21 32 41.5t48 17.5q33 60 55 103.5t37.5 87.5t23 74.5t7.5 70t-4 68.5t-17.5 76.5t-27.5 86.5t-38 107q-1 2 -1.5 4t-1.5 4q-30 18 -43.5 46t-1.5 58q17 42 63 52t76 -17q39 -33 27 -102q11 -36 30 -100q76 -231 63 -333.5t-161 -369.5q-1 -39 -29 -63.5 t-61 -22.5q-32 2 -58 29t-18 82z" />
<glyph unicode="&#x205f;" horiz-adv-x="412" />
<glyph unicode="&#x2122;" horiz-adv-x="1906" d="M36.5 1295.5q-9.5 40.5 16.5 68.5q10 11 27 14.5t28.5 2t32.5 -6.5l21 -4q34 2 87.5 10t88.5 10t133 -1q-12 35 0 65q10 37 54 44t71 -19q28 -28 14 -88q80 1 191.5 18t154.5 18q1 7 2.5 23t3.5 25.5t9.5 20t21.5 13.5q39 9 57.5 -6t49.5 -68q4 -7 6 -10l11 -16.5l10 -15 t8 -14.5t4 -15.5t-2 -17.5q18 -45 33.5 -89.5t26.5 -76t23 -76t17.5 -64t15.5 -67l12 -57t12 -63t11 -58.5q38 228 75.5 347t129.5 290q0 1 3 8.5t6 13t7.5 15t9.5 16.5t11.5 14t14.5 11.5t16 5.5q32 6 77 -29q29 -31 68 -195.5t81.5 -386t59.5 -289.5q2 -5 8.5 -12.5 t11.5 -15t9 -17t3 -21t-9 -24.5q-15 -37 -58 -46.5t-69 16.5q-19 17 -25 38t-3 35t9 25q-43 159 -72 345t-42 282t-27 100q-24 -44 -43.5 -87t-37 -93t-29 -84t-27 -96t-22 -90.5t-24 -106.5t-24.5 -107q-1 -7 -2.5 -42t-4.5 -64t-9 -33q-27 -20 -67.5 0.5t-51.5 54.5 q-47 125 -96.5 303.5t-74.5 295.5l-26 116q-20 -43 -39.5 -126t-33 -161.5t-36 -217.5t-38.5 -226q1 -1 3 -7t3 -8t3 -8t2 -8.5t0.5 -8t0 -9t-2 -9t-4 -10t-6.5 -10t-9 -10.5q-28 -30 -69 -25t-58 39q-33 57 20 97q21 120 46 286t43 262.5t44 176.5q-26 -2 -131 -17 t-178 -16q0 -82 12.5 -306t8.5 -356q17 -10 22 -38.5t-6 -53.5q-17 -35 -58 -43.5t-69 17.5q-6 6 -9.5 13.5t-5 16.5t-1.5 17t1.5 18.5t2.5 16t3.5 14.5t2.5 10q-2 146 -14.5 366t-12.5 308q-79 0 -130 -3.5t-97.5 -10t-79.5 -9.5q-12 -12 -40 -17t-54 5q-34 18 -43.5 58.5z " />
<glyph unicode="&#x25fc;" horiz-adv-x="890" d="M0 0v891h891v-891h-891z" />
<glyph unicode="&#xfb01;" horiz-adv-x="819" d="M33.5 670q-5.5 44 25.5 65q10 7 21.5 9.5t23 0.5t18 -3.5t18 -6t12.5 -4.5q18 1 70 -0.5t75 -1.5q-11 66 -32 155.5t-37 152.5t-27 135.5t-7 123t30 95.5t77 71q65 4 108 -1.5t77 -17.5t67.5 -47t61 -73.5t75.5 -114.5q22 -12 34.5 -35t4.5 -53q-8 -33 -46.5 -48t-70.5 3 q-32 16 -32 84q-32 63 -58.5 102t-50.5 56t-40 22.5t-42.5 8.5t-42.5 8q-42 -29 -45.5 -96t15.5 -138t50 -188.5t44 -200.5q151 0 223 10q24 19 52 19.5t50 -19.5q22 -25 21.5 -58t-13.5 -48q-27 -270 -27 -363t23 -219q37 -53 17 -88q-20 -36 -60.5 -43t-66.5 19 q-21 25 -21 55.5t13 48.5q-23 157 -20 286.5t28 307.5q-122 -16 -203 -16q23 -143 33.5 -329.5t-0.5 -250.5q11 -15 15 -40.5t-7 -53.5q-19 -33 -58 -42t-67 15q-31 31 -6 107q15 61 7 251t-30 339q-32 0 -81.5 1t-65.5 1q-53 -37 -94 -15q-33 18 -38.5 62zM591.5 908.5 q-4.5 38.5 20.5 66.5q22 26 60.5 28.5t66.5 -20.5q26 -23 29.5 -59.5t-18.5 -65.5q-24 -28 -59.5 -32t-65.5 22q-29 22 -33.5 60.5z" />
<glyph unicode="&#xfb02;" horiz-adv-x="905" d="M68 703q23 12 88 12q28 0 70 7t71 7q-11 66 -32 155.5t-37 152.5t-27 135.5t-7 123t30 95.5t77 71q76 4 128.5 -9.5t85.5 -47t50.5 -71t34.5 -97.5q22 -12 34.5 -35t4.5 -53q-8 -33 -46.5 -48t-70.5 3q-33 17 -33 84q-18 85 -48.5 117t-94.5 51q-42 -29 -45.5 -96 t15.5 -138t50 -188.5t44 -200.5q36 0 71 4.5t78 16.5t77.5 39t51.5 65q9 19 12.5 39.5t3 34t-3 39t-2.5 39.5q-1 26 -15 79.5t-7 88.5q15 79 52 113.5t81.5 30t99.5 -35.5q48 -26 57 -81.5t-7 -104.5t-41 -82q-16 -22 -54 -63.5t-55 -73.5q-18 -278 -19.5 -553t15.5 -375 q13 -19 19 -41.5t-3 -46.5q-20 -36 -60.5 -43t-66.5 18q-21 25 -21 56t13 49q-28 172 0 778q-75 -98 -260 -98q23 -143 33.5 -329.5t-0.5 -250.5q11 -15 15 -40.5t-7 -53.5q-19 -33 -58 -42t-67 15q-31 31 -6 107q15 61 7 251t-30 339q-100 0 -155 2q-29 1 -72 29 q-53 34 -18 51zM770 1133q0 -20 3.5 -34t9.5 -34t8 -27q2 2 15.5 14.5t17.5 16.5t14.5 15t15 17.5t11 16.5t9 19t3.5 18q2 23 -21.5 47t-46.5 15q-6 -2 -10.5 -5t-8 -9t-5 -9.5t-5 -13t-4.5 -11.5q-6 -16 -6 -36z" />
</font>
</defs>
</svg>
